<?xml version="1.0" encoding="UTF-8" standalone="no"?>
<!-- Created with Inkscape (http://www.inkscape.org/) -->

<svg
   xmlns:dc="http://purl.org/dc/elements/1.1/"
   xmlns:cc="http://creativecommons.org/ns#"
   xmlns:rdf="http://www.w3.org/1999/02/22-rdf-syntax-ns#"
   xmlns:svg="http://www.w3.org/2000/svg"
   xmlns="http://www.w3.org/2000/svg"
   xmlns:xlink="http://www.w3.org/1999/xlink"
   xmlns:sodipodi="http://sodipodi.sourceforge.net/DTD/sodipodi-0.dtd"
   xmlns:inkscape="http://www.inkscape.org/namespaces/inkscape"
   sodipodi:docname="bevelgear.svg"
   inkscape:version="0.48.4 r9939"
   version="1.1"
   id="svg3799"
   height="64px"
   width="64px">
  <sodipodi:namedview
     id="base"
     pagecolor="#ffffff"
     bordercolor="#666666"
     borderopacity="1.0"
     inkscape:pageopacity="0.0"
     inkscape:pageshadow="2"
     inkscape:zoom="11"
     inkscape:cx="24.244492"
     inkscape:cy="31.611994"
     inkscape:current-layer="svg3799"
     showgrid="true"
     inkscape:document-units="px"
     inkscape:grid-bbox="true"
     inkscape:snap-center="false"
     showguides="true"
     inkscape:guide-bbox="true"
     inkscape:window-width="1317"
     inkscape:window-height="744"
     inkscape:window-x="49"
     inkscape:window-y="24"
     inkscape:window-maximized="1"
     inkscape:object-paths="true"
     inkscape:object-nodes="true"
     inkscape:snap-intersection-paths="true"
     inkscape:snap-nodes="false">
    <sodipodi:guide
       id="guide3783"
       position="32,32"
       orientation="1,0" />
    <sodipodi:guide
       id="guide3785"
       position="32,32"
       orientation="0,1" />
    <sodipodi:guide
       id="guide9301"
       position="0,0"
       orientation="1,0" />
    <sodipodi:guide
       id="guide9303"
       position="0,0"
       orientation="0,1" />
    <sodipodi:guide
       id="guide9305"
       position="0,64"
       orientation="0,1" />
    <sodipodi:guide
       id="guide9307"
       position="64,64"
       orientation="1,0" />
  </sodipodi:namedview>
  <defs
     id="defs3801">
    <inkscape:path-effect
       is_visible="true"
       id="path-effect9409"
       effect="spiro" />
    <inkscape:path-effect
       is_visible="true"
       id="path-effect9405"
       effect="spiro" />
    <inkscape:path-effect
       is_visible="true"
       id="path-effect9398"
       effect="spiro" />
    <inkscape:path-effect
       is_visible="true"
       id="path-effect9390"
       effect="spiro" />
    <inkscape:path-effect
       is_visible="true"
       id="path-effect9384"
       effect="spiro" />
    <linearGradient
       id="linearGradient9347"
       inkscape:collect="always">
      <stop
         id="stop9349"
         offset="0"
         style="stop-color:#0079ff;stop-opacity:1;" />
      <stop
         id="stop9351"
         offset="1"
         style="stop-color:#0079ff;stop-opacity:0" />
    </linearGradient>
    <marker
       style="overflow:visible"
       id="Arrow2Mstart"
       refX="0.0"
       refY="0.0"
       orient="auto"
       inkscape:stockid="Arrow2Mstart">
      <path
         transform="scale(0.6) translate(0,0)"
         d="M 8.7185878,4.0337352 L -2.2072895,0.016013256 L 8.7185884,-4.0017078 C 6.9730900,-1.6296469 6.9831476,1.6157441 8.7185878,4.0337352 z "
         style="fill-rule:evenodd;stroke-width:0.62500000;stroke-linejoin:round"
         id="path4317" />
    </marker>
    <marker
       style="overflow:visible;"
       id="Arrow1Mend"
       refX="0.0"
       refY="0.0"
       orient="auto"
       inkscape:stockid="Arrow1Mend">
      <path
         transform="scale(0.4) rotate(180) translate(10,0)"
         style="fill-rule:evenodd;stroke:#000000;stroke-width:1.0pt;"
         d="M 0.0,0.0 L 5.0,-5.0 L -12.5,0.0 L 5.0,5.0 L 0.0,0.0 z "
         id="path4302" />
    </marker>
    <marker
       style="overflow:visible;"
       id="Arrow2Mend"
       refX="0.0"
       refY="0.0"
       orient="auto"
       inkscape:stockid="Arrow2Mend">
      <path
         transform="scale(0.6) rotate(180) translate(0,0)"
         d="M 8.7185878,4.0337352 L -2.2072895,0.016013256 L 8.7185884,-4.0017078 C 6.9730900,-1.6296469 6.9831476,1.6157441 8.7185878,4.0337352 z "
         style="fill-rule:evenodd;stroke-width:0.62500000;stroke-linejoin:round;"
         id="path4320" />
    </marker>
    <marker
       style="overflow:visible"
       id="Arrow1Mstart"
       refX="0.0"
       refY="0.0"
       orient="auto"
       inkscape:stockid="Arrow1Mstart">
      <path
         transform="scale(0.4) translate(10,0)"
         style="fill-rule:evenodd;stroke:#000000;stroke-width:1.0pt"
         d="M 0.0,0.0 L 5.0,-5.0 L -12.5,0.0 L 5.0,5.0 L 0.0,0.0 z "
         id="path4299" />
    </marker>
    <marker
       style="overflow:visible;"
       id="Arrow1Lend"
       refX="0.0"
       refY="0.0"
       orient="auto"
       inkscape:stockid="Arrow1Lend">
      <path
         transform="scale(0.8) rotate(180) translate(12.5,0)"
         style="fill-rule:evenodd;stroke:#000000;stroke-width:1.0pt;"
         d="M 0.0,0.0 L 5.0,-5.0 L -12.5,0.0 L 5.0,5.0 L 0.0,0.0 z "
         id="path4296" />
    </marker>
    <marker
       style="overflow:visible;"
       id="Arrow2Lend"
       refX="0.0"
       refY="0.0"
       orient="auto"
       inkscape:stockid="Arrow2Lend">
      <path
         transform="scale(1.1) rotate(180) translate(1,0)"
         d="M 8.7185878,4.0337352 L -2.2072895,0.016013256 L 8.7185884,-4.0017078 C 6.9730900,-1.6296469 6.9831476,1.6157441 8.7185878,4.0337352 z "
         style="fill-rule:evenodd;stroke-width:0.62500000;stroke-linejoin:round;"
         id="path4314" />
    </marker>
    <marker
       style="overflow:visible"
       id="EmptyTriangleOutL"
       refX="0.0"
       refY="0.0"
       orient="auto"
       inkscape:stockid="EmptyTriangleOutL">
      <path
         transform="scale(0.8) translate(-6,0)"
         style="fill-rule:evenodd;fill:#FFFFFF;stroke:#000000;stroke-width:1.0pt"
         d="M 5.77,0.0 L -2.88,5.0 L -2.88,-5.0 L 5.77,0.0 z "
         id="path4487" />
    </marker>
    <marker
       style="overflow:visible"
       id="DotS"
       refX="0.0"
       refY="0.0"
       orient="auto"
       inkscape:stockid="DotS">
      <path
         transform="scale(0.2) translate(7.4, 1)"
         style="fill-rule:evenodd;stroke:#000000;stroke-width:1.0pt"
         d="M -2.5,-1.0 C -2.5,1.7600000 -4.7400000,4.0 -7.5,4.0 C -10.260000,4.0 -12.5,1.7600000 -12.5,-1.0 C -12.5,-3.7600000 -10.260000,-6.0 -7.5,-6.0 C -4.7400000,-6.0 -2.5,-3.7600000 -2.5,-1.0 z "
         id="path4394" />
    </marker>
    <marker
       style="overflow:visible"
       id="DotL"
       refX="0.0"
       refY="0.0"
       orient="auto"
       inkscape:stockid="DotL">
      <path
         transform="scale(0.8) translate(7.4, 1)"
         style="fill-rule:evenodd;stroke:#000000;stroke-width:1.0pt"
         d="M -2.5,-1.0 C -2.5,1.7600000 -4.7400000,4.0 -7.5,4.0 C -10.260000,4.0 -12.5,1.7600000 -12.5,-1.0 C -12.5,-3.7600000 -10.260000,-6.0 -7.5,-6.0 C -4.7400000,-6.0 -2.5,-3.7600000 -2.5,-1.0 z "
         id="path4388" />
    </marker>
    <marker
       style="overflow:visible"
       id="Tail"
       refX="0.0"
       refY="0.0"
       orient="auto"
       inkscape:stockid="Tail">
      <g
         transform="scale(-1.2)"
         id="g4363">
        <path
           style="fill:none;fill-rule:evenodd;stroke:#000000;stroke-width:0.8;stroke-linecap:round"
           d="M -3.8048674,-3.9585227 L 0.54352094,0"
           id="path4365" />
        <path
           style="fill:none;fill-rule:evenodd;stroke:#000000;stroke-width:0.8;stroke-linecap:round"
           d="M -1.2866832,-3.9585227 L 3.0617053,0"
           id="path4367" />
        <path
           style="fill:none;fill-rule:evenodd;stroke:#000000;stroke-width:0.8;stroke-linecap:round"
           d="M 1.3053582,-3.9585227 L 5.6537466,0"
           id="path4369" />
        <path
           style="fill:none;fill-rule:evenodd;stroke:#000000;stroke-width:0.8;stroke-linecap:round"
           d="M -3.8048674,4.1775838 L 0.54352094,0.21974226"
           id="path4371" />
        <path
           style="fill:none;fill-rule:evenodd;stroke:#000000;stroke-width:0.8;stroke-linecap:round"
           d="M -1.2866832,4.1775838 L 3.0617053,0.21974226"
           id="path4373" />
        <path
           style="fill:none;fill-rule:evenodd;stroke:#000000;stroke-width:0.8;stroke-linecap:round"
           d="M 1.3053582,4.1775838 L 5.6537466,0.21974226"
           id="path4375" />
      </g>
    </marker>
    <marker
       style="overflow:visible"
       id="Arrow1Sstart"
       refX="0.0"
       refY="0.0"
       orient="auto"
       inkscape:stockid="Arrow1Sstart">
      <path
         transform="scale(0.2) translate(6,0)"
         style="fill-rule:evenodd;stroke:#000000;stroke-width:1.0pt"
         d="M 0.0,0.0 L 5.0,-5.0 L -12.5,0.0 L 5.0,5.0 L 0.0,0.0 z "
         id="path4339" />
    </marker>
    <marker
       style="overflow:visible"
       id="Arrow1Lstart"
       refX="0.0"
       refY="0.0"
       orient="auto"
       inkscape:stockid="Arrow1Lstart">
      <path
         transform="scale(0.8) translate(12.5,0)"
         style="fill-rule:evenodd;stroke:#000000;stroke-width:1.0pt"
         d="M 0.0,0.0 L 5.0,-5.0 L -12.5,0.0 L 5.0,5.0 L 0.0,0.0 z "
         id="path4327" />
    </marker>
    <marker
       style="overflow:visible"
       id="Arrow1Mstart-9"
       refX="0"
       refY="0"
       orient="auto"
       inkscape:stockid="Arrow1Mstart">
      <path
         transform="matrix(0.4,0,0,0.4,4,0)"
         style="fill-rule:evenodd;stroke:#000000;stroke-width:1pt"
         d="M 0,0 5,-5 -12.5,0 5,5 0,0 z"
         id="path4299-1"
         inkscape:connector-curvature="0" />
    </marker>
    <marker
       style="overflow:visible"
       id="Arrow2Mend-7"
       refX="0"
       refY="0"
       orient="auto"
       inkscape:stockid="Arrow2Mend">
      <path
         transform="scale(-0.6,-0.6)"
         d="M 8.7185878,4.0337352 -2.2072895,0.01601326 8.7185884,-4.0017078 c -1.7454984,2.3720609 -1.7354408,5.6174519 -6e-7,8.035443 z"
         style="fill-rule:evenodd;stroke-width:0.625;stroke-linejoin:round"
         id="path4320-8"
         inkscape:connector-curvature="0" />
    </marker>
    <linearGradient
       gradientUnits="userSpaceOnUse"
       y2="47.081963"
       x2="1.8271284"
       y1="40.800289"
       x1="-21.345743"
       id="linearGradient9353"
       xlink:href="#linearGradient9347"
       inkscape:collect="always" />
  </defs>
  <metadata
     id="metadata3804">
    <rdf:RDF>
      <cc:Work
         rdf:about="">
        <dc:format>image/svg+xml</dc:format>
        <dc:type
           rdf:resource="http://purl.org/dc/dcmitype/StillImage" />
        <dc:title />
      </cc:Work>
    </rdf:RDF>
  </metadata>
  <g
     inkscape:groupmode="layer"
     inkscape:label="Layer 1"
     id="layer1">
    <rect
       ry="15.401461"
       y="1.4630233e-07"
       x="0.18181612"
       height="63.986015"
       width="63.804237"
       id="rect3156"
       style="fill:#ffbf00;stroke:none;fill-opacity:1" />
  </g>
  <path
     style="fill:none;stroke:none;stroke-width:1px;stroke-linecap:butt;stroke-linejoin:miter;stroke-opacity:1"
     d="m 25.499121,10.835687 22.664624,5.383167 0.697906,0.844227 -22.442246,-5.114165 z"
     id="path3314"
     inkscape:connector-curvature="0" />
  <path
     style="fill:#000000"
     d="m 21.674522,57.801795 c -0.210114,-0.337679 -0.358498,-1.403681 -0.330239,-2.372492 l 0.05131,-1.759283 0.202619,1.831454 0.202613,1.831462 0.05131,-2.38365 c 0.02823,-1.311011 -0.06315,-2.3129 -0.203054,-2.226436 -0.139903,0.08651 -0.25437,-0.04281 -0.25437,-0.28723 0,-0.244438 0.114469,-0.44443 0.25437,-0.44443 0.139905,0 0.25437,-0.358099 0.25437,-0.79577 0,-0.58194 -0.123036,-0.748552 -0.457864,-0.620064 -0.278904,0.107021 -0.457865,6.1e-4 -0.457865,-0.272583 0,-0.246559 0.137359,-0.448287 0.305243,-0.448287 0.167883,0 0.305243,-0.480758 0.305243,-1.068349 l 0,-1.06835 -2.136699,0 -2.136699,0 0.03612,-0.992038 0.03612,-0.99204 0.233013,0.915729 c 0.231908,0.911384 0.233184,0.910297 0.269126,-0.228932 0.03509,-1.11178 0.641914,-1.680608 0.651276,-0.610486 0.004,0.456506 0.0477,0.467602 0.300568,0.0763 0.224537,-0.347446 0.297022,-0.218622 0.300569,0.534175 0.0025,0.54562 0.142036,0.992038 0.309917,0.992038 0.167883,0 0.305243,-0.549437 0.305243,-1.22097 0,-1.183393 0.03053,-1.219565 0.992037,-1.175238 0.923339,0.04257 0.933909,0.05453 0.152618,0.172896 -0.728057,0.11029 -0.839418,0.266205 -0.839418,1.175236 l 0,1.048076 1.755145,0.02408 c 0.965331,0.01319 1.583448,0.09338 1.373592,0.178058 -0.209854,0.08468 -0.381554,0.554591 -0.381554,1.04425 0,0.781238 0.109698,0.890292 0.895454,0.890292 0.74773,0 0.912899,-0.138479 1.001198,-0.839416 0.09276,-0.736361 0.125198,-0.698886 0.264224,0.305241 l 0.158481,1.144661 -1.139403,0 c -1.008663,0 -1.153995,0.09632 -1.266565,0.839417 l -0.127161,0.839417 -0.108869,-0.915729 c -0.05987,-0.503649 -0.183479,0.976041 -0.274669,3.288211 -0.139214,3.529821 -0.226979,4.105613 -0.547351,3.590746 z m 0.644559,-9.626144 c 0.09665,-0.251825 0.04265,-0.457864 -0.119969,-0.457864 -0.162611,0 -0.295659,0.206039 -0.295659,0.457864 0,0.251824 0.05398,0.457864 0.119967,0.457864 0.06599,0 0.199029,-0.20604 0.295664,-0.457864 z m -3.564783,-1.430826 c -0.09744,-0.2435 -0.16977,-0.171173 -0.184415,0.18442 -0.01319,0.321774 0.05889,0.502059 0.16032,0.400629 0.101432,-0.101432 0.112267,-0.364703 0.0241,-0.585049 z m 3.867987,9.061891 c -9.17e-4,-1.510944 0.05068,-2.167548 0.114706,-1.459113 0.06403,0.708436 0.06477,1.944671 0.0019,2.747189 -0.06308,0.802509 -0.115441,0.222878 -0.116376,-1.288076 z m 2.638837,-0.763106 c 0,-1.734794 0.07622,-3.077952 0.169383,-2.984791 0.217959,0.217956 0.213801,5.755786 -0.0045,5.974073 -0.09069,0.0907 -0.1649,-1.254488 -0.1649,-2.989282 z m -0.08205,-3.943686 c -0.132774,-0.507725 -0.09306,-0.6269 0.133463,-0.400389 0.177376,0.177377 0.262445,0.502679 0.189041,0.722894 -0.0762,0.228611 -0.214569,0.09025 -0.322506,-0.322505 z m -0.757371,-3.600767 c 0.461679,-0.06993 1.217156,-0.06993 1.678835,0 0.461678,0.06994 0.08394,0.12716 -0.839417,0.12716 -0.92336,0 -1.301096,-0.05723 -0.839418,-0.12716 z m 2.730381,-0.544476 c 0.0063,-0.503652 0.07464,-0.672737 0.152019,-0.375745 0.07739,0.296992 0.0723,0.709069 -0.01137,0.915727 -0.08362,0.20666 -0.146944,-0.03633 -0.140718,-0.539982 z m 2.099593,0.610485 c -0.04635,-0.167885 -0.05981,-0.751659 -0.02994,-1.297282 l 0.0543,-0.992038 -3.762607,-0.04198 -3.762611,-0.04198 2.899804,-0.27592 c 1.594894,-0.151759 3.547633,-0.222157 4.339419,-0.156445 0.791788,0.06571 1.36746,0.0027 1.279266,-0.139965 -0.08819,-0.142695 -1.216772,-0.287075 -2.507962,-0.320845 -1.98987,-0.05203 -1.789439,-0.0892 1.315296,-0.243844 3.510987,-0.174886 3.561631,-0.18666 1.220972,-0.283872 l -2.441942,-0.101409 1.831456,-0.254538 c 1.007301,-0.139997 3.685805,-0.248423 5.952233,-0.24095 2.266426,0.0075 4.395493,-0.100355 4.731261,-0.239616 0.351895,-0.145946 -3.462316,-0.320624 -9.00466,-0.412373 l -9.615143,-0.159172 9.869511,-0.06976 c 7.735521,-0.05467 9.842012,-0.152264 9.74233,-0.451309 -0.06996,-0.209853 -0.287438,-0.381554 -0.4833,-0.381554 -0.195865,0 -0.364436,-0.137359 -0.374601,-0.305242 -0.0286,-0.47226 -1.2423,-1.659413 -1.624557,-1.589017 -0.187573,0.03453 -0.314021,-0.08694 -0.280995,-0.269939 0.07925,-0.439191 -2.807613,-3.27203 -3.427082,-3.362947 -0.382123,-0.05608 -0.408286,0.01867 -0.125703,0.359167 0.196273,0.2365 0.482062,0.35262 0.635082,0.258047 0.153015,-0.09458 0.240475,-0.0557 0.194347,0.08639 -0.139367,0.429278 2.915667,3.782467 3.130071,3.435553 0.126993,-0.20549 0.337682,-0.150978 0.589598,0.152571 0.307399,0.370392 0.309987,0.472311 0.01196,0.472311 -0.303162,0 -0.303162,0.09256 0,0.457863 0.239623,0.288725 0.260083,0.457866 0.05539,0.457866 -0.178531,0 -0.410881,-0.139598 -0.51633,-0.310222 -0.105447,-0.170622 -0.310105,-0.237061 -0.454787,-0.147649 -0.26783,0.165528 -0.705994,-0.348721 -0.795203,-0.933288 -0.08523,-0.55853 -2.63032,-3.181582 -2.91581,-3.005138 -0.149749,0.09255 -0.234524,-0.0025 -0.188396,-0.211018 0.04613,-0.208607 -0.227616,-0.541755 -0.608327,-0.740327 -0.380712,-0.198571 -0.792789,-0.472201 -0.915727,-0.608068 -0.122943,-0.135871 -0.0175,-0.13831 0.234337,-0.0053 0.251826,0.132882 -0.247329,-0.479983 -1.10923,-1.361901 -2.563303,-2.622836 -2.41515,-1.600171 0.207012,1.428951 1.335638,1.542922 2.428433,2.899197 2.428433,3.013938 0,0.114742 0.624081,0.757959 1.386851,1.429375 0.762766,0.671419 1.319462,1.288146 1.237099,1.370509 -0.3245,0.324501 -2.101986,-1.460113 -4.936455,-4.956241 -1.63333,-2.0146 -3.017428,-3.720145 -3.075778,-3.790098 -0.05835,-0.06995 -0.186976,-0.04629 -0.285844,0.05256 -0.09886,0.09886 0.175853,0.703084 0.610485,1.342702 0.434635,0.63962 0.790242,1.413888 0.790242,1.720588 0,0.306706 0.128633,0.478145 0.285854,0.380978 0.350074,-0.21636 3.424785,4.700352 3.183526,5.090717 -0.173748,0.281125 -1.332681,-0.581762 -1.332681,-0.992253 0,-0.235289 -1.172662,-2.200546 -3.317841,-5.560351 C 28.546378,33.211423 28.097948,32.761 27.523046,32.761 c -0.404661,0 -0.735745,0.079 -0.735745,0.175567 0,0.09655 0.549437,1.100406 1.22097,2.230766 0.671535,1.130359 1.220971,2.295692 1.220971,2.589628 0,0.3009 0.142312,0.446485 0.325658,0.333167 0.179113,-0.110692 0.300196,-0.01578 0.269076,0.21092 -0.126701,0.922965 0.03909,1.480533 0.440219,1.480533 0.257856,0 0.473425,0.419351 0.549193,1.06835 0.0686,0.587592 0.08285,1.06835 0.03169,1.06835 -0.05118,0 -1.075556,-2.06039 -2.276393,-4.57864 C 26.685118,33.389647 26.288525,32.761 25.680183,32.761 c -0.424185,0 -0.657685,0.152035 -0.586009,0.381553 1.052687,3.3709 1.558371,4.772494 1.926407,5.339391 0.244388,0.376442 0.360956,0.901744 0.259036,1.16734 -0.101918,0.265593 0.02509,0.693285 0.282219,0.950424 0.374956,0.374957 0.393072,0.557229 0.09149,0.920612 -0.328937,0.39634 -0.427658,0.382731 -0.788259,-0.108655 -0.226729,-0.308959 -0.349833,-0.802117 -0.273572,-1.095913 0.07626,-0.293797 0.04066,-0.534175 -0.07911,-0.534175 -0.119769,0 -0.537401,-1.270573 -0.928057,-2.823495 -0.936157,-3.721388 -1.131284,-4.197087 -1.721584,-4.197087 -0.436531,0 -0.472488,0.309687 -0.292406,2.518253 0.11293,1.385038 0.229801,3.158022 0.259709,3.939962 0.0299,0.781941 0.158088,1.357609 0.28485,1.279266 0.126762,-0.07835 0.230476,0.125688 0.230476,0.453399 0,0.678142 -0.799163,1.12059 -1.025389,0.567698 -0.10701,-0.261511 -0.248253,-0.235121 -0.500247,0.09347 -0.267189,0.348396 -0.304029,-0.516705 -0.15408,-3.618389 0.108371,-2.241939 0.27019,-4.266832 0.359572,-4.49976 0.162947,-0.424631 -0.691538,-0.960653 -1.015292,-0.636898 -0.123894,0.123894 -1.886154,8.315815 -1.93265,8.98398 -0.01612,0.231602 -1.226282,0.02977 -1.226282,-0.204522 0,-0.154456 0.495088,-1.974466 1.100198,-4.044466 0.605107,-2.069996 1.17419,-4.017866 1.264621,-4.328594 0.124983,-0.429461 0.02583,-0.538668 -0.413399,-0.455318 -0.397787,0.07548 -0.872314,0.84471 -1.522957,2.468766 -0.519819,1.297517 -1.056939,2.257881 -1.193597,2.134153 -0.136653,-0.123741 -0.163671,-0.07594 -0.06002,0.106216 0.301693,0.530213 -0.449949,2.65985 -0.774615,2.19472 -0.174263,-0.249651 -0.200703,-0.137589 -0.07375,0.312533 0.236344,0.837926 -0.540242,2.173293 -1.309634,2.251967 -0.289926,0.02964 0.434374,0.142742 1.609562,0.251339 1.348985,0.124661 -0.502141,0.217312 -5.021244,0.25134 -5.3562361,0.04033 -7.0703863,0.141453 -6.8101099,0.401733 0.2401183,0.24012 2.6457631,0.353662 7.7684259,0.366664 4.081327,0.0103 6.356062,0.06565 5.054964,0.122867 -2.653846,0.116719 -3.266526,0.688848 -0.737669,0.688848 1.250294,0 1.627962,0.107211 1.627962,0.462151 0,0.361393 -0.229121,0.41917 -1.050901,0.265001 -0.720863,-0.135242 -1.129331,-0.07025 -1.30063,0.206919 -0.206412,0.33398 -0.690376,0.335863 -2.790068,0.01089 C 10.629892,44.749737 5.8873779,43.796152 4.9602344,43.443653 4.261193,43.177877 4.2143437,43.069151 4.5343814,42.455345 4.9880635,41.58522 9.1271911,37.636026 9.4053186,37.807921 c 0.1137472,0.0703 0.4655464,-0.178005 0.7817794,-0.551784 l 0.574969,-0.679608 -0.757848,0.610484 c -0.7337889,0.59111 -0.7434786,0.591502 -0.3052418,0.01227 0.7150288,-0.944988 2.5207288,-2.462653 2.8202598,-2.370386 0.14975,0.04613 0.19392,-0.04292 0.09815,-0.1979 -0.09577,-0.154973 0.223838,-0.707812 0.710264,-1.228533 0.881522,-0.943686 0.894962,-0.946774 4.119609,-0.946774 l 3.235205,0 0,-0.929674 0,-0.929675 2.047675,0.09025 c 1.900274,0.08376 2.060564,0.145195 2.226768,0.853363 0.176938,0.753901 0.217598,0.763107 3.370382,0.763107 l 3.191288,0 0.06003,-1.831457 c 0.03301,-1.007301 -0.01778,-2.421075 -0.112918,-3.141722 -0.147664,-1.118652 -0.268034,-1.297208 -0.823139,-1.22097 -0.619437,0.08507 -0.650194,-0.03345 -0.650194,-2.505267 0,-2.458263 0.03607,-2.599689 0.686798,-2.692104 0.660441,-0.09381 0.686797,-0.215801 0.686797,-3.179227 l 0,-3.081684 4.960192,-5.0623256 c 2.728107,-2.7842786 5.062368,-5.1078313 5.187248,-5.1634465 0.475854,-0.2119312 1.846093,4.7058386 2.664711,9.5636431 0.476047,2.824941 0.569449,3.060301 1.253251,3.158105 0.406376,0.05812 0.848712,0.298499 0.982966,0.534173 0.134261,0.235672 0.565813,0.428498 0.959018,0.428498 0.611838,0 0.753495,0.209054 0.982475,1.449902 l 0.267555,1.449902 1.825855,0.0027 c 2.203757,0.0033 2.588958,-0.09278 2.588958,-0.64589 0,-0.611707 2.400944,-0.58197 2.636798,0.03267 0.143278,0.373359 0.883258,0.457863 4.009452,0.457863 2.108561,0 3.768016,0.06574 3.687675,0.14607 -0.08034,0.08034 -1.7382,0.183358 -3.684137,0.228931 -1.945938,0.04557 -3.467117,0.198024 -3.380401,0.338781 0.08673,0.140748 1.712837,0.212035 3.613604,0.158396 1.900764,-0.05364 3.556356,0.0031 3.679092,0.125626 0.122744,0.122745 -1.619745,0.25139 -3.872182,0.285898 l -4.095339,0.06273 4.120777,0.179767 4.120774,0.179767 -4.044465,0.06273 -4.044464,0.06273 0,1.364196 0,1.364198 3.739223,0.09602 3.739222,0.09601 -3.739222,0.066 c -3.513728,0.06201 -3.739223,0.102806 -3.739223,0.676484 0,0.508739 -0.203497,0.610486 -1.220971,0.610486 -1.017474,0 -1.22097,-0.101752 -1.22097,-0.610486 0,-0.559611 -0.203497,-0.610486 -2.441942,-0.610486 l -2.441942,0 0,1.373593 c 0,1.31037 -0.0405,1.373592 -0.880126,1.373592 -0.637469,0 -0.926357,0.176784 -1.047804,0.641197 -0.09404,0.359617 -0.312932,0.551425 -0.498444,0.436774 -0.181921,-0.112433 -0.236111,-0.357586 -0.120412,-0.54478 0.115689,-0.187198 0.195013,-1.242236 0.176267,-2.344542 -0.01874,-1.1023 -0.04247,-3.137395 -0.05275,-4.522435 -0.01767,-2.3823 -0.05477,-2.518253 -0.687492,-2.518253 -0.653624,0 -0.655356,0.01007 -0.07631,0.448158 0.572622,0.433109 0.566895,0.449202 -0.170592,0.479316 -0.70145,0.02863 -0.713783,0.05235 -0.152617,0.293498 0.335767,0.14429 0.438788,0.27199 0.228932,0.283789 -0.515088,0.02896 -0.553881,7.957761 -0.03893,7.957761 0.236593,0 0.246307,0.11807 0.03139,0.381554 -0.171181,0.209856 -0.377576,1.068351 -0.458655,1.907767 -0.363007,3.758247 -0.561791,4.943105 -1.251703,7.460838 -0.404427,1.47589 -0.889277,2.971107 -1.077446,3.322703 -0.574628,1.0737 -8.092007,3.105003 -11.490904,3.105003 l -1.322322,0 -0.116838,1.29728 c -0.06425,0.713506 -0.154757,1.159921 -0.201094,0.992038 z M 15.798594,44.175434 c 0,-0.06631 -0.995853,-0.102474 -2.213008,-0.08039 -1.607792,0.02918 -1.920834,0.09179 -1.14466,0.228931 1.056032,0.186574 3.357668,0.08475 3.357668,-0.148554 z m 17.475144,0.287772 c -0.209853,-0.08468 -0.553252,-0.08468 -0.763106,0 -0.209855,0.08468 -0.03815,0.15396 0.381552,0.15396 0.41971,0 0.59141,-0.06928 0.381554,-0.15396 z m 1.831456,-0.610486 c -0.209854,-0.08468 -0.553252,-0.08468 -0.763105,0 -0.209856,0.08468 -0.03815,0.15396 0.381551,0.15396 0.41971,0 0.59141,-0.06928 0.381554,-0.15396 z m -17.74884,-6.140784 c 1.276479,-2.639132 2.279567,-4.848417 2.229085,-4.909527 -0.181866,-0.220166 -1.774543,1.222498 -2.295696,2.079469 -0.293016,0.481822 -0.461708,1.147726 -0.374872,1.47978 0.08684,0.332055 -0.01304,0.709399 -0.222039,0.838538 -0.273794,0.169214 -0.331835,0.05094 -0.207788,-0.423413 0.239179,-0.914625 0.121716,-0.834337 -0.785909,0.537172 -0.441454,0.667082 -0.736238,1.480098 -0.667004,1.839608 0.06824,0.354319 0.0141,0.576226 -0.120412,0.49312 -0.134477,-0.0831 -0.685262,0.462662 -1.223982,1.212817 -0.538722,0.750157 -1.105372,1.363918 -1.259227,1.363918 -0.458579,0 0.315659,-1.464035 2.8733,-5.433257 1.645202,-2.553193 2.556247,-3.701846 2.847461,-3.590098 0.235771,0.09048 0.344412,0.02873 0.241734,-0.137419 -0.462874,-0.748948 -1.372185,-0.07909 -3.35551,2.471898 -1.175183,1.511541 -2.112702,2.84839 -2.08337,2.970776 0.02932,0.122391 -0.222971,0.562609 -0.560665,0.978273 -0.337693,0.415662 -0.512167,0.562828 -0.387716,0.327035 0.14564,-0.275953 0.105446,-0.354042 -0.112812,-0.219156 -0.18649,0.115263 -0.272859,0.382111 -0.191927,0.593014 0.08092,0.210897 -0.268467,0.781634 -0.776439,1.268304 -1.0267527,0.983692 -1.1473927,0.867875 -0.466839,-0.448175 0.449859,-0.869929 0.135871,-1.619377 -0.354667,-0.846561 -0.2412335,0.38005 -0.2931882,0.541848 -0.3691641,1.149639 -0.020959,0.167883 -0.1836225,0.305242 -0.3614143,0.305242 -0.1777894,0 -0.2243185,-0.171698 -0.1034097,-0.381554 0.1209194,-0.209853 -0.145149,-0.04907 -0.5912662,0.357322 -0.4461184,0.406382 -0.8875026,0.662493 -0.980858,0.56914 -0.1913548,-0.191357 1.7039837,-2.514699 5.1566933,-6.321182 1.282743,-1.414174 2.264402,-2.639082 2.181465,-2.722018 -0.08294,-0.08294 -0.971035,0.730718 -1.97356,1.808121 -1.002519,1.077401 -1.826551,1.832367 -1.831182,1.677702 -0.0046,-0.154662 0.231958,-0.566741 0.525754,-0.915726 l 0.534176,-0.634523 -0.691113,0.58539 c -0.380109,0.321964 -0.626321,0.80272 -0.547135,1.068349 0.157173,0.527238 -0.794357,1.856553 -1.3289316,1.856553 -0.1829439,0 -0.2993542,0.103019 -0.2586866,0.228933 0.1103725,0.341711 -0.8630042,1.62744 -1.0730469,1.417394 -0.09968,-0.09968 -0.342409,-0.08165 -0.539386,0.04008 -0.2627979,0.162419 -0.2666522,0.277887 -0.014411,0.433735 0.2174317,0.134384 0.061231,0.363537 -0.4252765,0.623909 -0.4229107,0.226335 -0.7689325,0.525668 -0.7689325,0.665183 0,0.13952 -0.1520501,0.253661 -0.3378999,0.253661 -0.1858427,0 -0.2576162,-0.209215 -0.15949,-0.464926 0.1441982,-0.375792 0.065944,-0.404738 -0.4082062,-0.150976 -1.4702121,0.786833 -0.8570778,0.920962 4.1689414,0.911994 l 5.1308297,-0.009 2.320866,-4.798413 z m -3.389214,3.327887 c 0,-0.147326 0.228526,-0.456385 0.507839,-0.686798 0.460487,-0.379866 0.473718,-0.354893 0.141882,0.267871 -0.378474,0.710287 -0.649721,0.885182 -0.649721,0.418927 z M 41.716619,39.7453 c -0.140887,-0.271721 -0.198201,-0.551991 -0.127376,-0.622824 0.07083,-0.07083 -0.130949,-0.148353 -0.448388,-0.172263 -0.458832,-0.03456 -5.196246,-3.603881 -5.196246,-3.915017 0,-0.04424 0.274719,-0.0086 0.610486,0.07919 0.335767,0.08781 0.610486,0.285295 0.610486,0.438869 0,0.153571 0.240379,0.363901 0.534175,0.467404 0.293796,0.103492 1.013628,0.545606 1.59963,0.982456 0.586001,0.436855 1.386098,0.963166 1.777995,1.169583 0.690964,0.363945 0.710126,0.34084 0.632869,-0.763107 -0.04381,-0.626125 -0.208279,-1.310109 -0.365466,-1.519964 -0.183704,-0.245253 -0.169763,-0.381554 0.03903,-0.381554 0.205645,0 0.327582,-1.03593 0.332356,-2.823495 0.0073,-2.79431 -3.06e-4,-2.823953 -0.751349,-2.86789 -0.417385,-0.02442 -1.202583,-0.25107 -1.744882,-0.50367 -0.5423,-0.252601 -2.222234,-0.966542 -3.733185,-1.586536 -1.510952,-0.619997 -2.918883,-1.268659 -3.128738,-1.441473 -0.287395,-0.23667 -0.381553,-0.124721 -0.381553,0.453616 0,0.449362 0.221554,0.853184 0.534174,0.973628 0.50874,0.196006 0.50874,0.220088 0,0.50569 -0.583248,0.327432 -0.739111,1.490519 -0.199742,1.490519 0.601116,0 2.119701,1.259542 1.915988,1.589154 -0.114482,0.185227 -0.01896,0.257164 0.225341,0.169716 0.233224,-0.08348 1.064193,0.301704 1.846598,0.855969 0.782404,0.55427 1.989147,1.296816 2.681655,1.650106 0.692505,0.353291 1.184863,0.762466 1.094125,0.909279 -0.09074,0.14682 0.213472,0.549275 0.676016,0.894355 0.462543,0.345081 0.703629,0.63021 0.535747,0.633619 -0.549015,0.01125 -7.6331,-5.094769 -7.554757,-5.445163 0.04198,-0.187717 -0.198409,-0.341307 -0.534174,-0.341307 -0.335767,0 -0.610486,-0.145471 -0.610486,-0.323258 0,-0.177792 -0.137358,-0.238363 -0.305243,-0.134614 -0.167883,0.103765 -0.305242,0.469957 -0.305242,0.81378 0,0.439559 0.140624,0.571164 0.473719,0.443344 0.260542,-0.09997 0.395343,-0.05497 0.299555,0.100012 -0.0958,0.15499 0.441311,0.796272 1.193554,1.425068 0.752245,0.6288 1.439526,1.33041 1.527297,1.559132 0.08777,0.228724 -0.525076,-0.173754 -1.361881,-0.894394 -0.836803,-0.720637 -1.521528,-1.413269 -1.521608,-1.539182 -8.3e-5,-0.125917 -0.152204,-0.228932 -0.338052,-0.228932 -0.185844,0 -0.26224,0.197166 -0.169769,0.438141 0.09247,0.240982 0.03282,0.483253 -0.132574,0.538381 -0.165394,0.05513 0.207817,0.579102 0.829356,1.164383 l 1.130072,1.064144 -0.848443,-1.144661 c -0.466644,-0.629564 -0.747768,-1.144659 -0.624728,-1.144659 0.123051,0 1.065833,0.721134 2.095088,1.602524 2.340034,2.003851 3.216614,2.829672 2.678111,2.523042 -0.229512,-0.130689 0.663322,0.799664 1.984077,2.067455 1.913114,1.836393 2.440121,2.201411 2.591956,1.795247 0.104819,-0.280403 0.07531,-0.732141 -0.06558,-1.003865 z m -1.345985,-4.542461 c -0.103753,-0.167886 -0.0513,-0.305244 0.116601,-0.305244 0.167883,0 0.390134,0.137358 0.493891,0.305244 0.103753,0.167882 0.0513,0.305241 -0.116589,0.305241 -0.167885,0 -0.390134,-0.137358 -0.493893,-0.305241 z m 0.397419,-1.993651 c -0.0892,-0.0892 -0.489835,-0.224961 -0.89029,-0.301679 -0.400455,-0.07671 -0.905516,-0.381467 -1.122354,-0.677223 -0.21684,-0.295755 -0.637589,-0.552095 -0.934997,-0.569637 -0.788082,-0.0465 -2.207533,-1.051878 -1.98757,-1.407785 0.114955,-0.186001 -0.0543,-0.227582 -0.434796,-0.106808 -0.357113,0.113345 -0.719254,0.04204 -0.848495,-0.167083 -0.142435,-0.230464 -0.09569,-0.28461 0.12693,-0.14702 0.193823,0.119785 0.352407,0.14584 0.352407,0.05789 0,-0.08793 -0.291294,-0.315792 -0.647323,-0.50633 -0.49345,-0.264089 -0.594299,-0.260647 -0.424266,0.01441 0.124738,0.201833 -0.218435,0.132606 -0.778595,-0.157066 -0.893274,-0.461929 -0.942516,-0.551063 -0.45511,-0.823826 0.39661,-0.221954 0.619016,-0.19145 0.810755,0.111201 0.145317,0.229388 0.266324,0.328405 0.268894,0.22004 0.0051,-0.209596 6.13658,2.850331 6.9824,3.484509 0.548562,0.411302 0.803404,1.138536 0.398973,1.138536 -0.139905,0 -0.327358,-0.073 -0.416565,-0.162195 z m -3.602466,-2.279747 c -0.419708,-0.328302 -0.900465,-0.59906 -1.06835,-0.601689 -0.167883,-0.0027 0.106844,0.268133 0.610486,0.601689 1.171945,0.776148 1.450113,0.776148 0.457864,0 z m -13.740594,9.386212 c -0.0038,-0.555372 -0.06129,-0.599181 -0.300568,-0.228933 -0.382444,0.591793 -0.382444,0.915727 0,0.915727 0.167882,0 0.303139,-0.309057 0.300568,-0.686794 z m 19.51875,-4.102762 c 0.01184,-2.046663 0.150455,-3.800934 0.308114,-3.898372 0.165329,-0.102178 0.262225,0.40056 0.228932,1.187805 -0.03176,0.750735 0.04719,1.260009 0.175418,1.131715 0.128233,-0.128295 0.249907,-0.977255 0.270396,-1.886582 0.02047,-0.909331 0.148614,-2.04165 0.284735,-2.516268 0.136117,-0.474619 0.158126,-1.095451 0.04891,-1.379627 -0.163112,-0.424388 -0.236557,-0.38037 -0.411147,0.246423 -0.116897,0.419707 -0.209998,-0.610487 -0.206871,-2.289321 0.0037,-2.0105 0.08522,-2.739849 0.238703,-2.136698 0.228131,0.896546 0.234527,0.890151 0.305276,-0.305243 0.03975,-0.671535 0.04881,-1.345529 0.02015,-1.497765 -0.02866,-0.152234 -0.146789,-1.182434 -0.262525,-2.289321 l -0.210406,-2.012524 -0.183534,1.526212 c -0.165364,1.37507 -0.194142,1.269269 -0.290607,-1.068349 L 43.152218,16.430413 42.9824,19.482839 C 42.842004,22.006574 42.770692,21.191625 42.570725,14.777685 42.437706,10.511019 42.19465,6.8023216 42.03061,6.5361336 41.833453,6.2162158 41.783138,8.2767257 41.88218,12.61488 c 0.08242,3.609493 0.180161,10.271416 0.217244,14.804268 0.03708,4.532854 0.125198,9.477787 0.195829,10.988738 0.182907,3.913177 0.621856,2.427467 0.648503,-2.194995 z m -0.05221,-6.504423 c -0.340773,-2.528318 -0.288117,-4.86014 0.09491,-4.202803 0.16936,0.290649 0.268204,1.732921 0.219652,3.205048 -0.08643,2.620625 -0.09301,2.641487 -0.314559,0.997755 z m -9.999348,9.462526 c -0.179697,-0.335768 -0.395404,-0.610487 -0.479345,-0.610487 -0.08394,0 -0.0057,0.274719 0.174101,0.610487 0.179698,0.335765 0.395403,0.610483 0.479343,0.610483 0.08394,0 0.0057,-0.274718 -0.174099,-0.610483 z M 20.280515,38.808516 c -0.09744,-0.2435 -0.16977,-0.171172 -0.184414,0.184421 -0.01319,0.321773 0.05889,0.502058 0.160317,0.400629 0.101432,-0.101433 0.112267,-0.364704 0.0241,-0.58505 z M 14.57548,35.40547 c 1.035517,-1.315561 1.795549,-2.479139 1.688963,-2.585724 -0.106583,-0.106584 -0.308075,0.0083 -0.447755,0.255232 -0.804747,1.422845 -2.331561,3.275605 -2.57524,3.125003 -0.156393,-0.09666 -0.19524,-0.03156 -0.08632,0.144673 0.108915,0.176228 0.0098,0.392622 -0.220096,0.48087 -0.229968,0.08825 -0.742921,0.617735 -1.139896,1.176644 l -0.72177,1.016195 0.809683,-0.610485 c 0.445324,-0.335768 1.656918,-1.686853 2.692432,-3.002415 z m 24.268944,-1.118361 c -0.103753,-0.167882 -0.352243,-0.303139 -0.55219,-0.300568 -0.218434,0.0027 -0.180786,0.122775 0.09433,0.300568 0.586408,0.37897 0.692077,0.37897 0.457865,0 z m -2.289319,-1.336217 c 0,-0.06339 -0.240379,-0.303764 -0.534175,-0.534176 -0.484134,-0.379681 -0.494929,-0.368885 -0.115239,0.115239 0.39876,0.508458 0.649423,0.670154 0.649423,0.41893 z m -12.59126,-0.992874 c 0.377736,-0.101231 0.686796,-0.37407 0.686796,-0.606314 0,-0.303222 -0.430266,-0.422263 -1.526212,-0.422263 -0.839419,0 -1.526215,0.05887 -1.526215,0.13081 0,0.283201 0.979868,1.089914 1.319085,1.085982 0.19786,-0.0021 0.668808,-0.087 1.046546,-0.188222 z m 17.780386,-3.928383 c 0,-1.208654 -0.08247,-1.378583 -0.686797,-1.415161 l -0.686796,-0.04158 0.686796,-0.132282 c 0.377738,-0.07276 0.686797,-0.260088 0.686797,-0.416296 0,-0.492198 -1.286612,-0.307898 -1.746413,0.250161 -0.385558,0.46795 -0.420659,0.471487 -0.283113,0.02854 0.242303,-0.780303 -1.344839,-1.333499 -2.585261,-0.901085 -1.12302,0.391487 -2.333872,0.446365 -1.348528,0.06112 0.435983,-0.17046 0.144719,-0.282588 -1.068351,-0.411269 -0.917263,-0.0973 -1.908129,-0.271606 -2.201925,-0.387339 -0.401814,-0.158278 -0.534176,-0.05775 -0.534176,0.405751 0,0.482687 0.479412,0.801619 2.21301,1.472226 1.217155,0.470831 2.322854,1.032405 2.457109,1.247945 0.134261,0.215538 0.408974,0.389787 0.610485,0.387217 0.224111,-0.0027 0.188588,-0.119569 -0.09147,-0.300571 -0.517496,-0.334428 -0.291083,-0.397784 0.431146,-0.120628 0.264591,0.101539 0.427066,0.273231 0.36105,0.381554 -0.06602,0.108312 0.335013,0.220696 0.891174,0.249725 0.556158,0.02904 1.400774,0.263906 1.876927,0.521952 0.476148,0.258046 0.900063,0.474674 0.942032,0.481395 0.04198,0.0067 0.0763,-0.605895 0.0763,-1.36137 z M 37.24771,25.834027 c 0.296991,-0.07739 0.709069,-0.0723 0.915728,0.01137 0.206659,0.08361 -0.03634,0.146927 -0.539985,0.140717 -0.503649,-0.0063 -0.672735,-0.07464 -0.375743,-0.15202 z m 6.835375,1.356191 c -0.08468,-0.209855 -0.153961,-0.03815 -0.153961,0.381553 0,0.419707 0.06928,0.591406 0.153961,0.381553 0.08468,-0.209855 0.08468,-0.553253 0,-0.763106 z m 3.915188,-0.305244 c 0.102628,-0.713504 0.1223,-2.121435 0.04372,-3.128737 -0.07859,-1.007302 -0.154135,-2.150069 -0.167892,-2.539482 -0.0196,-0.554199 -0.17423,-0.686837 -0.711811,-0.610484 -0.377739,0.05364 -0.652457,0.200558 -0.610485,0.326472 0.04198,0.125919 0.0763,1.808562 0.0763,3.739223 0,3.269813 0.04053,3.51029 0.591783,3.51029 0.46345,0 0.632247,-0.281327 0.778378,-1.297282 z m -1.06492,-5.723299 c 0,-0.167883 0.137359,-0.305242 0.305242,-0.305242 0.167884,0 0.305243,0.137359 0.305243,0.305242 0,0.167881 -0.137359,0.305242 -0.305243,0.305242 -0.167883,0 -0.305242,-0.137358 -0.305242,-0.305242 z m -2.843912,4.82665 c -0.09744,-0.243503 -0.169772,-0.171175 -0.184416,0.184418 -0.01319,0.321776 0.05889,0.50206 0.16032,0.400631 0.101432,-0.101432 0.112267,-0.364704 0.02408,-0.585049 z m 11.11229,-0.01908 c 0.05035,-1.288896 0.05446,-2.517184 0.01381,-4.120775 -0.03789,-1.495032 -0.09182,-1.602525 -0.80373,-1.602525 l -0.763108,0 0,3.205049 0,3.205048 0.763108,0 c 0.579923,0 0.769547,-0.164861 0.789933,-0.686797 z M 30.927596,24.703015 c 0.252543,-1.006215 0.05821,-2.094338 -0.401037,-2.245583 -0.271681,-0.08946 -0.381552,0.321149 -0.381552,1.425993 0,1.61099 0.462414,2.095269 0.782589,0.81959 z m 10.816632,-0.918204 0,-1.650264 -1.091301,0.33493 c -0.73599,0.225878 -1.357131,0.237456 -1.907767,0.03556 -0.877952,-0.321916 -1.983584,-0.223903 -1.749358,0.155082 0.07861,0.12719 -0.02271,0.240598 -0.225196,0.252002 -0.202466,0.01137 -1.363979,0.122698 -2.581135,0.247325 -3.38436,0.346531 -2.879018,0.895283 1.220971,1.325861 4.15003,0.435834 5.833837,0.668372 6.003107,0.829042 0.283451,0.269054 0.330679,0.05061 0.330679,-1.52954 z m 11.599222,0.429294 c 0,-0.671534 -0.13305,-1.220971 -0.295666,-1.220971 -0.162611,0 -0.216597,-0.20604 -0.119968,-0.457865 0.195832,-0.510325 -0.355003,-0.634336 -0.655799,-0.147647 -0.105447,0.170621 -0.319595,0.231196 -0.475878,0.134612 -0.156281,-0.09658 -0.284152,-0.03016 -0.284152,0.147634 0,0.184416 -0.655529,0.323258 -1.526212,0.323258 l -1.526212,0 0,1.22097 0,1.220971 2.441939,0 2.441943,0 0,-1.220971 z m -3.815534,-1.831458 c -0.103765,-0.167884 -0.386584,-0.305243 -0.628501,-0.305243 -0.241919,0 -0.439849,0.137359 -0.439849,0.305243 0,0.167883 0.282825,0.305243 0.628501,0.305243 0.345675,0 0.543605,-0.137358 0.439849,-0.305243 z m -12.972815,-0.65311 c 1.427011,-0.194465 3.144001,-0.436125 3.815533,-0.537028 l 1.220972,-0.183456 0.09226,-1.602523 c 0.08341,-1.448701 -0.227986,-2.065465 -0.676451,-1.33983 -0.08929,0.144474 -1.024576,0.495769 -2.078402,0.780637 -2.900966,0.78418 -6.443357,2.057919 -6.912358,2.485479 -0.646709,0.58956 -0.111806,1.088156 0.975646,0.909427 0.53253,-0.08753 2.135791,-0.318243 3.562798,-0.512706 z M 34.11316,20.856433 c 0.251825,-0.162745 0.595224,-0.295894 0.763107,-0.295894 0.167884,0 0.09921,0.133142 -0.152617,0.295894 -0.251825,0.162741 -0.595223,0.295892 -0.763107,0.295892 -0.167883,0 -0.09921,-0.133156 0.152617,-0.295892 z m 18.085629,0.692227 c -0.713506,-0.06425 -1.881058,-0.06425 -2.594563,0 -0.713505,0.06425 -0.129723,0.116838 1.297281,0.116838 1.427011,0 2.010786,-0.05259 1.297282,-0.116838 z M 36.331963,19.22834 c 0.174606,0.107921 0.236057,0.06449 0.136562,-0.0965 -0.153562,-0.248475 1.211413,-0.921597 4.60278,-2.269814 0.616324,-0.245016 0.675754,-0.41637 0.493681,-1.423432 -0.113853,-0.629684 -0.237764,-1.182435 -0.275383,-1.228335 -0.03762,-0.0459 -0.657514,0.251173 -1.377548,0.660161 -0.720034,0.408984 -1.51772,0.663576 -1.772642,0.565755 -0.274712,-0.105411 -0.384026,-0.04928 -0.268392,0.137803 0.109981,0.177953 -0.93196,0.948223 -2.388318,1.765603 -1.420874,0.797468 -2.517116,1.557201 -2.436092,1.688299 0.08102,0.131103 -0.06507,0.319862 -0.324647,0.419472 -0.310206,0.119033 -0.406465,0.05152 -0.280855,-0.196946 0.105115,-0.20793 -0.02073,-0.117442 -0.27961,0.201085 -0.799631,0.98381 -0.266111,1.074698 1.834966,0.312609 1.109917,-0.402585 2.160892,-0.643678 2.335499,-0.535766 z m 2.970323,-3.392735 c 0,-0.08394 0.412077,-0.365714 0.915728,-0.626162 0.503651,-0.26045 0.915728,-0.404863 0.915728,-0.32092 0,0.08394 -0.412077,0.365714 -0.915728,0.626161 -0.503651,0.26045 -0.915728,0.404863 -0.915728,0.320921 z m 8.317863,3.902943 c -0.209854,-0.08468 -0.553253,-0.08468 -0.763107,0 -0.209854,0.08468 -0.03815,0.153961 0.381553,0.153961 0.41971,0 0.591407,-0.06928 0.381554,-0.153961 z m -1.602525,-0.976486 c 0,-0.144597 -0.343397,-0.19727 -0.763105,-0.117039 -0.419709,0.08024 -0.763107,0.198545 -0.763107,0.262912 0,0.06438 0.343398,0.117039 0.763107,0.117039 0.419708,0 0.763105,-0.118317 0.763105,-0.262913 z m 1.831456,-0.04232 c 0,-0.167884 -0.274718,-0.305244 -0.610485,-0.305244 -0.335768,0 -0.610485,0.137359 -0.610485,0.305244 0,0.167883 0.274717,0.305242 0.610485,0.305242 0.335767,0 0.610485,-0.137359 0.610485,-0.305242 z M 35.14985,17.099424 c 0.185297,0.105589 0.238303,0.08279 0.117785,-0.05063 -0.120505,-0.133433 0.548588,-0.704895 1.486886,-1.269909 1.859263,-1.119589 2.08366,-1.205859 1.755506,-0.674891 -0.136024,0.220092 -0.08362,0.269474 0.139583,0.131531 0.19656,-0.121487 0.294945,-0.321907 0.218627,-0.445386 -0.0763,-0.12348 0.474473,-0.5595 1.223975,-0.968932 1.269194,-0.693326 1.358084,-0.823125 1.295069,-1.891097 -0.06658,-1.128612 -0.337742,-1.446046 -0.714489,-0.836454 -0.105446,0.170621 -0.340817,0.218081 -0.523042,0.105458 -0.190218,-0.11756 -0.24411,-0.06366 -0.126547,0.126547 0.112622,0.182224 0.06292,0.418977 -0.110443,0.52612 -0.173359,0.107152 -0.242038,0.313181 -0.152618,0.457863 0.08943,0.144689 0.0019,0.362455 -0.194805,0.483935 -0.236084,0.145917 -0.275154,0.08783 -0.115109,-0.171128 0.162503,-0.262932 0.102652,-0.341278 -0.181768,-0.23794 -0.233224,0.08472 -0.394096,0.29542 -0.357491,0.468188 0.0366,0.172766 -0.169434,0.498996 -0.457864,0.724952 -0.473153,0.370672 -0.483464,0.358614 -0.105494,-0.123342 0.230411,-0.293796 0.339531,-0.534174 0.242487,-0.534174 -0.42367,0 -3.714507,2.513218 -3.720692,2.841501 -0.0037,0.199951 -0.25793,0.320019 -0.564804,0.266822 -0.38895,-0.06744 -0.487626,0.02502 -0.325768,0.305242 0.127713,0.221081 0.124431,0.304792 -0.0072,0.186014 -0.131699,-0.118771 -0.492549,0.08727 -0.801889,0.457865 -0.309341,0.370601 -0.567006,0.560988 -0.572592,0.423082 -0.0057,-0.137911 -0.224951,-0.03593 -0.487482,0.22659 -0.941206,0.941209 -0.09448,1.054522 1.295043,0.173312 0.774558,-0.49121 1.559893,-0.806721 1.745187,-0.701131 z m 5.068164,-4.905027 c 0,-0.0634 0.240378,-0.303765 0.534174,-0.534174 0.484134,-0.379686 0.494929,-0.368888 0.115239,0.115251 -0.39876,0.508458 -0.649422,0.670154 -0.649422,0.418931 z m 5.494369,5.609612 c 0,-0.167883 -0.282825,-0.305242 -0.628503,-0.305242 -0.345673,0 -0.543605,0.137359 -0.439848,0.305242 0.103765,0.167884 0.386584,0.305244 0.628501,0.305244 0.241918,0 0.43985,-0.137359 0.43985,-0.305244 z M 34.80242,14.866675 c 1.551567,-1.111883 3.301788,-2.460971 3.88938,-2.99797 0.587592,-0.537 1.446087,-1.210071 1.907768,-1.495721 0.567239,-0.350958 0.839416,-0.7766253 0.839416,-1.3128024 0,-0.6680675 -0.07182,-0.733841 -0.454502,-0.4162405 -0.249977,0.2074636 -0.377128,0.5024034 -0.282554,0.6554221 0.09458,0.1530164 0.05872,0.2585492 -0.07967,0.2345115 -0.69144,-0.1201059 -1.06329,0.072243 -0.910311,0.4709013 0.109922,0.286454 0.02302,0.386021 -0.246596,0.282561 -0.228982,-0.08787 -1.011799,0.359229 -1.739601,0.993555 l -1.323269,1.153319 1.20661,-1.283254 C 38.272727,10.445164 38.677408,9.8677 38.508386,9.8677 c -0.169017,0 -0.773279,0.480756 -1.342796,1.068351 -0.569516,0.587592 -1.180238,1.06586 -1.35716,1.062818 -0.176921,-0.0031 1.051469,-1.296959 2.729755,-2.8753675 1.678285,-1.5784118 2.976583,-2.9446827 2.885104,-3.0361573 -0.09147,-0.091474 -0.537444,0.1778021 -0.99104,0.5984002 -0.453595,0.4205969 -0.824718,0.664785 -0.824718,0.5426389 0,-0.1221462 -0.405584,0.1664905 -0.901299,0.6414151 -0.495713,0.474927 -0.873452,1.0157222 -0.839416,1.2017709 0.03403,0.1860452 -0.09665,0.3083204 -0.290397,0.2717143 -0.383264,-0.072409 -0.954339,0.5204069 -1.492214,1.5490104 -0.188165,0.359831 -0.484186,0.626033 -0.657822,0.59156 -0.173642,-0.03447 -0.29977,0.240243 -0.28029,0.610485 0.02371,0.450614 -0.11595,0.639529 -0.422444,0.571421 -0.251825,-0.05596 -0.354546,0.0015 -0.228267,0.127851 0.126287,0.126286 0.0019,0.481122 -0.276241,0.788543 -0.278211,0.307418 -0.394582,0.558945 -0.258599,0.558945 0.432795,0 -0.887803,1.280351 -1.602524,1.553687 -0.578596,0.221279 -1.011726,1.193497 -0.531711,1.193497 0.08529,0 1.424553,-0.909724 2.976117,-2.021608 z m 0.531711,-1.793931 c 0.394297,-0.419708 0.785582,-0.763108 0.869525,-0.763108 0.08394,0 -0.169985,0.3434 -0.564282,0.763108 -0.394298,0.419708 -0.785583,0.763106 -0.869523,0.763106 -0.08394,0 0.169982,-0.343398 0.56428,-0.763106 z m 3.205048,-4.7312619 c 0.303866,-0.3357661 0.621163,-0.6104846 0.705104,-0.6104846 0.08394,0 -0.096,0.2747185 -0.399861,0.6104846 -0.303867,0.3357672 -0.621163,0.6104857 -0.705106,0.6104857 -0.08394,0 0.096,-0.2747185 0.399863,-0.6104857 z m 4.637549,6.4922159 c -0.07739,-0.296992 -0.145809,-0.127913 -0.152019,0.375745 -0.0063,0.50365 0.0571,0.746642 0.140716,0.539983 0.08361,-0.206658 0.0887,-0.618737 0.01137,-0.915728 z m -9.826673,-0.08211 c 0.303865,-0.335769 0.483802,-0.610486 0.399858,-0.610486 -0.08394,0 -0.401237,0.274717 -0.705102,0.610486 -0.303867,0.335766 -0.483803,0.610484 -0.399858,0.610484 0.08394,0 0.401235,-0.274718 0.705102,-0.610484 z m -0.903178,-0.02031 c 0.328523,-0.53156 -0.04564,-0.644134 -0.464292,-0.139689 -0.24076,0.2901 -0.263916,0.46524 -0.06152,0.46524 0.17853,0 0.415145,-0.146498 0.525804,-0.325549 z m 7.871849,-5.9666546 c 0.642984,-0.597606 1.109837,-1.1457866 1.037452,-1.2181746 -0.0724,-0.072386 -0.735824,0.4146514 -1.474307,1.0823032 -0.73848,0.667653 -1.205333,1.21583 -1.037449,1.2181734 0.167883,0.00249 0.831322,-0.4846924 1.474304,-1.082302 z M 27.75126,46.802081 c 0,-0.419709 0.06928,-0.591408 0.153961,-0.381554 0.08468,0.209856 0.08468,0.553252 0,0.763107 -0.08468,0.209855 -0.153961,0.03815 -0.153961,-0.381553 z m -7.597143,-2.348238 c 0.296993,-0.07739 0.709069,-0.0723 0.915727,0.01137 0.20666,0.08362 -0.03633,0.146928 -0.539983,0.140717 -0.50365,-0.0063 -0.672736,-0.07464 -0.375744,-0.152019 z m 1.831457,0 c 0.296991,-0.07739 0.709069,-0.0723 0.915726,0.01137 0.20666,0.08362 -0.03633,0.146928 -0.539983,0.140717 -0.50365,-0.0063 -0.672736,-0.07464 -0.375743,-0.152019 z"
     id="path3364"
     inkscape:connector-curvature="0" />
</svg>
