<?xml version="1.0" encoding="UTF-8" standalone="no"?>
<!-- Created with Inkscape (http://www.inkscape.org/) -->

<svg
   xmlns:dc="http://purl.org/dc/elements/1.1/"
   xmlns:cc="http://creativecommons.org/ns#"
   xmlns:rdf="http://www.w3.org/1999/02/22-rdf-syntax-ns#"
   xmlns:svg="http://www.w3.org/2000/svg"
   xmlns="http://www.w3.org/2000/svg"
   xmlns:xlink="http://www.w3.org/1999/xlink"
   xmlns:sodipodi="http://sodipodi.sourceforge.net/DTD/sodipodi-0.dtd"
   xmlns:inkscape="http://www.inkscape.org/namespaces/inkscape"
   width="64px"
   height="64px"
   id="svg3799"
   version="1.1"
   inkscape:version="0.48.4 r9939"
   sodipodi:docname="cycloidegear.svg">
  <defs
     id="defs3801">
    <inkscape:path-effect
       effect="spiro"
       id="path-effect9409"
       is_visible="true" />
    <inkscape:path-effect
       effect="spiro"
       id="path-effect9405"
       is_visible="true" />
    <inkscape:path-effect
       effect="spiro"
       id="path-effect9398"
       is_visible="true" />
    <inkscape:path-effect
       effect="spiro"
       id="path-effect9390"
       is_visible="true" />
    <inkscape:path-effect
       effect="spiro"
       id="path-effect9384"
       is_visible="true" />
    <linearGradient
       inkscape:collect="always"
       id="linearGradient9347">
      <stop
         style="stop-color:#0079ff;stop-opacity:1;"
         offset="0"
         id="stop9349" />
      <stop
         style="stop-color:#0079ff;stop-opacity:0"
         offset="1"
         id="stop9351" />
    </linearGradient>
    <marker
       inkscape:stockid="Arrow2Mstart"
       orient="auto"
       refY="0.0"
       refX="0.0"
       id="Arrow2Mstart"
       style="overflow:visible">
      <path
         id="path4317"
         style="fill-rule:evenodd;stroke-width:0.62500000;stroke-linejoin:round"
         d="M 8.7185878,4.0337352 L -2.2072895,0.016013256 L 8.7185884,-4.0017078 C 6.9730900,-1.6296469 6.9831476,1.6157441 8.7185878,4.0337352 z "
         transform="scale(0.6) translate(0,0)" />
    </marker>
    <marker
       inkscape:stockid="Arrow1Mend"
       orient="auto"
       refY="0.0"
       refX="0.0"
       id="Arrow1Mend"
       style="overflow:visible;">
      <path
         id="path4302"
         d="M 0.0,0.0 L 5.0,-5.0 L -12.5,0.0 L 5.0,5.0 L 0.0,0.0 z "
         style="fill-rule:evenodd;stroke:#000000;stroke-width:1.0pt;"
         transform="scale(0.4) rotate(180) translate(10,0)" />
    </marker>
    <marker
       inkscape:stockid="Arrow2Mend"
       orient="auto"
       refY="0.0"
       refX="0.0"
       id="Arrow2Mend"
       style="overflow:visible;">
      <path
         id="path4320"
         style="fill-rule:evenodd;stroke-width:0.62500000;stroke-linejoin:round;"
         d="M 8.7185878,4.0337352 L -2.2072895,0.016013256 L 8.7185884,-4.0017078 C 6.9730900,-1.6296469 6.9831476,1.6157441 8.7185878,4.0337352 z "
         transform="scale(0.6) rotate(180) translate(0,0)" />
    </marker>
    <marker
       inkscape:stockid="Arrow1Mstart"
       orient="auto"
       refY="0.0"
       refX="0.0"
       id="Arrow1Mstart"
       style="overflow:visible">
      <path
         id="path4299"
         d="M 0.0,0.0 L 5.0,-5.0 L -12.5,0.0 L 5.0,5.0 L 0.0,0.0 z "
         style="fill-rule:evenodd;stroke:#000000;stroke-width:1.0pt"
         transform="scale(0.4) translate(10,0)" />
    </marker>
    <marker
       inkscape:stockid="Arrow1Lend"
       orient="auto"
       refY="0.0"
       refX="0.0"
       id="Arrow1Lend"
       style="overflow:visible;">
      <path
         id="path4296"
         d="M 0.0,0.0 L 5.0,-5.0 L -12.5,0.0 L 5.0,5.0 L 0.0,0.0 z "
         style="fill-rule:evenodd;stroke:#000000;stroke-width:1.0pt;"
         transform="scale(0.8) rotate(180) translate(12.5,0)" />
    </marker>
    <marker
       inkscape:stockid="Arrow2Lend"
       orient="auto"
       refY="0.0"
       refX="0.0"
       id="Arrow2Lend"
       style="overflow:visible;">
      <path
         id="path4314"
         style="fill-rule:evenodd;stroke-width:0.62500000;stroke-linejoin:round;"
         d="M 8.7185878,4.0337352 L -2.2072895,0.016013256 L 8.7185884,-4.0017078 C 6.9730900,-1.6296469 6.9831476,1.6157441 8.7185878,4.0337352 z "
         transform="scale(1.1) rotate(180) translate(1,0)" />
    </marker>
    <marker
       inkscape:stockid="EmptyTriangleOutL"
       orient="auto"
       refY="0.0"
       refX="0.0"
       id="EmptyTriangleOutL"
       style="overflow:visible">
      <path
         id="path4487"
         d="M 5.77,0.0 L -2.88,5.0 L -2.88,-5.0 L 5.77,0.0 z "
         style="fill-rule:evenodd;fill:#FFFFFF;stroke:#000000;stroke-width:1.0pt"
         transform="scale(0.8) translate(-6,0)" />
    </marker>
    <marker
       inkscape:stockid="DotS"
       orient="auto"
       refY="0.0"
       refX="0.0"
       id="DotS"
       style="overflow:visible">
      <path
         id="path4394"
         d="M -2.5,-1.0 C -2.5,1.7600000 -4.7400000,4.0 -7.5,4.0 C -10.260000,4.0 -12.5,1.7600000 -12.5,-1.0 C -12.5,-3.7600000 -10.260000,-6.0 -7.5,-6.0 C -4.7400000,-6.0 -2.5,-3.7600000 -2.5,-1.0 z "
         style="fill-rule:evenodd;stroke:#000000;stroke-width:1.0pt"
         transform="scale(0.2) translate(7.4, 1)" />
    </marker>
    <marker
       inkscape:stockid="DotL"
       orient="auto"
       refY="0.0"
       refX="0.0"
       id="DotL"
       style="overflow:visible">
      <path
         id="path4388"
         d="M -2.5,-1.0 C -2.5,1.7600000 -4.7400000,4.0 -7.5,4.0 C -10.260000,4.0 -12.5,1.7600000 -12.5,-1.0 C -12.5,-3.7600000 -10.260000,-6.0 -7.5,-6.0 C -4.7400000,-6.0 -2.5,-3.7600000 -2.5,-1.0 z "
         style="fill-rule:evenodd;stroke:#000000;stroke-width:1.0pt"
         transform="scale(0.8) translate(7.4, 1)" />
    </marker>
    <marker
       inkscape:stockid="Tail"
       orient="auto"
       refY="0.0"
       refX="0.0"
       id="Tail"
       style="overflow:visible">
      <g
         id="g4363"
         transform="scale(-1.2)">
        <path
           id="path4365"
           d="M -3.8048674,-3.9585227 L 0.54352094,0"
           style="fill:none;fill-rule:evenodd;stroke:#000000;stroke-width:0.8;stroke-linecap:round" />
        <path
           id="path4367"
           d="M -1.2866832,-3.9585227 L 3.0617053,0"
           style="fill:none;fill-rule:evenodd;stroke:#000000;stroke-width:0.8;stroke-linecap:round" />
        <path
           id="path4369"
           d="M 1.3053582,-3.9585227 L 5.6537466,0"
           style="fill:none;fill-rule:evenodd;stroke:#000000;stroke-width:0.8;stroke-linecap:round" />
        <path
           id="path4371"
           d="M -3.8048674,4.1775838 L 0.54352094,0.21974226"
           style="fill:none;fill-rule:evenodd;stroke:#000000;stroke-width:0.8;stroke-linecap:round" />
        <path
           id="path4373"
           d="M -1.2866832,4.1775838 L 3.0617053,0.21974226"
           style="fill:none;fill-rule:evenodd;stroke:#000000;stroke-width:0.8;stroke-linecap:round" />
        <path
           id="path4375"
           d="M 1.3053582,4.1775838 L 5.6537466,0.21974226"
           style="fill:none;fill-rule:evenodd;stroke:#000000;stroke-width:0.8;stroke-linecap:round" />
      </g>
    </marker>
    <marker
       inkscape:stockid="Arrow1Sstart"
       orient="auto"
       refY="0.0"
       refX="0.0"
       id="Arrow1Sstart"
       style="overflow:visible">
      <path
         id="path4339"
         d="M 0.0,0.0 L 5.0,-5.0 L -12.5,0.0 L 5.0,5.0 L 0.0,0.0 z "
         style="fill-rule:evenodd;stroke:#000000;stroke-width:1.0pt"
         transform="scale(0.2) translate(6,0)" />
    </marker>
    <marker
       inkscape:stockid="Arrow1Lstart"
       orient="auto"
       refY="0.0"
       refX="0.0"
       id="Arrow1Lstart"
       style="overflow:visible">
      <path
         id="path4327"
         d="M 0.0,0.0 L 5.0,-5.0 L -12.5,0.0 L 5.0,5.0 L 0.0,0.0 z "
         style="fill-rule:evenodd;stroke:#000000;stroke-width:1.0pt"
         transform="scale(0.8) translate(12.5,0)" />
    </marker>
    <marker
       inkscape:stockid="Arrow1Mstart"
       orient="auto"
       refY="0"
       refX="0"
       id="Arrow1Mstart-9"
       style="overflow:visible">
      <path
         inkscape:connector-curvature="0"
         id="path4299-1"
         d="M 0,0 5,-5 -12.5,0 5,5 0,0 z"
         style="fill-rule:evenodd;stroke:#000000;stroke-width:1pt"
         transform="matrix(0.4,0,0,0.4,4,0)" />
    </marker>
    <marker
       inkscape:stockid="Arrow2Mend"
       orient="auto"
       refY="0"
       refX="0"
       id="Arrow2Mend-7"
       style="overflow:visible">
      <path
         inkscape:connector-curvature="0"
         id="path4320-8"
         style="fill-rule:evenodd;stroke-width:0.625;stroke-linejoin:round"
         d="M 8.7185878,4.0337352 -2.2072895,0.01601326 8.7185884,-4.0017078 c -1.7454984,2.3720609 -1.7354408,5.6174519 -6e-7,8.035443 z"
         transform="scale(-0.6,-0.6)" />
    </marker>
    <linearGradient
       inkscape:collect="always"
       xlink:href="#linearGradient9347"
       id="linearGradient9353"
       x1="-21.345743"
       y1="40.800289"
       x2="1.8271284"
       y2="47.081963"
       gradientUnits="userSpaceOnUse" />
  </defs>
  <sodipodi:namedview
     id="base"
     pagecolor="#ffffff"
     bordercolor="#666666"
     borderopacity="1.0"
     inkscape:pageopacity="0.0"
     inkscape:pageshadow="2"
     inkscape:zoom="5.5"
     inkscape:cx="51.300752"
     inkscape:cy="22.461024"
     inkscape:current-layer="layer1"
     showgrid="true"
     inkscape:document-units="px"
     inkscape:grid-bbox="true"
     inkscape:snap-center="false"
     showguides="true"
     inkscape:guide-bbox="true"
     inkscape:window-width="1366"
     inkscape:window-height="744"
     inkscape:window-x="0"
     inkscape:window-y="24"
     inkscape:window-maximized="1">
    <sodipodi:guide
       orientation="1,0"
       position="32,32"
       id="guide3783" />
    <sodipodi:guide
       orientation="0,1"
       position="32,32"
       id="guide3785" />
    <sodipodi:guide
       orientation="1,0"
       position="0,0"
       id="guide9301" />
    <sodipodi:guide
       orientation="0,1"
       position="0,0"
       id="guide9303" />
    <sodipodi:guide
       orientation="0,1"
       position="0,64"
       id="guide9305" />
    <sodipodi:guide
       orientation="1,0"
       position="64,64"
       id="guide9307" />
  </sodipodi:namedview>
  <metadata
     id="metadata3804">
    <rdf:RDF>
      <cc:Work
         rdf:about="">
        <dc:format>image/svg+xml</dc:format>
        <dc:type
           rdf:resource="http://purl.org/dc/dcmitype/StillImage" />
        <dc:title />
      </cc:Work>
    </rdf:RDF>
  </metadata>
  <g
     id="layer1"
     inkscape:label="Layer 1"
     inkscape:groupmode="layer">
    <rect
       style="fill:#ffbf00;stroke:none;fill-opacity:1"
       id="rect3156"
       width="63.804237"
       height="63.986015"
       x="0.18181612"
       y="1.4630233e-07"
       ry="15.401461" />
    <path
       style="fill:#000000"
       d="m 28.374341,62.2574 c -0.03496,-0.102547 -0.404227,-2.703598 -0.82067,-5.780105 -0.416456,-3.076508 -0.794939,-5.806175 -0.841069,-6.065927 -0.0734,-0.4133 -0.179899,-0.503627 -0.852749,-0.723344 -0.422871,-0.138088 -1.151682,-0.440799 -1.619578,-0.67269 l -0.85072,-0.421623 -0.715503,0.54028 c -0.393525,0.297154 -2.609937,2.003837 -4.925358,3.792627 -2.315422,1.788791 -4.296338,3.252348 -4.402034,3.252348 -0.270456,0 -5.0369683,-4.802703 -5.0349926,-5.073223 8.96e-4,-0.122156 1.6789882,-2.434295 3.7291006,-5.138092 2.050111,-2.703795 3.727478,-4.937893 3.727478,-4.964661 0,-0.02678 -0.156722,-0.365277 -0.348269,-0.752239 -0.191545,-0.386965 -0.501787,-1.123095 -0.689424,-1.635847 -0.187637,-0.512751 -0.429013,-0.932275 -0.536393,-0.932275 -0.338542,0 -11.9161517,-1.496575 -12.1117127,-1.565615 -0.2378879,-0.08398 -0.2727975,-7.164094 -0.036044,-7.310415 0.082723,-0.05113 2.8180226,-0.457929 6.0784335,-0.904001 3.2604112,-0.446074 6.0175102,-0.827726 6.1268852,-0.848117 0.109378,-0.0204 0.351213,-0.473476 0.537414,-1.006851 0.186202,-0.533374 0.485214,-1.257256 0.66447,-1.608629 0.179257,-0.351371 0.275934,-0.720459 0.21484,-0.820196 -0.06109,-0.09973 -1.715925,-2.258729 -3.677402,-4.797764 C 10.029569,16.282007 8.3492546,14.083768 8.2570133,13.936065 8.1113863,13.702878 8.4228189,13.33356 10.62194,11.13158 c 1.392954,-1.3947626 2.583353,-2.5359336 2.645331,-2.5359336 0.100685,0 2.142942,1.5264536 8.219793,6.1437566 l 1.915137,1.455159 0.695233,-0.349553 c 0.382377,-0.192255 1.106973,-0.498566 1.61021,-0.680694 0.819151,-0.296459 0.922715,-0.380477 0.988843,-0.802243 0.04059,-0.259106 0.395575,-3.021807 0.788751,-6.139335 0.39319,-3.1175271 0.778692,-5.7521359 0.856687,-5.8546868 0.168313,-0.2213384 6.755852,-0.2682453 7.099617,-0.05055 0.146534,0.092796 0.442589,1.8540724 1.008807,6.0015661 0.44078,3.2286287 0.833247,6.0127587 0.872144,6.1869547 0.0513,0.229457 0.32812,0.410915 1.004908,0.658589 0.513793,0.188029 1.240434,0.49335 1.614765,0.678494 l 0.680592,0.336624 0.505703,-0.398559 c 3.815197,-3.006927 9.367382,-7.1855196 9.547535,-7.1855196 0.260024,0 5.068195,4.7748296 5.068195,5.0330516 0,0.09063 -1.688956,2.395211 -3.753248,5.12129 -3.528371,4.65953 -3.743524,4.979734 -3.590882,5.34407 0.08934,0.213154 0.399392,0.958109 0.689084,1.65545 l 0.526718,1.267894 6.084743,0.782098 c 3.346597,0.430153 6.168632,0.814009 6.271192,0.85301 0.142007,0.05401 0.186449,0.923342 0.186449,3.64673 0,1.966697 -0.05385,3.609104 -0.119745,3.649789 -0.06577,0.04069 -2.868246,0.452467 -6.227594,0.915068 -3.359348,0.462601 -6.144053,0.886358 -6.188241,0.941685 -0.0442,0.05533 -0.36691,0.813837 -0.717185,1.685582 l -0.636846,1.584988 3.570965,4.620952 c 1.964022,2.541522 3.677878,4.784138 3.808566,4.983587 0.236182,0.360468 0.222145,0.37808 -2.346697,2.943785 l -2.584313,2.581145 -3.117447,-2.356928 c -1.714593,-1.29631 -3.978379,-3.012552 -5.030637,-3.813871 l -1.91319,-1.456941 -0.697188,0.350539 c -0.383439,0.192796 -1.117769,0.502782 -1.631843,0.688859 -0.680056,0.246156 -0.952858,0.424064 -1.001426,0.653078 -0.0367,0.173118 -0.374264,2.764779 -0.750122,5.759247 -0.375844,2.994467 -0.721391,5.662639 -0.767856,5.929268 l -0.08452,0.484784 -3.642598,0 c -2.78078,0 -3.657612,-0.04411 -3.706086,-0.186455 z m 6.005275,-21.05872 c 1.490345,-0.396354 2.724095,-1.135333 4.002409,-2.39732 1.851643,-1.828001 2.746477,-3.919303 2.741896,-6.408102 -0.0067,-3.53506 -1.944894,-6.631918 -5.143953,-8.218172 -3.472771,-1.721979 -7.660356,-1.006697 -10.434331,1.782289 -1.760268,1.769794 -2.617519,3.875629 -2.617519,6.429932 0,2.1775 0.552488,3.834613 1.850106,5.549142 2.171564,2.869262 6.082504,4.198065 9.601392,3.262231 z"
       id="path3154"
       inkscape:connector-curvature="0" />
    <path
       style="fill:#ff2600;stroke:#ff2600;stroke-width:10;stroke-linecap:round;stroke-linejoin:miter;stroke-opacity:1"
       d="M 32.119341,31.904099 43.374839,9.3458998"
       id="path3306"
       inkscape:connector-curvature="0"
       inkscape:transform-center-x="-2.065272"
       inkscape:transform-center-y="-11.693182"
       sodipodi:nodetypes="cc" />
    <path
       style="fill:#ff2600;stroke:#ff2600;stroke-width:10;stroke-linecap:round;stroke-linejoin:miter;stroke-opacity:1"
       d="m 32,32 17.636364,8.727272"
       id="path3308"
       inkscape:connector-curvature="0"
       sodipodi:nodetypes="cc" />
  </g>
</svg>
