<?xml version="1.0" encoding="UTF-8" standalone="no"?>
<!-- Created with Inkscape (http://www.inkscape.org/) -->

<svg
   width="64"
   height="64"
   id="svg2869"
   version="1.1"
   viewBox="0 0 64 64"
   xmlns:xlink="http://www.w3.org/1999/xlink"
   xmlns="http://www.w3.org/2000/svg"
   xmlns:svg="http://www.w3.org/2000/svg"
   xmlns:rdf="http://www.w3.org/1999/02/22-rdf-syntax-ns#"
   xmlns:cc="http://creativecommons.org/ns#"
   xmlns:dc="http://purl.org/dc/elements/1.1/">
  <title
     id="title23">crowngear</title>
  <defs
     id="defs2871">
    <linearGradient
       id="linearGradient154">
      <stop
         style="stop-color:#fce94f;stop-opacity:1"
         offset="0"
         id="stop155" />
      <stop
         style="stop-color:#c4a000;stop-opacity:1"
         offset="1"
         id="stop156" />
    </linearGradient>
    <linearGradient
       id="linearGradient152">
      <stop
         style="stop-color:#c4a000;stop-opacity:1"
         offset="0"
         id="stop152" />
      <stop
         style="stop-color:#fce94f;stop-opacity:1"
         offset="0.5"
         id="stop154" />
      <stop
         style="stop-color:#c4a000;stop-opacity:1"
         offset="1"
         id="stop153" />
    </linearGradient>
    <linearGradient
       id="linearGradient5">
      <stop
         style="stop-color:#ef2929;stop-opacity:1;"
         offset="0"
         id="stop19" />
      <stop
         style="stop-color:#ef2929;stop-opacity:0;"
         offset="1"
         id="stop20" />
    </linearGradient>
    <linearGradient
       id="swatch18">
      <stop
         style="stop-color:#ef2929;stop-opacity:1;"
         offset="0"
         id="stop18" />
    </linearGradient>
    <linearGradient
       id="swatch15">
      <stop
         style="stop-color:#3d0000;stop-opacity:1;"
         offset="0"
         id="stop15" />
    </linearGradient>
    <linearGradient
       id="linearGradient5-1">
      <stop
         style="stop-color:#ef2929;stop-opacity:1;"
         offset="0"
         id="stop5" />
      <stop
         style="stop-color:#ef2929;stop-opacity:0;"
         offset="1"
         id="stop6" />
    </linearGradient>
    <linearGradient
       id="linearGradient3836-9">
      <stop
         style="stop-color:#a40000;stop-opacity:1"
         offset="0"
         id="stop3838-8" />
      <stop
         style="stop-color:#ef2929;stop-opacity:1"
         offset="1"
         id="stop3840-1" />
    </linearGradient>
    <linearGradient
       xlink:href="#linearGradient152"
       id="linearGradient153"
       x1="0"
       y1="32.547905"
       x2="64"
       y2="32.547905"
       gradientUnits="userSpaceOnUse" />
    <linearGradient
       xlink:href="#linearGradient154"
       id="linearGradient156"
       x1="55.338173"
       y1="17.24687"
       x2="50.191875"
       y2="28.1558"
       gradientUnits="userSpaceOnUse" />
    <linearGradient
       xlink:href="#linearGradient154"
       id="linearGradient157"
       gradientUnits="userSpaceOnUse"
       x1="8.6618271"
       y1="17.24687"
       x2="13.808124"
       y2="28.1558" />
  </defs>
  <metadata
     id="metadata2874">
    <rdf:RDF>
      <cc:Work
         rdf:about="">
        <dc:format>image/svg+xml</dc:format>
        <dc:type
           rdf:resource="http://purl.org/dc/dcmitype/StillImage" />
        <dc:creator>
          <cc:Agent>
            <dc:title>[maxwxyz]</dc:title>
          </cc:Agent>
        </dc:creator>
        <dc:relation>https://www.freecad.org/wiki/index.php?title=Artwork</dc:relation>
        <dc:publisher>
          <cc:Agent>
            <dc:title>FreeCAD</dc:title>
          </cc:Agent>
        </dc:publisher>
        <dc:identifier>FreeCAD/src/</dc:identifier>
        <dc:rights>
          <cc:Agent>
            <dc:title>FreeCAD LGPL2+</dc:title>
          </cc:Agent>
        </dc:rights>
        <dc:date>2024</dc:date>
        <dc:title>crowngear</dc:title>
      </cc:Work>
    </rdf:RDF>
  </metadata>
  <g
     id="layer3"
     style="display:inline">
    <path
       d="M 4.9632063,17.24687 C 4.148358,21.353739 3.3530297,25.263611 3.0959125,29.049374 H 3.0000001 V 46.753129 H 61 V 29.049374 H 60.90409 C 60.646972,25.263611 59.851644,21.353739 59.036794,17.24687 h -0.500543 c -0.896918,4.106869 -2.33911,8.016741 -4.426953,11.802504 h -3.341947 c -0.603225,-0.932662 -1.213728,-1.872475 -1.822335,-2.821013 -0.433165,-0.674438 -0.858844,-1.356503 -1.285824,-2.040276 -0.149577,-0.23945 -0.301305,-0.476053 -0.44959,-0.716691 -0.408448,-0.663227 -0.80462,-1.333937 -1.198904,-2.00673 -0.159439,-0.271876 -0.323162,-0.540752 -0.479562,-0.81428 -0.125638,-0.219832 -0.2482,-0.440884 -0.371661,-0.661794 -0.382905,-0.685037 -0.76059,-1.371608 -1.117978,-2.067726 -0.006,-0.01156 -0.01197,-0.02786 -0.01799,-0.03965 l -0.323704,-0.634346 h -1.207897 c -2.083261,4.106869 -4.921834,8.016741 -8.131569,11.802503 h -4.720681 c -3.209736,-3.785758 -6.048309,-7.69563 -8.13157,-11.802499 h -1.207895 l -0.344686,0.673993 c -0.357388,0.696119 -0.732076,1.38269 -1.114981,2.067726 -0.123458,0.22091 -0.24602,0.441963 -0.371661,0.661794 -0.156398,0.273529 -0.320122,0.542404 -0.479562,0.814281 -0.394282,0.672793 -0.790456,1.343503 -1.198904,2.00673 -0.148288,0.240638 -0.300011,0.477241 -0.449588,0.71669 -0.426982,0.683773 -0.852661,1.365838 -1.285826,2.040277 -0.608607,0.948537 -1.219109,1.88835 -1.822335,2.821012 H 9.8907029 C 7.8028582,25.263613 6.3606678,21.353741 5.4637476,17.246872 Z"
       style="fill:#fce94f;fill-opacity:1;fill-rule:evenodd;stroke:#231f0b;stroke-width:2;stroke-linecap:round;stroke-linejoin:round;stroke-dasharray:none;stroke-opacity:1"
       id="path145" />
    <path
       d="m 50.191876,28.155799 c 0.1922,0.296797 0.384489,0.598285 0.575475,0.893575 h 3.341947 c 2.087843,-3.785763 3.530035,-7.695635 4.426953,-11.802504 h -6.396154 l -0.179836,0.939322 c -0.398463,3.359489 -0.988161,6.683753 -1.768385,9.969607 z"
       style="fill:url(#linearGradient156);fill-opacity:1;fill-rule:evenodd;stroke:#231f0b;stroke-width:2;stroke-linecap:round;stroke-linejoin:round;stroke-dasharray:none;stroke-opacity:1"
       id="path149" />
    <path
       d="m 5.4637491,17.24687 c 0.8969202,4.106869 2.3391106,8.016741 4.4269553,11.802504 H 13.23265 c 0.190987,-0.29529 0.383275,-0.596778 0.575474,-0.893575 -0.780223,-3.285854 -1.36992,-6.610118 -1.768384,-9.969607 L 11.859905,17.24687 Z"
       style="fill:url(#linearGradient157);fill-opacity:1;fill-rule:evenodd;stroke:#231f0b;stroke-width:2;stroke-linecap:round;stroke-linejoin:round;stroke-dasharray:none;stroke-opacity:1;font-variation-settings:normal;opacity:1;vector-effect:none;stroke-miterlimit:4;stroke-dashoffset:0;-inkscape-stroke:none;stop-color:#000000;stop-opacity:1"
       id="path146" />
    <path
       d="m 21.508088,17.24687 c 2.083261,4.106869 4.921834,8.016741 8.131569,11.802504 h 0.530515 l -0.488553,-0.860027 v 0 l -0.01197,-0.02135 c -0.0089,-0.01624 -0.01817,-0.03254 -0.02698,-0.0488 v 0 c -0.391123,-0.721812 -0.750909,-1.471305 -1.082011,-2.244611 -0.147997,-0.346618 -0.287799,-0.698159 -0.419616,-1.05521 v 0 c -0.101222,-0.27416 -0.199057,-0.549209 -0.290734,-0.82953 v 0 c -0.627136,-1.920737 -1.160291,-3.85678 -1.600538,-5.80366 l -0.254768,-0.939322 z"
       style="fill:#edd400;fill-opacity:1;fill-rule:evenodd;stroke:#231f0b;stroke-width:2;stroke-linecap:round;stroke-linejoin:round;stroke-dasharray:none;stroke-opacity:1"
       id="path147" />
    <path
       d="m 33.829829,29.049374 h 0.530515 c 3.209735,-3.785763 6.048308,-7.695635 8.131569,-11.802504 h -4.4869 l -0.254768,0.939322 c -0.440245,1.94688 -0.9734,3.882923 -1.600536,5.80366 -0.125929,0.385056 -0.263702,0.761072 -0.407628,1.134503 -0.05096,0.132459 -0.105764,0.262527 -0.158855,0.393417 -0.04832,0.118749 -0.09369,0.239273 -0.143868,0.35682 -0.04506,0.105243 -0.0947,0.206788 -0.140877,0.311074 -0.04504,0.101699 -0.08549,0.207308 -0.131883,0.308023 -0.05222,0.113769 -0.10845,0.22304 -0.161852,0.335472 -0.05787,0.122138 -0.114389,0.245198 -0.173841,0.365969 -0.124318,0.252324 -0.253256,0.498744 -0.38365,0.744138 -0.04008,0.07534 -0.07616,0.15393 -0.11689,0.22873 z"
       style="fill:#edd400;fill-opacity:1;fill-rule:evenodd;stroke:#231f0b;stroke-width:2;stroke-linecap:round;stroke-linejoin:round;stroke-dasharray:none;stroke-opacity:1"
       id="path148" />
    <path
       d="m 58.922732,29.238605 c -0.0051,-0.01826 -0.0099,-0.0366 -0.01453,-0.05501 -0.100218,-1.475602 -0.301312,-2.983117 -0.541016,-4.517578 -0.71168,1.811984 -1.538299,3.59519 -2.505859,5.349609 -0.352196,0.637803 -1.023369,1.033623 -1.751953,1.033203 h -3.341797 c -0.678723,6.2e-5 -1.311162,-0.344102 -1.679687,-0.914062 -0.602392,-0.931375 -1.21545,-1.874338 -1.826172,-2.826172 -0.440352,-0.685628 -0.87261,-1.379947 -1.298828,-2.0625 -0.14363,-0.22993 -0.300903,-0.473197 -0.457032,-0.726563 -0.419448,-0.681089 -0.823853,-1.365797 -1.220703,-2.042969 -0.154619,-0.263657 -0.325777,-0.546365 -0.490234,-0.833984 -0.130967,-0.229156 -0.259331,-0.460281 -0.38086,-0.677734 -0.11284,-0.201877 -0.222577,-0.417616 -0.335937,-0.623047 -2.010368,3.484098 -4.487089,6.808056 -7.193359,10 -0.379902,0.448328 -0.937749,0.706895 -1.525391,0.707031 h -4.71875 c -0.587642,-1.36e-4 -1.145489,-0.258703 -1.525391,-0.707031 -2.706272,-3.191942 -5.182992,-6.515901 -7.193359,-10 -0.113118,0.205866 -0.222229,0.419617 -0.335938,0.623047 -0.121458,0.217331 -0.250086,0.448923 -0.380859,0.677734 -0.164642,0.287947 -0.335315,0.569816 -0.490234,0.833984 -0.396547,0.676658 -0.801535,1.362335 -1.220703,2.042969 -0.156413,0.253823 -0.315181,0.498309 -0.458985,0.728516 -0.426049,0.68228 -0.856037,1.374161 -1.296875,2.060547 -0.610237,0.951078 -1.223778,1.894796 -1.826172,2.826172 -0.368525,0.56996 -1.000964,0.914124 -1.679687,0.914062 H 9.890625 c -0.7285839,4.2e-4 -1.3997568,-0.3954 -1.7519531,-1.033203 -0.9675608,-1.754419 -1.794179,-3.537624 -2.5058594,-5.349609 -0.2397034,1.534461 -0.4407974,3.041976 -0.5410156,4.517578 -0.00458,0.01841 -0.00943,0.03675 -0.014529,0.05501 C 5.0639834,29.36512 5.0353931,29.486386 5,29.604686 v 15.14922 h 54 v -15.14922 c -0.03539,-0.1183 -0.06398,-0.239566 -0.07727,-0.366081 z"
       style="fill:url(#linearGradient153);fill-opacity:1;fill-rule:evenodd;stroke:#fce94f;stroke-width:2;stroke-linecap:round;stroke-linejoin:round;stroke-dasharray:none;stroke-opacity:1"
       id="path150" />
  </g>
</svg>
