<?xml version="1.0" encoding="UTF-8" standalone="no"?>
<!-- Created with Inkscape (http://www.inkscape.org/) -->

<svg
   width="64"
   height="64"
   id="svg2869"
   version="1.1"
   viewBox="0 0 64 64"
   xmlns:xlink="http://www.w3.org/1999/xlink"
   xmlns="http://www.w3.org/2000/svg"
   xmlns:svg="http://www.w3.org/2000/svg"
   xmlns:rdf="http://www.w3.org/1999/02/22-rdf-syntax-ns#"
   xmlns:cc="http://creativecommons.org/ns#"
   xmlns:dc="http://purl.org/dc/elements/1.1/">
  <title
     id="title23">cycloidgear</title>
  <defs
     id="defs2871">
    <linearGradient
       id="linearGradient22">
      <stop
         style="stop-color:#c4a000;stop-opacity:1"
         offset="0"
         id="stop22" />
      <stop
         style="stop-color:#fce94f;stop-opacity:1"
         offset="1"
         id="stop23" />
    </linearGradient>
    <linearGradient
       id="linearGradient5">
      <stop
         style="stop-color:#ef2929;stop-opacity:1;"
         offset="0"
         id="stop19" />
      <stop
         style="stop-color:#ef2929;stop-opacity:0;"
         offset="1"
         id="stop20" />
    </linearGradient>
    <linearGradient
       id="swatch18">
      <stop
         style="stop-color:#ef2929;stop-opacity:1;"
         offset="0"
         id="stop18" />
    </linearGradient>
    <linearGradient
       id="swatch15">
      <stop
         style="stop-color:#3d0000;stop-opacity:1;"
         offset="0"
         id="stop15" />
    </linearGradient>
    <linearGradient
       id="linearGradient5-1">
      <stop
         style="stop-color:#ef2929;stop-opacity:1;"
         offset="0"
         id="stop5" />
      <stop
         style="stop-color:#ef2929;stop-opacity:0;"
         offset="1"
         id="stop6" />
    </linearGradient>
    <linearGradient
       id="linearGradient3836-9">
      <stop
         style="stop-color:#a40000;stop-opacity:1"
         offset="0"
         id="stop3838-8" />
      <stop
         style="stop-color:#ef2929;stop-opacity:1"
         offset="1"
         id="stop3840-1" />
    </linearGradient>
    <linearGradient
       xlink:href="#linearGradient22"
       id="linearGradient23"
       x1="64"
       y1="64"
       x2="0"
       y2="0"
       gradientUnits="userSpaceOnUse" />
  </defs>
  <metadata
     id="metadata2874">
    <rdf:RDF>
      <cc:Work
         rdf:about="">
        <dc:format>image/svg+xml</dc:format>
        <dc:type
           rdf:resource="http://purl.org/dc/dcmitype/StillImage" />
        <dc:creator>
          <cc:Agent>
            <dc:title>[maxwxyz]</dc:title>
          </cc:Agent>
        </dc:creator>
        <dc:relation>https://www.freecad.org/wiki/index.php?title=Artwork</dc:relation>
        <dc:publisher>
          <cc:Agent>
            <dc:title>FreeCAD</dc:title>
          </cc:Agent>
        </dc:publisher>
        <dc:identifier>FreeCAD/src/</dc:identifier>
        <dc:rights>
          <cc:Agent>
            <dc:title>FreeCAD LGPL2+</dc:title>
          </cc:Agent>
        </dc:rights>
        <dc:date>2024</dc:date>
        <dc:title>cycloidgear</dc:title>
      </cc:Work>
    </rdf:RDF>
  </metadata>
  <g
     id="layer3"
     style="display:inline">
    <path
       d="m 30.428662,3 c -0.934266,1.172378 -1.692924,2.446958 -2.275215,3.827046 -0.262589,0.632192 -0.466199,1.284852 -0.609326,1.954044 -0.120364,0.613664 -0.208983,1.245881 -0.123069,1.87 l 1.227656,5.730063 -5.324845,2.206178 -3.181701,-4.919628 C 19.761593,13.165619 19.250452,12.779896 18.731408,12.431041 18.15701,12.059067 17.554156,11.743914 16.921441,11.482535 15.53386,10.918417 14.09477,10.552334 12.605133,10.383947 l -2.221186,2.221187 c 0.168386,1.489636 0.53447,2.928726 1.098586,4.316307 0.261381,0.632715 0.576534,1.235569 0.948508,1.809967 0.348855,0.519044 0.734577,1.030185 1.23666,1.410754 l 4.91963,3.181702 -2.20618,5.324844 -5.730061,-1.227656 c -0.624119,-0.08592 -1.256337,0.0028 -1.87,0.123069 C 8.111898,27.687245 7.459237,27.890859 6.827046,28.153448 5.446957,28.735739 4.172378,29.494397 3,30.428664 v 3.142679 c 1.172378,0.934267 2.446957,1.692925 3.827046,2.275216 0.632191,0.262589 1.284852,0.463198 1.954044,0.606324 0.613663,0.120363 1.245881,0.211986 1.87,0.126065 l 5.730061,-1.230659 2.20618,5.327848 -4.91963,3.181701 c -0.502083,0.38057 -0.887805,0.89171 -1.23666,1.410755 -0.371974,0.574398 -0.687127,1.177251 -0.948508,1.809967 -0.564116,1.38758 -0.9302,2.826671 -1.098586,4.316307 l 2.221186,2.221186 c 1.489637,-0.168386 2.928727,-0.534469 4.316308,-1.098587 0.632715,-0.26138 1.235569,-0.576533 1.809967,-0.948506 0.519044,-0.348856 1.030185,-0.73458 1.410754,-1.236662 l 3.181701,-4.919628 5.324845,2.206178 -1.227656,5.727061 c -0.08592,0.624119 0.0028,1.259338 0.123069,1.873001 0.143124,0.669192 0.346737,1.318851 0.609326,1.951043 0.582291,1.380088 1.340949,2.657669 2.275215,3.830047 h 3.14268 c 0.934268,-1.172378 1.692926,-2.449959 2.275217,-3.830047 0.262589,-0.632192 0.463198,-1.281851 0.606323,-1.951043 0.120364,-0.613663 0.211986,-1.248882 0.126066,-1.873001 l -1.230659,-5.727061 5.327848,-2.206178 3.181701,4.919628 c 0.380569,0.502082 0.89171,0.887806 1.410753,1.236662 0.574399,0.371973 1.177253,0.687126 1.809968,0.948506 1.387581,0.564118 2.826671,0.930201 4.316308,1.098587 l 2.221186,-2.221186 C 53.447667,49.90523 53.081583,48.46614 52.517465,47.07856 52.256086,46.445844 51.940933,45.84299 51.568959,45.268593 51.220104,44.749548 50.83438,44.238407 50.332298,43.857838 l -4.91963,-3.181701 2.206179,-5.327848 5.727062,1.230659 c 0.624119,0.08592 1.259338,-0.0057 1.873001,-0.126065 0.669192,-0.143125 1.318851,-0.343735 1.951043,-0.606324 C 58.550041,35.264268 59.827622,34.50561 61,33.571343 v -3.142679 c -1.172378,-0.934267 -2.449959,-1.692925 -3.830047,-2.275216 -0.632192,-0.262589 -1.281851,-0.4662 -1.951043,-0.609327 -0.613663,-0.120364 -1.248882,-0.208983 -1.873001,-0.123069 l -5.727062,1.227656 -2.206179,-5.324844 4.91963,-3.181702 c 0.502082,-0.380569 0.887806,-0.89171 1.236661,-1.410754 0.371974,-0.574398 0.687127,-1.177252 0.948506,-1.809967 0.564118,-1.387581 0.930202,-2.826671 1.098588,-4.316307 l -2.221186,-2.221187 c -1.489637,0.168387 -2.928727,0.53447 -4.316308,1.098588 -0.632715,0.261379 -1.235569,0.576532 -1.809968,0.948506 -0.519043,0.348855 -1.030184,0.734578 -1.410753,1.236662 l -3.181701,4.919628 -5.327848,-2.206178 1.230659,-5.730063 c 0.08592,-0.624119 -0.0057,-1.256336 -0.126066,-1.87 C 36.309758,8.111898 36.109148,7.459238 35.846559,6.827046 35.264268,5.446958 34.50561,4.172378 33.571342,3 Z"
       style="display:inline;fill:#fce94f;fill-rule:evenodd;stroke:#231f0b;stroke-width:2;stroke-linecap:round;stroke-linejoin:round;stroke-dasharray:none;stroke-opacity:1"
       id="path23" />
    <path
       d="m 31.431641,5 h 1.136718 c 0.565255,0.8125522 1.042253,1.6774911 1.429688,2.59375 0.210927,0.5078143 0.376156,1.035704 0.49414,1.5800781 0.104144,0.5326698 0.141091,0.8794819 0.105469,1.1738279 l -1.205078,5.613282 c -0.202761,0.943868 0.297653,1.897859 1.189453,2.267578 l 5.328125,2.207031 c 0.892106,0.369748 1.921001,0.04925 2.445313,-0.761719 l 3.115234,-4.816406 c 0.179916,-0.229941 0.45204,-0.45222 0.886719,-0.746094 l 0.0039,-0.002 c 0.467432,-0.302392 0.957036,-0.560497 1.470703,-0.773437 0.926719,-0.376756 1.879557,-0.650794 2.859375,-0.826172 l 0.798828,0.798828 c -0.175377,0.979817 -0.449416,1.932655 -0.826172,2.859375 -0.21294,0.513668 -0.471046,1.003274 -0.773437,1.470703 -7.91e-4,0.0012 -0.0012,0.0027 -0.002,0.0039 -0.293872,0.434676 -0.516151,0.7068 -0.746094,0.886719 l -4.816406,3.115234 c -0.810965,0.524312 -1.131467,1.553207 -0.761719,2.445313 l 2.207031,5.324218 c 0.36958,0.89094 1.322401,1.391172 2.265625,1.189454 l 5.609375,-1.201172 c 0.297451,-0.03641 0.650419,6.2e-5 1.179688,0.103515 0.0031,6.06e-4 0.0047,0.0013 0.0078,0.002 0.536016,0.116751 1.057666,0.282018 1.56836,0.494141 0.919173,0.388655 1.784837,0.864743 2.597656,1.429688 v 1.136718 c -0.812819,0.564945 -1.678483,1.041033 -2.597656,1.429688 -0.509129,0.211473 -1.034709,0.376753 -1.576172,0.49414 -0.5315,0.103903 -0.88392,0.140982 -1.177735,0.105469 l -5.609375,-1.205078 c -0.943868,-0.202761 -1.897859,0.297653 -2.267578,1.189453 l -2.207031,5.328125 c -0.369748,0.892106 -0.04925,1.921001 0.761719,2.445313 l 4.816406,3.115234 c 0.23068,0.180495 0.452755,0.453509 0.748047,0.890625 0.30239,0.467427 0.560497,0.957035 0.773437,1.470703 0.376756,0.926719 0.650795,1.879558 0.826172,2.859375 l -0.798828,0.798828 c -0.979817,-0.175377 -1.932655,-0.449416 -2.859375,-0.826172 -0.513669,-0.212941 -1.00327,-0.471045 -1.470703,-0.773437 -0.0012,-7.91e-4 -0.0027,-0.0012 -0.0039,-0.002 -0.43468,-0.293875 -0.706802,-0.516153 -0.886719,-0.746094 l -3.115234,-4.816406 c -0.524312,-0.810965 -1.553207,-1.131467 -2.445313,-0.761719 l -5.328125,2.207031 c -0.8918,0.369719 -1.392214,1.32371 -1.189453,2.267578 l 1.205078,5.609375 c 0.03551,0.293813 -0.0016,0.646232 -0.105469,1.177735 -0.117387,0.541463 -0.282667,1.067043 -0.49414,1.576172 C 33.609392,57.321517 33.133303,58.187182 32.568359,59 h -1.136718 c -0.564945,-0.812819 -1.041034,-1.678484 -1.429688,-2.597656 -0.212125,-0.510698 -0.377394,-1.032354 -0.494141,-1.56836 l -0.002,-0.0078 c -0.103438,-0.529608 -0.139896,-0.882409 -0.103515,-1.179688 l 1.201172,-5.609375 c 0.201718,-0.943224 -0.298514,-1.896045 -1.189454,-2.265625 l -5.324218,-2.207031 c -0.892106,-0.369748 -1.921001,-0.04925 -2.445313,0.761719 l -3.115234,4.816406 c -0.180494,0.230678 -0.453506,0.452751 -0.890625,0.748047 -0.467431,0.302391 -0.957034,0.560495 -1.470703,0.773437 -0.92672,0.376756 -1.879558,0.650795 -2.859375,0.826172 l -0.798828,-0.798828 c 0.175378,-0.979817 0.449416,-1.932654 0.826172,-2.859375 0.212944,-0.513674 0.471047,-1.003276 0.773437,-1.470703 7.91e-4,-0.0012 0.0012,-0.0027 0.002,-0.0039 0.293871,-0.434676 0.516148,-0.706798 0.746094,-0.886719 l 4.816406,-3.115234 c 0.810965,-0.524312 1.131467,-1.553207 0.761719,-2.445313 l -2.207031,-5.328125 c -0.369719,-0.8918 -1.32371,-1.392214 -2.267578,-1.189453 l -5.613282,1.205078 c -0.294338,0.03562 -0.6411478,-0.0013 -1.1738279,-0.105469 -0.00312,-6.09e-4 -0.00468,-0.0013 -0.00781,-0.002 C 8.6244249,34.372372 8.0990988,34.20795 7.59375,33.998047 6.6774914,33.610612 5.8125526,33.133615 5,32.568359 v -1.136718 c 0.8125526,-0.565256 1.6774914,-1.042253 2.59375,-1.429688 0.5087357,-0.21131 1.0339265,-0.376922 1.5722656,-0.494141 l 0.00977,-0.002 c 0.529524,-0.10335 0.8764107,-0.139955 1.1738277,-0.103515 l 5.613282,1.201172 c 0.943224,0.201718 1.896045,-0.298514 2.265625,-1.189454 l 2.207031,-5.324218 c 0.369748,-0.892106 0.04925,-1.921001 -0.761719,-2.445313 L 14.857422,18.529297 C 14.62748,18.349379 14.4052,18.077256 14.111328,17.642578 l -0.002,-0.0039 C 13.806986,17.171245 13.548882,16.681644 13.335938,16.167969 12.959182,15.241247 12.685144,14.28841 12.509766,13.308594 l 0.798828,-0.798828 c 0.979818,0.175378 1.932656,0.449416 2.859375,0.826172 0.513668,0.21294 1.003274,0.471046 1.470703,0.773437 0.0012,7.91e-4 0.0027,0.0012 0.0039,0.002 0.434679,0.293873 0.706802,0.516152 0.886719,0.746094 l 3.115234,4.816406 c 0.524312,0.810965 1.553207,1.131467 2.445313,0.761719 l 5.324218,-2.207031 c 0.89094,-0.36958 1.391172,-1.322401 1.189454,-2.265625 l -1.201172,-5.613282 c -0.03646,-0.297588 1.5e-4,-0.6446385 0.103515,-1.1738277 7.54e-4,-0.00386 0.0012,-0.00589 0.002,-0.00977 C 29.625035,8.6276661 29.790644,8.1024833 30.001953,7.59375 30.389388,6.6774923 30.866385,5.8125533 31.431641,5 Z"
       style="font-variation-settings:normal;display:inline;opacity:1;vector-effect:none;fill:url(#linearGradient23);fill-opacity:1;fill-rule:evenodd;stroke:#fce94f;stroke-width:2;stroke-linecap:round;stroke-linejoin:round;stroke-miterlimit:4;stroke-dasharray:none;stroke-dashoffset:0;stroke-opacity:1;-inkscape-stroke:none;stop-color:#000000;stop-opacity:1"
       id="path24" />
    <path
       style="fill:none;stroke:#ef2929;stroke-width:8;stroke-linecap:round;stroke-linejoin:miter;stroke-dasharray:none;stroke-opacity:1"
       d="M 32.109498,32 42.754616,9.1474279"
       id="path3306" />
    <path
       style="fill:none;stroke:#ef2929;stroke-width:8;stroke-linecap:round;stroke-linejoin:miter;stroke-dasharray:none;stroke-opacity:1"
       d="M 31.992778,32.099074 49.85734,40.349167"
       id="path3308" />
  </g>
</svg>
