<?xml version="1.0" encoding="UTF-8" standalone="no"?>
<!-- Created with Inkscape (http://www.inkscape.org/) -->

<svg
   width="64"
   height="64"
   id="svg2869"
   version="1.1"
   viewBox="0 0 64 64"
   xmlns:xlink="http://www.w3.org/1999/xlink"
   xmlns="http://www.w3.org/2000/svg"
   xmlns:svg="http://www.w3.org/2000/svg"
   xmlns:rdf="http://www.w3.org/1999/02/22-rdf-syntax-ns#"
   xmlns:cc="http://creativecommons.org/ns#"
   xmlns:dc="http://purl.org/dc/elements/1.1/">
  <title
     id="title23">FCGear Cycloid Rack</title>
  <defs
     id="defs2871">
    <linearGradient
       id="linearGradient5">
      <stop
         style="stop-color:#ef2929;stop-opacity:1;"
         offset="0"
         id="stop19" />
      <stop
         style="stop-color:#ef2929;stop-opacity:0;"
         offset="1"
         id="stop20" />
    </linearGradient>
    <linearGradient
       id="swatch18">
      <stop
         style="stop-color:#ef2929;stop-opacity:1;"
         offset="0"
         id="stop18" />
    </linearGradient>
    <linearGradient
       id="swatch15">
      <stop
         style="stop-color:#3d0000;stop-opacity:1;"
         offset="0"
         id="stop15" />
    </linearGradient>
    <linearGradient
       id="linearGradient5-1">
      <stop
         style="stop-color:#ef2929;stop-opacity:1;"
         offset="0"
         id="stop5" />
      <stop
         style="stop-color:#ef2929;stop-opacity:0;"
         offset="1"
         id="stop6" />
    </linearGradient>
    <linearGradient
       id="linearGradient3836-9">
      <stop
         style="stop-color:#a40000;stop-opacity:1"
         offset="0"
         id="stop3838-8" />
      <stop
         style="stop-color:#ef2929;stop-opacity:1"
         offset="1"
         id="stop3840-1" />
    </linearGradient>
    <linearGradient
       xlink:href="#linearGradient59"
       id="linearGradient846"
       x1="58.196716"
       y1="49.972424"
       x2="58.197704"
       y2="17.442623"
       gradientUnits="userSpaceOnUse"
       gradientTransform="matrix(1.0428047,0,0,1.0432797,-1.3697824,-1.3849651)" />
    <linearGradient
       id="linearGradient59">
      <stop
         style="stop-color:#c4a000;stop-opacity:1;"
         offset="0"
         id="stop59" />
      <stop
         style="stop-color:#fce94f;stop-opacity:1;"
         offset="0.67682928"
         id="stop58" />
      <stop
         style="stop-color:#c4a000;stop-opacity:1;"
         offset="1"
         id="stop805" />
    </linearGradient>
    <linearGradient
       xlink:href="#linearGradient59"
       id="linearGradient842"
       x1="24.211432"
       y1="49.059666"
       x2="24.858622"
       y2="12.503376"
       gradientUnits="userSpaceOnUse"
       gradientTransform="matrix(1.0428047,0,0,1.0432797,-1.3697824,-1.3849651)" />
    <linearGradient
       xlink:href="#linearGradient59"
       id="linearGradient840"
       x1="7.8155646"
       y1="50.543022"
       x2="8.3967581"
       y2="12.291364"
       gradientUnits="userSpaceOnUse"
       gradientTransform="matrix(1.0428047,0,0,1.0432797,-1.3697824,-1.3849651)" />
    <linearGradient
       xlink:href="#linearGradient59"
       id="linearGradient844"
       x1="41.310841"
       y1="50.331081"
       x2="41.639793"
       y2="14.198631"
       gradientUnits="userSpaceOnUse"
       gradientTransform="matrix(1.0428047,0,0,1.0432797,-1.3697824,-1.3849651)" />
    <linearGradient
       xlink:href="#linearGradient59-1"
       id="linearGradient775"
       x1="1615.5502"
       y1="963.38916"
       x2="1705.1536"
       y2="1063.3772"
       gradientUnits="userSpaceOnUse" />
    <linearGradient
       id="linearGradient59-1">
      <stop
         style="stop-color:#fce94f;stop-opacity:1"
         offset="0"
         id="stop59-0" />
      <stop
         style="stop-color:#c4a000;stop-opacity:1"
         offset="1"
         id="stop58-6" />
    </linearGradient>
    <linearGradient
       xlink:href="#linearGradient6"
       id="linearGradient777"
       x1="1493.8453"
       y1="882.08173"
       x2="1598.384"
       y2="1011.619"
       gradientUnits="userSpaceOnUse" />
    <linearGradient
       id="linearGradient6">
      <stop
         style="stop-color:#729fcf;stop-opacity:1;"
         offset="0"
         id="stop6-7" />
      <stop
         style="stop-color:#3465a4;stop-opacity:1;"
         offset="1"
         id="stop5-3" />
    </linearGradient>
    <linearGradient
       xlink:href="#linearGradient6"
       id="linearGradient777-6"
       x1="1493.8453"
       y1="882.08173"
       x2="1598.384"
       y2="1011.619"
       gradientUnits="userSpaceOnUse" />
    <linearGradient
       xlink:href="#linearGradient22"
       id="linearGradient23"
       x1="64"
       y1="64"
       x2="0"
       y2="0"
       gradientUnits="userSpaceOnUse" />
    <linearGradient
       id="linearGradient22">
      <stop
         style="stop-color:#c4a000;stop-opacity:1"
         offset="0"
         id="stop22" />
      <stop
         style="stop-color:#fce94f;stop-opacity:1"
         offset="1"
         id="stop23" />
    </linearGradient>
    <linearGradient
       xlink:href="#linearGradient22"
       id="linearGradient23-0"
       x1="64"
       y1="64"
       x2="0"
       y2="0"
       gradientUnits="userSpaceOnUse" />
  </defs>
  <metadata
     id="metadata2874">
    <rdf:RDF>
      <cc:Work
         rdf:about="">
        <dc:format>image/svg+xml</dc:format>
        <dc:type
           rdf:resource="http://purl.org/dc/dcmitype/StillImage" />
        <dc:creator>
          <cc:Agent>
            <dc:title>[maxwxyz]</dc:title>
          </cc:Agent>
        </dc:creator>
        <dc:relation>https://www.freecad.org/wiki/index.php?title=Artwork</dc:relation>
        <dc:publisher>
          <cc:Agent>
            <dc:title>FreeCAD</dc:title>
          </cc:Agent>
        </dc:publisher>
        <dc:identifier>FreeCAD/src/</dc:identifier>
        <dc:rights>
          <cc:Agent>
            <dc:title>FreeCAD LGPL2+</dc:title>
          </cc:Agent>
        </dc:rights>
        <dc:date>2024</dc:date>
        <dc:title>FCGear Cycloid Rack</dc:title>
      </cc:Work>
    </rdf:RDF>
  </metadata>
  <g
     id="layer3"
     style="display:inline">
    <path
       d="M 3.9999993,47.126768 H 59.999999 V 26.26263 h -3.560382 c -0.671407,-1.522254 -1.237067,-3.112477 -1.45995,-4.768021 -0.02033,-0.156699 -0.03262,-0.314322 -0.03666,-0.472273 -0.0077,-0.178149 -0.02469,-0.353853 -0.0496,-0.5305 -0.05759,-0.410172 -0.136978,-0.816471 -0.237215,-1.218422 -0.204898,-0.817088 -0.461257,-1.617024 -0.772028,-2.400185 h -4.43592 c -0.310769,0.783161 -0.569285,1.583097 -0.774184,2.400185 -0.100232,0.401951 -0.179626,0.808251 -0.237214,1.218422 -0.02495,0.176647 -0.04183,0.352351 -0.0496,0.5305 -0.004,0.157951 -0.01422,0.315574 -0.0345,0.472273 -0.222926,1.655544 -0.7907,3.245767 -1.462107,4.768021 H 43.330258 C 42.658851,24.740376 42.091034,23.150153 41.86815,21.494609 41.84782,21.33791 41.83549,21.180287 41.83149,21.022336 41.82379,20.844187 41.809,20.668483 41.78405,20.491836 41.72646,20.081664 41.647073,19.675365 41.546835,19.273414 41.341937,18.456326 41.083379,17.65639 40.772651,16.873229 h -4.43592 c -0.310769,0.783161 -0.567129,1.583097 -0.772027,2.400185 -0.100243,0.401951 -0.179627,0.808251 -0.237215,1.218422 -0.02491,0.176647 -0.04183,0.352351 -0.0496,0.5305 -0.0041,0.157951 -0.01634,0.315574 -0.03666,0.472273 -0.222884,1.655544 -0.790701,3.245767 -1.462108,4.768021 h -3.558224 c -0.671407,-1.522254 -1.239182,-3.112477 -1.462108,-4.768021 -0.02028,-0.156699 -0.03265,-0.314322 -0.03666,-0.472273 -0.0077,-0.178149 -0.02464,-0.353853 -0.0496,-0.5305 -0.05761,-0.410172 -0.134891,-0.816471 -0.235088,-1.218422 -0.204939,-0.817088 -0.463414,-1.617024 -0.774183,-2.400185 h -4.435921 c -0.31076,0.783161 -0.56928,1.583097 -0.774183,2.400185 -0.100233,0.401951 -0.179631,0.808251 -0.237215,1.218422 -0.02494,0.176647 -0.03967,0.352351 -0.04744,0.5305 -0.004,0.157951 -0.01634,0.315574 -0.03666,0.472273 -0.222906,1.655544 -0.790705,3.245767 -1.462107,4.768021 h -3.560384 c -0.671402,-1.522254 -1.237046,-3.112477 -1.45995,-4.768021 -0.02032,-0.156699 -0.03265,-0.314322 -0.03666,-0.472273 -0.0077,-0.178149 -0.02466,-0.353853 -0.0496,-0.5305 -0.05758,-0.410172 -0.136986,-0.816471 -0.237215,-1.218422 C 15.12104,18.456326 14.862519,17.65639 14.551759,16.873229 H 10.117995 C 9.8072262,17.65639 9.5487521,18.456326 9.3438116,19.273414 9.243612,19.675365 9.1641854,20.081665 9.1065974,20.491836 9.0816441,20.668483 9.064762,20.844187 9.057,21.022336 9.0530251,21.180287 9.0406258,21.33791 9.0203429,21.494609 8.7974162,23.150153 8.2317979,24.740376 7.560392,26.26263 H 3.9999993 Z"
       style="fill:#fce94f;fill-rule:evenodd;stroke:#221e0c;stroke-width:2;stroke-linecap:round;stroke-linejoin:round;stroke-dasharray:none;stroke-opacity:1"
       id="path29" />
    <path
       d="m 11.537109,18.873047 h 1.595704 c 0.09056,0.293142 0.177341,0.587212 0.251953,0.884765 0.08293,0.332564 0.148975,0.669677 0.197265,1.013672 0.01819,0.128861 0.02894,0.237203 0.0332,0.335938 0.0061,0.205 0.02057,0.421471 0.05078,0.654297 0.257793,1.914674 0.904554,3.699761 1.613281,5.30664 0.319671,0.725274 1.03748,1.193344 1.830078,1.19336 h 3.560547 c 0.792598,-1.6e-5 1.510407,-0.468086 1.830078,-1.19336 0.708185,-1.605651 1.355967,-3.390621 1.615234,-5.316406 0.02888,-0.22272 0.04462,-0.438136 0.05078,-0.642578 0.0049,-0.112674 0.01518,-0.226028 0.03125,-0.339844 0.04808,-0.342469 0.113033,-0.679806 0.195312,-1.009765 0.07492,-0.29876 0.163206,-0.593066 0.253906,-0.886719 h 1.597657 c 0.09055,0.293128 0.177329,0.587247 0.251953,0.884765 0.0815,0.32696 0.146081,0.663158 0.195312,1.013672 0.01817,0.128571 0.02893,0.237053 0.0332,0.335938 0.0061,0.205072 0.01999,0.419761 0.04883,0.642578 6.4e-4,0.0039 0.0013,0.0078 0.002,0.01172 0.258007,1.916072 0.907035,3.70097 1.615234,5.30664 0.319671,0.725274 1.03748,1.193344 1.830078,1.19336 h 3.558594 c 0.792598,-1.6e-5 1.510407,-0.468086 1.830078,-1.19336 0.708187,-1.605644 1.355992,-3.390617 1.615234,-5.316406 0.02906,-0.224133 0.0446,-0.439077 0.05078,-0.642578 0.0043,-0.09955 0.01487,-0.209867 0.0332,-0.339844 0.04809,-0.342526 0.113029,-0.679821 0.195312,-1.009765 0.07509,-0.299453 0.163671,-0.593359 0.253906,-0.886719 h 1.595704 c 0.09056,0.293155 0.177335,0.58721 0.251953,0.884765 0.08291,0.33248 0.148945,0.669523 0.197265,1.013672 0.01591,0.112651 0.02642,0.224257 0.03125,0.335938 0.0061,0.205079 0.02056,0.421535 0.05078,0.654297 0.257967,1.916136 0.907047,3.700996 1.615234,5.30664 0.319671,0.725274 1.03748,1.193344 1.830078,1.19336 h 3.560547 c 0.792598,-1.6e-5 1.510407,-0.468086 1.830078,-1.19336 0.708199,-1.60567 1.357227,-3.390568 1.615234,-5.30664 6.63e-4,-0.0039 0.0013,-0.0078 0.002,-0.01172 0.03014,-0.232908 0.04138,-0.450613 0.04687,-0.640625 0.0043,-0.09955 0.01489,-0.210196 0.0332,-0.339844 0.04809,-0.342491 0.113035,-0.679808 0.195312,-1.009765 0.07475,-0.298064 0.162741,-0.592775 0.253906,-0.886719 h 1.595704 c 0.09009,0.292857 0.177155,0.586491 0.251953,0.884765 0.08291,0.332486 0.149007,0.669966 0.197265,1.013672 0.01825,0.129389 0.02894,0.237273 0.0332,0.335938 0.0068,0.218886 0.02435,0.435649 0.05273,0.654297 0.25758,1.913266 0.902058,3.69854 1.611328,5.30664 0.319671,0.725274 1.03748,1.193344 1.830078,1.19336 H 58 V 45.126953 H 6 V 28.261719 h 1.5605469 c 0.7925978,-1.6e-5 1.5104073,-0.468086 1.8300781,-1.19336 0.709281,-1.608126 1.353707,-3.393439 1.611328,-5.30664 6.63e-4,-0.0039 0.0013,-0.0078 0.002,-0.01172 0.02683,-0.207302 0.04393,-0.42159 0.05078,-0.640625 0.0043,-0.09945 0.01488,-0.210149 0.0332,-0.339844 0.04807,-0.342388 0.113073,-0.679854 0.195312,-1.009765 0.07495,-0.298812 0.163204,-0.59305 0.253906,-0.886719 z"
       style="fill:url(#linearGradient23);fill-rule:evenodd;stroke:#fce94f;stroke-width:2;stroke-linecap:round;stroke-linejoin:round;stroke-dasharray:none;stroke-opacity:1;font-variation-settings:normal;opacity:1;vector-effect:none;fill-opacity:1;stroke-miterlimit:4;stroke-dashoffset:0;-inkscape-stroke:none;stop-color:#000000;stop-opacity:1"
       id="path30" />
    <path
       style="fill:none;stroke:#ef2929;stroke-width:8;stroke-linecap:round;stroke-linejoin:round;stroke-miterlimit:4;stroke-dasharray:none;stroke-opacity:1"
       d="M 16.347905,20.24329 32.2055,37.990919 46.923502,20.285514"
       id="path132" />
  </g>
</svg>
