<?xml version="1.0" encoding="UTF-8" standalone="no"?>
<!-- Created with Inkscape (http://www.inkscape.org/) -->

<svg
   width="64"
   height="64"
   id="svg2869"
   version="1.1"
   sodipodi:docname="gearworkbench_alt.svg"
   inkscape:version="1.4 (e7c3feb100, 2024-10-09)"
   viewBox="0 0 64 64"
   xmlns:inkscape="http://www.inkscape.org/namespaces/inkscape"
   xmlns:sodipodi="http://sodipodi.sourceforge.net/DTD/sodipodi-0.dtd"
   xmlns="http://www.w3.org/2000/svg"
   xmlns:svg="http://www.w3.org/2000/svg"
   xmlns:rdf="http://www.w3.org/1999/02/22-rdf-syntax-ns#"
   xmlns:cc="http://creativecommons.org/ns#"
   xmlns:dc="http://purl.org/dc/elements/1.1/">
  <title
     id="title1">FreeCAD Gear Workbench Alternative</title>
  <sodipodi:namedview
     id="namedview1"
     pagecolor="#505050"
     bordercolor="#000000"
     borderopacity="0.25"
     inkscape:showpageshadow="2"
     inkscape:pageopacity="0.0"
     inkscape:pagecheckerboard="false"
     inkscape:deskcolor="#d1d1d1"
     showguides="true"
     showgrid="true"
     inkscape:zoom="11.313708"
     inkscape:cx="20.727068"
     inkscape:cy="14.981826"
     inkscape:window-width="1290"
     inkscape:window-height="999"
     inkscape:window-x="0"
     inkscape:window-y="0"
     inkscape:window-maximized="1"
     inkscape:current-layer="layer3"
     inkscape:lockguides="true">
    <inkscape:grid
       id="grid2"
       units="px"
       originx="0"
       originy="0"
       spacingx="1"
       spacingy="1"
       empcolor="#0099e5"
       empopacity="0.30196078"
       color="#0099e5"
       opacity="0.14901961"
       empspacing="2"
       dotted="false"
       gridanglex="30"
       gridanglez="30"
       visible="true" />
    <sodipodi:guide
       position="4,50"
       orientation="1,0"
       id="guide8"
       inkscape:locked="true" />
    <sodipodi:guide
       position="64,64"
       orientation="0.70710678,-0.70710678"
       id="guide9"
       inkscape:locked="true" />
    <sodipodi:guide
       position="60,5.384631"
       orientation="1,0"
       id="guide10"
       inkscape:locked="true" />
    <sodipodi:guide
       position="9,60"
       orientation="0,-1"
       id="guide11"
       inkscape:locked="true" />
    <sodipodi:guide
       position="62,4"
       orientation="0,-1"
       id="guide12"
       inkscape:locked="true" />
    <sodipodi:guide
       position="64,0"
       orientation="-0.70710678,-0.70710678"
       id="guide13"
       inkscape:locked="true" />
    <sodipodi:guide
       position="32,32"
       orientation="1,0"
       id="guide18"
       inkscape:locked="true" />
    <sodipodi:guide
       position="32,32"
       orientation="0,-1"
       id="guide19"
       inkscape:locked="true" />
  </sodipodi:namedview>
  <defs
     id="defs2871">
    <inkscape:path-effect
       effect="offset"
       id="path-effect331"
       is_visible="true"
       lpeversion="1.2"
       linejoin_type="round"
       unit="px"
       offset="-2"
       miter_limit="4"
       attempt_force_join="false"
       update_on_knot_move="true" />
    <linearGradient
       id="linearGradient5"
       inkscape:swatch="gradient">
      <stop
         style="stop-color:#ef2929;stop-opacity:1;"
         offset="0"
         id="stop19" />
      <stop
         style="stop-color:#ef2929;stop-opacity:0;"
         offset="1"
         id="stop20" />
    </linearGradient>
    <linearGradient
       id="swatch18"
       inkscape:swatch="solid"
       inkscape:label="point-stroke-inner">
      <stop
         style="stop-color:#ef2929;stop-opacity:1;"
         offset="0"
         id="stop18" />
    </linearGradient>
    <linearGradient
       id="swatch15"
       inkscape:swatch="solid"
       inkscape:label="point-stroke-outer">
      <stop
         style="stop-color:#3d0000;stop-opacity:1;"
         offset="0"
         id="stop15" />
    </linearGradient>
    <linearGradient
       id="linearGradient5-1"
       inkscape:swatch="gradient">
      <stop
         style="stop-color:#ef2929;stop-opacity:1;"
         offset="0"
         id="stop5" />
      <stop
         style="stop-color:#ef2929;stop-opacity:0;"
         offset="1"
         id="stop6" />
    </linearGradient>
    <linearGradient
       id="linearGradient3836-9"
       inkscape:swatch="gradient"
       inkscape:label="point-fill">
      <stop
         style="stop-color:#a40000;stop-opacity:1"
         offset="0"
         id="stop3838-8" />
      <stop
         style="stop-color:#ef2929;stop-opacity:1"
         offset="1"
         id="stop3840-1" />
    </linearGradient>
  </defs>
  <metadata
     id="metadata2874">
    <rdf:RDF>
      <cc:Work
         rdf:about="">
        <dc:format>image/svg+xml</dc:format>
        <dc:type
           rdf:resource="http://purl.org/dc/dcmitype/StillImage" />
        <dc:creator>
          <cc:Agent>
            <dc:title>[maxwxyz]</dc:title>
          </cc:Agent>
        </dc:creator>
        <dc:relation>https://www.freecad.org/wiki/index.php?title=Artwork</dc:relation>
        <dc:publisher>
          <cc:Agent>
            <dc:title>FreeCAD</dc:title>
          </cc:Agent>
        </dc:publisher>
        <dc:identifier>FreeCAD/src/</dc:identifier>
        <dc:rights>
          <cc:Agent>
            <dc:title>FreeCAD LGPL2+</dc:title>
          </cc:Agent>
        </dc:rights>
        <dc:date>2024</dc:date>
        <dc:title>FreeCAD Gear Workbench Alternative</dc:title>
      </cc:Work>
    </rdf:RDF>
  </metadata>
  <g
     inkscape:groupmode="layer"
     id="layer3"
     inkscape:label="Icon"
     style="display:inline">
    <path
       d="m 37.383073,62.099828 c -0.12502,-1.268411 -0.367866,-2.592716 -0.770371,-3.938775 -0.183291,-0.618192 -0.405911,-1.235622 -0.666781,-1.851509 -0.244605,-0.561511 -0.514749,-1.130531 -0.866816,-1.641951 l -3.449404,-4.568644 1.546695,-3.419637 4.017359,3.313666 c 0.185446,0.136421 0.37156,0.248357 0.558429,0.340535 0.04562,0.02307 0.09021,0.04063 0.135738,0.06192 0.169105,0.07972 0.337962,0.148413 0.504849,0.208369 0.09586,0.03429 0.190905,0.06601 0.285764,0.09525 0.128666,0.03899 0.256707,0.0743 0.383399,0.10478 0.09135,0.02188 0.182277,0.04247 0.272666,0.05954 0.093,0.01806 0.184329,0.03068 0.276238,0.04406 0.319626,0.04443 0.633699,0.07292 0.938257,0.07382 0.233669,-2.75e-4 0.46355,-0.01344 0.688214,-0.0381 0.03675,-0.0041 0.07302,-0.0095 0.109543,-0.01429 0.132473,-0.01688 0.261319,-0.04197 0.390544,-0.06668 0.281066,-0.05376 0.557305,-0.116856 0.82276,-0.204798 v -2.544486 c -0.82093,-1.217767 -1.718414,-2.375403 -2.684987,-3.392252 -0.443333,-0.468586 -0.898838,-0.89674 -1.368092,-1.283554 -0.239881,-0.197001 -0.483018,-0.375756 -0.727507,-0.536997 -0.195065,-0.125782 -0.392316,-0.245019 -0.585815,-0.320294 l -4.017359,-1.325228 -1.546695,-5.20566 3.449404,-0.584625 c 0.0921,-0.02459 0.178678,-0.06106 0.258378,-0.109542 0.30292,-0.178223 0.552917,-0.442698 0.772752,-0.741795 0.264257,-0.36929 0.485655,-0.786229 0.66321,-1.252596 0.307644,-0.79633 0.502395,-1.703013 0.609628,-2.669506 l -1.558602,-2.698084 c -0.890629,-0.390382 -1.772472,-0.675535 -2.615927,-0.807282 -0.492669,-0.07942 -0.964978,-0.09661 -1.416911,-0.05237 -0.368954,0.04085 -0.722943,0.125639 -1.028749,0.298865 -0.08184,0.04475 -0.156522,0.101589 -0.223848,0.169074 l -2.231337,2.694512 -3.733977,-3.942343 0.860862,-4.141191 c 0.03154,-0.205207 0.02689,-0.436159 0.01548,-0.667976 -0.0174,-0.292366 -0.05171,-0.591529 -0.102399,-0.89777 -0.100367,-0.599808 -0.242119,-1.208291 -0.426264,-1.826509 -0.397343,-1.345506 -0.951354,-2.70226 -1.595513,-4.022119 l -2.20276,-1.271649 c -0.212722,0.189326 -0.409994,0.400465 -0.600104,0.621535 -0.0752,0.08748 -0.150216,0.175268 -0.221467,0.267908 -0.03221,0.04158 -0.06521,0.08232 -0.09645,0.125016 -0.123509,0.169142 -0.241958,0.344776 -0.351251,0.531048 -0.159332,0.274174 -0.29739,0.573789 -0.423883,0.885864 -0.03325,0.08356 -0.0665,0.166977 -0.09644,0.253618 -0.03177,0.09037 -0.06154,0.182346 -0.0893,0.276235 -0.03606,0.122255 -0.06768,0.248295 -0.09764,0.376257 -0.02225,0.09721 -0.04358,0.195837 -0.06192,0.29648 -0.03401,0.187791 -0.06075,0.380762 -0.0762,0.582245 -0.0026,0.03304 -0.0076,0.06418 -0.0095,0.09763 -0.01458,0.211285 -0.01039,0.432654 0.01548,0.665593 l 0.860863,5.13541 -3.733977,-0.369112 -2.232528,-5.272339 C 13.641923,17.438787 13.284498,16.919103 12.920518,16.426505 12.517714,15.892762 12.09374,15.39286 11.650061,14.925056 10.685631,13.903464 9.6594137,13.03017 8.6233488,12.287697 l -1.5574111,0.900154 c 0.046484,0.493623 0.1198146,0.995359 0.2071787,1.501449 0.014241,0.08352 0.027519,0.166179 0.042863,0.250045 0.090218,0.487161 0.1997346,0.980198 0.3274372,1.478826 0.036352,0.139873 0.074579,0.279881 0.1143055,0.420309 0.048679,0.172531 0.099221,0.345226 0.1535984,0.517946 0.043271,0.138648 0.089739,0.277028 0.1369281,0.415548 0.065704,0.192667 0.135551,0.385761 0.2083694,0.578672 0.050118,0.131735 0.1011344,0.263683 0.1547884,0.395308 0.069237,0.16891 0.1432451,0.336942 0.2190854,0.504852 0.057884,0.127936 0.1164714,0.255312 0.1786024,0.382206 0.071907,0.145702 0.1531991,0.287197 0.2321826,0.429838 0.1048172,0.188783 0.2064375,0.379744 0.3286284,0.557237 l 3.4494038,4.568645 -1.546695,3.41964 -4.0173591,-3.313669 C 7.0607882,25.151593 6.8645584,25.031923 6.6682487,24.937497 6.4237833,24.816443 6.1817904,24.716233 5.9419332,24.636255 5.4725866,24.481214 5.0171499,24.381924 4.5738399,24.338586 3.6072672,24.239326 2.7098068,24.360471 1.8888531,24.630299 v 2.544488 c 0.8209537,1.21777 1.7184141,2.375401 2.6849868,3.392255 0.44331,0.46858 0.8987467,0.896728 1.3680933,1.28355 0.2398572,0.197007 0.4818501,0.375751 0.7263155,0.536998 0.1951581,0.125792 0.3936917,0.245022 0.5870062,0.320292 l 4.0173591,1.325229 1.546695,5.20566 -3.4494038,0.584624 c -0.092095,0.02456 -0.1786792,0.06106 -0.2583778,0.109543 -0.3030136,0.178223 -0.5529407,0.441507 -0.7727528,0.740603 -0.2642808,0.36928 -0.4855627,0.787414 -0.6632092,1.253788 -0.3075986,0.796323 -0.5024878,1.703027 -0.6096289,2.669508 l 1.5574111,2.698084 c 0.8906989,0.390385 1.7736774,0.674343 2.6171184,0.806092 0.492687,0.07942 0.964983,0.0978 1.416911,0.05358 0.368956,-0.04083 0.722947,-0.125638 1.028749,-0.298861 0.08184,-0.04477 0.155331,-0.10159 0.222657,-0.169077 l 2.232528,-2.695703 3.733977,3.943537 -0.860863,4.14119 c -0.03154,0.205204 -0.02689,0.436156 -0.01548,0.667972 0.01739,0.292369 0.05052,0.591536 0.101208,0.897775 0.100344,0.599736 0.24331,1.208082 0.427455,1.826505 0.397343,1.345368 0.951377,2.702329 1.595513,4.022122 l 2.202761,1.271648 c 0.644159,-0.576027 1.198169,-1.292327 1.595513,-2.178948 C 25.10554,59.177 25.247293,58.731862 25.34766,58.248 c 0.05069,-0.247923 0.085,-0.507551 0.102399,-0.779897 0.01629,-0.217047 0.01118,-0.445744 -0.01548,-0.685832 l -0.860862,-5.1366 3.733977,0.370302 2.231337,5.272338 c 0.08652,0.181742 0.194835,0.352779 0.29767,0.526281 0.09314,0.156437 0.184863,0.313666 0.285764,0.464366 0.078,0.115707 0.157227,0.229091 0.238136,0.341725 0.09995,0.138948 0.201222,0.276354 0.304814,0.410785 0.10175,0.131502 0.205275,0.260758 0.309578,0.388162 0.115308,0.140166 0.232162,0.277877 0.35006,0.413167 0.108498,0.124463 0.21751,0.247692 0.328628,0.36792 0.110956,0.120669 0.223803,0.238282 0.336963,0.354824 0.110913,0.114336 0.22223,0.22644 0.334582,0.336962 0.363706,0.355346 0.731432,0.694055 1.103761,1.012079 0.06753,0.05743 0.135795,0.111673 0.203607,0.167887 0.393253,0.32738 0.789071,0.641446 1.191872,0.92754 z"
       style="fill:#729fcf;fill-rule:evenodd;stroke:#0c1522;stroke-width:2;stroke-linecap:round;stroke-linejoin:round;stroke-dasharray:none;stroke-opacity:1"
       id="path334" />
    <path
       d="M 12.46211,38.037346 9.3699101,39.823368 12.819314,39.238743 Z"
       style="fill:#729fcf;fill-rule:evenodd;stroke:#0c1522;stroke-width:2;stroke-linecap:round;stroke-linejoin:round;stroke-dasharray:none;stroke-opacity:1"
       id="path353" />
    <path
       d="m 13.908788,47.686628 3.09339,-1.786022 -0.860862,-0.90968 z"
       style="fill:#729fcf;fill-rule:evenodd;stroke:#0c1522;stroke-width:2;stroke-linecap:round;stroke-linejoin:round;stroke-dasharray:none;stroke-opacity:1"
       id="path352" />
    <path
       d="m 24.573722,51.645644 0.860862,5.1366 c 0.02666,0.240087 0.03177,0.468786 0.01548,0.685832 -0.0174,0.272345 -0.05171,0.531975 -0.102399,0.779897 -0.100367,0.483862 -0.24212,0.929002 -0.426264,1.334754 -0.397342,0.886618 -0.951355,1.602921 -1.595513,2.178947 l 7.333407,-4.234063 c -0.0429,-0.0788 -0.08354,-0.158453 -0.120259,-0.239327 l -1.174011,-2.774288 -1.057326,-2.49805 z"
       style="fill:#729fcf;fill-rule:evenodd;stroke:#0c1522;stroke-width:2;stroke-linecap:round;stroke-linejoin:round;stroke-dasharray:none;stroke-opacity:1"
       id="path351" />
    <path
       d="m 31.629701,50.098949 3.348196,-1.933667 -1.801501,-1.48597 z"
       style="fill:#729fcf;fill-rule:evenodd;stroke:#0c1522;stroke-width:2;stroke-linecap:round;stroke-linejoin:round;stroke-dasharray:none;stroke-opacity:1"
       id="path350" />
    <path
       d="m 54.77893,43.602591 -12.218774,7.054787 c -0.265445,0.08725 -0.541584,0.151038 -0.82276,0.204798 -0.0403,0.0077 -0.07725,0.02276 -0.117878,0.02977 -0.08949,0.01612 -0.181709,0.02504 -0.272666,0.03691 -0.03661,0.0047 -0.07268,0.01024 -0.109543,0.01429 -0.224901,0.02496 -0.454434,0.0388 -0.688214,0.0381 -0.22087,2.61e-4 -0.445204,-0.0087 -0.673926,-0.03214 -0.08693,-0.0085 -0.176408,-0.02889 -0.264331,-0.04167 -0.03976,-0.0055 -0.07669,-0.0034 -0.116687,-0.0095 -0.05254,-0.0083 -0.106681,-0.02455 -0.159551,-0.03453 -0.09042,-0.01756 -0.181214,-0.03753 -0.272666,-0.05954 -0.126823,-0.03038 -0.254727,-0.06511 -0.383399,-0.10478 -0.0576,-0.01745 -0.113457,-0.02846 -0.171458,-0.04763 -0.03772,-0.01258 -0.07647,-0.03404 -0.114306,-0.04763 -0.05345,-0.01912 -0.105795,-0.03171 -0.159551,-0.05239 -0.114288,-0.04624 -0.229674,-0.101929 -0.345298,-0.155979 -0.03636,-0.01714 -0.07189,-0.02719 -0.108352,-0.04525 -0.0092,-0.0044 -0.01823,-0.01215 -0.02739,-0.01667 -0.186234,-0.0942 -0.373534,-0.202586 -0.558429,-0.340534 l -2.215858,-1.827696 -3.348196,1.933666 3.449404,4.568645 c 0.352067,0.511419 0.622212,1.08044 0.866816,1.64195 0.26087,0.615886 0.48349,1.233319 0.666782,1.851509 0.402503,1.346057 0.64535,2.670366 0.770371,3.938775 L 56.934063,50.812167 c -0.102993,-1.093734 -0.306178,-2.218223 -0.609629,-3.3732 -0.177646,-0.671416 -0.398929,-1.343795 -0.663209,-2.018206 -0.246309,-0.617177 -0.527602,-1.237629 -0.882295,-1.81817 z"
       style="fill:#729fcf;fill-rule:evenodd;stroke:#0c1522;stroke-width:2;stroke-linecap:round;stroke-linejoin:round;stroke-dasharray:none;stroke-opacity:1"
       id="path349" />
    <path
       d="m 62.111146,36.824041 -19.55099,11.288851 v 2.544486 l 19.55099,-11.288851 z"
       style="fill:#729fcf;fill-rule:evenodd;stroke:#0c1522;stroke-width:2;stroke-linecap:round;stroke-linejoin:round;stroke-dasharray:none;stroke-opacity:1"
       id="path348" />
    <path
       d="m 52.727385,29.966905 -19.550989,11.287662 4.017359,1.325228 c 0.193498,0.07528 0.39075,0.194512 0.585815,0.320294 0.244489,0.161241 0.487626,0.339996 0.727507,0.536997 0.469253,0.386813 0.92476,0.814969 1.368092,1.283554 0.966571,1.016847 1.864059,2.174488 2.684987,3.392252 L 62.111146,36.824041 C 61.290195,35.606277 60.39273,34.449834 59.426159,33.43298 58.98285,32.964397 58.527412,32.536248 58.058066,32.149426 57.818209,31.952418 57.575025,31.773675 57.33056,31.612428 57.135403,31.486637 56.938059,31.367406 56.744745,31.292135 Z"
       style="fill:#729fcf;fill-rule:evenodd;stroke:#0c1522;stroke-width:2;stroke-linecap:round;stroke-linejoin:round;stroke-dasharray:none;stroke-opacity:1"
       id="path347" />
    <path
       d="M 51.54742,25.995984 35.337483,35.35474 c -0.0797,0.04848 -0.166283,0.08496 -0.258378,0.109542 l -3.449404,0.584625 1.546695,5.20566 19.550989,-11.287662 z"
       style="fill:#729fcf;fill-rule:evenodd;stroke:#0c1522;stroke-width:2;stroke-linecap:round;stroke-linejoin:round;stroke-dasharray:none;stroke-opacity:1"
       id="path346" />
    <path
       d="M 56.934063,19.403182 37.383073,30.69084 c -0.107233,0.966493 -0.301984,1.873179 -0.609628,2.669509 -0.177555,0.466367 -0.398953,0.883306 -0.66321,1.252596 -0.219835,0.299097 -0.469832,0.563572 -0.772752,0.741795 L 54.888472,24.067081 c 0.303013,-0.178225 0.552941,-0.4427 0.772753,-0.741796 0.264281,-0.369277 0.485563,-0.787415 0.663209,-1.253787 0.307599,-0.796322 0.502488,-1.701834 0.609629,-2.668316 z"
       style="fill:#729fcf;fill-rule:evenodd;stroke:#0c1522;stroke-width:2;stroke-linecap:round;stroke-linejoin:round;stroke-dasharray:none;stroke-opacity:1"
       id="path345" />
    <path
       d="M 55.376652,16.703904 35.824471,27.992756 37.383073,30.69084 56.934063,19.403182 Z"
       style="fill:#729fcf;fill-rule:evenodd;stroke:#0c1522;stroke-width:2;stroke-linecap:round;stroke-linejoin:round;stroke-dasharray:none;stroke-opacity:1"
       id="path344" />
    <path
       d="m 46.972822,18.073192 -16.209938,9.358754 c 0.305806,-0.173226 0.659795,-0.258031 1.028749,-0.298864 0.451933,-0.0442 0.924242,-0.02701 1.416911,0.05237 0.843455,0.131747 1.725298,0.416901 2.615927,0.807283 L 55.376652,16.70388 c -0.890699,-0.390382 -1.773677,-0.674341 -2.617118,-0.806088 -0.492687,-0.07942 -0.964984,-0.09661 -1.416911,-0.05237 -0.368957,0.04084 -0.722948,0.125638 -1.028749,0.298858 z"
       style="fill:#729fcf;fill-rule:evenodd;stroke:#0c1522;stroke-width:2;stroke-linecap:round;stroke-linejoin:round;stroke-dasharray:none;stroke-opacity:1"
       id="path343" />
    <path
       d="m 44.124712,15.065526 -19.55099,11.287664 3.733977,3.942342 2.231337,-2.694511 c 0.06733,-0.06749 0.142009,-0.124309 0.223848,-0.169075 l 16.209938,-9.358754 z"
       style="fill:#729fcf;fill-rule:evenodd;stroke:#0c1522;stroke-width:2;stroke-linecap:round;stroke-linejoin:round;stroke-dasharray:none;stroke-opacity:1"
       id="path342" />
    <path
       d="M 42.876877,3.5099614 23.325888,14.797625 c 0.644157,1.319859 1.19817,2.676618 1.595513,4.022118 0.184144,0.618219 0.325897,1.226708 0.426264,1.826509 0.05069,0.306235 0.085,0.605405 0.102398,0.89777 0.01141,0.231818 0.01606,0.46277 -0.01548,0.667977 L 24.573721,26.35319 44.12471,15.065526 44.985573,10.924335 c 0.03154,-0.205201 0.02689,-0.436153 0.01548,-0.66797 C 44.983655,9.9639991 44.949345,9.6648298 44.898656,9.3585888 44.798312,8.7588542 44.656535,8.1493167 44.472391,7.5308969 44.075049,6.1855312 43.521013,4.8297531 42.876878,3.5099614 Z"
       style="fill:#729fcf;fill-rule:evenodd;stroke:#0c1522;stroke-width:2;stroke-linecap:round;stroke-linejoin:round;stroke-dasharray:none;stroke-opacity:1"
       id="path341" />
    <path
       d="M 40.674117,2.2383181 21.123127,13.525976 23.325888,14.797625 42.876877,3.5099614 Z"
       style="fill:#729fcf;fill-rule:evenodd;stroke:#0c1522;stroke-width:2;stroke-linecap:round;stroke-linejoin:round;stroke-dasharray:none;stroke-opacity:1"
       id="path340" />
    <path
       d="m 19.489512,21.338035 -3.348196,1.93367 3.733977,0.369112 z"
       style="fill:#729fcf;fill-rule:evenodd;stroke:#0c1522;stroke-width:2;stroke-linecap:round;stroke-linejoin:round;stroke-dasharray:none;stroke-opacity:1"
       id="path339" />
    <path
       d="M 28.175533,1.0000094 8.6233524,12.287667 c 1.0360626,0.742473 2.0622846,1.615766 3.0267126,2.637358 0.443678,0.467805 0.867654,0.967707 1.270457,1.501449 0.363979,0.492599 0.721405,1.012283 0.988266,1.572891 l 2.232528,5.27234 3.348196,-1.93367 -0.475082,-2.832629 c -0.02755,-0.23361 -0.02779,-0.453436 -0.01548,-0.665593 4.43e-4,-0.0064 -4.81e-4,-0.01384 0,-0.02024 0.0017,-0.02701 0.0075,-0.05066 0.0095,-0.07739 0.01112,-0.141019 0.0228,-0.282008 0.04167,-0.416742 0.009,-0.05724 0.02429,-0.109325 0.03453,-0.165502 0.007,-0.03877 0.0077,-0.08207 0.01548,-0.120262 0.0127,-0.06124 0.0324,-0.116231 0.04643,-0.176219 0.02937,-0.128376 0.06145,-0.253862 0.09764,-0.376257 0.02767,-0.09381 0.05804,-0.18579 0.0893,-0.276235 0.01722,-0.04901 0.02923,-0.102064 0.04763,-0.150029 0.0143,-0.03688 0.03407,-0.06719 0.04882,-0.103589 0.03316,-0.08334 0.06119,-0.172147 0.09764,-0.252423 0.09933,-0.221679 0.208394,-0.432586 0.326246,-0.633441 0.10854,-0.186778 0.227472,-0.361863 0.351251,-0.531047 0.03127,-0.04286 0.06432,-0.08326 0.09645,-0.125017 0.04936,-0.06372 0.09601,-0.130619 0.147644,-0.191704 0.02301,-0.02762 0.05048,-0.04907 0.07382,-0.0762 0.190109,-0.221143 0.38804,-0.431886 0.600103,-0.621535 L 33.340716,6.4711912 C 33.015261,5.8737365 32.619738,5.320163 32.208377,4.7982841 31.756446,4.2321644 31.284134,3.7042989 30.791467,3.2146754 29.942974,2.374369 29.071213,1.6361693 28.175539,1.0000094 Z"
       style="fill:#729fcf;fill-rule:evenodd;stroke:#0c1522;stroke-width:2;stroke-linecap:round;stroke-linejoin:round;stroke-dasharray:none;stroke-opacity:1"
       id="path338" />
    <path
       d="M 9.2210747,20.397402 1.888858,24.630269 c 0.8209519,-0.269828 1.7184159,-0.390974 2.6849868,-0.291714 0.4433093,0.04335 0.8987473,0.142629 1.3680932,0.29767 0.2398567,0.07998 0.4818501,0.180188 0.7263156,0.301242 0.1963097,0.09442 0.3925394,0.214095 0.5870062,0.357206 l 4.0173592,3.313668 1.546695,-3.41964 -1.633615,-2.163469 -1.8157889,-2.405175 C 9.318116,20.547755 9.2679174,20.473989 9.2210747,20.397402 Z"
       style="fill:#729fcf;fill-rule:evenodd;stroke:#0c1522;stroke-width:2;stroke-linecap:round;stroke-linejoin:round;stroke-dasharray:none;stroke-opacity:1"
       id="path337" />
    <path
       d="m 20.134861,27.10927 v 3.201741 l 2.773097,-1.601465 z"
       style="fill:#729fcf;fill-rule:evenodd;stroke:#0c1522;stroke-width:2;stroke-linecap:round;stroke-linejoin:round;stroke-dasharray:none;stroke-opacity:1"
       id="path336" />
    <path
       d="m 22.907958,28.709546 -2.773097,1.601465 c -0.728121,-0.08928 -1.38867,0.02938 -1.942001,0.348872 -2.22692,1.285707 -2.22692,5.455198 0,9.31232 2.226919,3.857144 5.836375,5.941279 8.063294,4.655564 1.359216,-0.784756 1.942996,-2.702965 1.551459,-5.10207 -0.391537,-2.399105 -1.70492,-4.956455 -3.493459,-6.802363 V 29.52159 Z"
       style="fill:#729fcf;fill-rule:evenodd;stroke:#0c1522;stroke-width:2;stroke-linecap:round;stroke-linejoin:round;stroke-dasharray:none;stroke-opacity:1"
       id="path335" />
  </g>
</svg>
