<?xml version="1.0" encoding="UTF-8" standalone="no"?>
<svg
   xmlns:dc="http://purl.org/dc/elements/1.1/"
   xmlns:cc="http://creativecommons.org/ns#"
   xmlns:rdf="http://www.w3.org/1999/02/22-rdf-syntax-ns#"
   xmlns:svg="http://www.w3.org/2000/svg"
   xmlns="http://www.w3.org/2000/svg"
   xmlns:xlink="http://www.w3.org/1999/xlink"
   xmlns:sodipodi="http://sodipodi.sourceforge.net/DTD/sodipodi-0.dtd"
   xmlns:inkscape="http://www.inkscape.org/namespaces/inkscape"
   width="64px"
   height="64px"
   id="svg3799"
   version="1.1"
   inkscape:version="1.0.2 (1.0.2+r75+1)"
   sodipodi:docname="gearconnector.svg">
  <defs
     id="defs3801">
    <inkscape:path-effect
       effect="spiro"
       id="path-effect9409"
       is_visible="true" />
    <inkscape:path-effect
       effect="spiro"
       id="path-effect9405"
       is_visible="true" />
    <inkscape:path-effect
       effect="spiro"
       id="path-effect9398"
       is_visible="true" />
    <inkscape:path-effect
       effect="spiro"
       id="path-effect9390"
       is_visible="true" />
    <inkscape:path-effect
       effect="spiro"
       id="path-effect9384"
       is_visible="true" />
    <linearGradient
       inkscape:collect="always"
       id="linearGradient9347">
      <stop
         style="stop-color:#0079ff;stop-opacity:1;"
         offset="0"
         id="stop9349" />
      <stop
         style="stop-color:#0079ff;stop-opacity:0"
         offset="1"
         id="stop9351" />
    </linearGradient>
    <marker
       inkscape:stockid="Arrow2Mstart"
       orient="auto"
       refY="0.0"
       refX="0.0"
       id="Arrow2Mstart"
       style="overflow:visible">
      <path
         id="path4317"
         style="fill-rule:evenodd;stroke-width:0.62500000;stroke-linejoin:round"
         d="M 8.7185878,4.0337352 L -2.2072895,0.016013256 L 8.7185884,-4.0017078 C 6.9730900,-1.6296469 6.9831476,1.6157441 8.7185878,4.0337352 z "
         transform="scale(0.6) translate(0,0)" />
    </marker>
    <marker
       inkscape:stockid="Arrow1Mend"
       orient="auto"
       refY="0.0"
       refX="0.0"
       id="Arrow1Mend"
       style="overflow:visible;">
      <path
         id="path4302"
         d="M 0.0,0.0 L 5.0,-5.0 L -12.5,0.0 L 5.0,5.0 L 0.0,0.0 z "
         style="fill-rule:evenodd;stroke:#000000;stroke-width:1.0pt;"
         transform="scale(0.4) rotate(180) translate(10,0)" />
    </marker>
    <marker
       inkscape:stockid="Arrow2Mend"
       orient="auto"
       refY="0.0"
       refX="0.0"
       id="Arrow2Mend"
       style="overflow:visible;">
      <path
         id="path4320"
         style="fill-rule:evenodd;stroke-width:0.62500000;stroke-linejoin:round;"
         d="M 8.7185878,4.0337352 L -2.2072895,0.016013256 L 8.7185884,-4.0017078 C 6.9730900,-1.6296469 6.9831476,1.6157441 8.7185878,4.0337352 z "
         transform="scale(0.6) rotate(180) translate(0,0)" />
    </marker>
    <marker
       inkscape:stockid="Arrow1Mstart"
       orient="auto"
       refY="0.0"
       refX="0.0"
       id="Arrow1Mstart"
       style="overflow:visible">
      <path
         id="path4299"
         d="M 0.0,0.0 L 5.0,-5.0 L -12.5,0.0 L 5.0,5.0 L 0.0,0.0 z "
         style="fill-rule:evenodd;stroke:#000000;stroke-width:1.0pt"
         transform="scale(0.4) translate(10,0)" />
    </marker>
    <marker
       inkscape:stockid="Arrow1Lend"
       orient="auto"
       refY="0.0"
       refX="0.0"
       id="Arrow1Lend"
       style="overflow:visible;">
      <path
         id="path4296"
         d="M 0.0,0.0 L 5.0,-5.0 L -12.5,0.0 L 5.0,5.0 L 0.0,0.0 z "
         style="fill-rule:evenodd;stroke:#000000;stroke-width:1.0pt;"
         transform="scale(0.8) rotate(180) translate(12.5,0)" />
    </marker>
    <marker
       inkscape:stockid="Arrow2Lend"
       orient="auto"
       refY="0.0"
       refX="0.0"
       id="Arrow2Lend"
       style="overflow:visible;">
      <path
         id="path4314"
         style="fill-rule:evenodd;stroke-width:0.62500000;stroke-linejoin:round;"
         d="M 8.7185878,4.0337352 L -2.2072895,0.016013256 L 8.7185884,-4.0017078 C 6.9730900,-1.6296469 6.9831476,1.6157441 8.7185878,4.0337352 z "
         transform="scale(1.1) rotate(180) translate(1,0)" />
    </marker>
    <marker
       inkscape:stockid="EmptyTriangleOutL"
       orient="auto"
       refY="0.0"
       refX="0.0"
       id="EmptyTriangleOutL"
       style="overflow:visible">
      <path
         id="path4487"
         d="M 5.77,0.0 L -2.88,5.0 L -2.88,-5.0 L 5.77,0.0 z "
         style="fill-rule:evenodd;fill:#FFFFFF;stroke:#000000;stroke-width:1.0pt"
         transform="scale(0.8) translate(-6,0)" />
    </marker>
    <marker
       inkscape:stockid="DotS"
       orient="auto"
       refY="0.0"
       refX="0.0"
       id="DotS"
       style="overflow:visible">
      <path
         id="path4394"
         d="M -2.5,-1.0 C -2.5,1.7600000 -4.7400000,4.0 -7.5,4.0 C -10.260000,4.0 -12.5,1.7600000 -12.5,-1.0 C -12.5,-3.7600000 -10.260000,-6.0 -7.5,-6.0 C -4.7400000,-6.0 -2.5,-3.7600000 -2.5,-1.0 z "
         style="fill-rule:evenodd;stroke:#000000;stroke-width:1.0pt"
         transform="scale(0.2) translate(7.4, 1)" />
    </marker>
    <marker
       inkscape:stockid="DotL"
       orient="auto"
       refY="0.0"
       refX="0.0"
       id="DotL"
       style="overflow:visible">
      <path
         id="path4388"
         d="M -2.5,-1.0 C -2.5,1.7600000 -4.7400000,4.0 -7.5,4.0 C -10.260000,4.0 -12.5,1.7600000 -12.5,-1.0 C -12.5,-3.7600000 -10.260000,-6.0 -7.5,-6.0 C -4.7400000,-6.0 -2.5,-3.7600000 -2.5,-1.0 z "
         style="fill-rule:evenodd;stroke:#000000;stroke-width:1.0pt"
         transform="scale(0.8) translate(7.4, 1)" />
    </marker>
    <marker
       inkscape:stockid="Tail"
       orient="auto"
       refY="0.0"
       refX="0.0"
       id="Tail"
       style="overflow:visible">
      <g
         id="g4363"
         transform="scale(-1.2)">
        <path
           id="path4365"
           d="M -3.8048674,-3.9585227 L 0.54352094,0"
           style="fill:none;fill-rule:evenodd;stroke:#000000;stroke-width:0.8;stroke-linecap:round" />
        <path
           id="path4367"
           d="M -1.2866832,-3.9585227 L 3.0617053,0"
           style="fill:none;fill-rule:evenodd;stroke:#000000;stroke-width:0.8;stroke-linecap:round" />
        <path
           id="path4369"
           d="M 1.3053582,-3.9585227 L 5.6537466,0"
           style="fill:none;fill-rule:evenodd;stroke:#000000;stroke-width:0.8;stroke-linecap:round" />
        <path
           id="path4371"
           d="M -3.8048674,4.1775838 L 0.54352094,0.21974226"
           style="fill:none;fill-rule:evenodd;stroke:#000000;stroke-width:0.8;stroke-linecap:round" />
        <path
           id="path4373"
           d="M -1.2866832,4.1775838 L 3.0617053,0.21974226"
           style="fill:none;fill-rule:evenodd;stroke:#000000;stroke-width:0.8;stroke-linecap:round" />
        <path
           id="path4375"
           d="M 1.3053582,4.1775838 L 5.6537466,0.21974226"
           style="fill:none;fill-rule:evenodd;stroke:#000000;stroke-width:0.8;stroke-linecap:round" />
      </g>
    </marker>
    <marker
       inkscape:stockid="Arrow1Sstart"
       orient="auto"
       refY="0.0"
       refX="0.0"
       id="Arrow1Sstart"
       style="overflow:visible">
      <path
         id="path4339"
         d="M 0.0,0.0 L 5.0,-5.0 L -12.5,0.0 L 5.0,5.0 L 0.0,0.0 z "
         style="fill-rule:evenodd;stroke:#000000;stroke-width:1.0pt"
         transform="scale(0.2) translate(6,0)" />
    </marker>
    <marker
       inkscape:stockid="Arrow1Lstart"
       orient="auto"
       refY="0.0"
       refX="0.0"
       id="Arrow1Lstart"
       style="overflow:visible">
      <path
         id="path4327"
         d="M 0.0,0.0 L 5.0,-5.0 L -12.5,0.0 L 5.0,5.0 L 0.0,0.0 z "
         style="fill-rule:evenodd;stroke:#000000;stroke-width:1.0pt"
         transform="scale(0.8) translate(12.5,0)" />
    </marker>
    <marker
       inkscape:stockid="Arrow1Mstart"
       orient="auto"
       refY="0"
       refX="0"
       id="Arrow1Mstart-9"
       style="overflow:visible">
      <path
         inkscape:connector-curvature="0"
         id="path4299-1"
         d="M 0,0 5,-5 -12.5,0 5,5 0,0 z"
         style="fill-rule:evenodd;stroke:#000000;stroke-width:1pt"
         transform="matrix(0.4,0,0,0.4,4,0)" />
    </marker>
    <marker
       inkscape:stockid="Arrow2Mend"
       orient="auto"
       refY="0"
       refX="0"
       id="Arrow2Mend-7"
       style="overflow:visible">
      <path
         inkscape:connector-curvature="0"
         id="path4320-8"
         style="fill-rule:evenodd;stroke-width:0.625;stroke-linejoin:round"
         d="M 8.7185878,4.0337352 -2.2072895,0.01601326 8.7185884,-4.0017078 c -1.7454984,2.3720609 -1.7354408,5.6174519 -6e-7,8.035443 z"
         transform="scale(-0.6,-0.6)" />
    </marker>
    <linearGradient
       inkscape:collect="always"
       xlink:href="#linearGradient9347"
       id="linearGradient9353"
       x1="-21.345743"
       y1="40.800289"
       x2="1.8271284"
       y2="47.081963"
       gradientUnits="userSpaceOnUse" />
  </defs>
  <sodipodi:namedview
     id="base"
     pagecolor="#ffffff"
     bordercolor="#666666"
     borderopacity="1.0"
     inkscape:pageopacity="0.0"
     inkscape:pageshadow="2"
     inkscape:zoom="7.7781746"
     inkscape:cx="53.901956"
     inkscape:cy="29.621697"
     inkscape:current-layer="layer1"
     showgrid="true"
     inkscape:document-units="px"
     inkscape:grid-bbox="true"
     inkscape:snap-center="false"
     showguides="true"
     inkscape:guide-bbox="true"
     inkscape:window-width="1837"
     inkscape:window-height="1018"
     inkscape:window-x="83"
     inkscape:window-y="34"
     inkscape:window-maximized="1"
     inkscape:document-rotation="0"
     inkscape:snap-nodes="false">
    <sodipodi:guide
       orientation="1,0"
       position="32,32"
       id="guide3783" />
    <sodipodi:guide
       orientation="0,1"
       position="32,32"
       id="guide3785" />
    <sodipodi:guide
       orientation="1,0"
       position="0,0"
       id="guide9301" />
    <sodipodi:guide
       orientation="0,1"
       position="0,0"
       id="guide9303" />
    <sodipodi:guide
       orientation="0,1"
       position="0,64"
       id="guide9305" />
    <sodipodi:guide
       orientation="1,0"
       position="64,64"
       id="guide9307" />
  </sodipodi:namedview>
  <metadata
     id="metadata3804">
    <rdf:RDF>
      <cc:Work
         rdf:about="">
        <dc:format>image/svg+xml</dc:format>
        <dc:type
           rdf:resource="http://purl.org/dc/dcmitype/StillImage" />
        <dc:title></dc:title>
      </cc:Work>
    </rdf:RDF>
  </metadata>
  <g
     id="layer1"
     inkscape:label="Layer 1"
     inkscape:groupmode="layer">
    <rect
       style="fill:#0000ff;stroke:none;fill-opacity:1"
       id="rect3156"
       width="63.804237"
       height="63.986015"
       x="0.18181612"
       y="1.4630233e-07"
       ry="15.401461" />
    <path
       style="fill:#000000;stroke-width:0.596412"
       d="m 19.144964,39.571945 c -0.02085,-0.06116 -0.241086,-1.612457 -0.489457,-3.447321 -0.248379,-1.834865 -0.474111,-3.462869 -0.501623,-3.617788 -0.04377,-0.246497 -0.107294,-0.300369 -0.508589,-0.431411 -0.252206,-0.08235 -0.686876,-0.262897 -0.965936,-0.401199 l -0.507378,-0.251461 -0.426735,0.322229 c -0.234702,0.177226 -1.556596,1.195111 -2.937539,2.261966 -1.380943,1.066855 -2.562384,1.939737 -2.625423,1.939737 -0.161303,0 -3.004105,-2.864387 -3.0029267,-3.025727 5.344e-4,-0.07286 1.0013677,-1.451841 2.2240781,-3.064417 1.2227096,-1.612574 2.2231106,-2.945016 2.2231106,-2.96098 0,-0.01597 -0.09347,-0.217856 -0.207712,-0.448645 -0.11424,-0.23079 -0.299271,-0.669826 -0.411181,-0.975637 -0.111908,-0.30581 -0.255867,-0.55602 -0.31991,-0.55602 -0.20191,0 -7.1069287,-0.892574 -7.2235635,-0.93375 -0.1418791,-0.05009 -0.1626995,-4.272748 -0.021497,-4.360015 0.049337,-0.0305 1.6807008,-0.273114 3.625247,-0.539157 1.9445464,-0.266044 3.5889115,-0.493664 3.6541445,-0.505826 0.06523,-0.01216 0.209468,-0.282386 0.32052,-0.600497 0.111052,-0.318111 0.289387,-0.749842 0.396297,-0.959405 0.10691,-0.209562 0.164569,-0.42969 0.128133,-0.489175 -0.03643,-0.05948 -1.023397,-1.347131 -2.1932446,-2.861441 C 8.2039334,12.151696 7.2017747,10.840641 7.1467609,10.75255 7.0599074,10.613474 7.2456493,10.393209 8.5572302,9.0799229 9.3880039,8.2480706 10.097971,7.5674632 10.134936,7.5674632 c 0.06005,0 1.278075,0.9103943 4.902377,3.6642068 l 1.14221,0.867873 0.414645,-0.208477 c 0.228054,-0.114663 0.660211,-0.297351 0.960347,-0.405974 0.488552,-0.176811 0.550318,-0.22692 0.589757,-0.478466 0.02421,-0.154535 0.235926,-1.802241 0.47042,-3.6615702 0.234503,-1.8593287 0.464422,-3.4306393 0.510938,-3.4918019 0.100385,-0.1320087 4.029268,-0.1599845 4.234293,-0.030149 0.0874,0.055344 0.263965,1.10579 0.601664,3.5794024 0.262887,1.9255909 0.496958,3.5860777 0.520156,3.6899697 0.0306,0.136852 0.195695,0.245075 0.59934,0.392791 0.306432,0.112143 0.739809,0.29424 0.963063,0.404662 l 0.405913,0.200766 0.301607,-0.237705 c 2.275428,-1.793366 5.586814,-4.2855264 5.694259,-4.2855264 0.155082,0 3.022729,2.8477624 3.022729,3.0017694 0,0.05405 -1.007312,1.428532 -2.23848,3.054396 -2.10436,2.778997 -2.23268,2.96997 -2.141643,3.187265 0.05329,0.127127 0.238202,0.571427 0.410978,0.987329 l 0.314141,0.756186 3.62901,0.466452 c 1.995948,0.256549 3.679042,0.485484 3.74021,0.508745 0.0847,0.03222 0.1112,0.550692 0.1112,2.174952 0,1.17296 -0.03212,2.15251 -0.07142,2.176775 -0.03922,0.02427 -1.710654,0.269857 -3.714207,0.545758 -2.003554,0.2759 -3.664384,0.528634 -3.690738,0.561631 -0.02636,0.033 -0.218829,0.485381 -0.427737,1.0053 l -0.379818,0.945305 2.129765,2.755988 c 1.171364,1.515793 2.193527,2.853315 2.271471,2.972269 0.140862,0.214987 0.13249,0.225491 -1.399596,1.755706 l -1.541315,1.539425 -1.85928,-1.405699 c -1.022605,-0.773134 -2.372753,-1.79672 -3.000331,-2.274636 l -1.141049,-0.868937 -0.41581,0.209066 c -0.228688,0.114986 -0.66665,0.299865 -0.97325,0.410844 -0.405593,0.14681 -0.568295,0.252917 -0.597262,0.389502 -0.02189,0.10325 -0.223216,1.648946 -0.447382,3.434881 -0.224157,1.785935 -0.430245,3.377263 -0.457957,3.536283 l -0.05041,0.289131 h -2.172486 c -1.65849,0 -2.181442,-0.02631 -2.210352,-0.111204 z m 3.581614,-12.559661 c 0.888859,-0.236389 1.624682,-0.677126 2.387083,-1.429789 1.10434,-1.09024 1.63803,-2.337516 1.635297,-3.821865 -0.004,-2.10835 -1.159956,-3.955352 -3.067912,-4.901411 -2.0712,-1.027008 -4.568723,-0.600406 -6.223154,1.062977 -1.049843,1.055525 -1.561117,2.31147 -1.561117,3.834885 0,1.298686 0.32951,2.287006 1.103424,3.309571 1.295145,1.711261 3.627674,2.503774 5.726379,1.945632 z"
       id="path3154"
       inkscape:connector-curvature="0" />
    <path
       style="fill:#000000;stroke-width:0.596412"
       d="m 36.137942,58.553725 c -5.74e-4,-0.06461 0.277842,-1.606532 0.61866,-3.426493 0.340811,-1.819964 0.638115,-3.43643 0.66068,-3.592146 0.03591,-0.247765 -0.0075,-0.31887 -0.347253,-0.56938 -0.213551,-0.157434 -0.569464,-0.46543 -0.790925,-0.68442 l -0.402653,-0.398166 -0.506377,0.171803 c -0.278505,0.09449 -1.853303,0.645407 -3.499547,1.224253 -1.646244,0.578847 -3.042137,1.036241 -3.101982,1.016431 -0.153132,-0.05069 -1.951784,-3.663319 -1.899964,-3.816115 0.0234,-0.069 1.40688,-1.063611 3.074401,-2.210257 1.667519,-1.146645 3.03596,-2.097209 3.040976,-2.112364 0.005,-0.01516 -0.02027,-0.236193 -0.0562,-0.491191 -0.03593,-0.254998 -0.07362,-0.729938 -0.08376,-1.055425 -0.01014,-0.325485 -0.06817,-0.608258 -0.128974,-0.628384 -0.191681,-0.06345 -6.466401,-3.08071 -6.564187,-3.156452 -0.118952,-0.09214 1.188254,-4.10742 1.349725,-4.145894 0.05643,-0.01345 1.681382,0.268882 3.611023,0.627391 1.92964,0.358508 3.562231,0.659161 3.627981,0.668115 0.06575,0.009 0.287597,-0.202255 0.492989,-0.469353 0.205393,-0.267097 0.510365,-0.620915 0.677714,-0.786265 0.167349,-0.165349 0.291262,-0.356206 0.275365,-0.424128 -0.01589,-0.06791 -0.548215,-1.600488 -1.182926,-3.405708 -0.63471,-1.805219 -1.1741,-3.364785 -1.198645,-3.465701 -0.03874,-0.159323 0.206804,-0.310061 1.864639,-1.144652 1.050097,-0.528641 1.937978,-0.951661 1.97307,-0.940045 0.05701,0.01887 0.927237,1.265909 3.502546,5.019152 l 0.811616,1.182847 0.459154,-0.06761 c 0.252533,-0.03719 0.720207,-0.07482 1.039273,-0.08362 0.519365,-0.01433 0.593749,-0.04249 0.710238,-0.268896 0.07155,-0.139099 0.790329,-1.6368 1.597238,-3.328246 0.806918,-1.691443 1.518974,-3.1109 1.582354,-3.154346 0.136783,-0.09378 3.875421,1.114318 4.029259,1.302005 0.06558,0.08 -0.0969,1.132722 -0.553644,3.587143 -0.355549,1.910654 -0.655144,3.560578 -0.665769,3.666496 -0.01396,0.139536 0.108766,0.294157 0.445542,0.561235 0.255668,0.202759 0.609866,0.511819 0.78711,0.686805 l 0.322259,0.318154 0.361026,-0.130883 c 2.723721,-0.987461 6.650515,-2.312766 6.752517,-2.279001 0.147225,0.04873 1.974688,3.653389 1.926291,3.799594 -0.01699,0.05131 -1.405198,1.039615 -3.084924,2.196218 -2.871054,1.976918 -3.052886,2.117892 -3.034746,2.352787 0.01064,0.137433 0.04656,0.617334 0.07989,1.066461 l 0.06059,0.816597 3.298583,1.583239 c 1.814213,0.870779 3.340099,1.617029 3.390858,1.658334 0.07028,0.0572 -0.06749,0.557738 -0.577912,2.099714 -0.368603,1.113538 -0.70692,2.03337 -0.751854,2.044056 -0.04486,0.01071 -1.708796,-0.281388 -3.697551,-0.649081 -1.988756,-0.367694 -3.64487,-0.64968 -3.680258,-0.626636 -0.0354,0.02304 -0.360275,0.392025 -0.721984,0.819955 l -0.657639,0.778058 1.155802,3.28565 c 0.635684,1.807104 1.185748,3.398083 1.222362,3.535504 0.06617,0.248362 0.05492,0.255703 -1.880424,1.226939 l -1.946997,0.97708 -1.323348,-1.918766 c -0.727842,-1.055321 -1.68793,-2.451337 -2.133529,-3.102258 l -0.81018,-1.183492 -0.460445,0.06781 c -0.253237,0.0373 -0.72711,0.07518 -1.053053,0.08419 -0.431181,0.01192 -0.618984,0.06152 -0.689406,0.18208 -0.05323,0.09114 -0.730089,1.495265 -1.50413,3.120281 -0.774031,1.625018 -1.469754,3.070967 -1.546034,3.213222 l -0.138716,0.258643 -2.062428,-0.682704 C 36.626843,58.8327 36.138651,58.643385 36.137884,58.553706 Z m 7.347046,-10.797868 c 0.918115,0.05491 1.755163,-0.132266 2.715466,-0.607215 1.391002,-0.687969 2.289612,-1.704347 2.753475,-3.114358 0.658752,-2.002798 0.141777,-4.119491 -1.372223,-5.617198 -1.643536,-1.625855 -4.148594,-2.005712 -6.241931,-0.946501 -1.328357,0.672139 -2.208411,1.70379 -2.687144,3.150029 -0.408113,1.232895 -0.405875,2.274696 0.0075,3.48866 0.691769,2.031569 2.657085,3.516931 4.824866,3.646583 z"
       id="path3154-6"
       inkscape:connector-curvature="0" />
  </g>
</svg>
