<?xml version="1.0" encoding="UTF-8" standalone="no"?>
<!-- Created with Inkscape (http://www.inkscape.org/) -->

<svg
   width="64"
   height="64"
   id="svg2869"
   version="1.1"
   viewBox="0 0 64 64"
   xmlns:xlink="http://www.w3.org/1999/xlink"
   xmlns="http://www.w3.org/2000/svg"
   xmlns:svg="http://www.w3.org/2000/svg"
   xmlns:rdf="http://www.w3.org/1999/02/22-rdf-syntax-ns#"
   xmlns:cc="http://creativecommons.org/ns#"
   xmlns:dc="http://purl.org/dc/elements/1.1/">
  <title
     id="title23">hypocycloidgear</title>
  <defs
     id="defs2871">
    <linearGradient
       id="linearGradient5">
      <stop
         style="stop-color:#ef2929;stop-opacity:1;"
         offset="0"
         id="stop19" />
      <stop
         style="stop-color:#ef2929;stop-opacity:0;"
         offset="1"
         id="stop20" />
    </linearGradient>
    <linearGradient
       id="swatch18">
      <stop
         style="stop-color:#ef2929;stop-opacity:1;"
         offset="0"
         id="stop18" />
    </linearGradient>
    <linearGradient
       id="swatch15">
      <stop
         style="stop-color:#3d0000;stop-opacity:1;"
         offset="0"
         id="stop15" />
    </linearGradient>
    <linearGradient
       id="linearGradient5-1">
      <stop
         style="stop-color:#ef2929;stop-opacity:1;"
         offset="0"
         id="stop5" />
      <stop
         style="stop-color:#ef2929;stop-opacity:0;"
         offset="1"
         id="stop6" />
    </linearGradient>
    <linearGradient
       id="linearGradient3836-9">
      <stop
         style="stop-color:#a40000;stop-opacity:1"
         offset="0"
         id="stop3838-8" />
      <stop
         style="stop-color:#ef2929;stop-opacity:1"
         offset="1"
         id="stop3840-1" />
    </linearGradient>
    <linearGradient
       xlink:href="#linearGradient59"
       id="linearGradient846"
       x1="58.196716"
       y1="49.972424"
       x2="58.197704"
       y2="17.442623"
       gradientUnits="userSpaceOnUse"
       gradientTransform="matrix(1.0428047,0,0,1.0432797,-1.3697824,-1.3849651)" />
    <linearGradient
       id="linearGradient59">
      <stop
         style="stop-color:#c4a000;stop-opacity:1;"
         offset="0"
         id="stop59" />
      <stop
         style="stop-color:#fce94f;stop-opacity:1;"
         offset="0.67682928"
         id="stop58" />
      <stop
         style="stop-color:#c4a000;stop-opacity:1;"
         offset="1"
         id="stop805" />
    </linearGradient>
    <linearGradient
       xlink:href="#linearGradient59"
       id="linearGradient842"
       x1="24.211432"
       y1="49.059666"
       x2="24.858622"
       y2="12.503376"
       gradientUnits="userSpaceOnUse"
       gradientTransform="matrix(1.0428047,0,0,1.0432797,-1.3697824,-1.3849651)" />
    <linearGradient
       xlink:href="#linearGradient59"
       id="linearGradient840"
       x1="7.8155646"
       y1="50.543022"
       x2="8.3967581"
       y2="12.291364"
       gradientUnits="userSpaceOnUse"
       gradientTransform="matrix(1.0428047,0,0,1.0432797,-1.3697824,-1.3849651)" />
    <linearGradient
       xlink:href="#linearGradient59"
       id="linearGradient844"
       x1="41.310841"
       y1="50.331081"
       x2="41.639793"
       y2="14.198631"
       gradientUnits="userSpaceOnUse"
       gradientTransform="matrix(1.0428047,0,0,1.0432797,-1.3697824,-1.3849651)" />
    <linearGradient
       xlink:href="#linearGradient59-1"
       id="linearGradient775"
       x1="1615.5502"
       y1="963.38916"
       x2="1705.1536"
       y2="1063.3772"
       gradientUnits="userSpaceOnUse" />
    <linearGradient
       id="linearGradient59-1">
      <stop
         style="stop-color:#fce94f;stop-opacity:1"
         offset="0"
         id="stop59-0" />
      <stop
         style="stop-color:#c4a000;stop-opacity:1"
         offset="1"
         id="stop58-6" />
    </linearGradient>
    <linearGradient
       xlink:href="#linearGradient6"
       id="linearGradient777"
       x1="1493.8453"
       y1="882.08173"
       x2="1598.384"
       y2="1011.619"
       gradientUnits="userSpaceOnUse" />
    <linearGradient
       id="linearGradient6">
      <stop
         style="stop-color:#729fcf;stop-opacity:1;"
         offset="0"
         id="stop6-7" />
      <stop
         style="stop-color:#3465a4;stop-opacity:1;"
         offset="1"
         id="stop5-3" />
    </linearGradient>
    <linearGradient
       xlink:href="#linearGradient6"
       id="linearGradient777-6"
       x1="1493.8453"
       y1="882.08173"
       x2="1598.384"
       y2="1011.619"
       gradientUnits="userSpaceOnUse" />
    <linearGradient
       xlink:href="#linearGradient22"
       id="linearGradient23"
       x1="64"
       y1="64"
       x2="0"
       y2="0"
       gradientUnits="userSpaceOnUse" />
    <linearGradient
       id="linearGradient22">
      <stop
         style="stop-color:#c4a000;stop-opacity:1"
         offset="0"
         id="stop22" />
      <stop
         style="stop-color:#fce94f;stop-opacity:1"
         offset="1"
         id="stop23" />
    </linearGradient>
    <linearGradient
       xlink:href="#linearGradient22"
       id="linearGradient23-0"
       x1="64"
       y1="64"
       x2="0"
       y2="0"
       gradientUnits="userSpaceOnUse" />
  </defs>
  <metadata
     id="metadata2874">
    <rdf:RDF>
      <cc:Work
         rdf:about="">
        <dc:format>image/svg+xml</dc:format>
        <dc:type
           rdf:resource="http://purl.org/dc/dcmitype/StillImage" />
        <dc:creator>
          <cc:Agent>
            <dc:title>[maxwxyz]</dc:title>
          </cc:Agent>
        </dc:creator>
        <dc:relation>https://www.freecad.org/wiki/index.php?title=Artwork</dc:relation>
        <dc:publisher>
          <cc:Agent>
            <dc:title>FreeCAD</dc:title>
          </cc:Agent>
        </dc:publisher>
        <dc:identifier>FreeCAD/src/</dc:identifier>
        <dc:rights>
          <cc:Agent>
            <dc:title>FreeCAD LGPL2+</dc:title>
          </cc:Agent>
        </dc:rights>
        <dc:date>2024</dc:date>
        <dc:title>hypocycloidgear</dc:title>
      </cc:Work>
    </rdf:RDF>
  </metadata>
  <g
     id="layer3"
     style="display:inline">
    <path
       d="m 29.955491,25.257568 c -0.05058,2.01e-4 -0.0996,0.0064 -0.149897,0.0077 -0.279514,0.0074 -0.557067,0.03289 -0.831748,0.07458 -0.05975,0.009 -0.119949,0.01664 -0.179179,0.02718 -0.307944,0.05524 -0.612431,0.128768 -0.909136,0.225819 -0.03044,0.01 -0.0597,0.02238 -0.08994,0.03276 -0.278638,0.09554 -0.549977,0.210874 -0.814319,0.342215 -0.03895,0.01941 -0.07931,0.03632 -0.117825,0.05646 -0.270124,0.140823 -0.529904,0.302854 -0.780156,0.480215 -0.09931,0.07056 -0.197596,0.142449 -0.292821,0.218152 -0.04485,0.03559 -0.09053,0.06982 -0.134557,0.106637 -0.304233,0.254707 -0.585699,0.5353 -0.840812,0.839155 -0.05015,0.05984 -0.09671,0.123518 -0.145016,0.185395 -0.07328,0.09371 -0.145696,0.188164 -0.214038,0.285759 -0.05228,0.07479 -0.101679,0.150873 -0.150593,0.227212 -0.05911,0.09212 -0.116135,0.185777 -0.170812,0.280881 -0.04531,0.07894 -0.0899,0.158083 -0.131768,0.238364 -0.05647,0.108124 -0.108289,0.218898 -0.158961,0.330365 -0.03103,0.06836 -0.06479,0.135778 -0.09342,0.20491 -0.07287,0.175781 -0.138554,0.355155 -0.196608,0.538063 -0.09492,0.299 -0.162594,0.603952 -0.214734,0.910944 -0.01122,0.06634 -0.02141,0.133047 -0.03067,0.200031 -0.08579,0.617051 -0.08579,1.242471 0,1.859522 0.0092,0.06698 0.01946,0.133691 0.03067,0.200032 0.05214,0.306992 0.119811,0.611943 0.214734,0.910943 0.05805,0.182909 0.123739,0.362283 0.196608,0.538064 0.02863,0.06913 0.0624,0.136546 0.09342,0.20491 0.05067,0.111467 0.102498,0.222241 0.158961,0.330365 0.04186,0.08028 0.08646,0.159428 0.131768,0.238364 0.05468,0.0951 0.111702,0.188768 0.170812,0.28088 0.04891,0.07634 0.09831,0.152417 0.150593,0.227213 0.06834,0.09759 0.140751,0.192044 0.214038,0.285759 0.0483,0.06188 0.09486,0.125553 0.145016,0.185395 0.255113,0.303854 0.536579,0.584447 0.840812,0.839155 0.04402,0.03682 0.08971,0.07104 0.134557,0.106637 0.09523,0.07571 0.19351,0.14759 0.292821,0.218152 0.250252,0.17736 0.510032,0.339392 0.780156,0.480215 0.03852,0.02014 0.07887,0.03704 0.117825,0.05646 0.264342,0.131342 0.535681,0.246676 0.814319,0.342215 0.03024,0.01042 0.05951,0.02281 0.08994,0.03276 0.296705,0.09705 0.601192,0.170579 0.909136,0.225819 0.05923,0.01052 0.119425,0.0182 0.179179,0.02718 0.274681,0.04169 0.552234,0.06714 0.831748,0.07458 0.0503,0.0013 0.09932,0.0074 0.149897,0.0077 0.04062,1.71e-4 0.08134,-0.003 0.122008,-0.0035 0.166442,-0.0023 0.331685,-0.01093 0.495005,-0.02509 0.07483,-0.0066 0.149665,-0.01458 0.224496,-0.0237 0.128508,-0.01548 0.255184,-0.03595 0.381363,-0.05854 0.08085,-0.01459 0.161968,-0.02768 0.242622,-0.04531 0.126646,-0.02753 0.250512,-0.06166 0.374392,-0.09619 0.07039,-0.01965 0.141148,-0.03512 0.211249,-0.05715 -2.810284,-0.883521 -4.722074,-3.487999 -4.722074,-6.433058 0,-2.945058 1.91179,-5.549537 4.722074,-6.433058 -0.0701,-0.02204 -0.140858,-0.0375 -0.211249,-0.05715 -0.12388,-0.03452 -0.247746,-0.06866 -0.374392,-0.09618 -0.08066,-0.01762 -0.161777,-0.03072 -0.242622,-0.0453 -0.126179,-0.0226 -0.252855,-0.04307 -0.381363,-0.05854 -0.07483,-0.0091 -0.149665,-0.01712 -0.224496,-0.0237 -0.16332,-0.01416 -0.328563,-0.02278 -0.495005,-0.02509 -0.04067,-5.71e-4 -0.08139,-0.0036 -0.122008,-0.0035 z"
       style="fill:#c4a000;fill-rule:evenodd;stroke:#231f0b;stroke-width:2;stroke-linecap:round;stroke-linejoin:round;stroke-dasharray:none;stroke-opacity:1"
       id="path42" />
    <path
       d="m 34.030571,5.039086 c -0.292207,-8.96e-5 -0.584141,0.020612 -0.874974,0.050182 -0.07736,0.00785 -0.154345,0.017236 -0.231468,0.027181 -0.270011,0.034857 -0.539106,0.079072 -0.804558,0.1393945 -0.02147,0.00488 -0.04341,0.00749 -0.06484,0.012547 -0.272903,0.064241 -0.540843,0.1480357 -0.805952,0.2390617 -0.137499,0.047081 -0.271758,0.1030768 -0.406462,0.1575157 -0.163678,0.066018 -0.326826,0.1332674 -0.485942,0.2097889 -0.227507,0.1096336 -0.453404,0.2226571 -0.67,0.3526681 -0.191799,0.1094203 -0.376031,0.2303582 -0.555661,0.3582439 -0.142041,0.1024455 -0.279694,0.2108024 -0.413434,0.3240927 -0.134706,0.1130286 -0.261994,0.2336155 -0.387639,0.3554558 -0.05945,0.0576 -0.122481,0.111896 -0.179875,0.1714554 -0.179166,0.1860241 -0.350227,0.380262 -0.509646,0.585457 0.17411,0.128801 0.349086,0.257125 0.525681,0.382639 0.155571,0.110285 0.315271,0.213825 0.483154,0.305273 0.03114,0.01726 0.06044,0.03722 0.09203,0.05366 0.169293,0.08985 0.344597,0.165149 0.527076,0.221637 0.17289,0.05019 0.352445,0.07525 0.533351,0.08782 0.0604,0.004 0.120159,0.01209 0.18127,0.01185 0.06111,2.36e-4 0.120873,-0.0078 0.18127,-0.01185 0.180905,-0.01257 0.361157,-0.03763 0.534048,-0.08782 0.189952,-0.05881 0.37233,-0.135748 0.547991,-0.230698 0.240951,-0.128399 0.47002,-0.274972 0.687431,-0.43979 0.18223,-0.133814 0.360721,-0.27297 0.543809,-0.40494 0.183711,-0.135198 0.374195,-0.2608602 0.568907,-0.3798508 0.01217,-0.00742 0.02333,-0.016358 0.03555,-0.023698 0.07725,-0.04695 0.158325,-0.085697 0.237046,-0.1296372 0.09632,-0.053643 0.191476,-0.109533 0.290031,-0.1589096 0.09174,-0.045865 0.186613,-0.085589 0.280271,-0.1275461 0.108318,-0.048737 0.21568,-0.098846 0.326285,-0.1421826 0.01865,-0.00728 0.03636,-0.016561 0.05508,-0.023698 0.03113,-0.011887 0.06425,-0.017121 0.09551,-0.028577 0.128376,-0.046995 0.255879,-0.096553 0.386941,-0.1359095 0.15638,-0.049995 0.31559,-0.089285 0.475484,-0.1247583 0.01636,-0.0038 0.03171,-0.010938 0.0481,-0.014638 0.18498,-0.037899 0.371564,-0.068556 0.559147,-0.092697 0.197729,-0.028188 0.395923,-0.050883 0.594704,-0.067607 0.07511,-0.00565 0.150086,-0.00478 0.225193,-0.00836 0.07005,-0.00339 0.13974,-0.00608 0.209854,-0.00766 0.276227,-0.00606 0.552768,-0.00303 0.828961,0.018817 0.228425,0.017921 0.455672,0.045818 0.681852,0.082243 0.0819,0.013164 0.162506,0.033222 0.244017,0.048788 0.142103,0.027153 0.284733,0.052821 0.425286,0.087121 0.0092,0.00225 0.01865,0.00328 0.02789,0.00558 C 38.850694,6.5180025 38.617712,6.3649894 38.374072,6.2274209 38.202152,6.1258631 38.027717,6.0297545 37.850481,5.9381772 37.473318,5.7477396 37.083963,5.5868544 36.68199,5.4565691 35.827571,5.178735 34.928892,5.0389475 34.030572,5.0390824 Z m 13.426502,5.434993 c -0.06818,-6.42e-4 -0.136111,0.0015 -0.204277,0.0028 -0.154813,0.0028 -0.309538,0.01031 -0.464329,0.023 -0.0579,0.0048 -0.115825,0.0099 -0.173601,0.01603 -0.329139,0.03602 -0.655132,0.09314 -0.977461,0.168669 -0.363767,0.08473 -0.724041,0.184927 -1.090407,0.258576 0.01557,0.03079 0.02463,0.06447 0.03974,0.09549 0.118777,0.244531 0.224844,0.494367 0.31513,0.75064 0.01475,0.04176 0.03272,0.08204 0.04671,0.124061 0.09365,0.281742 0.166037,0.570023 0.226587,0.860761 0.0058,0.02828 0.01684,0.0553 0.02231,0.08364 0.01077,0.05427 0.01617,0.109338 0.0258,0.163788 0.01063,0.06059 0.02561,0.120408 0.03486,0.181213 0.03626,0.223777 0.06529,0.449527 0.0997,0.673973 0.03715,0.268888 0.09443,0.533351 0.173601,0.793154 0.05707,0.191248 0.132507,0.375435 0.225193,0.551306 0.1167,0.212152 0.261256,0.403875 0.43435,0.5757 0.171879,0.173039 0.364359,0.318247 0.576577,0.43491 0.167961,0.08846 0.34369,0.158662 0.525681,0.214669 0.03768,0.0119 0.07634,0.01915 0.11434,0.02997 0.180663,0.05273 0.364254,0.09185 0.549386,0.123364 0.275811,0.04667 0.553644,0.08468 0.829657,0.129637 0.301146,0.04576 0.597752,0.114294 0.891708,0.194455 0.0631,0.01711 0.125606,0.03425 0.188241,0.05297 0.28562,0.08579 0.566337,0.186173 0.839418,0.305972 0.01475,0.0065 0.03061,0.0101 0.04532,0.01673 0.03158,0.01412 0.05997,0.03423 0.09133,0.04878 0.122812,0.05704 0.246647,0.111423 0.366025,0.175637 0.151827,0.07822 0.298562,0.165887 0.442019,0.25788 0.0087,0.0054 0.01847,0.0091 0.02719,0.01464 0.0027,0.0017 0.005,0.0038 0.0077,0.0055 0.155487,0.101194 0.306336,0.209592 0.453175,0.323396 0.159602,0.1199 0.315363,0.244213 0.467815,0.37288 0.222847,0.191698 0.431059,0.398747 0.631654,0.612639 0.047,0.05012 0.0937,0.09997 0.139439,0.151244 0.03976,0.04458 0.08247,0.08623 0.121312,0.131727 0.149719,0.175168 0.291112,0.356838 0.425983,0.543639 0.02228,0.03087 0.04158,0.06363 0.06344,0.09479 0.148722,0.211906 0.285855,0.431361 0.414829,0.655851 0.03875,0.06743 0.07743,0.134375 0.114339,0.20282 0.13916,0.258097 0.269838,0.520898 0.38206,0.79176 0.04371,0.105498 0.08527,0.211376 0.124795,0.318517 0.02766,-0.408725 0.130352,-0.805195 0.23356,-1.19949 0.09201,-0.341911 0.166013,-0.687632 0.222406,-1.037095 0.121555,-0.78283 0.113728,-1.585456 -0.02092,-2.366223 -0.07474,-0.38074 -0.177759,-0.756785 -0.293514,-1.127005 -0.132002,-0.401262 -0.293884,-0.789633 -0.486,-1.166058 -0.407708,-0.800322 -0.943968,-1.534704 -1.579138,-2.169676 -0.237345,-0.237204 -0.487411,-0.45886 -0.748783,-0.665608 -0.09701,-0.07676 -0.203044,-0.140757 -0.303278,-0.213274 -0.171111,-0.12376 -0.339392,-0.250876 -0.520105,-0.362426 -0.244639,-0.150753 -0.499166,-0.28551 -0.757846,-0.410517 -0.06457,-0.03118 -0.129811,-0.06105 -0.195213,-0.09061 -0.261982,-0.118323 -0.527894,-0.228426 -0.801073,-0.318517 -0.193111,-0.06367 -0.388487,-0.120136 -0.586337,-0.169364 -0.356845,-0.09752 -0.720026,-0.16928 -1.089013,-0.200032 -0.214101,-0.02096 -0.428023,-0.02924 -0.642112,-0.03136 z m -32.749146,2.724466 c -0.833387,0.906559 -1.474195,1.993308 -1.842676,3.169136 0.05114,-0.01963 0.102019,-0.03969 0.151987,-0.06203 0.096,-0.04283 0.192682,-0.08457 0.282363,-0.139395 0.03282,-0.02013 0.06512,-0.04115 0.09691,-0.06273 0.134298,-0.09102 0.26296,-0.190647 0.377877,-0.306667 0.173094,-0.171826 0.318348,-0.363548 0.435048,-0.5757 0.0886,-0.168109 0.158683,-0.344743 0.214734,-0.526911 0.01153,-0.03653 0.01876,-0.07399 0.02928,-0.110819 0.05301,-0.18097 0.09248,-0.364439 0.124099,-0.549911 0.04658,-0.274647 0.08441,-0.550931 0.128981,-0.825914 2.61e-4,-0.0016 4.28e-4,-0.0033 7.14e-4,-0.0049 2.13e-4,-0.0014 5e-4,-0.0028 7.13e-4,-0.0041 z m 40.752897,10.503379 c 0.02435,0.16215 0.04029,0.325012 0.05507,0.487882 0.0032,0.034 0.0091,0.06772 0.01185,0.101757 2.39e-4,0.0031 3.57e-4,0.0061 7.14e-4,0.009 0.01203,0.155576 0.0155,0.311439 0.01881,0.467669 0.0055,0.262184 0.0029,0.523981 -0.01674,0.786185 -0.01674,0.198719 -0.03943,0.397548 -0.06763,0.595215 -0.04641,0.366889 -0.118679,0.729136 -0.231468,1.081702 -0.08407,0.279782 -0.192299,0.551375 -0.31025,0.818246 -0.01481,0.03369 -0.02371,0.06966 -0.03905,0.103149 -0.02249,0.04889 -0.0497,0.09525 -0.07321,0.143576 -0.04139,0.08503 -0.0844,0.168889 -0.12898,0.252303 -0.05201,0.09738 -0.106153,0.193577 -0.162445,0.288548 -0.05435,0.09192 -0.110649,0.182191 -0.16872,0.271819 -0.02357,0.03615 -0.04341,0.07435 -0.06763,0.110122 -0.0285,0.04259 -0.06132,0.08205 -0.09064,0.124061 -0.03759,0.05375 -0.07127,0.110286 -0.110156,0.163092 -0.132801,0.184121 -0.271868,0.364515 -0.406463,0.547819 -0.163723,0.216236 -0.310824,0.443524 -0.438532,0.683034 -0.09498,0.175606 -0.171948,0.358625 -0.23077,0.548517 -0.0676,0.232497 -0.100649,0.470494 -0.0997,0.714398 -9.28e-4,0.243905 0.03211,0.481901 0.0997,0.714397 0.05883,0.189892 0.135791,0.372912 0.23077,0.548517 0.127708,0.23951 0.274809,0.466798 0.438532,0.683033 0.134595,0.183306 0.273662,0.363699 0.406463,0.547821 0.03889,0.0528 0.07256,0.109342 0.110156,0.163092 0.02931,0.04201 0.06213,0.08147 0.09064,0.124061 0.02422,0.03578 0.04405,0.07397 0.06763,0.110121 0.05807,0.08963 0.114365,0.179896 0.16872,0.271821 0.05629,0.09496 0.110429,0.191171 0.162445,0.288546 0.04458,0.08341 0.0876,0.167278 0.12898,0.252304 0.02351,0.04833 0.05072,0.09468 0.07321,0.143576 0.01532,0.03349 0.02423,0.06947 0.03905,0.103149 0.117951,0.266871 0.226182,0.538464 0.31025,0.818246 0.112789,0.352565 0.185059,0.71551 0.231468,1.082399 0.0282,0.197666 0.0509,0.395799 0.06763,0.594518 0.01981,0.263074 0.02235,0.525919 0.01674,0.788973 -0.0032,0.155065 -0.0069,0.309762 -0.01881,0.464183 -2.71e-4,0.0035 -3.57e-4,0.007 -7.14e-4,0.01042 -0.0029,0.03758 -0.0098,0.07467 -0.01324,0.112212 -0.01467,0.159126 -0.02992,0.318291 -0.05368,0.476729 0.159914,-0.233708 0.369601,-0.424454 0.590521,-0.601487 0.0689,-0.05908 0.137559,-0.117764 0.214038,-0.167273 0.03181,-0.02283 0.06065,-0.05031 0.09272,-0.07249 0.386525,-0.257401 0.799779,-0.471139 1.185224,-0.730428 0.341737,-0.225436 0.663066,-0.477415 0.963518,-0.755519 0.372225,-0.34713 0.710924,-0.731514 1.003954,-1.147913 0.216538,-0.322018 0.409849,-0.660768 0.589826,-1.004338 0.190496,-0.377044 0.350736,-0.766279 0.481059,-1.168126 0.277924,-0.85415 0.418453,-1.752556 0.418317,-2.650588 1.36e-4,-0.898031 -0.140393,-1.796438 -0.418317,-2.650587 -0.130323,-0.401847 -0.290563,-0.791082 -0.481059,-1.168126 -0.179977,-0.34357 -0.373288,-0.68232 -0.589826,-1.004339 -0.29303,-0.416399 -0.631729,-0.800783 -1.003954,-1.147913 -0.300452,-0.278103 -0.621781,-0.530082 -0.963518,-0.755518 -0.385445,-0.259289 -0.798699,-0.473027 -1.185224,-0.730428 -0.03205,-0.02218 -0.06091,-0.04966 -0.09272,-0.07249 -0.08004,-0.05181 -0.15208,-0.11266 -0.223801,-0.17494 -0.217182,-0.175074 -0.423185,-0.363537 -0.580758,-0.593821 z m -0.436443,18.296929 c -0.03953,0.107142 -0.08108,0.213019 -0.124796,0.318516 -0.112222,0.270866 -0.242898,0.533661 -0.38206,0.791761 -0.03691,0.06845 -0.07559,0.135395 -0.11434,0.202819 -0.128974,0.224492 -0.266104,0.443943 -0.414828,0.655852 -0.02187,0.03115 -0.04116,0.06393 -0.06344,0.09478 -0.134873,0.186804 -0.276263,0.369167 -0.425984,0.544336 -0.04044,0.04738 -0.08475,0.09092 -0.126192,0.137304 -0.04227,0.0473 -0.08563,0.09308 -0.128979,0.139394 -0.202296,0.216149 -0.412259,0.424687 -0.637233,0.618215 -0.152454,0.128668 -0.308212,0.25298 -0.467816,0.372881 -0.14684,0.113805 -0.297685,0.222204 -0.453173,0.323395 -0.0027,0.0017 -0.005,0.0038 -0.0077,0.0055 -0.0087,0.0055 -0.01845,0.0091 -0.02719,0.01464 -0.143458,0.09199 -0.29019,0.179656 -0.442018,0.257881 -0.119379,0.06422 -0.243212,0.11859 -0.366026,0.175637 -0.03135,0.01455 -0.05975,0.03467 -0.09133,0.04878 -0.01471,0.0066 -0.03057,0.0102 -0.04532,0.01673 -0.273084,0.119801 -0.553795,0.220183 -0.839417,0.305971 -0.06263,0.01873 -0.125138,0.03586 -0.188242,0.05297 -0.293959,0.08016 -0.590559,0.148699 -0.891707,0.194456 -0.276018,0.04496 -0.553845,0.08297 -0.829658,0.129636 -0.185134,0.03151 -0.368721,0.07064 -0.549386,0.123365 -0.03801,0.01082 -0.07666,0.01807 -0.114339,0.02997 -0.181995,0.05601 -0.357719,0.126205 -0.525683,0.214668 -0.21222,0.116664 -0.404695,0.26187 -0.576576,0.434911 -0.173095,0.171827 -0.317649,0.363546 -0.43435,0.575699 -0.09269,0.175873 -0.168124,0.360057 -0.225192,0.551305 -0.07902,0.259325 -0.135754,0.523388 -0.172904,0.791762 -0.03455,0.225135 -0.06402,0.450895 -0.100393,0.675366 -0.0092,0.06081 -0.02422,0.12062 -0.03486,0.181213 -0.0097,0.05445 -0.01503,0.109521 -0.02579,0.163789 -0.0055,0.02835 -0.01651,0.05535 -0.02231,0.08364 -0.06055,0.290741 -0.132934,0.579018 -0.226586,0.860762 -0.01399,0.04202 -0.03196,0.08231 -0.04671,0.12406 -0.09029,0.256276 -0.196353,0.506108 -0.315131,0.750641 -0.01511,0.03101 -0.02417,0.0647 -0.03974,0.09549 0.366369,0.07364 0.726636,0.173847 1.090406,0.258577 0.322332,0.07554 0.648319,0.132646 0.977462,0.168667 0.05777,0.0061 0.115698,0.01129 0.1736,0.01603 0.154793,0.01265 0.309515,0.0202 0.46433,0.023 0.06817,0.0013 0.136099,0.0034 0.204276,0.0028 0.214092,-0.0021 0.42801,-0.01042 0.642113,-0.03136 0.368991,-0.03075 0.732164,-0.102522 1.089012,-0.200032 0.197852,-0.04923 0.393225,-0.105689 0.586338,-0.169364 0.273182,-0.09009 0.539088,-0.200192 0.801072,-0.318517 0.06541,-0.02956 0.130644,-0.05941 0.195213,-0.09061 0.258682,-0.125008 0.513205,-0.259762 0.757847,-0.410518 0.180714,-0.11155 0.348991,-0.238665 0.520104,-0.362425 0.100234,-0.07252 0.206259,-0.136513 0.303279,-0.213274 0.261374,-0.20675 0.511434,-0.428402 0.748783,-0.665609 0.635175,-0.634977 1.171426,-1.369345 1.579136,-2.169676 0.192119,-0.376427 0.353997,-0.764791 0.485945,-1.166035 0.115755,-0.370224 0.218774,-0.746261 0.293514,-1.127005 0.134647,-0.780774 0.142475,-1.583385 0.02092,-2.366223 -0.05639,-0.349466 -0.130394,-0.695181 -0.222405,-1.037095 -0.103209,-0.394298 -0.205902,-0.79076 -0.23356,-1.19949 z m -42.15913,5.63363 c 0.368481,1.175835 1.009284,2.262573 1.842676,3.169135 -2.14e-4,-0.0014 -5.01e-4,-0.0028 -7.15e-4,-0.0041 -2.99e-4,-0.0018 -3.93e-4,-0.0037 -7.14e-4,-0.0055 -0.04439,-0.274045 -0.08193,-0.549407 -0.128283,-0.823126 -0.03168,-0.186033 -0.07162,-0.370493 -0.124797,-0.552002 -0.01052,-0.03683 -0.01775,-0.07429 -0.02928,-0.110818 -0.05605,-0.18217 -0.12614,-0.358803 -0.214735,-0.526912 -0.1167,-0.212153 -0.261952,-0.403873 -0.435047,-0.575699 -0.114918,-0.116021 -0.24358,-0.215642 -0.377878,-0.306669 -0.03179,-0.02158 -0.06409,-0.04259 -0.09691,-0.06273 -0.08968,-0.05482 -0.186355,-0.09657 -0.282363,-0.139395 -0.04997,-0.02234 -0.100839,-0.04241 -0.151987,-0.06203 z m 17.11743,7.282668 c -0.243978,-9.27e-4 -0.482056,0.0321 -0.714621,0.09966 -0.181077,0.05606 -0.354801,0.131333 -0.522893,0.220243 -0.03624,0.01882 -0.0703,0.04076 -0.105973,0.06063 -0.163522,0.08975 -0.319438,0.19072 -0.471301,0.298306 -0.177348,0.125956 -0.352964,0.25541 -0.527773,0.384728 0.159416,0.20519 0.330486,0.398742 0.509646,0.58476 0.05739,0.05956 0.120421,0.113857 0.179875,0.171456 0.125645,0.121839 0.252932,0.242427 0.387639,0.355455 0.133741,0.113293 0.271393,0.221646 0.413434,0.324091 0.179631,0.127889 0.363861,0.248825 0.555661,0.358245 0.216597,0.130012 0.442491,0.243034 0.67,0.352668 0.159117,0.07652 0.322264,0.143771 0.485942,0.209789 0.134705,0.05444 0.268962,0.110438 0.406462,0.157518 0.26511,0.09102 0.533047,0.174816 0.805953,0.23906 0.02144,0.005 0.04337,0.0077 0.06484,0.01256 0.266871,0.06065 0.537269,0.10588 0.808741,0.140787 0.07316,0.0094 0.146228,0.01827 0.219616,0.0258 0.293348,0.03008 0.587882,0.05027 0.882644,0.05019 0.898324,1.36e-4 1.796993,-0.139649 2.651416,-0.417485 0.401977,-0.130287 0.791326,-0.291172 1.168493,-0.481609 0.177235,-0.09157 0.351668,-0.187686 0.52359,-0.289245 0.243641,-0.137569 0.47662,-0.290579 0.699282,-0.459305 -0.0092,0.0021 -0.01865,0.0032 -0.02789,0.0055 -0.140555,0.03429 -0.283183,0.05997 -0.425286,0.08712 -0.08151,0.01556 -0.162119,0.03562 -0.244018,0.04879 -0.226181,0.03642 -0.453425,0.06432 -0.681852,0.08224 -0.276194,0.02184 -0.552731,0.02487 -0.828961,0.0188 -0.07011,-0.0014 -0.139802,-0.0043 -0.209854,-0.0077 -0.07511,-0.0036 -0.150085,-0.0029 -0.225193,-0.0084 -0.198782,-0.01674 -0.396974,-0.03942 -0.594704,-0.06761 -0.183503,-0.02319 -0.365879,-0.0525 -0.546598,-0.09061 -0.0041,-7.13e-4 -0.0084,-0.0011 -0.01255,-0.0021 -0.01093,-0.0026 -0.02116,-0.0072 -0.03206,-0.0098 -0.165393,-0.03621 -0.329862,-0.07795 -0.49152,-0.129638 -0.131062,-0.03936 -0.258564,-0.08892 -0.38694,-0.135909 -0.03127,-0.01146 -0.06439,-0.0167 -0.09551,-0.02858 -0.01873,-0.0071 -0.03642,-0.01641 -0.05508,-0.02369 -0.110606,-0.04334 -0.217967,-0.09344 -0.326285,-0.142183 -0.09365,-0.04196 -0.188527,-0.08168 -0.280271,-0.127545 -0.09855,-0.04938 -0.193711,-0.105264 -0.290032,-0.158909 -0.07872,-0.04394 -0.159798,-0.08269 -0.237044,-0.129637 -0.01223,-0.0073 -0.02338,-0.01627 -0.03556,-0.02369 -0.194713,-0.118991 -0.385195,-0.244652 -0.568908,-0.379849 -0.183089,-0.131973 -0.361578,-0.271127 -0.543809,-0.404942 -0.217412,-0.164819 -0.446478,-0.31139 -0.68743,-0.43979 -0.175662,-0.09495 -0.358039,-0.171894 -0.547992,-0.230698 -0.232564,-0.06758 -0.471339,-0.100609 -0.715318,-0.09966 z"
       style="fill:#c4a000;fill-rule:evenodd;stroke:#231f0b;stroke-width:2;stroke-linecap:round;stroke-linejoin:round;stroke-dasharray:none;stroke-opacity:1"
       id="path32" />
    <path
       d="M 28.165802,8.4047677 C 27.984018,8.2758987 27.80368,8.1445447 27.624781,8.0116747 27.480933,7.9042497 27.332114,7.8034077 27.182762,7.7036128 27.124405,7.6646597 27.067839,7.6232138 27.008465,7.5858244 26.847783,7.4840223 26.682244,7.3906296 26.514157,7.3014596 26.46471,7.2752061 26.416366,7.2471463 26.366352,7.2220047 26.135026,7.106137 25.89615,7.0055934 25.653823,6.9146395 c -0.0695,-0.026086 -0.139536,-0.050007 -0.209854,-0.073879 -0.228961,-0.078122 -0.460991,-0.1477327 -0.696495,-0.2028189 -0.02668,-0.00596 -0.05271,-0.014613 -0.07948,-0.020212 -0.373787,-0.074367 -0.752859,-0.1234818 -1.132238,-0.1575157 -0.21067,-0.015848 -0.421695,-0.023438 -0.632352,-0.022999 -0.24843,5.71e-4 -0.496603,0.016258 -0.743903,0.039031 -0.08015,0.00738 -0.159933,0.018906 -0.239834,0.028577 -0.176208,0.021333 -0.351837,0.047137 -0.526379,0.079453 -0.08954,0.016579 -0.17875,0.03424 -0.267721,0.053667 -0.167527,0.036579 -0.33344,0.079638 -0.498492,0.1261518 -0.08342,0.023509 -0.16762,0.044388 -0.250291,0.070394 -0.241563,0.076004 -0.480718,0.1602731 -0.714621,0.2571829 -0.271905,0.1125041 -0.535712,0.2435847 -0.794797,0.3833351 -0.06544,0.035289 -0.130014,0.071761 -0.194516,0.1087275 -0.231476,0.132703 -0.457481,0.2743016 -0.675579,0.4279416 -0.02508,0.01766 -0.0518,0.03294 -0.07669,0.05088 -0.237292,0.171027 -0.463638,0.357324 -0.681853,0.552002 -0.04964,0.04428 -0.09791,0.08979 -0.14641,0.135213 -0.215048,0.201327 -0.423452,0.410011 -0.615619,0.633548 -0.247278,0.296024 -0.484157,0.602977 -0.697888,0.9241863 -0.0051,0.0078 -0.0097,0.01589 -0.01465,0.0237 -0.166016,0.264317 -0.309576,0.540052 -0.440625,0.823126 -0.01931,0.04168 -0.04146,0.08202 -0.05996,0.12406 -0.122072,0.275069 -0.223445,0.558749 -0.309552,0.846823 -0.01789,0.05959 -0.03377,0.119795 -0.0502,0.179818 -0.0798,0.293046 -0.148543,0.589359 -0.195214,0.889337 -4.28e-4,0.0028 -9.63e-4,0.0055 -0.0014,0.0084 -0.0448,0.276365 -0.08257,0.554532 -0.129678,0.830792 -0.0112,0.06603 -0.01743,0.132945 -0.03067,0.198637 -0.02515,0.118022 -0.06006,0.234477 -0.09342,0.351274 -0.0083,0.02844 -0.01042,0.05815 -0.01952,0.08643 -0.0026,0.0084 -0.0071,0.01598 -0.0098,0.02439 -0.05729,0.18135 -0.125215,0.359435 -0.214735,0.526912 -0.116701,0.212154 -0.261951,0.403872 -0.435047,0.575699 -0.115783,0.116564 -0.24377,0.215686 -0.377878,0.306668 -0.03209,0.02175 -0.06386,0.04252 -0.09691,0.06273 -0.03425,0.02101 -0.06572,0.04607 -0.101094,0.06551 -0.0579,0.03049 -0.121682,0.04724 -0.18127,0.07388 -0.0538,0.024 -0.102742,0.05805 -0.158263,0.07807 -0.03728,0.01411 -0.07671,0.01995 -0.114339,0.03276 -0.03322,0.01115 -0.06322,0.02969 -0.09691,0.03973 -0.05951,0.01912 -0.121776,0.02521 -0.181968,0.04112 -0.151402,0.03963 -0.3031,0.07572 -0.457356,0.102459 -0.121028,0.02059 -0.241557,0.04337 -0.363236,0.06063 -0.0082,0.0011 -0.01622,0.0031 -0.0244,0.0041 -0.306965,0.04 -0.612996,0.09173 -0.916109,0.156122 -0.03241,0.0069 -0.06529,0.01147 -0.09761,0.01881 -0.292167,0.0655 -0.57903,0.151957 -0.8610315,0.253697 -0.06265,0.02227 -0.124821,0.04575 -0.186848,0.0697 -0.2737,0.106429 -0.543085,0.22265 -0.802466,0.361031 -0.329056,0.169534 -0.636996,0.374902 -0.929355,0.601487 -0.163659,0.120989 -0.323071,0.248077 -0.476879,0.380547 -0.316721,0.273274 -0.611735,0.569704 -0.883341,0.887944 -0.144401,0.168945 -0.282138,0.343638 -0.412736,0.523427 -0.176588,0.243478 -0.334469,0.497509 -0.483851,0.756215 -0.03784,0.06556 -0.07476,0.131414 -0.110853,0.19794 -0.143149,0.263762 -0.277492,0.532149 -0.393216,0.811277 -0.343763,0.829653 -0.5585761,1.713324 -0.6288664,2.608769 -0.033322,0.421138 -0.034494,0.841708 -0.00278,1.262914 0.016731,0.19872 0.03943,0.397545 0.067628,0.595214 0.04641,0.366894 0.1193764,0.729133 0.2321644,1.081702 0.24595,0.818526 0.644863,1.587502 1.151063,2.274919 0.29101,0.403471 0.615752,0.78576 0.844297,1.230854 0.09498,0.175608 0.171947,0.358623 0.230771,0.548518 0.0676,0.232498 0.101339,0.470489 0.100393,0.714396 9.28e-4,0.243908 -0.03281,0.481899 -0.100393,0.714397 -0.05883,0.189896 -0.135791,0.37291 -0.230771,0.548519 -0.228545,0.445094 -0.553287,0.827383 -0.844297,1.230853 -0.5062,0.687417 -0.905113,1.456392 -1.151063,2.274919 -0.112776,0.352564 -0.1857414,0.7155 -0.2321517,1.082394 -0.028196,0.197669 -0.050898,0.395796 -0.067628,0.594517 -0.031706,0.421206 -0.030535,0.842473 0.00278,1.263612 0.07029,0.895444 0.2851037,1.778418 0.6288667,2.608071 0.115724,0.279128 0.250066,0.547515 0.393216,0.811277 0.03609,0.06652 0.07302,0.132386 0.110853,0.19794 0.149381,0.258706 0.307263,0.512736 0.48385,0.756215 0.1306,0.179791 0.268335,0.355177 0.412737,0.524124 0.274281,0.321373 0.57142,0.619396 0.891707,0.894913 0.152454,0.128668 0.308908,0.252979 0.468513,0.372881 0.292359,0.226584 0.600298,0.431951 0.929355,0.601487 0.259381,0.138381 0.528765,0.254602 0.802466,0.361031 0.06203,0.02396 0.124191,0.04744 0.186848,0.0697 0.2820015,0.101746 0.5688645,0.188192 0.8610315,0.253698 0.03232,0.0073 0.06519,0.01187 0.09761,0.01881 0.303113,0.06439 0.609143,0.116127 0.916109,0.156121 0.0082,0.0011 0.01622,0.0031 0.0244,0.0041 0.121679,0.01726 0.242209,0.04005 0.363236,0.06064 0.154257,0.02673 0.305954,0.06282 0.457357,0.102459 0.06019,0.0159 0.122462,0.022 0.181967,0.04112 0.03369,0.0101 0.06369,0.02858 0.09691,0.03973 0.03762,0.01281 0.07705,0.01864 0.114339,0.03276 0.05552,0.02 0.104464,0.05406 0.158262,0.07805 0.05959,0.02663 0.123367,0.04339 0.18127,0.07388 0.03537,0.01945 0.06684,0.0445 0.101095,0.06551 0.03304,0.0202 0.06482,0.04098 0.09691,0.06273 0.134108,0.09098 0.262095,0.190103 0.377878,0.306667 0.173096,0.171828 0.318346,0.363546 0.435047,0.5757 0.08952,0.167476 0.157451,0.345561 0.214735,0.526911 0.0027,0.0084 0.0072,0.01595 0.0098,0.02439 0.009,0.02825 0.0112,0.05801 0.01952,0.08642 0.03336,0.116797 0.06827,0.233252 0.09342,0.351274 0.01339,0.06641 0.02008,0.133974 0.03137,0.200729 0.04696,0.275745 0.08427,0.552862 0.128981,0.8287 4.28e-4,0.0028 9.62e-4,0.0055 0.0014,0.0084 0.04667,0.29998 0.115418,0.596293 0.195214,0.889337 0.01643,0.06002 0.03231,0.120221 0.0502,0.17982 0.08611,0.288073 0.18748,0.571753 0.309552,0.846821 0.01858,0.04224 0.04056,0.08289 0.05995,0.124758 0.129595,0.279879 0.27266,0.552524 0.436441,0.814065 0.0078,0.01217 0.01371,0.02552 0.02162,0.03764 0.212931,0.319519 0.449012,0.624013 0.695099,0.91861 0.193024,0.224536 0.402305,0.434213 0.618408,0.636337 0.04609,0.04313 0.09232,0.08614 0.139439,0.128243 0.219539,0.196137 0.447152,0.38401 0.686035,0.556183 0.02489,0.01794 0.05161,0.03321 0.07669,0.05088 0.218097,0.153642 0.444102,0.295241 0.675578,0.427942 0.06485,0.03717 0.130112,0.07325 0.195911,0.108729 0.258745,0.139518 0.521874,0.271685 0.793403,0.384032 0.233622,0.09679 0.472659,0.179848 0.713923,0.255789 0.08294,0.02608 0.167297,0.0475 0.250989,0.07108 0.165051,0.04652 0.330965,0.08958 0.498492,0.126154 0.08964,0.01959 0.179592,0.03699 0.269812,0.05366 0.168097,0.03108 0.337206,0.05647 0.506859,0.07737 0.08869,0.01091 0.177328,0.02327 0.266327,0.03136 0.244317,0.02224 0.489428,0.03779 0.734838,0.03834 0.210657,3.57e-4 0.421683,-0.0071 0.632352,-0.02298 0.38239,-0.0343 0.764645,-0.08283 1.141302,-0.158213 0.01648,-0.0036 0.03235,-0.0097 0.0488,-0.01324 0.242981,-0.05604 0.482044,-0.128548 0.718107,-0.209093 0.07032,-0.02387 0.140356,-0.0478 0.209855,-0.07388 0.242326,-0.09096 0.481203,-0.191497 0.712529,-0.307366 0.05002,-0.02516 0.09836,-0.05321 0.147804,-0.07945 0.168087,-0.08917 0.333626,-0.182565 0.494309,-0.284367 0.06232,-0.03925 0.121463,-0.08309 0.182663,-0.124063 0.141325,-0.09467 0.282626,-0.189109 0.419012,-0.290637 0.184628,-0.136797 0.370246,-0.272802 0.557753,-0.405639 0.0546,-0.03877 0.10659,-0.0815 0.162445,-0.118484 0.09965,-0.06462 0.204447,-0.121629 0.308856,-0.17982 0.02773,-0.01522 0.05196,-0.0357 0.08018,-0.05019 0.0082,-0.0045 0.01756,-0.0061 0.0258,-0.01042 0.168305,-0.0874 0.341674,-0.165217 0.522893,-0.220244 0.116283,-0.03379 0.233639,-0.05862 0.352779,-0.07527 0.239228,-0.03348 0.484456,-0.03348 0.723684,0 0.119139,0.01666 0.237193,0.04148 0.353476,0.07527 0.189954,0.05881 0.372329,0.135749 0.547992,0.230698 0.245044,0.125746 0.471292,0.280814 0.69231,0.443275 0.361908,0.270262 0.721653,0.545791 1.107836,0.781306 0.08893,0.05434 0.181565,0.102628 0.272602,0.153334 0.09636,0.05378 0.191463,0.109631 0.290032,0.158909 0.09185,0.04601 0.186594,0.0854 0.280271,0.127546 0.108158,0.04845 0.215574,0.09894 0.326285,0.142183 0.04946,0.01938 0.100691,0.03401 0.150593,0.05227 0.287796,0.105434 0.579666,0.196724 0.87846,0.265546 0.195436,0.04278 0.392436,0.07732 0.591218,0.102458 0.271718,0.04055 0.545573,0.06268 0.819897,0.07597 0.06999,0.0032 0.139866,0.0062 0.209854,0.0077 0.276358,0.0063 0.553272,0.0032 0.82896,-0.0188 0.228765,-0.01806 0.456042,-0.04594 0.681853,-0.08224 0.08186,-0.01317 0.162579,-0.03322 0.244017,-0.04878 0.142176,-0.02716 0.284294,-0.05266 0.425286,-0.08712 0.429086,-0.104711 0.850409,-0.240866 1.258429,-0.40982 0.829981,-0.343654 1.606516,-0.816762 2.289575,-1.400218 0.211849,-0.180258 0.410401,-0.375311 0.602373,-0.576397 0.0469,-0.04905 0.09303,-0.09891 0.138741,-0.149152 0.184921,-0.203638 0.363309,-0.413182 0.527077,-0.634245 0.138103,-0.178081 0.264475,-0.364488 0.383455,-0.555487 0.09364,-0.152401 0.181476,-0.308248 0.262841,-0.467669 0.02803,-0.05404 0.05219,-0.109756 0.07879,-0.164484 0.118953,-0.244133 0.224701,-0.494591 0.315131,-0.750641 0.01469,-0.04169 0.03277,-0.08212 0.04671,-0.12406 0.09377,-0.281689 0.166938,-0.569959 0.226586,-0.860762 0.01713,-0.08227 0.03359,-0.164661 0.0481,-0.247425 0.04969,-0.281029 0.09056,-0.563201 0.132466,-0.845428 5.36e-4,-0.0038 0.0022,-0.0073 0.0028,-0.01115 0.04104,-0.267385 0.08974,-0.533217 0.172902,-0.791761 0.05707,-0.191248 0.132507,-0.375432 0.225193,-0.551305 0.116701,-0.212154 0.261255,-0.403872 0.43435,-0.575699 0.171881,-0.173042 0.364357,-0.318247 0.576577,-0.434912 0.167335,-0.08939 0.344495,-0.157438 0.525682,-0.214667 0.0086,-0.0027 0.01644,-0.0072 0.02509,-0.0098 0.02918,-0.0094 0.05988,-0.01165 0.08924,-0.02022 0.115912,-0.033 0.231488,-0.06707 0.348595,-0.092 0.0664,-0.01338 0.13404,-0.02007 0.200791,-0.03136 0.275838,-0.04695 0.553727,-0.08494 0.829657,-0.129636 0.300718,-0.04646 0.597897,-0.114778 0.891707,-0.194456 0.06289,-0.01715 0.12582,-0.03422 0.188242,-0.05297 0.285649,-0.08542 0.566606,-0.185216 0.839417,-0.305971 0.04629,-0.0203 0.09081,-0.04422 0.13665,-0.06551 0.277651,-0.128839 0.548454,-0.271028 0.808044,-0.433517 0.012,-0.0077 0.02501,-0.01383 0.03695,-0.02161 0.319619,-0.212866 0.624209,-0.448873 0.918898,-0.694882 0.224618,-0.192967 0.435036,-0.402165 0.637232,-0.618215 0.04325,-0.0462 0.08678,-0.09216 0.128981,-0.139394 0.195072,-0.218241 0.3808,-0.444274 0.552175,-0.68164 0.02226,-0.03083 0.0416,-0.06366 0.06344,-0.09478 0.148579,-0.211705 0.285945,-0.431588 0.414828,-0.655852 0.03868,-0.06732 0.07749,-0.134483 0.11434,-0.202818 0.139207,-0.25814 0.269919,-0.52091 0.38206,-0.791761 0.06079,-0.146724 0.111911,-0.296898 0.164538,-0.446759 0.0658,-0.187358 0.124538,-0.376582 0.177089,-0.567336 0.01771,-0.06422 0.03818,-0.127753 0.05437,-0.192365 0.06403,-0.255552 0.11708,-0.514154 0.157567,-0.775731 0.02631,-0.170536 0.04552,-0.341825 0.06135,-0.513669 0.0038,-0.04095 0.01078,-0.08167 0.01395,-0.122667 0.03231,-0.414868 0.03292,-0.82986 0.0021,-1.244793 -0.01578,-0.201596 -0.03899,-0.402572 -0.06763,-0.602882 -0.04641,-0.366893 -0.118679,-0.729828 -0.231469,-1.082398 -0.08507,-0.279618 -0.192741,-0.550946 -0.31025,-0.818246 -0.03652,-0.08263 -0.07271,-0.165501 -0.112248,-0.246728 -0.04139,-0.08503 -0.08459,-0.169136 -0.129039,-0.252353 -0.05207,-0.09743 -0.106207,-0.193435 -0.162446,-0.288547 -0.05437,-0.09173 -0.110366,-0.182332 -0.16872,-0.271819 -0.05123,-0.07906 -0.104273,-0.15699 -0.158263,-0.234183 -0.165644,-0.237399 -0.338638,-0.469388 -0.51104,-0.701851 -0.0021,-0.0029 -0.0034,-0.0063 -0.0056,-0.009 -0.160343,-0.218372 -0.314285,-0.441058 -0.438533,-0.683032 -0.09498,-0.175608 -0.171947,-0.358623 -0.23077,-0.548519 -0.06759,-0.232498 -0.100648,-0.470489 -0.0997,-0.714396 -9.28e-4,-0.243907 0.03211,-0.481899 0.0997,-0.714397 0.05883,-0.189896 0.135791,-0.37291 0.23077,-0.548517 0.124248,-0.241976 0.27819,-0.464662 0.438533,-0.683034 0.0021,-0.0029 0.0034,-0.0063 0.0056,-0.009 0.172402,-0.232464 0.345396,-0.464453 0.51104,-0.701852 0.05399,-0.07719 0.107032,-0.155113 0.158263,-0.234182 0.05836,-0.08949 0.11435,-0.180088 0.16872,-0.27182 0.05624,-0.09511 0.110375,-0.19111 0.162446,-0.288547 0.04446,-0.08322 0.08765,-0.16733 0.12898,-0.252304 0.03954,-0.08122 0.07573,-0.164105 0.112247,-0.246728 0.117509,-0.2673 0.225182,-0.538628 0.31025,-0.818246 0.112789,-0.35257 0.185056,-0.714808 0.231469,-1.081701 0.02863,-0.200311 0.05186,-0.401982 0.06763,-0.603579 0.03106,-0.418421 0.0303,-0.836197 -0.0029,-1.254551 -0.01645,-0.209643 -0.04252,-0.41878 -0.0746,-0.626579 -0.04048,-0.261576 -0.09353,-0.520178 -0.157566,-0.77573 -0.01621,-0.06461 -0.03668,-0.128145 -0.05438,-0.192365 -0.05256,-0.190754 -0.111294,-0.379978 -0.177089,-0.567336 -0.05256,-0.149861 -0.103678,-0.300035 -0.164468,-0.446759 -0.112142,-0.270851 -0.242854,-0.533622 -0.382061,-0.791761 -0.03685,-0.06834 -0.07566,-0.135502 -0.114339,-0.202819 -0.128884,-0.224263 -0.26625,-0.444147 -0.414829,-0.655852 -0.02184,-0.03112 -0.04118,-0.06396 -0.06344,-0.09478 -0.169822,-0.235217 -0.354196,-0.45892 -0.547295,-0.675367 -0.04567,-0.05121 -0.09255,-0.101246 -0.139438,-0.151244 -0.200604,-0.21394 -0.409031,-0.421386 -0.631654,-0.612638 -0.294691,-0.246009 -0.59928,-0.482017 -0.918898,-0.694882 -0.01195,-0.0078 -0.02495,-0.01391 -0.03695,-0.02161 -0.25959,-0.162489 -0.530392,-0.304678 -0.808044,-0.433518 -0.04584,-0.0213 -0.09037,-0.04521 -0.136649,-0.06551 -0.272811,-0.120756 -0.553769,-0.220554 -0.839418,-0.305972 -0.06242,-0.01875 -0.125355,-0.03582 -0.188242,-0.05297 -0.29381,-0.07968 -0.590988,-0.148002 -0.891706,-0.194455 -0.275932,-0.0447 -0.55382,-0.08269 -0.829658,-0.129637 -0.06676,-0.0113 -0.134385,-0.01798 -0.200791,-0.03137 -0.117108,-0.02493 -0.232682,-0.059 -0.348596,-0.092 -0.02936,-0.0086 -0.06006,-0.01083 -0.08924,-0.02022 -0.0086,-0.0026 -0.01647,-0.0071 -0.0251,-0.0098 -0.181186,-0.05723 -0.358346,-0.12528 -0.525681,-0.214668 -0.212221,-0.116664 -0.404696,-0.261869 -0.576577,-0.434911 -0.173096,-0.171827 -0.317649,-0.363545 -0.43435,-0.575699 -0.09269,-0.175873 -0.168124,-0.360057 -0.225193,-0.551305 -0.08338,-0.259217 -0.132501,-0.525065 -0.173601,-0.793155 -4.63e-4,-0.0033 -0.0016,-0.0065 -0.0021,-0.0098 -0.04191,-0.282226 -0.08278,-0.564399 -0.132467,-0.845427 -0.01453,-0.08276 -0.03097,-0.165149 -0.0481,-0.247426 -0.05965,-0.290801 -0.132811,-0.579072 -0.226587,-0.86076 -0.01394,-0.04195 -0.03202,-0.08237 -0.04671,-0.124062 -0.09042,-0.25605 -0.196177,-0.506508 -0.31513,-0.750639 -0.02658,-0.05473 -0.05075,-0.110452 -0.07879,-0.164486 -0.08438,-0.165313 -0.175024,-0.326632 -0.272602,-0.484396 -0.116187,-0.185134 -0.239548,-0.365782 -0.373694,-0.5387603 -0.163768,-0.221063 -0.342155,-0.430607 -0.527076,-0.634245 -0.04549,-0.05001 -0.09137,-0.09963 -0.138045,-0.148455 -0.192163,-0.201333 -0.390983,-0.395936 -0.60307,-0.576396 -0.683059,-0.583458 -1.459594,-1.0565642 -2.289574,-1.4002189 -0.204967,-0.084874 -0.413774,-0.1618123 -0.624683,-0.2306979 -0.04801,-0.01568 -0.09744,-0.026978 -0.145714,-0.041819 -0.161754,-0.04971 -0.323637,-0.097882 -0.488032,-0.1380002 -0.140993,-0.034458 -0.283111,-0.059971 -0.425287,-0.087121 -0.08143,-0.015562 -0.162161,-0.035606 -0.244017,-0.048788 -0.22581,-0.0363 -0.453088,-0.064165 -0.681852,-0.082243 -0.275689,-0.022146 -0.552603,-0.025086 -0.828961,-0.018817 -0.06999,0.00153 -0.139865,0.00434 -0.209854,0.00766 -0.274324,0.013289 -0.548178,0.035421 -0.819897,0.07597 -0.204272,0.025822 -0.406544,0.062806 -0.607253,0.1073337 -0.29314,0.068222 -0.579886,0.1571574 -0.862425,0.2606679 -0.0499,0.018267 -0.101126,0.032891 -0.150593,0.052273 -0.110711,0.043243 -0.218127,0.093729 -0.326286,0.1421826 -0.09368,0.042148 -0.188422,0.08153 -0.28027,0.1275461 -0.09857,0.049276 -0.193672,0.1051238 -0.290032,0.1589096 -0.09104,0.050701 -0.183677,0.098991 -0.272602,0.1533342 -0.386183,0.2355119 -0.745928,0.5110449 -1.107835,0.7813069 -0.221019,0.162461 -0.447267,0.317528 -0.692311,0.443274 -0.175662,0.09496 -0.358038,0.171894 -0.547992,0.230698 -0.174313,0.05064 -0.35332,0.07566 -0.534048,0.08782 -0.120914,0.0084 -0.241625,0.0084 -0.362539,0 -0.180729,-0.01216 -0.359039,-0.03718 -0.533351,-0.08782 -0.182701,-0.05548 -0.357498,-0.13332 -0.527077,-0.221637 -0.0069,-0.0037 -0.0147,-0.0053 -0.02162,-0.009 -0.02486,-0.01275 -0.04594,-0.03127 -0.07041,-0.04461 -0.107775,-0.05971 -0.215899,-0.118782 -0.318616,-0.185394 -0.05659,-0.03746 -0.109245,-0.08058 -0.164538,-0.119879 z m 1.73949,16.8514063 c 0.01671,-1.94e-4 0.03349,0.0015 0.0502,0.0014 0.0091,-3.6e-5 0.018,-0.0014 0.02719,-0.0014 0.03199,0 0.06294,0.0045 0.09481,0.0049 0.164885,0.0022 0.329661,0.01052 0.495006,0.02509 0.07533,0.0065 0.149888,0.01471 0.224494,0.0237 0.127242,0.01551 0.254354,0.03563 0.381364,0.05854 0.0812,0.01454 0.16246,0.02789 0.242623,0.0453 0.125294,0.02738 0.249786,0.06139 0.374391,0.09619 0.118764,0.0331 0.236056,0.06869 0.352081,0.108031 0.137264,0.04652 0.273788,0.09383 0.406463,0.148454 0.07631,0.03149 0.149623,0.06828 0.224495,0.102459 0.110355,0.05025 0.220204,0.101076 0.326982,0.156818 0.07529,0.03941 0.148825,0.08123 0.222404,0.123365 0.105623,0.06032 0.209269,0.123268 0.310947,0.18888 0.06373,0.04121 0.127413,0.08218 0.189637,0.125455 0.119902,0.08324 0.235549,0.17092 0.349292,0.261364 0.04071,0.03238 0.08277,0.06288 0.122706,0.09619 0.154217,0.128563 0.303197,0.262319 0.444808,0.403548 0.01912,0.01906 0.03619,0.03996 0.05507,0.05924 0.119747,0.122322 0.235172,0.249019 0.345109,0.379851 0.04358,0.05179 0.08416,0.105806 0.126191,0.15891 0.08035,0.101661 0.158497,0.204744 0.232863,0.31085 0.04607,0.06563 0.0908,0.132015 0.134557,0.199333 0.06559,0.101045 0.127401,0.204258 0.187545,0.30876 0.03993,0.06928 0.08102,0.137599 0.118521,0.208394 0.07404,0.139916 0.142197,0.282758 0.206369,0.427941 0.02599,0.05873 0.05166,0.117432 0.07599,0.177032 0.06287,0.154002 0.12071,0.310064 0.172206,0.469062 0.02622,0.08101 0.04791,0.163715 0.07111,0.246032 0.03272,0.115891 0.06338,0.232507 0.08994,0.350577 0.01812,0.08082 0.03431,0.162053 0.04951,0.243941 0.02442,0.131058 0.04397,0.263332 0.06065,0.396577 0.0089,0.07178 0.01983,0.142893 0.02649,0.215364 0.01908,0.206081 0.03138,0.413744 0.03138,0.623791 0,0.210047 -0.0123,0.417709 -0.03138,0.623791 -0.0067,0.07247 -0.01756,0.143574 -0.02649,0.215364 -0.01669,0.133245 -0.03623,0.265519 -0.06065,0.396578 -0.0152,0.08189 -0.03137,0.16312 -0.04951,0.24394 -0.02656,0.118069 -0.05721,0.234686 -0.08994,0.350577 -0.0232,0.08232 -0.04489,0.165025 -0.07111,0.246032 -0.05149,0.158998 -0.109344,0.31506 -0.172206,0.469063 -0.02434,0.05959 -0.05002,0.118298 -0.07599,0.17703 -0.06416,0.145163 -0.132345,0.288046 -0.206369,0.427942 -0.03639,0.06868 -0.07637,0.134878 -0.115036,0.202122 -0.06213,0.108243 -0.125852,0.215374 -0.193819,0.31991 -0.04234,0.06501 -0.08588,0.12893 -0.130375,0.192364 -0.07483,0.106867 -0.153355,0.210574 -0.234256,0.312942 -0.04202,0.0531 -0.08261,0.107116 -0.126191,0.158909 -0.109937,0.130832 -0.225362,0.257528 -0.345109,0.37985 -0.01889,0.01928 -0.03597,0.04019 -0.05507,0.05924 -0.141611,0.141229 -0.290591,0.274985 -0.444808,0.403547 -0.03993,0.0333 -0.08201,0.06379 -0.122706,0.09619 -0.114222,0.09082 -0.230255,0.179196 -0.350687,0.262758 -0.05906,0.04105 -0.119463,0.08 -0.179875,0.119182 -0.106974,0.06925 -0.216335,0.135253 -0.32768,0.198639 -0.07039,0.04017 -0.140695,0.08011 -0.212643,0.117787 -0.107242,0.05602 -0.217526,0.107043 -0.328377,0.157516 -0.07487,0.03418 -0.148185,0.07095 -0.224495,0.102458 -0.132675,0.05463 -0.269199,0.101938 -0.406463,0.148455 -0.116025,0.03934 -0.233317,0.07493 -0.352081,0.108031 -0.124605,0.03479 -0.249097,0.0688 -0.374391,0.09619 -0.08017,0.01742 -0.161425,0.03076 -0.242623,0.0453 -0.12701,0.02292 -0.254122,0.04304 -0.381364,0.05854 -0.07461,0.009 -0.149159,0.01716 -0.224494,0.0237 -0.165345,0.01453 -0.330121,0.0228 -0.495006,0.02509 -0.03188,4.29e-4 -0.06283,0.0049 -0.09481,0.0049 -0.0091,0 -0.01801,-0.0014 -0.02719,-0.0014 -0.05028,-2.12e-4 -0.09971,-0.0064 -0.149897,-0.0077 -0.282242,-0.0073 -0.559163,-0.0336 -0.831748,-0.07458 -0.05989,-0.0091 -0.119611,-0.0165 -0.179179,-0.02718 -0.310874,-0.05532 -0.614559,-0.129489 -0.909137,-0.22582 -0.0304,-0.01 -0.05968,-0.02238 -0.08993,-0.03276 -0.280558,-0.09622 -0.551839,-0.211421 -0.814319,-0.342213 -0.03914,-0.01945 -0.07904,-0.03623 -0.117825,-0.05646 -0.272124,-0.142256 -0.531449,-0.303503 -0.780156,-0.480214 -0.09927,-0.07035 -0.197138,-0.142203 -0.292821,-0.218152 -0.04484,-0.03565 -0.09066,-0.06988 -0.134557,-0.106637 -0.301337,-0.252013 -0.583175,-0.531779 -0.840812,-0.839156 -0.05045,-0.06009 -0.09665,-0.123544 -0.145017,-0.185394 -0.05217,-0.06682 -0.106927,-0.130857 -0.156867,-0.200031 -0.02025,-0.02804 -0.0374,-0.05746 -0.05717,-0.08573 -0.05211,-0.07442 -0.101445,-0.150634 -0.150593,-0.227214 -0.05938,-0.09268 -0.116404,-0.186095 -0.170812,-0.28088 -0.04525,-0.07871 -0.08964,-0.157692 -0.131769,-0.238364 -0.05676,-0.108854 -0.108535,-0.219271 -0.15896,-0.330365 -0.0311,-0.0684 -0.06457,-0.135304 -0.09342,-0.204911 -0.07334,-0.177092 -0.139016,-0.356653 -0.196608,-0.538062 -0.09359,-0.294878 -0.162157,-0.600052 -0.214735,-0.910944 -0.01134,-0.06675 -0.02136,-0.133042 -0.03067,-0.200031 -0.04215,-0.304735 -0.07111,-0.613436 -0.07111,-0.929762 0,-0.316325 0.02896,-0.625027 0.07111,-0.929761 0.0094,-0.06699 0.01934,-0.133286 0.03067,-0.200032 0.05258,-0.310892 0.121143,-0.616066 0.214735,-0.910943 0.05759,-0.181409 0.123268,-0.36097 0.196608,-0.538063 0.02886,-0.0696 0.06232,-0.136502 0.09342,-0.20491 0.05042,-0.111096 0.1022,-0.221511 0.15896,-0.330365 0.04213,-0.08067 0.08651,-0.159651 0.131769,-0.238365 0.05441,-0.09478 0.111434,-0.188203 0.170812,-0.28088 0.04914,-0.07658 0.09848,-0.152792 0.150593,-0.227213 0.01977,-0.02827 0.03692,-0.05768 0.05717,-0.08573 0.04994,-0.06917 0.104697,-0.133205 0.156867,-0.200031 0.04837,-0.06185 0.09456,-0.125302 0.145017,-0.185396 0.257637,-0.307376 0.539475,-0.587141 0.840812,-0.839155 0.0439,-0.03675 0.08971,-0.07099 0.134557,-0.106636 0.09568,-0.07595 0.193557,-0.147802 0.292821,-0.218153 0.248707,-0.176711 0.508032,-0.337958 0.780156,-0.480213 0.03878,-0.02022 0.07868,-0.03701 0.117825,-0.05646 0.26248,-0.130792 0.533761,-0.245992 0.814319,-0.342213 0.03026,-0.01042 0.05954,-0.02282 0.08993,-0.03276 0.294578,-0.09634 0.598263,-0.170501 0.909137,-0.22582 0.05957,-0.01068 0.11929,-0.01809 0.179179,-0.02718 0.272585,-0.04098 0.549506,-0.06724 0.831748,-0.07458 0.03351,-8.92e-4 0.06615,-0.0087 0.0997,-0.009 z"
       style="fill:#fce94f;fill-rule:evenodd;stroke:#231f0b;stroke-width:2;stroke-linecap:round;stroke-linejoin:round;stroke-dasharray:none;stroke-opacity:1"
       id="path31" />
    <path
       d="m 46.518899,45.705481 c 0.06034,-0.02091 0.118085,-0.03985 0.172507,-0.05704 0.003,-9.55e-4 -0.341954,0.09771 0.01367,-0.0098 0.365011,-0.117584 0.142578,-0.03516 0.142578,-0.03516 0.0046,-0.0013 0.0091,-0.0026 0.01367,-0.0039 0.106473,-0.03031 0.285803,-0.08398 0.478516,-0.125 0.0072,-0.0013 0.01432,-0.0026 0.02148,-0.0039 0.133805,-0.02696 0.242116,-0.03965 0.261719,-0.04297 0.297193,-0.05058 0.585997,-0.08911 0.84375,-0.130859 0.0052,-6.72e-4 0.01041,-0.0013 0.01563,-0.002 0.203584,-0.03145 0.422031,-0.08068 0.671875,-0.148438 0.06643,-0.01812 0.09711,-0.02717 0.136719,-0.03906 0.218466,-0.06533 0.419599,-0.136478 0.605468,-0.21875 0.0063,-0.0028 0.01093,-0.0078 0.103516,-0.05078 0.21307,-0.09887 0.400287,-0.197528 0.570312,-0.302735 0.121338,-0.07786 0.05022,-0.03141 0.01758,-0.0098 0.0022,-0.0015 0.0056,-0.0024 0.0078,-0.0039 0.230463,-0.154555 0.465397,-0.334688 0.708984,-0.537109 0.0019,-0.0016 0.004,-0.0042 0.0059,-0.0059 0.150393,-0.129692 0.300552,-0.278994 0.472656,-0.462891 0.04926,-0.05262 0.07134,-0.07406 0.09766,-0.103516 0.160273,-0.179308 0.301591,-0.350223 0.423828,-0.519531 3e-5,-4e-5 -0.06216,0.08115 0.04687,-0.07422 0.10845,-0.154525 0.212211,-0.320645 0.316407,-0.501953 0.04207,-0.07321 0.06491,-0.110006 0.08984,-0.15625 0.119826,-0.222199 0.216193,-0.419222 0.294922,-0.609375 0.03654,-0.08819 0.06926,-0.183061 0.125,-0.341797 0.05034,-0.143331 0.0961,-0.290073 0.136719,-0.4375 0.0219,-0.0794 0.03227,-0.111584 0.04102,-0.146484 0.0509,-0.203131 0.09103,-0.401452 0.121093,-0.595703 0.01741,-0.112821 0.03083,-0.237655 0.04492,-0.390625 0.01836,-0.1979 0.01367,-0.09375 0.01367,-0.09375 0.02446,-0.314091 0.02534,-0.628545 0.002,-0.94336 -0.01098,-0.140051 -0.03023,-0.295772 -0.05469,-0.466796 -0.0014,-0.01041 -0.0027,-0.02082 -0.0039,-0.03125 -0.03518,-0.278146 -0.08362,-0.515881 -0.150391,-0.72461 -0.0033,-0.0091 -0.0066,-0.01821 -0.0098,-0.02734 -0.05484,-0.180245 -0.126973,-0.369165 -0.226562,-0.595703 -0.03487,-0.07889 -0.05886,-0.130129 -0.08203,-0.177734 -0.0286,-0.05876 -0.05888,-0.120255 -0.09375,-0.185547 -0.0409,-0.07653 -0.07993,-0.146572 -0.119141,-0.212891 -0.04404,-0.0743 -0.08471,-0.138472 -0.123047,-0.197265 -0.03937,-0.06073 -0.07794,-0.117995 -0.121094,-0.179688 -0.147026,-0.210714 -0.302599,-0.419048 -0.478515,-0.65625 -0.0039,-0.0058 -0.0078,-0.0117 -0.01172,-0.01758 -0.173128,-0.235784 -0.403551,-0.559604 -0.597656,-0.933594 -0.153461,-0.286712 -0.276427,-0.583061 -0.371094,-0.888671 -0.0034,-0.01104 -0.0066,-0.02211 -0.0098,-0.0332 -0.120612,-0.414886 -0.179906,-0.838834 -0.179687,-1.265625 -1e-5,-0.0026 5e-6,-0.0052 0,-0.0078 v -0.0078 c -1.86e-4,-0.426577 0.05904,-0.850636 0.179687,-1.265625 0.0032,-0.0111 0.0064,-0.02216 0.0098,-0.0332 0.09465,-0.305528 0.217619,-0.60193 0.371094,-0.888672 0.19172,-0.369397 0.417489,-0.688827 0.589843,-0.923828 0,0 0.0416,-0.0536 0.01953,-0.02734 0.175918,-0.237206 0.330823,-0.445426 0.476562,-0.654297 0.04446,-0.06357 0.08492,-0.121906 0.121094,-0.177735 0.04154,-0.06371 0.07987,-0.126989 0.125,-0.203125 0.03816,-0.06453 0.07803,-0.135967 0.119141,-0.21289 0.03483,-0.0652 0.06551,-0.125534 0.09375,-0.183594 0.02343,-0.04814 0.04555,-0.0991 0.08203,-0.181641 0.09422,-0.214334 0.168383,-0.40698 0.224609,-0.591797 0.0032,-0.0091 0.0064,-0.01825 0.0098,-0.02734 0.06878,-0.215 0.118309,-0.453614 0.152344,-0.722657 0.0012,-0.01043 0.0025,-0.02084 0.0039,-0.03125 0.02429,-0.169933 0.04298,-0.326953 0.05469,-0.476562 0.02271,-0.306195 0.02137,-0.622868 -0.0039,-0.941406 -0.01209,-0.154035 -0.03083,-0.313249 -0.05664,-0.480469 -0.02994,-0.193489 -0.07019,-0.390612 -0.121093,-0.59375 -0.0041,-0.01623 -0.01622,-0.04943 -0.04297,-0.146484 -0.04423,-0.160519 -0.08805,-0.304478 -0.134766,-0.4375 -0.05568,-0.158743 -0.0885,-0.253691 -0.125,-0.341797 -0.07892,-0.190603 -0.175111,-0.387204 -0.294922,-0.609375 -0.02496,-0.04629 -0.04768,-0.08287 -0.08984,-0.15625 -0.104114,-0.181162 -0.207978,-0.347458 -0.316407,-0.501953 -0.109172,-0.155561 -0.04687,-0.07227 -0.04687,-0.07227 -0.119113,-0.164982 -0.257869,-0.333979 -0.419921,-0.515625 -0.0296,-0.03319 -0.05865,-0.06531 -0.105469,-0.115234 -0.167813,-0.178969 -0.318717,-0.325992 -0.470703,-0.457032 -0.251381,-0.209251 -0.485314,-0.38865 -0.71875,-0.544922 -0.0059,-0.0037 -0.01354,-0.008 -0.01953,-0.01172 C 50.400289,19.359638 50.212484,19.260709 50,19.162109 c -0.09297,-0.0432 -0.09766,-0.04687 -0.09766,-0.04687 -0.191989,-0.08497 -0.391317,-0.158034 -0.607422,-0.222656 -0.04196,-0.0126 -0.07342,-0.0202 -0.142578,-0.03906 -0.247133,-0.06702 -0.466389,-0.116997 -0.669922,-0.148438 -0.0052,-6.3e-4 -0.01042,-0.0013 -0.01563,-0.002 -0.257745,-0.04175 -0.54646,-0.08188 -0.845703,-0.132813 -0.01758,-0.003 -0.12572,-0.01399 -0.259766,-0.04102 -0.0072,-0.0013 -0.01433,-0.0026 -0.02148,-0.0039 -0.19272,-0.04103 -0.372052,-0.09469 -0.478516,-0.125 -0.0052,-0.0013 -0.01042,-0.0026 -0.01563,-0.0039 0,0 -0.01576,6.28e-4 -0.105469,-0.02539 -0.06193,-0.01872 0.0098,0.0022 -0.0098,-0.0039 -0.06914,-0.02149 -0.03516,-0.01172 -0.03516,-0.01172 -0.262791,-0.083 -0.56273,-0.195695 -0.86914,-0.359375 -0.0072,-0.0039 -0.01435,-0.0078 -0.02148,-0.01172 -0.380523,-0.209185 -0.721183,-0.467211 -1.021484,-0.767578 -0.305956,-0.303713 -0.568055,-0.647227 -0.779297,-1.03125 -0.006,-0.01101 -0.01182,-0.02208 -0.01758,-0.0332 -0.151937,-0.28829 -0.273579,-0.587486 -0.367187,-0.898438 -0.0012,-0.004 -0.0027,-0.0078 -0.0039,-0.01172 -0.120158,-0.385226 -0.189357,-0.768858 -0.234375,-1.0625 -6.66e-4,-0.0046 -0.0013,-0.0091 -0.002,-0.01367 -0.04316,-0.290557 -0.08055,-0.545486 -0.125,-0.796875 -0.01343,-0.07649 -0.02571,-0.132733 -0.03711,-0.1875 -0.04831,-0.235469 -0.102113,-0.444767 -0.166016,-0.636719 -3.45e-4,-0.001 0.01426,0.04844 -0.03516,-0.0918 -0.06117,-0.173233 -0.137743,-0.350815 -0.228516,-0.537109 -0.05657,-0.11647 -0.05469,-0.119141 -0.05469,-0.119141 -0.002,-0.0039 -0.0039,-0.0078 -0.0059,-0.01172 -0.05777,-0.113185 -0.122413,-0.227092 -0.193359,-0.341797 -0.0889,-0.141048 -0.170433,-0.260116 -0.251953,-0.365234 -0.0092,-0.01162 -0.01836,-0.02334 -0.02734,-0.03516 -0.112039,-0.151237 -0.243753,-0.30993 -0.40039,-0.482422 -0.04853,-0.05335 -0.07607,-0.08271 -0.101563,-0.109375 C 41.590548,10.282065 41.442161,10.139245 41.296875,10.015625 40.772324,9.5675666 40.177999,9.2040059 39.539062,8.9394531 39.384367,8.8753958 39.22421,8.8158111 39.058594,8.7617188 c 2.4e-5,8e-6 0.007,0.00573 -0.113282,-0.03125 -0.14174,-0.043559 -0.261669,-0.077812 -0.375,-0.1054688 -0.08593,-0.021 -0.177659,-0.038046 -0.326171,-0.066406 -0.120543,-0.023037 -0.161516,-0.035193 -0.185547,-0.039063 -0.173598,-0.027907 -0.349417,-0.048748 -0.523438,-0.0625 -0.192322,-0.015448 -0.394957,-0.01889 -0.625,-0.013672 -0.04742,0.00104 -0.09338,0.00278 -0.158203,0.00586 -0.229865,0.011136 -0.434901,0.028855 -0.621094,0.056641 -0.01495,0.00212 -0.02993,0.00408 -0.04492,0.00586 -0.131642,0.016641 -0.269668,0.042457 -0.421875,0.076172 -0.19274,0.045707 -0.394223,0.1079619 -0.611328,0.1875 -0.173089,0.063363 -0.107422,0.033203 -0.107422,0.033203 -0.06903,0.026965 -0.116949,0.053067 -0.238281,0.1074218 -0.109094,0.049086 -0.151806,0.065111 -0.201172,0.089844 -0.05628,0.028137 -0.100585,0.054502 -0.21289,0.1171875 -0.110641,0.061618 -0.154391,0.083499 -0.203125,0.1132812 -0.29889,0.1822773 -0.585101,0.3994929 -0.955078,0.6757813 -0.0045,0.00327 -0.0091,0.00653 -0.01367,0.00977 -0.245864,0.180723 -0.57341,0.409741 -0.94336,0.601563 -0.286032,0.153025 -0.582361,0.276269 -0.888672,0.371093 -0.01104,0.0034 -0.02211,0.0066 -0.0332,0.0098 -0.352128,0.102297 -0.681786,0.145543 -0.957031,0.164062 -0.20885,0.01451 -0.423524,0.01481 -0.636719,0 -0.2709,-0.01822 -0.600994,-0.06176 -0.953125,-0.164062 -0.0078,-0.0019 -0.01564,-0.0039 -0.02344,-0.0059 -0.329771,-0.100141 -0.623742,-0.233525 -0.869141,-0.361329 -0.0033,-0.0013 -0.0065,-0.0026 -0.0098,-0.0039 l -0.01758,-0.0098 c -0.125829,-0.0662 -0.09766,-0.05664 -0.09766,-0.05664 -0.0039,-0.0019 -0.0078,-0.0039 -0.01172,-0.0059 -0.104444,-0.05787 -0.273101,-0.151201 -0.4375,-0.257813 -0.0052,-0.0032 -0.01043,-0.0065 -0.01563,-0.0098 -0.123488,-0.08174 -0.210785,-0.152542 -0.21875,-0.158203 C 26.816066,9.8992263 26.622479,9.7589252 26.431641,9.6171875 26.322399,9.5356152 26.21109,9.4579946 26.072266,9.3652344 26.00092,9.3176119 25.971599,9.2983101 25.941406,9.2792969 25.828226,9.2075989 25.709513,9.1390967 25.576172,9.0683594 25.509735,9.0330854 25.489371,9.0201317 25.46875,9.0097656 25.313241,8.9318756 25.140261,8.8580811 24.951172,8.7871094 24.910396,8.7718048 24.86969,8.7577687 24.800781,8.734375 24.622288,8.6734751 24.455399,8.6239312 24.292969,8.5859375 l 0.01953,0.00391 c -0.181509,-0.040547 -0.07618,-0.01943 -0.04687,-0.013672 -0.277401,-0.054664 -0.573868,-0.091721 -0.898438,-0.1210938 -0.0033,-2.414e-4 -0.0064,-0.00172 -0.0098,-0.00195 -0.152088,-0.010797 -0.30156,-0.015933 -0.449219,-0.015625 -0.171784,3.949e-4 -0.352873,0.011766 -0.564453,0.03125 -0.04432,0.00408 -0.0965,0.010943 -0.183594,0.021484 -0.13935,0.016871 -0.274556,0.036526 -0.404297,0.060547 -0.06045,0.011193 -0.126149,0.023781 -0.205078,0.041016 -0.12457,0.0272 -0.249901,0.060751 -0.380859,0.097656 -0.103721,0.02923 -0.149873,0.039055 -0.19336,0.052734 -0.196264,0.061751 -0.378104,0.1265321 -0.548828,0.1972656 -0.192749,0.079753 -0.392374,0.1768184 -0.611328,0.2949219 -0.04293,0.023148 -0.08996,0.049352 -0.15039,0.083984 -0.182609,0.1046877 -0.35336,0.2138165 -0.515625,0.328125 -0.160369,0.1129232 -0.06055,0.039063 -0.06055,0.039063 -0.167441,0.1206818 -0.337503,0.2594808 -0.519532,0.4218751 -0.0308,0.02748 -0.06484,0.05802 -0.111328,0.101562 -0.185474,0.173641 -0.333998,0.32631 -0.464843,0.478516 -0.203129,0.244402 -0.383939,0.479835 -0.541016,0.714844 -6.8e-4,0.0011 -0.0013,0.0028 -0.002,0.0039 -0.103647,0.165458 -0.206425,0.358762 -0.3125,0.587891 -0.05954,0.128511 -0.04492,0.08984 -0.04492,0.08984 -0.0868,0.195618 -0.160273,0.398043 -0.224609,0.613282 -0.0082,0.02723 -0.01345,0.05545 -0.03516,0.134765 -0.06595,0.242204 -0.116334,0.463581 -0.148437,0.669922 -0.0013,0.0072 -0.0026,0.01433 -0.0039,0.02149 -0.0026,0.01606 -0.0052,0.03645 -0.0078,0.05273 -0.0037,0.02482 -0.0069,0.03753 -0.0098,0.05664 -0.0359,0.23107 -0.07068,0.475062 -0.115234,0.736328 -0.0033,0.01942 -0.01469,0.127172 -0.04102,0.257812 -0.0013,0.0072 -0.0026,0.01433 -0.0039,0.02149 -0.03682,0.172783 -0.09634,0.377195 -0.126953,0.484375 -0.0013,0.0039 -0.0026,0.0078 -0.0039,0.01172 0,0 0.02519,-0.05962 -0.03125,0.121094 -0.06462,0.207446 -0.01367,0.03906 -0.01367,0.03906 -0.07643,0.242015 -0.191002,0.551685 -0.355469,0.859374 -0.0039,0.0072 -0.0078,0.01435 -0.01172,0.02148 -0.211243,0.384023 -0.473341,0.727537 -0.779297,1.03125 -0.227419,0.22711 -0.4593,0.403424 -0.66211,0.541015 -0.06704,0.04544 -0.128755,0.08528 -0.177734,0.115235 0.0024,-0.0015 0.09614,-0.04025 -0.179688,0.111328 -0.01036,0.006 -0.02078,0.01181 -0.03125,0.01758 -0.324202,0.170724 -0.296875,0.130859 -0.296875,0.130859 -0.0015,6.53e-4 0.04051,0.0074 -0.289062,0.126954 l -0.0078,0.0039 c -0.07692,0.0277 -0.113997,0.03868 -0.131855,0.04287 0.0035,-0.0011 0.0068,-0.0022 0.0099,-0.0033 0.03867,-0.0076 0.08023,-0.01293 -0.174929,0.06391 -0.267398,0.08339 -0.263671,0.06445 -0.263671,0.06445 -0.190256,0.04981 -0.400977,0.0995 -0.626954,0.138671 -0.115658,0.01969 -0.272405,0.04883 -0.423828,0.07031 -0.0052,6.72e-4 -0.01041,0.0013 -0.01563,0.002 0,0 -0.01743,0.0019 -0.03125,0.0039 l -0.01563,0.002 c -0.250918,0.0331 -0.498138,0.07706 -0.742187,0.128907 -0.0977,0.0208 -0.07031,0.01367 -0.07031,0.01367 -0.203816,0.0457 -0.409121,0.105709 -0.625,0.183593 -0.07408,0.02636 -0.112178,0.03949 -0.146484,0.05273 -0.226149,0.08795 -0.4131527,0.169668 -0.5820314,0.259765 -0.00843,0.0046 -0.016894,0.0092 -0.025391,0.01367 -0.1956143,0.100783 -0.3976352,0.232625 -0.6191406,0.404297 -0.011617,0.0092 -0.023336,0.01836 -0.035156,0.02734 -0.1288769,0.09528 -0.2514427,0.192739 -0.3632812,0.289062 -0.236523,0.204079 -0.458854,0.429145 -0.6660157,0.671875 -0.1091507,0.127704 -0.2149355,0.2607 -0.3164062,0.400391 -0.1235158,0.170303 -0.2420922,0.36005 -0.3691406,0.580078 -0.036157,0.06264 -0.062978,0.108071 -0.085937,0.150391 -0.1205139,0.222055 -0.2201714,0.425856 -0.3027344,0.625 -0.2650787,0.639753 -0.4288615,1.315728 -0.4824219,1.998047 -0.025168,0.318089 -0.026029,0.637268 -0.00195,0.957031 0.013864,0.161329 0.031726,0.315621 0.052734,0.46289 0.00138,0.01041 0.00269,0.02082 0.00391,0.03125 0.034029,0.269019 0.08356,0.507643 0.1523438,0.722657 0.004,0.01103 0.00791,0.0221 0.011719,0.0332 0.175255,0.583252 0.4630991,1.146441 0.8457031,1.666015 0.00393,0.0052 0.00784,0.0104 0.011719,0.01563 0.2557918,0.354643 0.6914398,0.892144 0.9902344,1.466797 0.1540398,0.287436 0.2781282,0.58421 0.3730469,0.890625 0.00335,0.01104 0.00661,0.02211 0.00977,0.0332 C 9.0022578,31.14409 9.0614884,31.57064 9.0605469,32 c 9.1e-4,0.429258 -0.058341,0.855984 -0.1796875,1.273437 -0.00316,0.0111 -0.00641,0.02216 -0.00977,0.0332 -0.094907,0.306346 -0.2189967,0.603167 -0.3730469,0.890625 -0.2987944,0.574653 -0.7344418,1.112154 -0.9902344,1.466796 -0.00388,0.0052 -0.00779,0.01044 -0.011719,0.01563 -0.3826045,0.519576 -0.6704482,1.082764 -0.8457031,1.666016 -0.00381,0.0111 -0.00772,0.02217 -0.011719,0.0332 -0.068449,0.213987 -0.1181243,0.45409 -0.1523438,0.72461 -0.00122,0.01043 -0.00252,0.02084 -0.00391,0.03125 -0.021164,0.14837 -0.038993,0.301157 -0.052734,0.460937 -0.024072,0.319791 -0.023113,0.63821 0.00195,0.955078 0.053655,0.683525 0.2171827,1.35986 0.4824219,2 0.082404,0.19876 0.1823562,0.403197 0.3027344,0.625 0.023068,0.04252 0.049564,0.08737 0.085937,0.150391 0.1268242,0.219641 0.2467054,0.410524 0.3710937,0.582031 0.1050495,0.144616 0.2085851,0.278813 0.3125,0.400391 0.2016903,0.236318 0.4234006,0.457382 0.6621094,0.664062 0.00314,0.0027 0.00662,0.0052 0.00977,0.0078 l 0.00586,0.0059 c 0.1174278,0.0986 0.2399737,0.194962 0.3652344,0.289063 0.00786,0.0065 0.015675,0.01296 0.023437,0.01953 0.2215069,0.171672 0.4235189,0.303509 0.6191406,0.404297 0.0085,0.0045 0.01696,0.0091 0.025391,0.01367 0.1688804,0.0901 0.3553624,0.172059 0.5859374,0.261718 0.03005,0.0116 0.0678,0.02378 0.132813,0.04687 0.225041,0.08117 0.430429,0.143 0.628906,0.1875 0.0031,6.94e-4 -0.02178,-0.0058 0.07813,0.01563 0.246125,0.05228 0.499644,0.09553 0.755859,0.128907 0.0099,0.0013 2.85e-4,9.37e-4 0.0078,0.002 0.01303,0.0012 0.02606,0.0025 0.03906,0.0039 -3.58e-4,-3.5e-5 0.0045,6.6e-5 0.0039,0 0.0042,5.17e-4 0.0066,0.0016 0.0098,0.002 0.146781,0.02123 0.298362,0.05034 0.404297,0.06836 0.232095,0.04021 0.441279,0.08811 0.626953,0.136719 0.0042,0.0011 -0.03448,-0.03094 0.283203,0.07031 l 0.0059,0.002 c 0.276638,0.08461 0.140711,0.05342 0.12292,0.04926 7.3e-5,2.5e-5 1.47e-4,4.9e-5 2.2e-4,7.4e-5 0.0069,0.0012 0.02248,8.88e-4 0.154203,0.04832 0.34948,0.125893 0.307887,0.132692 0.296887,0.132852 -7.36e-4,-9.9e-5 -0.0014,-1.69e-4 -0.002,-2.11e-4 -0.0023,-0.0033 -0.04255,-0.05072 0.298895,0.129078 0.01047,0.0058 0.02089,0.01163 0.03125,0.01758 0.275244,0.151356 0.181641,0.113281 0.181641,0.113281 0.04673,0.02857 0.109543,0.06643 0.175781,0.111328 0.203533,0.138078 0.434699,0.315867 0.66211,0.542969 0.30595,0.303709 0.568053,0.647225 0.779297,1.03125 0.0039,0.0071 0.0079,0.0143 0.01172,0.02148 0.164454,0.307664 0.278145,0.618165 0.357422,0.869141 l -0.002,-0.0098 c 0,0 -0.02716,-0.09785 0.01563,0.03906 l 0.002,0.0078 c 0.04732,0.154277 0.02734,0.111329 0.02734,0.111329 0.0013,0.0046 0.0026,0.0091 0.0039,0.01367 0.03061,0.10718 0.09013,0.311592 0.126953,0.484375 0.0013,0.0072 0.0026,0.01432 0.0039,0.02148 0.02701,0.133945 0.03966,0.242176 0.04297,0.261719 0.04719,0.277114 0.08425,0.542209 0.123047,0.787109 -0.0019,-0.01474 0.0037,0.02839 0.0078,0.05469 0.0024,0.01513 -2.1e-5,-0.0077 0.0059,0.03125 0.03056,0.196282 0.07926,0.415227 0.146484,0.66211 0.021,0.07672 0.02766,0.105883 0.03516,0.130859 0.06501,0.217474 0.138384,0.419483 0.222656,0.609375 0.0027,0.006 -0.01261,-0.03275 0.04687,0.0957 0.100583,0.217225 0.200055,0.405137 0.304687,0.574219 l 0.01172,0.01953 c 0.155587,0.232317 0.33637,0.469042 0.539063,0.712891 0.131596,0.15308 0.281407,0.307071 0.466796,0.480469 0.03689,0.03452 0.07162,0.06546 0.105469,0.0957 0.183836,0.16424 0.355665,0.304861 0.523438,0.425781 3.1e-5,2.3e-5 -0.100027,-0.07407 0.06055,0.03906 0.158472,0.111638 0.329802,0.220476 0.517578,0.328125 0.06074,0.03482 0.107072,0.06063 0.15039,0.08398 0.222329,0.119882 0.419422,0.217136 0.607422,0.294922 0.165769,0.06868 0.343685,0.130126 0.550781,0.195312 0.0572,0.01799 0.103395,0.02934 0.19336,0.05469 0.131087,0.03695 0.256326,0.07047 0.380859,0.09766 0.07409,0.01619 0.142527,0.0291 0.207031,0.04102 0.117058,0.02164 0.242369,0.04057 0.388672,0.05859 0.113222,0.01393 0.160072,0.02148 0.203125,0.02539 0.202126,0.0184 0.385643,0.02891 0.558594,0.0293 0.147804,2.5e-4 0.297888,-0.0049 0.449219,-0.01563 0.0036,-3.19e-4 0.0062,-0.0016 0.0098,-0.002 0.328376,-0.02972 0.629818,-0.06924 0.910157,-0.125 0,0 0.002,0 0.002,0 3.53e-4,-1.36e-4 0.0042,4.04e-4 0.0059,0 0.0063,-0.0016 -0.01829,0.0027 0.02148,-0.0059 l -0.02734,0.0059 c 0.156128,-0.03609 0.322651,-0.08584 0.517578,-0.152344 0.07175,-0.02436 0.113363,-0.03933 0.154297,-0.05469 0.18898,-0.07094 0.361479,-0.145443 0.519531,-0.22461 0.0178,-0.009 0.03957,-0.02166 0.105469,-0.05664 0.133617,-0.07088 0.252775,-0.138257 0.361328,-0.207032 0.03451,-0.02175 0.06314,-0.04383 0.140625,-0.0957 0.136804,-0.09164 0.243857,-0.162421 0.337891,-0.232422 0.193631,-0.143474 0.391819,-0.291108 0.595703,-0.435547 0.0084,-0.006 0.09545,-0.07524 0.214843,-0.154296 0.0052,-0.0033 0.0104,-0.0065 0.01563,-0.0098 0.164323,-0.106558 0.326305,-0.194782 0.421875,-0.248047 0.0039,-0.0026 0.0078,-0.0052 0.01172,-0.0078 0,0 -0.0022,-0.0032 0.105469,-0.06055 -0.0089,0.006 0.03711,-0.01758 0.03711,-0.01758 0.244845,-0.127164 0.535433,-0.260591 0.867188,-0.361329 0.0078,-0.002 0.01561,-0.004 0.02344,-0.0059 0.20327,-0.05907 0.415499,-0.106076 0.634766,-0.136719 0.422413,-0.05912 0.854545,-0.05917 1.277344,0 0.218921,0.03061 0.431306,0.0776 0.634765,0.136719 0.0111,0.0032 0.02216,0.0064 0.0332,0.0098 0.306305,0.09483 0.602719,0.218128 0.888672,0.371093 0.369948,0.191821 0.697493,0.420837 0.94336,0.601563 0.0046,0.0032 0.0091,0.0065 0.01367,0.0098 0.369975,0.276286 0.655802,0.494458 0.953125,0.675781 0.05024,0.0307 0.09414,0.05063 0.203125,0.111328 0.113857,0.06354 0.158177,0.09179 0.21289,0.119141 0.05086,0.02548 0.0931,0.04142 0.205078,0.0918 0.118397,0.05303 0.167334,0.07733 0.234375,0.103516 0.002,7.83e-4 -0.06292,-0.02789 0.109375,0.03516 0.228518,0.08372 0.438105,0.149026 0.638672,0.195313 0.139616,0.03004 0.270345,0.05266 0.394531,0.06836 0.015,0.0018 0.02997,0.0037 0.04492,0.0059 0.186177,0.02778 0.391161,0.04541 0.623047,0.05664 0.06395,0.0029 0.107634,0.0049 0.154297,0.0059 0.231798,0.0053 0.435729,0.0016 0.626953,-0.01367 0.175507,-0.01386 0.349188,-0.03449 0.523438,-0.0625 0.02603,-0.0042 0.06997,-0.01661 0.1875,-0.03906 0.146239,-0.02794 0.235942,-0.04483 0.324218,-0.06641 0.341028,-0.08322 0.66424,-0.186408 0.96875,-0.3125 0.638984,-0.264571 1.234219,-0.628643 1.75586,-1.074219 0.140399,-0.119467 0.28334,-0.259654 0.453125,-0.4375 0.03886,-0.04065 0.07485,-0.07748 0.107422,-0.113281 0.155363,-0.17109 0.286398,-0.329232 0.398437,-0.480469 0.009,-0.01182 0.0181,-0.02354 0.02734,-0.03516 0.08948,-0.115384 0.176708,-0.239202 0.261719,-0.375 0.06513,-0.106003 0.125387,-0.216031 0.183593,-0.330078 0.0019,-0.0033 0.0039,-0.0065 0.0059,-0.0098 0,0 -0.0092,0.01038 0.05469,-0.121094 0.09161,-0.188019 0.166837,-0.366374 0.228516,-0.541015 0.04889,-0.138746 0.03516,-0.08984 0.03516,-0.08984 0.06421,-0.192877 0.118912,-0.401213 0.166016,-0.630859 0.01225,-0.05888 0.02237,-0.118477 0.03516,-0.191407 0.04418,-0.249871 0.08167,-0.500483 0.123047,-0.779296 0.11931,-0.845856 0.0078,-0.03906 0.0078,-0.03906 0.01412,-0.09201 0.03081,-0.195008 0.05116,-0.305715 0.0071,-0.04939 0.0069,-0.04574 0.0028,-0.01525 0.04153,-0.223587 0.09803,-0.47763 0.178445,-0.735679 0.0012,-0.004 0.0027,-0.0078 0.0039,-0.01172 0.09361,-0.310963 0.215275,-0.610182 0.367187,-0.898438 0.0058,-0.01112 0.01161,-0.02219 0.01758,-0.0332 0.211245,-0.384027 0.473347,-0.727541 0.779297,-1.03125 0.300306,-0.300373 0.640975,-0.558398 1.021484,-0.767578 0.0071,-0.004 0.0143,-0.0079 0.02148,-0.01172 0.234422,-0.125227 0.46766,-0.219562 0.67242,-0.291347 -0.01351,0.0037 -0.01116,0.0026 0.02031,-0.0071 z M 29.888672,23.255859 c -0.36198,0.0032 -0.137943,0.0098 -0.136719,0.0098 -0.372065,0.0097 -0.728375,0.04507 -1.078125,0.09766 -0.04302,0.0065 -0.137087,0.01876 -0.228516,0.03516 -0.394865,0.07027 -0.79157,0.167352 -1.18164,0.294922 -0.05565,0.0182 -0.104863,0.03482 -0.117188,0.03906 -0.374947,0.128593 -0.729322,0.28221 -1.05664,0.445312 0,0 0.01906,-0.01515 -0.152344,0.07422 -0.362464,0.189481 -0.698449,0.399896 -1.009766,0.621094 -0.120296,0.08526 -0.249395,0.178847 -0.380859,0.283203 -0.03378,0.02685 -0.106712,0.08249 -0.173828,0.138672 -0.385325,0.322255 -0.752313,0.685196 -1.089844,1.08789 -0.08267,0.09846 -0.156668,0.198312 -0.189453,0.240235 -0.03974,0.05091 -0.124912,0.156094 -0.201172,0.261719 -0.08154,0.11295 -0.07493,0.108431 -0.07422,0.107421 -0.07273,0.103857 -0.138937,0.205976 -0.197265,0.296875 -0.08082,0.126148 -0.155101,0.249004 -0.220703,0.363282 -0.04498,0.07822 -0.110126,0.192309 -0.171875,0.310547 -0.0817,0.156682 -0.151445,0.307602 -0.205079,0.425781 -0.02008,0.04416 -0.07317,0.152013 -0.121093,0.267578 -0.09709,0.234448 -0.180639,0.466473 -0.253907,0.697266 -0.127972,0.403199 -0.217514,0.806741 -0.28125,1.183593 -0.01324,0.07797 -0.02557,0.16355 -0.03906,0.259766 -0.05056,0.365545 -0.08984,0.769949 -0.08984,1.203125 0,0.433177 0.0391,0.83825 0.08984,1.205078 0.01251,0.09 0.02528,0.178615 0.03906,0.259766 0.06435,0.380489 0.153446,0.778961 0.28125,1.18164 0.07322,0.23065 0.156588,0.462274 0.253907,0.697266 0.04763,0.114918 0.101577,0.222702 0.121093,0.265625 0.05413,0.119266 0.122779,0.271854 0.205079,0.429687 0.0612,0.117194 0.12764,0.231651 0.171875,0.308594 0.06633,0.11556 0.139074,0.23783 0.220703,0.365235 0.0575,0.08959 0.125204,0.192009 0.197265,0.294921 0,0 -0.03323,-0.03941 0.07422,0.109375 0.08144,0.112811 0.166268,0.217015 0.201172,0.261719 0.03178,0.04064 0.105932,0.141128 0.1875,0.238281 0.335638,0.400437 0.703833,0.763431 1.091797,1.087891 0.08141,0.06817 0.152941,0.122067 0.173828,0.138672 0.130383,0.103493 0.260509,0.1993 0.378906,0.283203 0.313264,0.22258 0.647635,0.432719 1.011719,0.623047 0.08094,0.04222 0.144397,0.07124 0.150391,0.07422 0.337142,0.167996 0.690886,0.317251 1.058593,0.443359 0,0 -0.03758,-0.0099 0.117188,0.04102 0.396663,0.129714 0.79393,0.224672 1.177734,0.292968 0.09409,0.01687 0.190412,0.03014 0.236328,0.03711 0.34677,0.05213 0.701852,0.08607 1.074219,0.0957 0,0 -0.01708,0.0069 0.203125,0.0078 0,0 -0.267928,0.002 0.02734,0.002 0.258387,0 0.122183,-0.0058 0.123047,-0.0059 0.199429,-0.0028 0.416286,-0.01153 0.640625,-0.03125 0.104813,-0.0091 0.223415,-0.02481 0.292968,-0.0332 0.174417,-0.02125 0.339961,-0.0471 0.490235,-0.07422 0.06663,-0.01193 0.198703,-0.03412 0.320312,-0.06055 0.182613,-0.03992 0.351498,-0.08649 0.482422,-0.123046 0.142814,-0.0398 0.296986,-0.08441 0.457031,-0.138672 0.139954,-0.04743 0.337375,-0.116286 0.529297,-0.195313 0.128114,-0.0529 0.244863,-0.11068 0.289063,-0.130859 0.108517,-0.04941 0.268553,-0.121926 0.427734,-0.205078 0.09995,-0.05234 0.213236,-0.116872 0.275391,-0.152344 0.136942,-0.07796 0.276844,-0.162661 0.423828,-0.257813 0.05898,-0.03826 0.147093,-0.09499 0.232422,-0.154296 0.167476,-0.116204 0.322583,-0.234895 0.457031,-0.341797 0.01112,-0.0089 0.07792,-0.05609 0.158203,-0.123047 0.192357,-0.160357 0.38655,-0.33628 0.576172,-0.525391 0.108547,-0.108263 0.07168,-0.07557 0.07227,-0.07617 0.16172,-0.165198 0.310688,-0.331975 0.445312,-0.492187 0.06059,-0.07201 0.125244,-0.156023 0.164063,-0.205078 0.09518,-0.120441 0.19937,-0.256678 0.302734,-0.404297 0.05652,-0.08057 0.113226,-0.1649 0.169922,-0.251953 0.09386,-0.144367 0.17851,-0.284156 0.251953,-0.41211 0.03296,-0.05732 0.0953,-0.163389 0.148438,-0.263672 0.09717,-0.183645 0.187526,-0.369149 0.269531,-0.554687 0.03504,-0.07924 0.07249,-0.173633 0.0957,-0.230469 0.07364,-0.180403 0.153214,-0.38891 0.224609,-0.609375 0.03975,-0.122801 0.07385,-0.25467 0.0918,-0.318359 0.03864,-0.136831 0.08005,-0.289971 0.117188,-0.455078 0.02653,-0.118218 0.04857,-0.228863 0.06445,-0.314453 0.03348,-0.179676 0.05781,-0.355363 0.07813,-0.517579 0.0059,-0.04737 0.02428,-0.161607 0.03516,-0.279296 0.02315,-0.250017 0.03906,-0.520549 0.03906,-0.806641 0,-0.286092 -0.01604,-0.557978 -0.03906,-0.806641 -0.01093,-0.118951 -0.02911,-0.232454 -0.03516,-0.28125 -0.02012,-0.160709 -0.04491,-0.335436 -0.07813,-0.513672 -0.01619,-0.0872 -0.03775,-0.199276 -0.06445,-0.318359 -0.03695,-0.164278 -0.07691,-0.31738 -0.115235,-0.453125 -0.01825,-0.06474 -0.05389,-0.197147 -0.09375,-0.320312 -0.07127,-0.220043 -0.150914,-0.426905 -0.224609,-0.607422 -0.02242,-0.05492 -0.0563,-0.141429 -0.0957,-0.230469 -0.08211,-0.185771 -0.171897,-0.370185 -0.269531,-0.554688 -0.05543,-0.104633 -0.120224,-0.215755 -0.152344,-0.271484 -0.07153,-0.124294 -0.152783,-0.25965 -0.244141,-0.400391 -0.05789,-0.08906 -0.11624,-0.175775 -0.173828,-0.257812 -0.101365,-0.144628 -0.204149,-0.279565 -0.302734,-0.404297 -0.03795,-0.04795 -0.104314,-0.132121 -0.164063,-0.203125 -0.135494,-0.161247 -0.283375,-0.326767 -0.445312,-0.492187 0,0 0.03618,0.03193 -0.07227,-0.07617 -0.189569,-0.189058 -0.384217,-0.363414 -0.576172,-0.523438 -0.0804,-0.06706 -0.148372,-0.115627 -0.160156,-0.125 -0.136481,-0.108524 -0.287687,-0.226347 -0.451172,-0.339844 -0.09465,-0.06583 -0.187796,-0.12315 -0.248047,-0.162109 -0.125436,-0.08094 -0.259718,-0.165759 -0.40039,-0.246094 -0.08138,-0.0466 -0.18275,-0.103486 -0.291016,-0.160156 -0.150256,-0.07844 -0.309105,-0.151776 -0.421875,-0.203125 -0.04587,-0.02094 -0.16309,-0.07922 -0.292969,-0.132812 -0.190074,-0.07826 -0.38767,-0.146023 -0.527344,-0.19336 -0.160357,-0.05437 -0.315241,-0.09915 -0.457031,-0.138672 -0.131882,-0.03683 -0.30112,-0.08453 -0.486328,-0.125 -0.119013,-0.02585 -0.2483,-0.0471 -0.3125,-0.05859 -0.152828,-0.02757 -0.319049,-0.05459 -0.496094,-0.07617 -0.09291,-0.0112 -0.191128,-0.02085 -0.289062,-0.0293 -0.212122,-0.01869 -0.425646,-0.03028 -0.644531,-0.0332 0,0 0.138441,-0.0059 -0.121094,-0.0059 -0.287336,0 -0.03501,0.0019 -0.03906,0.002 0,0 0.150226,-0.0043 -0.05469,-0.002 z"
       style="fill:url(#linearGradient23);fill-rule:evenodd;stroke:#fce94f;stroke-width:2;stroke-linecap:round;stroke-linejoin:round;stroke-dasharray:none;stroke-opacity:1;font-variation-settings:normal;opacity:1;vector-effect:none;fill-opacity:1;stroke-miterlimit:4;stroke-dashoffset:0;-inkscape-stroke:none;stop-color:#000000;stop-opacity:1"
       id="path43" />
    <path
       d="m 28.350734,58.357229 c -0.02668,-0.01932 -0.05223,-0.04098 -0.07961,-0.05897 -0.103873,-0.06823 -0.213342,-0.128762 -0.328746,-0.17832 -0.01901,-0.0084 -0.03902,-0.01306 -0.05822,-0.02064 -0.0974,-0.03851 -0.198412,-0.06955 -0.302212,-0.09358 -0.03791,-0.0088 -0.07596,-0.01613 -0.114252,-0.02287 -0.100036,-0.01742 -0.202333,-0.02793 -0.306633,-0.03094 -0.02803,-7.53e-4 -0.05596,-0.0039 -0.08403,-0.0038 -0.129716,0.0014 -0.256406,0.01487 -0.379609,0.03831 -0.03473,0.0066 -0.06869,0.01739 -0.103202,0.0258 -0.08905,0.02166 -0.1759,0.04865 -0.260199,0.08106 -0.0426,0.01638 -0.08495,0.0338 -0.126781,0.05305 -0.04897,0.02256 -0.09464,0.05056 -0.141523,0.07664 -0.128475,0.07138 -0.247754,0.15442 -0.356759,0.24832 -0.02849,0.02456 -0.05984,0.04548 -0.08698,0.07148 -0.12431,0.119108 -0.232614,0.252245 -0.324326,0.396425 -0.02035,0.03191 -0.03513,0.06718 -0.05383,0.100211 -0.06853,0.121664 -0.125046,0.249675 -0.168796,0.38316 -0.01443,0.04405 -0.0297,0.08739 -0.04128,0.132636 -0.04392,0.171257 -0.07371,0.348104 -0.07371,0.529791 0,0.137292 0.01581,0.270016 0.04054,0.400112 0.0083,0.04226 0.02117,0.08236 0.03169,0.123794 0.02186,0.08617 0.04689,0.171089 0.07887,0.252739 0.01829,0.04669 0.03973,0.09193 0.06117,0.137053 0.03404,0.07153 0.07129,0.140903 0.112778,0.207792 0.02655,0.04286 0.05384,0.08516 0.08331,0.126 0.04896,0.0677 0.102851,0.131639 0.159215,0.193054 0.03036,0.03309 0.05899,0.06758 0.09141,0.09873 0.06733,0.06469 0.140659,0.122069 0.215969,0.177584 0.02823,0.02079 0.05398,0.04467 0.08332,0.0641 0.106356,0.07058 0.219029,0.132555 0.337593,0.183478 0.0316,0.01354 0.06635,0.0211 0.09877,0.03316 0.09093,0.03388 0.183055,0.06554 0.279362,0.08696 0.04488,0.01004 0.08996,0.01358 0.134891,0.02063 0.08949,0.01396 0.179919,0.02474 0.272728,0.02727 0.04622,0.001 0.09193,-3.77e-4 0.137838,-0.0022 0.09056,-0.0033 0.1795,-0.01218 0.266832,-0.02652 0.04799,-0.0081 0.09581,-0.0161 0.142999,-0.02727 0.0819,-0.0193 0.160862,-0.0453 0.238821,-0.07369 0.04475,-0.0163 0.09062,-0.02945 0.134152,-0.04863 0.116399,-0.05147 0.228783,-0.11077 0.33317,-0.181266 0.105804,-0.07153 0.204415,-0.154343 0.29558,-0.243161 0.031,-0.03018 0.05774,-0.06507 0.08698,-0.09725 0.05802,-0.06384 0.114337,-0.129165 0.164372,-0.19969 0.02857,-0.04037 0.05366,-0.08403 0.07961,-0.12674 0.0412,-0.06766 0.07988,-0.136935 0.113515,-0.209261 0.02364,-0.051 0.04404,-0.102694 0.06338,-0.15474 0.02678,-0.07194 0.04954,-0.145681 0.06855,-0.221055 0.0129,-0.05118 0.02562,-0.102394 0.03464,-0.154001 0.01589,-0.09127 0.0241,-0.184417 0.02802,-0.279264 0.0017,-0.03815 0.0064,-0.07613 0.0059,-0.114214 -0.0018,-0.133401 -0.01404,-0.26482 -0.03907,-0.39127 -0.0064,-0.03201 -0.0187,-0.06259 -0.02653,-0.09431 -0.02373,-0.09607 -0.05076,-0.190279 -0.08698,-0.280739 -0.01739,-0.04356 -0.04016,-0.08501 -0.06045,-0.127475 -0.03582,-0.07463 -0.07401,-0.147848 -0.117937,-0.217371 -0.02651,-0.04207 -0.05518,-0.08267 -0.08477,-0.123054 -0.04711,-0.06414 -0.09803,-0.125063 -0.151843,-0.183476 -0.03541,-0.03845 -0.07124,-0.07659 -0.109829,-0.112739 -0.0655,-0.06136 -0.135049,-0.118137 -0.20786,-0.170948 z"
       style="fill:#fce94f;fill-rule:evenodd;stroke:#231f0b;stroke-width:2;stroke-linecap:round;stroke-linejoin:round;stroke-dasharray:none;stroke-opacity:1"
       id="path41" />
    <path
       d="m 46.748105,54.602238 c -0.0219,-0.0046 -0.04567,-0.0029 -0.06783,-0.0066 -0.128634,-0.02216 -0.257627,-0.03604 -0.386242,-0.03463 -0.05969,6.41e-4 -0.11627,0.01226 -0.174694,0.01767 -0.0935,0.0088 -0.187325,0.0167 -0.278623,0.03757 -0.05453,0.01245 -0.10562,0.03286 -0.158479,0.04937 -0.08976,0.02802 -0.179002,0.05753 -0.26462,0.09725 -0.05142,0.02394 -0.0998,0.05251 -0.148893,0.0803 -0.0817,0.04613 -0.160878,0.09689 -0.236611,0.154002 -0.04629,0.03503 -0.09089,0.07191 -0.134154,0.11052 -0.06869,0.06132 -0.13203,0.127143 -0.191647,0.196004 -0.03808,0.04395 -0.07686,0.08713 -0.111296,0.134108 -0.05636,0.07704 -0.104219,0.158888 -0.149634,0.242423 -0.02529,0.04641 -0.05331,0.09087 -0.07517,0.139264 -0.04457,0.09886 -0.07696,0.202458 -0.10614,0.307267 -0.01074,0.03862 -0.02752,0.07476 -0.03611,0.114211 -0.03245,0.148562 -0.05087,0.301253 -0.05087,0.456112 0,0.144127 0.01556,0.284605 0.04275,0.42074 0.0092,0.04599 0.02696,0.08849 0.03907,0.133372 0.02404,0.08919 0.04769,0.178886 0.08255,0.263052 0.01954,0.04711 0.04653,0.09022 0.06928,0.135583 0.0375,0.07477 0.07372,0.150134 0.11941,0.219582 0.03332,0.05068 0.0739,0.09536 0.111298,0.142947 0.04512,0.05734 0.08866,0.116331 0.139311,0.168739 0.04417,0.0457 0.09416,0.08507 0.142263,0.126742 0.05329,0.04614 0.105196,0.09334 0.1629,0.134107 0.05232,0.03694 0.10942,0.06721 0.165111,0.09948 0.06078,0.03516 0.120655,0.07176 0.185014,0.100955 0.05867,0.02657 0.120651,0.04647 0.182064,0.06779 0.06905,0.02397 0.138017,0.04795 0.210075,0.06485 0.06192,0.01453 0.126235,0.02193 0.190172,0.03094 0.07657,0.01074 0.153244,0.02112 0.232187,0.02358 0.06413,0.002 0.127171,-0.0022 0.190172,-0.0058 0.07839,-0.0047 0.156287,-0.01074 0.23219,-0.02358 0.06279,-0.01052 0.124048,-0.02524 0.185013,-0.04126 0.07089,-0.01858 0.140785,-0.03937 0.208599,-0.06486 0.06068,-0.02282 0.119596,-0.04856 0.177642,-0.07664 0.0637,-0.03081 0.125773,-0.06419 0.185752,-0.100956 0.05406,-0.03312 0.10615,-0.06913 0.157001,-0.106832 0.05647,-0.04194 0.110893,-0.08619 0.162899,-0.133372 0.04737,-0.04294 0.09296,-0.08777 0.136365,-0.134843 0.04837,-0.05252 0.09337,-0.107895 0.136364,-0.165055 0.03666,-0.04878 0.07216,-0.09833 0.104664,-0.150319 0.03891,-0.06222 0.07295,-0.127511 0.105414,-0.193791 0.02806,-0.05744 0.05587,-0.115018 0.07887,-0.175367 0.02499,-0.06547 0.0441,-0.133532 0.06265,-0.201899 0.01797,-0.06633 0.03476,-0.132921 0.04645,-0.201897 0.01218,-0.07227 0.01812,-0.146511 0.02286,-0.221054 0.0041,-0.06591 0.0092,-0.131757 0.0073,-0.196741 -0.0023,-0.08147 -0.01308,-0.160546 -0.02434,-0.239476 -0.0085,-0.05869 -0.01411,-0.118065 -0.02728,-0.175369 -0.01709,-0.07479 -0.04311,-0.145801 -0.06783,-0.217372 -0.02006,-0.05796 -0.03704,-0.117351 -0.06192,-0.17316 -0.02975,-0.06679 -0.06775,-0.128612 -0.103928,-0.191581 -0.03075,-0.05359 -0.05764,-0.109219 -0.09288,-0.159896 -0.04226,-0.06072 -0.09262,-0.11431 -0.140788,-0.170214 -0.03897,-0.04531 -0.07448,-0.09359 -0.117199,-0.135581 -0.05909,-0.05799 -0.126149,-0.107548 -0.191647,-0.158421 -0.04033,-0.03135 -0.0767,-0.0673 -0.119411,-0.09579 -0.06864,-0.04587 -0.144234,-0.08081 -0.218183,-0.118633 -0.04841,-0.02471 -0.09307,-0.05478 -0.143734,-0.07588 -0.125619,-0.05252 -0.257189,-0.09366 -0.393613,-0.121581 z"
       style="fill:#fce94f;fill-rule:evenodd;stroke:#231f0b;stroke-width:2;stroke-linecap:round;stroke-linejoin:round;stroke-dasharray:none;stroke-opacity:1"
       id="path40" />
    <path
       d="m 57.700731,39.960283 c -0.07766,0.05571 -0.151409,0.116836 -0.226292,0.176843 -0.457481,0.39227 -0.753322,0.966889 -0.753322,1.616651 0,1.18125 0.95732,2.139074 2.139075,2.139074 1.181615,0 2.139812,-0.957824 2.139812,-2.139074 0,-1.181237 -0.958197,-2.139078 -2.139812,-2.139078 -0.428199,0 -0.824979,0.12905 -1.159461,0.345584 z"
       style="fill:#fce94f;fill-rule:evenodd;stroke:#231f0b;stroke-width:2;stroke-linecap:round;stroke-linejoin:round;stroke-dasharray:none;stroke-opacity:1"
       id="path39" />
    <path
       d="m 57.464117,23.854942 c 0.07813,0.06297 0.155413,0.126704 0.236614,0.184949 0.334482,0.216533 0.731262,0.345584 1.159461,0.345584 1.181615,0 2.139812,-0.957839 2.139812,-2.139076 0,-1.181252 -0.958197,-2.139077 -2.139812,-2.139077 -1.181755,0 -2.139075,0.957825 -2.139075,2.139077 0,0.644935 0.291399,1.216397 0.743,1.608543 z"
       style="fill:#fce94f;fill-rule:evenodd;stroke:#231f0b;stroke-width:2;stroke-linecap:round;stroke-linejoin:round;stroke-dasharray:none;stroke-opacity:1"
       id="path38" />
    <path
       d="m 46.740735,9.3994096 c 0.08351,-0.016876 0.160417,-0.047037 0.239557,-0.072946 0.05325,-0.017455 0.109377,-0.028671 0.160688,-0.0501 0.05089,-0.021191 0.09588,-0.051089 0.144473,-0.075892 0.07394,-0.037826 0.149529,-0.072768 0.218184,-0.1186335 0.04269,-0.0285 0.07908,-0.06445 0.11941,-0.095792 0.06551,-0.050884 0.132542,-0.1004226 0.191647,-0.1584231 0.04027,-0.039595 0.07362,-0.084926 0.110568,-0.1274752 0.05132,-0.058974 0.104187,-0.1161501 0.148896,-0.1805282 0.03345,-0.048291 0.05904,-0.1016052 0.08845,-0.1525278 0.03735,-0.06457 0.07632,-0.1281292 0.106877,-0.1967389 0.02485,-0.05581 0.04184,-0.1151771 0.06192,-0.1731601 0.02471,-0.071563 0.05073,-0.1425867 0.06782,-0.2173709 0.01316,-0.057313 0.01885,-0.1166765 0.02728,-0.175371 0.01124,-0.078922 0.02196,-0.1580147 0.02433,-0.2394762 0.0019,-0.064987 -0.0032,-0.1308283 -0.0073,-0.1967393 -0.0048,-0.074545 -0.01063,-0.1487767 -0.02286,-0.2210543 -0.01168,-0.068973 -0.02848,-0.1355689 -0.04645,-0.2018976 -0.01855,-0.068359 -0.03768,-0.1364315 -0.06265,-0.2018966 -0.02299,-0.060356 -0.05079,-0.1179427 -0.07888,-0.1753707 -0.03246,-0.06628 -0.0665,-0.1315808 -0.105402,-0.1937914 -0.03251,-0.052 -0.068,-0.1015505 -0.104665,-0.1503174 -0.04297,-0.057164 -0.08798,-0.1125409 -0.136366,-0.1650545 -0.04342,-0.047063 -0.08901,-0.091909 -0.136363,-0.1348437 -0.05201,-0.047179 -0.106432,-0.09143 -0.1629,-0.1333701 -0.05087,-0.037713 -0.102923,-0.073715 -0.157004,-0.106843 -0.05998,-0.036754 -0.122062,-0.070131 -0.185749,-0.1009483 -0.05807,-0.028081 -0.116964,-0.053807 -0.177642,-0.076633 -0.06782,-0.025473 -0.137715,-0.046258 -0.208601,-0.064843 -0.06098,-0.016004 -0.122234,-0.030656 -0.185012,-0.041265 -0.07472,-0.012578 -0.151377,-0.018957 -0.228502,-0.02358 -0.0659,-0.00391 -0.131888,-0.00739 -0.199019,-0.00516 -0.07463,0.00249 -0.147154,0.012144 -0.219657,0.022104 -0.06677,0.00922 -0.133707,0.017256 -0.19828,0.032421 -0.07175,0.016859 -0.140584,0.040229 -0.209338,0.064105 -0.06141,0.021323 -0.123402,0.041209 -0.182065,0.06779 -0.06436,0.029186 -0.124251,0.065767 -0.185012,0.1009483 -0.05569,0.03224 -0.112796,0.062528 -0.165111,0.099474 -0.0577,0.040767 -0.109612,0.087969 -0.162902,0.1341069 -0.04808,0.041648 -0.09809,0.081041 -0.142259,0.126738 -0.04909,0.050782 -0.091,0.108152 -0.134891,0.1635809 -0.03944,0.04985 -0.08225,0.097042 -0.1172,0.1503173 -0.04362,0.066477 -0.07812,0.1386499 -0.11425,0.2100034 -0.02425,0.047892 -0.05305,0.093098 -0.07371,0.1429481 -0.03484,0.0841 -0.05781,0.1739437 -0.0818,0.2630555 -0.01212,0.0449 -0.02987,0.08739 -0.03907,0.1333708 -0.02719,0.1361366 -0.04275,0.2766131 -0.04275,0.4207412 0,0.1548576 0.01842,0.3075492 0.05087,0.4561102 0.0086,0.039476 0.02537,0.075591 0.03611,0.1142133 0.02917,0.104802 0.06157,0.2084257 0.10614,0.3072655 0.02187,0.0484 0.04988,0.092864 0.07517,0.1392647 0.04543,0.083527 0.09327,0.1653844 0.149631,0.2424237 0.03477,0.047403 0.07358,0.091248 0.11204,0.1355817 0.05846,0.067444 0.120782,0.1321115 0.187961,0.1923164 0.04512,0.04044 0.09157,0.079156 0.140051,0.1156869 0.07409,0.055655 0.151699,0.1044247 0.231449,0.1495802 0.04984,0.028305 0.09889,0.057456 0.151107,0.081791 0.08783,0.040757 0.179101,0.071787 0.271256,0.1002001 0.04941,0.015241 0.09727,0.033979 0.148155,0.045692 0.09973,0.02297 0.202139,0.032769 0.304425,0.041264 0.0497,0.00404 0.09756,0.014103 0.148158,0.014724 0.150173,0.00186 0.30121,-0.00952 0.451107,-0.039794 z"
       style="fill:#fce94f;fill-rule:evenodd;stroke:#231f0b;stroke-width:2;stroke-linecap:round;stroke-linejoin:round;stroke-dasharray:none;stroke-opacity:1"
       id="path37" />
    <path
       d="m 27.179475,1.7847984 c -0.0459,-0.00174 -0.0916,-0.00347 -0.137838,-0.00222 -0.09281,0.00249 -0.183232,0.013302 -0.272727,0.027266 -0.04492,0.00705 -0.09001,0.010627 -0.13489,0.020632 -0.0963,0.0214 -0.188428,0.053053 -0.279362,0.086949 -0.03243,0.012076 -0.06716,0.019617 -0.09876,0.033158 -0.118563,0.050922 -0.231237,0.1128962 -0.337593,0.1834756 -0.02931,0.019444 -0.05506,0.043307 -0.0833,0.064106 -0.07532,0.055512 -0.148656,0.1128896 -0.21597,0.177581 -0.03242,0.031166 -0.06106,0.065643 -0.09141,0.098737 -0.05636,0.061416 -0.110252,0.1253588 -0.159216,0.1930545 -0.02948,0.040843 -0.05674,0.083139 -0.0833,0.1260017 -0.04149,0.066887 -0.07872,0.1362576 -0.112778,0.2077918 -0.02145,0.045114 -0.04288,0.09036 -0.06117,0.1370538 -0.03198,0.081648 -0.057,0.1665618 -0.07888,0.2527398 -0.01052,0.041426 -0.02364,0.081526 -0.03169,0.123791 -0.02473,0.1301113 -0.04054,0.2635404 -0.04054,0.4008465 0,0.1816659 0.0298,0.3578224 0.07371,0.5290588 0.01159,0.045253 0.02685,0.08859 0.04127,0.1326329 0.044,0.1342252 0.100491,0.2631091 0.169534,0.385373 0.01802,0.031819 0.03275,0.065749 0.05235,0.096527 0.09189,0.1447035 0.200362,0.2784192 0.32506,0.3978994 0.02648,0.025358 0.05702,0.046017 0.08476,0.070002 0.110466,0.095394 0.231414,0.1797852 0.361918,0.2520026 0.04555,0.025231 0.08962,0.052493 0.137101,0.074422 0.04224,0.019458 0.08524,0.03652 0.128255,0.053053 0.08667,0.033309 0.175881,0.06133 0.26757,0.083264 0.03057,0.00734 0.06065,0.016889 0.09141,0.022845 0.124561,0.023973 0.252794,0.037689 0.384031,0.039054 0.02807,2.856e-4 0.05601,-0.00288 0.08403,-0.00369 0.104296,-0.00301 0.206592,-0.013506 0.306633,-0.030949 0.03829,-0.00669 0.07634,-0.014061 0.114254,-0.022845 0.103787,-0.024029 0.20481,-0.055059 0.302212,-0.093581 0.0192,-0.00758 0.03921,-0.01248 0.05822,-0.020632 0.114377,-0.049118 0.222746,-0.1086565 0.325801,-0.1761068 0.03092,-0.020198 0.05992,-0.044397 0.08993,-0.066317 0.06979,-0.051087 0.136745,-0.106072 0.199754,-0.1650545 0.03925,-0.036727 0.07607,-0.075126 0.112041,-0.1142117 0.05244,-0.057005 0.10135,-0.1166001 0.14742,-0.1790545 0.03115,-0.042307 0.06145,-0.084781 0.08919,-0.1289487 0.04299,-0.068279 0.08052,-0.1404944 0.115726,-0.2136871 0.02056,-0.042939 0.04358,-0.084873 0.06117,-0.1289485 0.03621,-0.090461 0.06326,-0.1846713 0.08698,-0.2807402 0.008,-0.031724 0.02017,-0.062275 0.02653,-0.094317 0.02507,-0.1266636 0.03744,-0.2576286 0.03906,-0.3912672 4.9e-4,-0.037599 -0.0043,-0.07508 -0.0058,-0.1127385 -0.0039,-0.095195 -0.01206,-0.1891485 -0.02801,-0.2807397 -0.009,-0.051618 -0.02175,-0.1028304 -0.03464,-0.1540018 -0.01901,-0.075376 -0.04177,-0.1491015 -0.06855,-0.2210553 -0.01935,-0.052047 -0.03973,-0.1037317 -0.0634,-0.1547386 -0.03363,-0.072326 -0.07232,-0.1415994 -0.113514,-0.2092657 -0.02595,-0.042711 -0.05102,-0.086357 -0.07961,-0.126738 -0.05004,-0.070521 -0.106367,-0.1358488 -0.164373,-0.1996866 -0.02924,-0.032196 -0.05598,-0.067075 -0.08698,-0.097265 -0.09117,-0.088814 -0.189032,-0.1708893 -0.294842,-0.2424241 -0.104383,-0.0705 -0.21751,-0.1305417 -0.333907,-0.1820018 -0.04354,-0.019219 -0.08941,-0.032344 -0.134155,-0.048633 -0.07797,-0.028382 -0.156932,-0.054411 -0.238819,-0.073685 -0.04717,-0.011147 -0.09502,-0.019326 -0.143001,-0.027266 -0.08733,-0.014333 -0.176279,-0.023108 -0.266831,-0.026527 z"
       style="fill:#fce94f;fill-rule:evenodd;stroke:#231f0b;stroke-width:2;stroke-linecap:round;stroke-linejoin:round;stroke-dasharray:none;stroke-opacity:1"
       id="path36" />
    <path
       d="m 10.359506,15.791587 c 0.07009,-0.0053 0.140557,-0.0088 0.208602,-0.02063 0.06821,-0.01196 0.133462,-0.03054 0.199016,-0.04863 0.06826,-0.01885 0.136626,-0.03736 0.201968,-0.06263 0.064,-0.0247 0.124369,-0.05508 0.185013,-0.08548 0.06114,-0.0307 0.122234,-0.06105 0.179851,-0.09725 0.05718,-0.0359 0.110434,-0.07697 0.16364,-0.117894 0.05438,-0.04183 0.108395,-0.08439 0.158476,-0.131161 0.04726,-0.04419 0.09041,-0.09183 0.133414,-0.140001 0.0467,-0.05226 0.0927,-0.104674 0.134154,-0.161369 0.03846,-0.05271 0.0726,-0.108253 0.10614,-0.164319 0.03554,-0.05933 0.06975,-0.119861 0.09951,-0.18274 0.02832,-0.05988 0.05244,-0.121621 0.07518,-0.184211 0.02396,-0.06609 0.0452,-0.132963 0.06265,-0.201897 0.0162,-0.0638 0.02879,-0.128829 0.03906,-0.19453 0.01145,-0.07353 0.01909,-0.148189 0.02286,-0.224002 0.0033,-0.06741 0.0039,-0.135503 7.54e-4,-0.204108 -0.0035,-0.07387 -0.01136,-0.146385 -0.02212,-0.218106 -0.01052,-0.06952 -0.02293,-0.137845 -0.03979,-0.204847 -0.01731,-0.06861 -0.03887,-0.135358 -0.06265,-0.20116 -0.02278,-0.06316 -0.04685,-0.125568 -0.07518,-0.185686 -0.03061,-0.06481 -0.06574,-0.126852 -0.102458,-0.187897 -0.03297,-0.05479 -0.06638,-0.109263 -0.103926,-0.160634 -0.0413,-0.05648 -0.08692,-0.109275 -0.133416,-0.16137 -0.04397,-0.04918 -0.08815,-0.09807 -0.136365,-0.142947 -0.05048,-0.04702 -0.105098,-0.08917 -0.159951,-0.13116 -0.05155,-0.03942 -0.102727,-0.07882 -0.15774,-0.113475 -0.05949,-0.03749 -0.122518,-0.06936 -0.185751,-0.100955 -0.05817,-0.02904 -0.115968,-0.05879 -0.176905,-0.08254 -0.06787,-0.02642 -0.139052,-0.04536 -0.210074,-0.06486 -0.06193,-0.01699 -0.123329,-0.03499 -0.187225,-0.04643 -0.07493,-0.01336 -0.152544,-0.01824 -0.229977,-0.02358 -0.06462,-0.0043 -0.128701,-0.01102 -0.194595,-0.0095 -0.07834,0.0019 -0.153933,0.01287 -0.2299752,0.02285 -0.065135,0.0086 -0.1314966,0.01375 -0.1945966,0.02801 -0.072802,0.01645 -0.1417693,0.0419 -0.2115483,0.06558 -0.061079,0.02072 -0.1236432,0.0382 -0.1820652,0.06411 -0.06797,0.03017 -0.1305821,0.06927 -0.1945956,0.106106 -0.053347,0.03069 -0.1089161,0.05782 -0.159214,0.09284 -0.062023,0.04319 -0.1169728,0.09436 -0.1739566,0.143685 -0.044942,0.03893 -0.092627,0.0747 -0.1341534,0.117158 -0.052533,0.05373 -0.097041,0.114893 -0.143736,0.173897 -0.037382,0.0473 -0.078701,0.09108 -0.1120394,0.141477 -0.043705,0.066 -0.077195,0.138406 -0.1135133,0.209265 -0.025409,0.0496 -0.05584,0.09637 -0.077401,0.148107 -0.032151,0.0772 -0.052142,0.16022 -0.07518,0.241686 -0.014907,0.05274 -0.036296,0.102673 -0.047175,0.156949 -0.027371,0.136577 -0.042755,0.277587 -0.042755,0.422216 0,0.151681 0.017456,0.300743 0.048644,0.446531 0.0075,0.03545 0.022414,0.06764 0.031696,0.102425 0.028376,0.106128 0.059787,0.211483 0.1039274,0.311688 0.020898,0.04734 0.04955,0.09012 0.073713,0.135581 0.043923,0.08289 0.088354,0.165736 0.1429987,0.242421 0.033066,0.04627 0.071783,0.08773 0.1083521,0.131162 0.056958,0.06778 0.1156843,0.133729 0.1813268,0.194527 0.042653,0.03948 0.088386,0.07531 0.1341545,0.111266 0.071034,0.05564 0.1444399,0.107438 0.2211301,0.153264 0.049865,0.02986 0.1009229,0.05745 0.1533175,0.08325 0.076196,0.03741 0.154551,0.06922 0.2343988,0.09726 0.060003,0.0211 0.1204811,0.04097 0.1828029,0.05673 0.078628,0.0199 0.1589611,0.0326 0.2395581,0.04348 0.066501,0.0089 0.1329387,0.01798 0.2012297,0.02061 0.08052,0.0031 0.161445,-0.002 0.242508,-0.0083 z"
       style="fill:#fce94f;fill-rule:evenodd;stroke:#231f0b;stroke-width:2;stroke-linecap:round;stroke-linejoin:round;stroke-dasharray:none;stroke-opacity:1"
       id="path35" />
    <path
       d="m 3.5258169,29.861012 c -1.1816142,0 -2.1398122,0.957828 -2.1398122,2.139075 0,1.181248 0.958198,2.139076 2.1398122,2.139076 1.1816142,0 2.139075,-0.957828 2.139075,-2.139076 0,-1.181247 -0.9574608,-2.139075 -2.139075,-2.139075 z"
       style="fill:#fce94f;fill-rule:evenodd;stroke:#231f0b;stroke-width:2;stroke-linecap:round;stroke-linejoin:round;stroke-dasharray:none;stroke-opacity:1"
       id="path34" />
    <path
       d="m 10.568108,48.229216 c -0.06804,-0.01187 -0.138512,-0.01537 -0.208602,-0.02062 -0.08106,-0.006 -0.161986,-0.01125 -0.242507,-0.0083 -0.06756,0.0026 -0.1332189,0.01189 -0.1990185,0.02061 -0.082839,0.01111 -0.1654311,0.02432 -0.2461926,0.04495 -0.058927,0.01503 -0.1163556,0.03326 -0.1732194,0.05306 -0.081535,0.02839 -0.1610832,0.06133 -0.2388211,0.09948 -0.053845,0.02651 -0.1065627,0.05469 -0.1577401,0.08548 -0.07418,0.0445 -0.1448921,0.09513 -0.2137598,0.148844 -0.047295,0.03699 -0.09459,0.07345 -0.138576,0.114213 -0.064451,0.05974 -0.1215623,0.125081 -0.1776428,0.19158 -0.037925,0.04491 -0.078594,0.08764 -0.1127768,0.13558 -0.053195,0.07486 -0.096303,0.155784 -0.1393113,0.236529 -0.025063,0.04694 -0.054344,0.09105 -0.075925,0.140001 -0.042987,0.09764 -0.073702,0.200283 -0.101728,0.303583 -0.01015,0.03745 -0.026516,0.07229 -0.034646,0.110523 -0.031092,0.145545 -0.047915,0.29512 -0.047915,0.446532 0,0.144128 0.015562,0.284604 0.042755,0.42074 0.011714,0.05853 0.033737,0.112743 0.050125,0.169477 0.022382,0.07752 0.041582,0.156271 0.072242,0.229898 0.021539,0.05176 0.052002,0.09849 0.077401,0.148106 0.036309,0.07086 0.069798,0.143263 0.1135143,0.209266 0.033337,0.05039 0.074657,0.09419 0.1120393,0.141475 0.046677,0.05901 0.091206,0.120165 0.1437339,0.173897 0.041525,0.04248 0.089211,0.07823 0.1341545,0.11716 0.05699,0.04935 0.1119493,0.100511 0.1739566,0.143684 0.050288,0.035 0.1058577,0.06218 0.159215,0.09284 0.064018,0.03683 0.1266313,0.07595 0.1945934,0.106106 0.05842,0.02591 0.1209829,0.04341 0.1820662,0.06411 0.069781,0.02367 0.1387448,0.04913 0.2115483,0.06558 0.063107,0.01425 0.1294572,0.01943 0.1945956,0.02801 0.076041,0.01004 0.1516373,0.02109 0.2299753,0.02285 0.06589,0.0014 0.129989,-0.0052 0.194596,-0.0095 0.07744,-0.0054 0.155029,-0.01024 0.229976,-0.02357 0.06389,-0.01142 0.125306,-0.02945 0.187223,-0.04643 0.07125,-0.01956 0.142742,-0.03832 0.210813,-0.06487 0.05872,-0.0229 0.114125,-0.05177 0.17027,-0.07958 0.06658,-0.03303 0.13288,-0.06655 0.195333,-0.106105 0.05279,-0.03342 0.102261,-0.07124 0.151844,-0.109051 0.05575,-0.04256 0.110915,-0.08565 0.162161,-0.133368 0.04821,-0.04487 0.09241,-0.09376 0.136365,-0.14295 0.04651,-0.05209 0.09212,-0.104892 0.133416,-0.16137 0.03755,-0.05137 0.07097,-0.105835 0.103928,-0.160634 0.03684,-0.06122 0.07178,-0.123617 0.102447,-0.188633 0.02808,-0.05963 0.05255,-0.120866 0.07518,-0.183475 0.02391,-0.06612 0.04526,-0.132938 0.06265,-0.201896 0.01696,-0.06736 0.02931,-0.136418 0.03979,-0.206319 0.01063,-0.07127 0.01872,-0.143265 0.02212,-0.216636 0.0032,-0.0686 0.0026,-0.136693 -7.55e-4,-0.204107 -0.0038,-0.07605 -0.01133,-0.150974 -0.02286,-0.224739 -0.01024,-0.06558 -0.02291,-0.130111 -0.03907,-0.193792 -0.01738,-0.06859 -0.03882,-0.13539 -0.06265,-0.201161 -0.02275,-0.0627 -0.04682,-0.124954 -0.07518,-0.184949 -0.03042,-0.06429 -0.06528,-0.125848 -0.101733,-0.186424 -0.03245,-0.05401 -0.06543,-0.107547 -0.102447,-0.158422 -0.04228,-0.05794 -0.0886,-0.112443 -0.136365,-0.165791 -0.04257,-0.04763 -0.08521,-0.0948 -0.13194,-0.138528 -0.05182,-0.0484 -0.107951,-0.09174 -0.164376,-0.134842 -0.05057,-0.03865 -0.101402,-0.07712 -0.155529,-0.111265 -0.05956,-0.03757 -0.122421,-0.07003 -0.185751,-0.101701 -0.05972,-0.02981 -0.119099,-0.0597 -0.182063,-0.08402 -0.06534,-0.02527 -0.133704,-0.04378 -0.201967,-0.06263 -0.06555,-0.01808 -0.13081,-0.03668 -0.199016,-0.04863 z"
       style="fill:#fce94f;fill-rule:evenodd;stroke:#231f0b;stroke-width:2;stroke-linecap:round;stroke-linejoin:round;stroke-dasharray:none;stroke-opacity:1"
       id="path33" />
  </g>
</svg>
