<?xml version="1.0" encoding="UTF-8" standalone="no"?>
<!-- Created with Inkscape (http://www.inkscape.org/) -->

<svg
   xmlns:dc="http://purl.org/dc/elements/1.1/"
   xmlns:cc="http://creativecommons.org/ns#"
   xmlns:rdf="http://www.w3.org/1999/02/22-rdf-syntax-ns#"
   xmlns:svg="http://www.w3.org/2000/svg"
   xmlns="http://www.w3.org/2000/svg"
   xmlns:sodipodi="http://sodipodi.sourceforge.net/DTD/sodipodi-0.dtd"
   xmlns:inkscape="http://www.inkscape.org/namespaces/inkscape"
   version="1.1"
   id="svg3767"
   width="217.60001"
   height="208.32001"
   viewBox="0 0 217.60001 208.32001"
   sodipodi:docname="maxresdefault.svg"
   inkscape:version="0.92.4 (5da689c313, 2019-01-14)">
  <metadata
     id="metadata3773">
    <rdf:RDF>
      <cc:Work
         rdf:about="">
        <dc:format>image/svg+xml</dc:format>
        <dc:type
           rdf:resource="http://purl.org/dc/dcmitype/StillImage" />
      </cc:Work>
    </rdf:RDF>
  </metadata>
  <defs
     id="defs3771" />
  <sodipodi:namedview
     pagecolor="#ffffff"
     bordercolor="#666666"
     borderopacity="1"
     objecttolerance="10"
     gridtolerance="10"
     guidetolerance="10"
     inkscape:pageopacity="0"
     inkscape:pageshadow="2"
     inkscape:window-width="1366"
     inkscape:window-height="752"
     id="namedview3769"
     showgrid="false"
     inkscape:zoom="1.8499097"
     inkscape:cx="35.842581"
     inkscape:cy="129.27676"
     inkscape:window-x="1366"
     inkscape:window-y="0"
     inkscape:window-maximized="1"
     inkscape:current-layer="svg3767"
     inkscape:snap-object-midpoints="false"
     inkscape:object-paths="true"
     inkscape:snap-nodes="false"
     inkscape:snap-global="false" />
  <path
     inkscape:connector-curvature="0"
     id="path3793"
     d="M 0.91426851,103.64503 V -0.51497153 H 109.71427 h 108.8 V 103.64503 207.80504 h -108.8 H 0.91426851 Z"
     style="display:inline;fill:#fefefe;stroke-width:0.32000002" />
  <path
     inkscape:connector-curvature="0"
     id="path3791"
     d="m 75.954271,207.40799 c -0.88,-0.1699 -1.94758,-0.47408 -2.3724,-0.67594 -1.65568,-0.78671 -3.776435,-3.08027 -4.835369,-5.22935 -0.999284,-2.02803 -1.073287,-2.39754 -1.076996,-5.37766 -0.0032,-2.57433 0.137101,-3.55673 0.717594,-5.02452 1.00616,-2.54412 3.137443,-4.8037 5.740151,-6.0857 1.989404,-0.97991 2.350035,-1.04978 5.41807,-1.04978 3.348468,0 3.887501,-0.22488 2.767354,-1.15452 -0.28688,-0.23809 -1.860573,-2.31872 -3.497098,-4.62361 -3.966858,-5.58696 -6.796471,-7.9134 -11.341306,-9.32453 -1.294682,-0.40199 -5.007146,-1.13264 -10.4,-2.04684 -3.442765,-0.58361 -8.805351,-3.57507 -11.666628,-6.5081 -0.784643,-0.80432 -1.526317,-1.4624 -1.64816,-1.4624 -0.121843,0 -0.274119,1.26 -0.338384,2.8 -0.0916,2.19481 -0.301203,3.19564 -0.969792,4.63051 -2.180052,4.67865 -7.798778,7.56079 -12.980558,6.65843 -4.895625,-0.85254 -8.480859,-3.9513 -9.969418,-8.61669 -0.607561,-1.9042 -0.43115,-5.73051 0.369699,-8.01864 0.923741,-2.63925 3.37734,-5.37963 5.946287,-6.64128 1.67293,-0.8216 2.10865,-0.89166 5.496952,-0.88386 3.145492,0.007 3.912397,0.11495 5.280001,0.74155 0.88,0.40319 1.923433,1.03595 2.318739,1.40612 0.906963,0.84931 1.151258,0.63312 0.563898,-0.49902 -1.074212,-2.07054 -1.450468,-8.52889 -0.814292,-13.97712 0.362058,-3.10069 -0.04846,-6.65571 -1.133805,-9.81857 -1.039587,-3.02952 -2.29383,-4.8159 -7.417493,-10.56448 -1.425959,-1.59989 -4.542956,-7.02881 -4.556971,-7.93695 -0.0054,-0.352 -0.143404,-0.85112 -0.306604,-1.10916 -0.237554,-0.3756 -0.364204,-0.29168 -0.6351,0.42083 -0.186105,0.48949 -0.338373,1.07501 -0.338373,1.30114 0,1.2366 -3.523573,4.96141 -5.850696,6.18485 -1.552315,0.8161 -1.938422,0.87736 -5.509304,0.87418 -3.3832574,-0.003 -4.0219374,-0.0931 -5.3696127,-0.75739 -2.0976577,-1.03397 -4.4664187,-3.23635 -5.2645034,-4.89471 -1.30425735,-2.71016 -1.74078185,-6.57613 -1.0458844,-9.26262 0.176,-0.68042 0.477181,-1.837827 0.6692911,-2.572016 0.4383885,-1.675398 3.2926797,-4.602835 5.5707092,-5.713472 1.4228692,-0.693709 2.0251143,-0.780445 5.4400002,-0.783485 3.593849,-0.0032 3.94986,0.05428 5.553845,0.896755 1.980971,1.040477 4.198526,3.198336 4.980677,4.846599 0.298405,0.628842 0.657232,1.072474 0.797393,0.98585 0.14016,-0.08662 0.342537,-0.996564 0.449725,-2.022087 0.293054,-2.803782 1.571035,-6.201664 3.473716,-9.235879 1.845581,-2.943155 5.424133,-7.049859 6.771585,-7.770995 1.040263,-0.556733 3.773165,-4.669233 4.828033,-7.265278 1.122787,-2.763196 1.439404,-5.228739 1.538176,-11.977987 l 0.08685,-5.934868 -1.44,1.398224 c -0.792,0.769021 -2.16,1.782647 -3.04,2.2525 -1.477399,0.788816 -1.894244,0.854457 -5.440001,0.856643 -3.569211,0.0022 -3.960955,-0.06 -5.555241,-0.882128 -2.195779,-1.132291 -3.035464,-1.802477 -4.385006,-3.49984 -1.699785,-2.137876 -2.466473,-4.841178 -2.323119,-8.191201 0.1483,-3.465616 1.211017,-6.010602 3.407018,-8.159088 7.383128,-7.223393 20.068483,-2.83873 20.785642,7.184506 0.08619,1.204566 0.25824,2.190118 0.382339,2.190118 0.124102,0 0.405955,-0.396 0.626342,-0.88 0.804167,-1.766061 3.688068,-5.289142 5.590807,-6.829942 2.11712,-1.714401 5.808087,-3.747604 8.35122,-4.600346 0.88,-0.295076 3.976,-0.747728 6.88,-1.005898 5.935488,-0.527674 7.775255,-0.960288 11.008839,-2.588698 2.249117,-1.132636 5.956215,-4.510201 8.437879,-7.687817 l 1.046713,-1.340255 -1.206713,0.537007 c -0.887194,0.394814 -2.138768,0.539181 -4.726717,0.545218 -3.331303,0.0078 -3.634388,-0.04768 -5.653802,-1.034372 -2.613866,-1.277145 -4.752551,-3.546394 -5.739956,-6.090376 -1.012803,-2.60942 -1.017846,-7.1731298 -0.01075,-9.7290455 2.006739,-5.0929201 7.434521,-7.8517072 13.644506,-6.93511308 5.116752,0.75523315 8.278285,3.62273148 9.642631,8.74583418 0.629248,2.3628324 0.533888,4.5939704 -0.306544,7.1719144 -0.780058,2.392765 -0.735588,2.722503 0.21711,1.609832 0.601062,-0.701989 4.02377,-2.38685 6.766803,-3.331025 2.149131,-0.739748 8.378971,-1.004267 11.561351,-0.490894 3.27243,0.5279 6.2317,1.9516 12.0172,5.781451 5.80565,3.843193 7.52954,4.485975 12.58145,4.691203 2.51377,0.102118 3.38278,0.04696 3.04,-0.192942 -0.264,-0.184765 -0.768,-0.339548 -1.12,-0.343963 -1.0765,-0.0135 -3.75825,-1.442641 -5.3332,-2.842135 -1.6091,-1.429837 -2.62439,-3.221736 -3.33247,-5.881537 -1.22598,-4.605202 0.40776,-9.7849885 3.99171,-12.6557849 2.34151,-1.87557805 3.25163,-2.11473112 8.03396,-2.11109675 3.86333,0.002933996 4.46713,0.0799737 5.71181,0.72876362 2.19159,1.14236613 4.02771,3.05294713 5.19,5.40049633 1.00798,2.0358542 1.06908,2.3519281 1.06697,5.5195197 -0.002,3.116845 -0.0759,3.512994 -1.01996,5.474136 -0.9532,1.980074 -2.64193,3.88846 -4.51538,5.10269 -0.71524,0.463569 -0.55898,0.487747 2.33441,0.361201 8.63476,-0.377655 16.0404,3.531556 21.2754,11.230639 1.49891,2.204436 1.85546,3.179162 4.59128,12.551335 0.20551,0.704 0.59513,1.784 0.86582,2.4 0.49072,1.116692 0.49266,1.110071 0.65591,-2.24 0.14007,-2.874307 0.2999,-3.637539 1.10571,-5.28 3.53822,-7.211876 13.25028,-8.989098 19.28408,-3.528819 2.64686,2.395267 3.7152,4.76288 3.87892,8.596278 0.0991,2.319485 -0.006,3.181847 -0.58737,4.800001 -1.85139,5.157203 -6.198,8.077782 -11.66547,7.838272 -1.32749,-0.05815 -2.41329,-0.0016 -2.41288,0.125363 3.2e-4,0.127104 0.8762,0.665456 1.94621,1.19634 3.99112,1.980201 7.11033,4.687561 9.39149,8.151456 3.40927,5.176928 4.49193,9.365188 4.01734,15.541111 -0.15553,2.024 -0.42192,4.184 -0.59199,4.8 -0.62241,2.254522 -0.9824,3.270452 -1.29035,3.641501 -0.17321,0.208711 -0.47143,0.791082 -0.6627,1.294164 -0.34558,0.908944 -0.34318,0.911392 0.38149,0.389827 2.29918,-1.654778 3.92638,-2.220365 6.82834,-2.373421 4.54221,-0.239565 7.74457,0.974189 10.3253,3.913472 1.3842,1.576512 1.80659,2.531488 2.28736,5.171374 0.40094,2.2016 0.33706,4.06604 -0.24773,7.22976 -0.48283,2.61209 -3.00274,5.51575 -6.11983,7.0518 -1.27372,0.62767 -1.96368,0.7213 -5.30418,0.71981 -3.32523,-0.002 -4.01159,-0.0944 -5.12,-0.69327 -2.00465,-1.08308 -4.73097,-3.57007 -5.50554,-5.02225 -1.58029,-2.96276 -0.51517,1.43536 1.65581,6.83724 2.2817,5.67736 2.66449,11.41902 1.12755,16.91272 -1.47584,5.27532 -5.20323,10.50882 -9.57377,13.44217 l -1.73594,1.16511 2.24681,0.17698 c 4.44653,0.35027 8.47754,3.48542 9.98291,7.7643 1.06312,3.02179 0.88422,7.19882 -0.4241,9.90247 -1.02232,2.11262 -3.55038,4.59755 -5.71024,5.61281 -6.13237,2.88255 -13.74794,0.27847 -16.47558,-5.63368 -0.67453,-1.46203 -0.86663,-2.43438 -0.97044,-4.91199 -0.14242,-3.39919 0.3173,-5.3992 1.7142,-7.45765 1.32279,-1.94923 0.14396,-1.24305 -2.49782,1.49634 -2.47107,2.56237 -4.19753,5.31593 -4.97228,7.93042 -0.74997,2.53082 -2.9802,7.87266 -3.96645,9.50041 -2.74204,4.5256 -5.6117,7.20268 -10.01512,9.34304 -3.47635,1.68973 -5.57436,2.32506 -8.45021,2.55894 l -2.42979,0.19761 1.16907,0.72699 c 1.69564,1.05442 3.42111,3.09044 4.36703,5.153 0.72029,1.57057 0.82567,2.2283 0.8267,5.16001 9.6e-4,3.12541 -0.0704,3.50898 -1.02465,5.4938 -1.01926,2.12011 -3.21463,4.48668 -4.88575,5.26675 -2.87848,1.34365 -9.29184,1.35765 -12.1324,0.0265 -5.03138,-2.35785 -7.60494,-8.93089 -5.73134,-14.63817 1.41702,-4.31644 3.71203,-6.44822 8.77134,-8.14747 0.45529,-0.15291 -0.23734,-0.45159 -2.4,-1.03492 -2.41795,-0.65219 -3.77542,-0.81943 -6.63403,-0.81735 -1.97671,0.001 -3.77671,0.14742 -4,0.32441 -0.22329,0.17699 -1.19797,0.57218 -2.16597,0.87819 -0.968,0.30601 -2.29692,0.90107 -2.95314,1.32234 -0.65623,0.42128 -1.26378,0.76596 -1.35011,0.76596 -0.0863,0 -1.25989,0.72 -2.60792,1.6 -1.34802,0.88 -2.59858,1.6 -2.77901,1.6 -0.18044,0 -1.1067,0.36835 -2.05837,0.81856 -1.85425,0.8772 -6.23852,1.72673 -8.95838,1.73585 -2.755048,0.009 -6.5207,-0.67786 -8.813071,-1.60806 -2.209133,-0.89643 -2.501859,-0.89841 -1.707485,-0.0115 0.789082,0.88094 1.787485,4.41439 1.787485,6.32607 0,3.841 -2.091862,8.0725 -5.00169,10.11761 -2.26344,1.5908 -7.099344,2.20815 -11.158311,1.42446 z"
     style="fill:#fcd2a3;stroke-width:0.32000002" />
  <path
     inkscape:connector-curvature="0"
     id="path3789"
     d="m 75.953433,207.38082 c -3.060589,-0.71844 -5.745328,-3.07976 -7.355363,-6.4693 -1.221255,-2.57106 -1.308644,-6.69006 -0.201668,-9.50541 1.007972,-2.56356 3.397962,-5.08514 6.059716,-6.39336 2.045085,-1.00513 2.282749,-1.0471 5.84711,-1.03275 l 3.715377,0.015 -1.792167,-2.25626 c -0.98569,-1.24095 -2.780867,-3.65156 -3.98928,-5.35692 -2.369831,-3.34439 -4.593933,-5.33385 -7.743895,-6.92691 -2.173894,-1.09942 -4.178912,-1.62377 -10.698992,-2.79802 -3.559031,-0.64097 -5.236397,-1.11797 -7.200001,-2.04748 -2.67784,-1.26762 -6.007376,-3.76491 -7.866531,-5.90022 l -1.093469,-1.25589 -0.164995,3.33589 c -0.204282,4.13025 -1.071827,6.23616 -3.5724,8.6718 -4.851479,4.72548 -11.711721,4.80636 -16.754528,0.19751 -2.88376,-2.63559 -3.978383,-5.0974 -3.984614,-8.96142 -0.0059,-3.67371 1.546725,-6.92166 4.484545,-9.38112 2.482033,-2.07789 3.852588,-2.52983 7.671991,-2.52983 3.802445,0 5.417319,0.52794 7.767044,2.53922 0.716957,0.61369 1.363261,1.05609 1.436227,0.98313 0.07297,-0.073 -0.203917,-1.11609 -0.615299,-2.31804 -0.66512,-1.94329 -0.746352,-2.7525 -0.733357,-7.30536 0.008,-2.816 0.05604,-6.6561 0.106669,-8.53355 0.16679,-6.18513 -1.248563,-9.70398 -6.294541,-15.64946 -1.708708,-2.01331 -3.503259,-4.19082 -3.987891,-4.83893 -0.842278,-1.12639 -2.796896,-5.02763 -2.800636,-5.58982 -0.005,-0.75824 -0.707361,-2.66328 -0.930915,-2.52512 -0.141951,0.0877 -0.491697,0.99142 -0.777214,2.0082 -0.795193,2.83182 -3.293282,5.6908 -6.450087,7.38192 -1.458716,0.78144 -1.910826,0.85683 -5.12,0.85374 -4.0805637,-0.004 -5.4561474,-0.49676 -8.1521219,-2.92067 -1.9530049,-1.75593 -2.7775132,-3.06814 -3.3791347,-5.37792 -1.25916002,-4.83424 -0.027698,-9.632505 3.238215,-12.617366 2.7868014,-2.54698 4.1619205,-3.054049 8.2930416,-3.058023 3.237,-0.0032 3.657319,0.06855 5.228001,0.891379 2.171413,1.13753 4.209179,3.173293 5.544111,5.538663 l 1.046491,1.854277 0.524676,-3.188668 c 1.027614,-6.245235 3.614497,-10.821654 9.076059,-16.05633 3.547917,-3.400528 5.080256,-5.643763 6.362535,-9.314295 0.93864,-2.686873 0.977645,-3.024841 1.188496,-10.298045 0.119904,-4.136 0.322377,-7.808 0.449942,-8.16 0.145184,-0.400608 -0.04352,-0.280912 -0.50448,0.32 -1.294397,1.687376 -3.587664,3.688211 -5.23583,4.568166 -1.437437,0.767443 -1.941386,0.85513 -4.960001,0.863034 -3.66711,0.0096 -4.578476,-0.236743 -7.2,-1.946189 -4.779852,-3.116855 -6.632128,-9.736954 -4.207702,-15.038478 1.015752,-2.221155 3.47327,-4.817001 5.589413,-5.904025 4.698825,-2.413703 10.401035,-1.510237 14.153823,2.24255 2.272192,2.272192 3.250259,4.560003 3.49208,8.168388 l 0.193446,2.886553 0.504451,-1.12 c 0.917162,-2.036313 4.341428,-6.295626 6.404241,-7.965981 2.404253,-1.946838 6.391568,-3.988032 9.07025,-4.643251 1.056,-0.258304 3.876697,-0.624708 6.268218,-0.814231 7.821024,-0.619798 11.272285,-2.013833 15.451261,-6.241083 2.745456,-2.777173 5.960522,-6.381919 5.960522,-6.682967 0,-0.09838 -0.972,0.281572 -2.16,0.844325 -1.98464,0.94012 -2.419792,1.022855 -5.36,1.019101 -2.953418,-0.0038 -3.364097,-0.08405 -5.329546,-1.041812 C 70.072678,20.458891 67.709244,16.637789 67.689381,11.64503 67.675841,8.2418224 68.50055,5.9523638 70.568518,3.6522856 72.544726,1.4542648 74.368559,0.45254685 77.329977,-0.06136716 84.343145,-1.2784077 89.886541,2.188442 91.676903,8.9112276 c 0.236374,0.8875908 0.431481,2.1676394 0.433571,2.8445514 0.0042,1.34734 -0.771351,4.329166 -1.495693,5.750944 -0.746778,1.465809 -0.343674,1.605926 1.187706,0.412841 0.790281,-0.615705 2.947734,-1.72699 4.794333,-2.469521 3.188333,-1.282053 3.55894,-1.357253 7.35744,-1.4929 6.75159,-0.241104 10.05369,0.76452 16.23334,4.943722 5.46003,3.692522 6.95025,4.483387 9.84129,5.222791 3.40158,0.869976 10.08538,0.876363 10.08538,0.0096 0,-0.1304 -0.88763,-0.329867 -1.97252,-0.44326 -6.0033,-0.627469 -10.80574,-6.05484 -10.82369,-12.232155 -0.005,-1.7245116 1.10784,-5.0528215 2.23932,-6.6973691 1.08817,-1.5816055 3.35978,-3.4969035 5.0242,-4.23613733 0.92844,-0.41235809 2.15025,-0.53760513 5.21269,-0.53435083 3.54635,0.003769 4.15939,0.0876158 5.40545,0.73931993 2.22847,1.16552123 4.32395,3.34734553 5.49427,5.72069023 0.97855,1.9844244 1.06249,2.395619 1.06045,5.1949981 -0.002,2.757197 -0.0972,3.238106 -1.02301,5.169546 -1.1781,2.457726 -3.51171,4.782911 -6.17613,6.153844 -1.25854,0.647558 -1.46305,0.83309 -0.76103,0.690405 0.528,-0.107316 2.61963,-0.280755 4.64807,-0.385421 3.12469,-0.161231 4.10235,-0.08644 6.4,0.489617 4.89706,1.227763 9.04695,3.795395 12.30423,7.612904 2.62434,3.075707 3.71345,5.208008 5.12253,10.029106 1.8258,6.246868 2.72436,8.683504 3.75414,10.180253 0.524,0.761597 1.03136,1.306084 1.12747,1.209968 0.0961,-0.09611 0.0362,-0.358233 -0.1332,-0.582486 -0.75228,-0.996003 -1.12565,-3.152787 -1.01705,-5.87498 0.0943,-2.362934 0.27508,-3.182419 1.05304,-4.772755 2.76116,-5.644394 9.023,-8.275495 14.95281,-6.282871 2.91309,0.978903 5.86757,3.660727 7.16414,6.503009 1.28578,2.818617 1.46024,6.228419 0.46059,9.001798 -2.25887,6.266858 -8.11633,9.347188 -14.78851,7.776999 -2.25262,-0.530118 -2.09715,-0.174787 0.49505,1.131498 8.45163,4.259021 13.28139,10.161933 14.79738,18.085265 0.87772,4.587437 -0.14512,11.599821 -2.31865,15.896122 -0.43179,0.853501 -0.72596,1.610928 -0.65372,1.683168 0.0722,0.07224 0.76592,-0.35296 1.54151,-0.944896 2.50895,-1.914842 4.03747,-2.51513 6.85129,-2.690678 4.06271,-0.253463 6.6215,0.661459 9.53903,3.410784 1.65757,1.562006 2.43954,2.90369 2.95898,5.076979 0.72755,3.04398 0.52914,6.04105 -0.60752,9.17667 -0.50057,1.38088 -3.9612,4.73816 -5.81161,5.63805 -1.4006,0.68113 -2.03868,0.77759 -5.12,0.77394 -2.99329,-0.004 -3.71153,-0.10758 -4.8,-0.69526 -1.76,-0.95026 -5.01169,-3.76901 -5.56958,-4.82802 -0.70697,-1.342 -1.6293,-3.98956 -1.64015,-4.70804 -0.009,-0.61056 -0.0277,-0.61358 -0.35111,-0.0573 -0.61846,1.06377 0.90235,7.15827 3.07318,12.31548 1.92002,4.56135 2.24522,10.91502 0.81797,15.98116 -1.49962,5.32303 -5.85242,11.08288 -10.23835,13.54791 -0.71058,0.39937 -1.29196,0.82836 -1.29196,0.95332 0,0.12495 1.116,0.27844 2.48,0.34107 3.24664,0.14909 5.52064,1.26778 8.02327,3.94702 2.49296,2.66889 3.3973,5.19551 3.18524,8.89921 -0.19738,3.4475 -1.24761,5.68239 -3.76588,8.01387 -2.14965,1.99019 -3.9435,2.90984 -6.62407,3.39592 -4.93161,0.89427 -10.63599,-2.19596 -12.82315,-6.94668 -0.66145,-1.43672 -0.87229,-2.46109 -0.97057,-4.71545 -0.14669,-3.36489 0.4922,-5.52114 2.36114,-7.96882 1.45569,-1.90646 0.79732,-1.92643 -1.67428,-0.0508 -3.62621,2.75187 -5.2699,5.19352 -7.44519,11.0596 -2.75468,7.42854 -3.97747,9.67462 -7.00359,12.86454 -3.46003,3.64732 -9.48771,6.57627 -14.12738,6.86475 -4.16765,0.25912 -4.20316,0.28853 -1.98732,1.6453 2.20948,1.35289 3.62027,2.97395 4.79128,5.50541 0.69483,1.50204 0.81278,2.20556 0.80477,4.8 -0.008,2.55593 -0.13871,3.32662 -0.82154,4.84001 -0.92609,2.05256 -2.65184,4.09245 -4.54443,5.37169 -2.35862,1.59423 -7.73657,2.05913 -11.44186,0.98909 -1.50085,-0.43342 -4.52955,-2.88578 -5.53914,-4.48507 -1.11438,-1.76528 -2.0773,-4.84915 -2.0773,-6.65278 0,-3.31832 1.91866,-7.29013 4.5719,-9.46427 1.31402,-1.07674 4.01338,-2.43867 4.83347,-2.43867 0.21577,0 0.65076,-0.18899 0.96665,-0.41997 0.50276,-0.36763 0.10157,-0.53714 -3.21884,-1.36 -7.49295,-1.85691 -11.63691,-1.06876 -19.2964,3.67004 -5.71772,3.53746 -10.19067,4.74796 -16.169379,4.37589 -2.411168,-0.15006 -3.960259,-0.46152 -6.328925,-1.27251 -3.018394,-1.03344 -3.128551,-1.04824 -2.929552,-0.39363 0.113728,0.3741 0.393376,0.89618 0.621443,1.16018 0.706781,0.81814 1.749635,4.38299 1.749635,5.98088 0,4.64372 -3.698045,10.14104 -7.608083,11.30977 -1.741872,0.52066 -6.701789,0.63962 -8.552756,0.20513 z"
     style="fill:#ffbf00;stroke-width:0.32000002;fill-opacity:1" />
  <path
     inkscape:connector-curvature="0"
     id="path3787"
     d="m 75.953433,207.38082 c -3.060589,-0.71844 -5.745328,-3.07976 -7.355363,-6.4693 -1.221255,-2.57106 -1.308644,-6.69006 -0.201668,-9.50541 1.00834,-2.5645 3.397984,-5.08528 6.060762,-6.39336 2.072256,-1.01798 2.244467,-1.04695 6.068794,-1.02074 l 3.936019,0.027 1.35826,1.33303 c 0.747043,0.73316 1.526035,1.33303 1.731091,1.33303 0.976106,0 1.949635,0.77346 2.134038,1.69546 0.108077,0.5404 0.398429,1.20799 0.645223,1.48354 0.729619,0.81463 1.783683,4.36143 1.783683,6.00188 0,4.64372 -3.698045,10.14104 -7.608083,11.30977 -1.741872,0.52066 -6.701789,0.63962 -8.552756,0.20513 z m 60.800837,0.20281 c -2.42381,-0.55735 -3.1979,-0.915 -4.79339,-2.21468 -2.09292,-1.70488 -3.09114,-3.16635 -3.99473,-5.84863 -0.83035,-2.46485 -0.82548,-4.52078 0.0168,-7.08644 1.21515,-3.70153 3.91401,-6.61687 7.20052,-7.7781 0.86395,-0.30526 1.97956,-0.76617 2.47914,-1.02425 0.49959,-0.25808 1.03859,-0.38874 1.19779,-0.29035 0.62337,0.38527 3.5895,1.01894 4.12006,0.88019 0.91075,-0.23816 4.94549,2.38916 6.20472,4.04037 2.01599,2.64354 2.5555,4.27375 2.5494,7.7033 -0.006,3.6069 -0.79545,5.75265 -2.99133,8.13491 -1.75624,1.90529 -3.26474,2.81794 -5.42897,3.28455 -1.74051,0.37525 -5.32139,0.48395 -6.56,0.19913 z M 29.074269,172.81184 c -2.475623,-0.56019 -3.955872,-1.34738 -5.934968,-3.15616 -2.880556,-2.63266 -3.97534,-5.09596 -3.981568,-8.95864 -0.0059,-3.67371 1.546725,-6.92166 4.484545,-9.38112 2.482033,-2.07789 3.852588,-2.52983 7.671991,-2.52983 3.686884,0 5.480993,0.55248 7.49603,2.30835 0.549504,0.47883 1.342384,1.09532 1.761955,1.36999 0.549814,0.35993 0.754902,0.7792 0.734371,1.50133 -0.02333,0.82062 0.174941,1.12197 1.095581,1.66516 l 1.124067,0.66322 -0.106003,3.91545 c -0.09382,3.46554 -0.20608,4.12905 -0.976986,5.77443 -2.303981,4.91748 -8.29336,7.97637 -13.369015,6.82782 z m 156.640001,-0.007 c -2.70226,-0.68341 -4.55842,-1.68766 -6.25485,-3.38409 -2.33551,-2.33551 -3.28397,-4.58945 -3.44031,-8.17563 -0.14638,-3.35781 0.49215,-5.52107 2.34648,-7.94961 0.60977,-0.7986 1.10868,-1.58534 1.10868,-1.74832 0,-0.16297 0.9,-0.6218 2,-1.01962 1.1,-0.39782 2.576,-1.04317 3.28,-1.43411 1.1486,-0.63783 1.56206,-0.68959 4.02765,-0.50421 3.55146,0.26703 5.73164,1.32832 8.23562,4.00901 2.49894,2.67528 3.40019,5.19931 3.17763,8.8992 -0.1878,3.12197 -0.9912,5.1073 -2.90845,7.18727 -3.24717,3.52277 -7.68583,5.10305 -11.57245,4.12011 z m -70.97772,-25.2397 c -0.32846,-0.86985 3.95263,-7.60269 4.82964,-7.59552 0.80902,0.007 6.2899,4.85612 6.40787,5.66972 0.12478,0.86052 -0.88614,1.1742 -5.9508,1.84648 -4.39128,0.58289 -5.09258,0.59341 -5.28671,0.0793 z m -4.54228,-8.45392 c -3.70196,-0.45514 -9.26969,-2.24169 -13.253639,-4.25278 -7.130308,-3.59936 -14.003124,-11.58912 -17.077876,-19.8533 -3.377296,-9.07735 -2.809866,-19.590006 1.532304,-28.38856 5.392979,-10.927812 14.496621,-17.858648 26.647311,-20.287278 4.58291,-0.916013 10.56764,-0.726138 15.14823,0.480608 14.10931,3.717066 24.62344,14.93818 27.3183,29.155224 0.56517,2.981609 0.64437,10.038356 0.14389,12.821226 -0.87972,4.89157 -3.07018,10.28959 -5.70156,14.05048 -6.29504,8.99716 -15.30478,14.63549 -25.81369,16.1543 -2.12271,0.30678 -6.90262,0.37096 -8.94327,0.12008 z m 10.13185,-4.07554 c 9.499,-1.81819 17.72599,-7.64387 22.74253,-16.10442 2.84591,-4.79971 4.17205,-10.05707 4.1787,-16.56613 0.004,-3.599686 -0.13751,-5.04591 -0.71854,-7.359996 -1.5305,-6.095562 -4.3101,-11.180369 -8.45931,-15.474926 -6.25407,-6.473133 -14.5651,-9.971581 -23.66339,-9.960871 -14.722404,0.01734 -27.783291,9.715361 -31.670027,23.515796 -1.323082,4.697793 -1.691431,8.550427 -1.202739,12.579667 0.998441,8.23211 3.946797,14.49966 9.406701,19.99657 4.634403,4.66581 10.174295,7.71671 16.685575,9.189 3.19065,0.72145 9.42427,0.81241 12.7005,0.18531 z m -13.57316,-19.39764 c -3.4682,-0.87635 -6.47732,-3.38974 -8.037091,-6.713 -0.869606,-1.8528 -0.977629,-2.4128 -0.988918,-5.12673 -0.01168,-2.80567 0.06985,-3.21436 1.030313,-5.16535 1.326366,-2.69423 3.116746,-4.480781 5.797746,-5.785344 1.92863,-0.938458 2.3927,-1.031728 5.15926,-1.036899 2.75361,-0.0052 3.24072,0.08942 5.17076,1.00382 2.64688,1.254036 4.55023,3.167959 5.83806,5.870497 0.89608,1.880436 0.99029,2.371676 0.98193,5.120006 -0.008,2.71701 -0.11357,3.26099 -0.99117,5.12 -1.9904,4.21623 -5.65984,6.6787 -10.27983,6.89855 -1.36386,0.0649 -3.02034,-0.0186 -3.68106,-0.18555 z m 32.72369,-12.95013 c -0.35693,-0.43008 -0.95171,-2.932301 -1.96535,-8.26822 -0.54582,-2.873268 -0.23153,-2.949639 3.66237,-0.889959 1.79333,0.948586 3.4406,1.866218 3.6606,2.039184 0.71805,0.564538 0.42287,1.719347 -0.80543,3.151066 -0.66298,0.772778 -1.75262,2.089049 -2.42142,2.925049 -1.32376,1.6547 -1.53656,1.75886 -2.13077,1.04288 z M 9.7142689,115.68735 c -2.5654699,-0.67411 -5.8063465,-3.06734 -7.1937657,-5.31223 -2.00002212,-3.2361 -2.10535852,-8.71388 -0.2420383,-12.586646 0.8097307,-1.682964 3.4838873,-4.18337 5.5695095,-5.207639 1.3409674,-0.65856 2.0137032,-0.759846 5.0662946,-0.762784 3.237,-0.0032 3.657319,0.06855 5.228001,0.891379 3.447215,1.805879 6.751461,6.237524 6.79449,9.11275 0.01237,0.82657 0.132133,1.78302 0.26614,2.12544 0.334362,0.85437 -1.068377,5.16068 -2.137729,6.56267 -1.523837,1.99786 -3.218333,3.4973 -4.939974,4.37133 -1.388738,0.70503 -2.20562,0.87627 -4.570928,0.95821 -1.584,0.0549 -3.312,-0.0137 -3.8400001,-0.15248 z m 193.6000011,-0.002 c -1.49682,-0.39565 -2.72063,-1.13696 -4.79616,-2.90524 -2.08988,-1.78051 -2.73678,-2.77852 -3.53624,-5.45558 -0.28909,-0.968 -0.66153,-2.10169 -0.82765,-2.51931 -0.22017,-0.55346 -0.16893,-0.96247 0.189,-1.50874 0.27008,-0.41219 0.49105,-1.24881 0.49105,-1.85915 0,-0.61035 0.40605,-2.12037 0.90233,-3.355602 0.96693,-2.406659 2.07595,-3.458368 5.64523,-5.35352 3.05172,-1.620346 8.70603,-1.327626 11.52537,0.596656 1.47732,1.008314 3.33428,2.841974 4.05775,4.006835 1.36589,2.19921 1.90609,6.565731 1.1862,9.588241 -0.64671,2.71524 -1.01628,3.38077 -2.98215,5.37032 -2.66536,2.6975 -4.29145,3.42122 -7.97189,3.54809 -1.60756,0.0554 -3.35484,-0.0134 -3.88284,-0.153 z M 28.594269,58.80995 c -4.046977,-1.016915 -7.465627,-4.117974 -8.82356,-8.003863 -0.943292,-2.69934 -0.760229,-6.295286 0.455858,-8.954522 1.015752,-2.221155 3.47327,-4.817001 5.589413,-5.904025 2.086214,-1.071652 5.108275,-1.612433 7.151989,-1.279809 4.105926,0.668257 7.828829,3.405428 9.450928,6.948554 1.041747,2.275479 1.545799,7.648324 0.872839,9.303914 -0.983124,2.41865 -4.220983,5.783937 -6.857466,7.127345 -1.119898,0.57064 -2.080208,0.754806 -4.320001,0.828486 -1.584,0.05211 -3.168,0.02237 -3.52,-0.06608 z M 184.095,58.402161 c -2.38415,-0.58648 -2.66043,-0.736768 -5.02612,-2.734099 -0.94236,-0.795626 -1.56581,-1.617773 -1.69865,-2.24 -0.11542,-0.540666 -0.3113,-1.12703 -0.43527,-1.30303 -0.68113,-0.966957 -1.03851,-3.180177 -0.9345,-5.787246 0.0943,-2.362934 0.27508,-3.182419 1.05304,-4.772755 2.76116,-5.644394 9.023,-8.275495 14.95281,-6.282871 2.91309,0.978903 5.86757,3.660727 7.16414,6.503009 1.8598,4.076966 1.32449,8.891146 -1.3882,12.484333 -3.12541,4.139879 -7.85396,5.567591 -13.68725,4.132659 z M 84.434272,24.964213 c 0,-0.06645 0.252,-0.31845 0.56,-0.56 0.507539,-0.398039 0.518857,-0.386721 0.120819,0.120817 -0.418038,0.53304 -0.680819,0.702554 -0.680819,0.439183 z M 138.19427,23.75068 c -5.28123,-0.749925 -9.04108,-4.10654 -10.42567,-9.307548 -0.62002,-2.329023 -0.56495,-3.955462 0.21433,-6.3292622 0.82128,-2.5017512 2.02728,-4.2987119 3.93309,-5.8603784 2.43973,-1.99917131 3.3763,-2.26825366 7.87825,-2.26346966 3.54635,0.003769 4.15939,0.0876158 5.40545,0.73931993 2.22847,1.16552123 4.32395,3.34734553 5.49427,5.72069023 0.97855,1.9844244 1.06249,2.395619 1.06045,5.1949981 -0.002,2.757197 -0.0972,3.238106 -1.02301,5.169546 -1.24754,2.602585 -3.6262,4.88422 -6.57413,6.305982 -2.19324,1.057782 -2.62787,1.103709 -5.96303,0.630122 z M 76.844329,23.515112 C 73.210959,22.579781 69.693682,19.530951 68.40983,16.203961 67.411877,13.617856 67.404764,9.6236484 68.39361,7.1005065 69.234109,4.9559048 71.449325,2.3679205 73.446221,1.1976607 74.25753,0.72220277 75.918403,0.18364873 77.328605,-0.06123797 84.341799,-1.279105 89.886455,2.1881546 91.676894,8.9112276 c 0.628867,2.3613914 0.537181,3.9612264 -0.378922,6.6119144 -0.448957,1.299039 -0.894729,2.670111 -0.990601,3.046827 -0.287863,1.131123 -2.368189,2.815888 -4.858954,3.935057 -1.899828,0.853644 -2.84288,1.075078 -4.960001,1.164637 -1.437785,0.06082 -3.077628,-0.0087 -3.644096,-0.154551 z"
     style="fill:#a3a3a3;stroke-width:0.32000002" />
  <path
     inkscape:connector-curvature="0"
     id="path3785"
     d="m 75.971068,207.29509 c -3.112864,-0.99543 -5.540035,-3.19876 -7.06872,-6.41681 -1.20209,-2.53052 -1.285933,-6.67496 -0.191338,-9.45776 1.000557,-2.54373 3.13104,-4.8028 5.73929,-6.0857 2.075015,-1.02061 2.248167,-1.04978 6.232224,-1.04978 h 4.097908 l 1.171862,1.2 c 0.644525,0.66 1.351866,1.2 1.571863,1.2 0.22,0 0.767286,0.16735 1.216189,0.37188 0.622339,0.28356 0.800092,0.58309 0.748425,1.26118 -0.03727,0.48911 0.165853,1.14976 0.451386,1.46811 0.796582,0.88816 1.854115,4.37648 1.854115,6.11589 0,1.96107 -1.057389,5.22407 -2.258694,6.97011 -1.158775,1.68422 -2.501028,2.81904 -4.586925,3.87807 -2.098176,1.06526 -6.512381,1.33314 -8.977585,0.54481 z m 60.463202,0.20803 c -2.22551,-0.54804 -5.51875,-2.91517 -6.73404,-4.84031 -1.0962,-1.7365 -2.06596,-4.8339 -2.06596,-6.59865 0,-5.08795 3.55279,-9.8953 8.45176,-11.43622 1.01039,-0.3178 1.91667,-0.78525 2.01395,-1.03876 0.1062,-0.27675 0.38413,-0.37763 0.69558,-0.25245 1.35503,0.54458 3.6904,1.01395 4.27904,0.86002 0.37393,-0.0978 0.8066,0.0269 1.00752,0.29042 0.19368,0.254 1.01219,0.84445 1.81891,1.31213 1.93886,1.124 3.69471,3.11135 4.70536,5.32573 0.7014,1.53679 0.82016,2.24455 0.81215,4.84001 -0.008,2.54589 -0.13975,3.32885 -0.81143,4.81715 -1.44665,3.20548 -4.07832,5.55859 -7.27991,6.50937 -1.77436,0.52692 -5.18697,0.63167 -6.89293,0.21156 z M 29.074269,172.48249 c -2.45011,-0.5414 -3.947871,-1.33072 -5.885569,-3.10166 -3.516416,-3.21381 -4.650192,-8.04071 -2.99767,-12.76218 0.923741,-2.63925 3.37734,-5.37963 5.946287,-6.64128 1.644285,-0.80753 2.136257,-0.89133 5.176952,-0.8818 3.642263,0.0114 5.6693,0.62549 7.360001,2.22968 0.44,0.41749 1.196,0.90867 1.68,1.09151 0.826614,0.31227 1.023491,0.74566 0.90343,1.98875 -0.02765,0.28626 0.436957,0.80795 1.032452,1.1593 l 1.082716,0.63882 -0.133622,3.4807 c -0.149405,3.89177 -0.634445,5.7912 -2.008637,7.86585 -1.652634,2.49502 -4.744634,4.43819 -8.063709,5.06764 -1.905583,0.36138 -1.834087,0.36375 -4.092631,-0.13533 z m 156.640001,0.002 c -4.05276,-1.02496 -6.8868,-3.22769 -8.41034,-6.53684 -0.65528,-1.42326 -0.86679,-2.45424 -0.96482,-4.70288 -0.14523,-3.33141 0.49024,-5.51481 2.296,-7.88881 0.582,-0.76515 1.00394,-1.55008 0.93764,-1.74429 -0.0663,-0.1942 0.78442,-0.6804 1.89048,-1.08042 1.10607,-0.40004 2.63702,-1.09102 3.40211,-1.53552 0.87635,-0.50915 1.46837,-0.68555 1.6,-0.47675 0.11491,0.18228 1.28973,0.38518 2.6107,0.45088 3.10895,0.15462 5.49305,1.31662 7.78452,3.79415 2.32645,2.51534 3.231,5.13577 3.01461,8.7331 -0.18257,3.03502 -0.97086,5.05699 -2.73114,7.00541 -3.02984,3.35368 -7.60778,4.94857 -11.42976,3.98197 z M 114.73655,147.5648 c -0.32846,-0.86985 3.95263,-7.60269 4.82964,-7.59552 0.80902,0.007 6.2899,4.85612 6.40787,5.66972 0.12478,0.86052 -0.88614,1.1742 -5.9508,1.84648 -4.39128,0.58289 -5.09258,0.59341 -5.28671,0.0793 z m -4.54228,-8.45392 c -3.70196,-0.45514 -9.26969,-2.24169 -13.253639,-4.25278 -7.130308,-3.59936 -14.003124,-11.58912 -17.077876,-19.8533 -3.377296,-9.07735 -2.809866,-19.590006 1.532304,-28.38856 5.392979,-10.927812 14.496621,-17.858648 26.647311,-20.287278 4.58291,-0.916013 10.56764,-0.726138 15.14823,0.480608 14.10931,3.717066 24.62344,14.93818 27.3183,29.155224 0.56517,2.981609 0.64437,10.038356 0.14389,12.821226 -0.87972,4.89157 -3.07018,10.28959 -5.70156,14.05048 -6.29504,8.99716 -15.30478,14.63549 -25.81369,16.1543 -2.12271,0.30678 -6.90262,0.37096 -8.94327,0.12008 z m 10.13185,-4.07554 c 9.499,-1.81819 17.72599,-7.64387 22.74253,-16.10442 2.84591,-4.79971 4.17205,-10.05707 4.1787,-16.56613 0.004,-3.599686 -0.13751,-5.04591 -0.71854,-7.359996 -1.5305,-6.095562 -4.3101,-11.180369 -8.45931,-15.474926 -6.25407,-6.473133 -14.5651,-9.971581 -23.66339,-9.960871 -14.722404,0.01734 -27.783291,9.715361 -31.670027,23.515796 -1.323082,4.697793 -1.691431,8.550427 -1.202739,12.579667 0.998441,8.23211 3.946797,14.49966 9.406701,19.99657 4.634403,4.66581 10.174295,7.71671 16.685575,9.189 3.19065,0.72145 9.42427,0.81241 12.7005,0.18531 z m -13.57316,-19.3973 c -3.4682,-0.87635 -6.47732,-3.38974 -8.037091,-6.713 -0.869606,-1.8528 -0.977629,-2.4128 -0.988918,-5.12673 -0.01168,-2.80567 0.06985,-3.21436 1.030313,-5.16535 1.326366,-2.69423 3.116746,-4.480781 5.797746,-5.785344 1.92863,-0.938458 2.3927,-1.031728 5.15926,-1.036899 2.75361,-0.0052 3.24072,0.08942 5.17076,1.00382 2.64688,1.254036 4.55023,3.167959 5.83806,5.870497 0.89608,1.880436 0.99029,2.371676 0.98193,5.120006 -0.008,2.71701 -0.11357,3.26099 -0.99117,5.12 -1.9904,4.21623 -5.65984,6.6787 -10.27983,6.89855 -1.36386,0.0649 -3.02034,-0.0186 -3.68106,-0.18555 z m 32.72369,-12.95013 c -0.35693,-0.43008 -0.95171,-2.932301 -1.96535,-8.26822 -0.54582,-2.873268 -0.23153,-2.949639 3.66237,-0.889959 1.79333,0.948586 3.4406,1.866218 3.6606,2.039184 0.71805,0.564538 0.42287,1.719347 -0.80543,3.151066 -0.66298,0.772778 -1.75262,2.089049 -2.42142,2.925049 -1.32376,1.6547 -1.53656,1.75886 -2.13077,1.04288 z M 9.7142689,115.36735 C 6.565775,114.54004 3.6510665,112.09271 2.1268586,108.99661 -0.77583512,103.1004 1.7992691,95.873152 7.8646563,92.892995 c 1.3220932,-0.649597 2.007164,-0.752016 5.0496127,-0.754944 3.239716,-0.0032 3.656467,0.0681 5.233845,0.894339 2.084943,1.092109 4.108384,3.116 5.160495,5.161639 0.43114,0.838275 0.96879,1.59509 1.194776,1.68181 0.256369,0.0984 0.419342,0.776571 0.433375,1.803431 0.01237,0.90517 0.139168,1.93376 0.281773,2.28577 0.161281,0.39809 0.110696,0.82142 -0.133833,1.12 -0.216213,0.264 -0.577474,1.2 -0.802802,2.08 -0.747406,2.91893 -3.243354,5.91755 -6.156636,7.39655 -1.38881,0.70506 -2.205655,0.8763 -4.570993,0.95824 -1.584,0.0549 -3.312,-0.0137 -3.8400001,-0.15248 z m 193.6000011,-0.002 c -0.528,-0.13957 -1.392,-0.48213 -1.92,-0.76125 -1.42376,-0.75267 -4.41367,-3.39302 -4.93462,-4.35771 -0.61861,-1.14543 -1.62538,-3.92789 -1.62538,-4.49204 0,-0.25263 -0.23498,-0.71897 -0.52218,-1.03632 -0.4829,-0.5336 -0.4829,-0.63694 0,-1.37394 0.2872,-0.43832 0.52218,-1.29631 0.52218,-1.90666 0,-1.590501 1.73642,-5.763942 2.45925,-5.910732 0.31941,-0.06487 1.08475,-0.513703 1.70075,-0.997418 4.04486,-3.176224 10.16319,-3.449565 14.25155,-0.636698 7.66385,5.272868 6.72445,16.756668 -1.70453,20.837058 -1.54493,0.74789 -6.38721,1.12212 -8.22702,0.63581 z M 28.219865,58.397966 c -1.198748,-0.309177 -3.4535,-1.451113 -4.517004,-2.287664 -5.248955,-4.128829 -5.630005,-12.933073 -0.76494,-17.674129 3.774402,-3.678198 8.777904,-4.528874 13.617497,-2.315197 3.937546,1.801072 6.283367,5.361236 6.534874,9.917722 0.07791,1.411482 0.281184,2.740759 0.451722,2.953949 0.476026,0.595085 -0.253891,2.405405 -1.538899,3.816733 -4.444353,4.881255 -5.688865,5.604948 -9.888846,5.750449 -1.584,0.05487 -3.336482,-0.01795 -3.894404,-0.161863 z M 184.77244,58.217205 c -0.87001,-0.233549 -1.77357,-0.351056 -2.00793,-0.261127 -0.9258,0.355267 -5.22911,-3.24545 -5.26264,-4.403427 -0.0125,-0.433191 -0.30801,-1.5372 -0.65658,-2.453354 -0.97875,-2.572438 -0.73472,-6.954467 0.53095,-9.534266 3.50278,-7.139636 12.72512,-8.885175 18.64408,-3.528819 2.53949,2.298109 3.70154,4.776685 3.87762,8.270755 0.41708,8.276109 -6.97628,14.097847 -15.1255,11.910238 z M 84.434272,24.964213 c 0,-0.06645 0.252,-0.31845 0.56,-0.56 0.507539,-0.398039 0.518857,-0.386721 0.120819,0.120817 -0.418038,0.53304 -0.680819,0.702554 -0.680819,0.439183 z m 55.679998,-1.113597 c 0,-0.150928 -0.88763,-0.367189 -1.97252,-0.480582 -5.00327,-0.522945 -8.68659,-3.793628 -10.05315,-8.926902 -0.62002,-2.329023 -0.56495,-3.955462 0.21433,-6.3292622 1.15188,-3.5087868 3.27974,-5.901873 6.60145,-7.42429163 1.2418,-0.5691465 2.13246,-0.70338289 4.72989,-0.71286625 2.81064,-0.0102618 3.42097,0.0919025 5.01604,0.83964685 2.54637,1.19368973 4.46522,3.08159113 5.72146,5.62915153 0.98104,1.9894913 1.06471,2.3988693 1.06267,5.1995197 -0.002,2.758457 -0.0969,3.237617 -1.02503,5.1738 -1.19301,2.488838 -3.31421,4.564704 -5.92992,5.803182 -0.95952,0.454315 -1.83873,0.97835 -1.95379,1.164522 -0.24886,0.402657 -2.41143,0.460125 -2.41143,0.06408 z M 76.844329,23.195112 c -3.600877,-0.926967 -6.85848,-3.737516 -8.119891,-7.00556 -0.992391,-2.571077 -0.997156,-6.5723316 -0.01082,-9.0890455 1.930951,-4.9269767 7.821444,-8.2336329 12.941915,-7.26500541 4.991568,0.94424288 8.380054,4.11420501 9.70137,9.07572651 0.630275,2.3666834 0.536812,3.9649944 -0.386644,6.6119144 -0.453206,1.299039 -0.860365,2.689402 -0.904793,3.089697 -0.09982,0.899287 -2.004653,2.918022 -2.711732,2.873877 -0.285705,-0.01784 -1.3608,0.369254 -2.389101,0.860202 -1.463123,0.698548 -2.437212,0.916627 -4.48,1.002982 -1.435699,0.06069 -3.073837,-0.009 -3.640304,-0.154788 z"
     style="fill:#a69d01;stroke-width:0.32000002" />
  <path
     inkscape:connector-curvature="0"
     id="path3783"
     d="m 75.971068,207.29509 c -3.112864,-0.99543 -5.540035,-3.19876 -7.06872,-6.41681 -1.20209,-2.53052 -1.285933,-6.67496 -0.191338,-9.45776 0.975053,-2.47889 3.137604,-4.80583 5.586948,-6.01163 2.335881,-1.14996 4.369616,-1.44963 7.712163,-1.13641 2.365962,0.22171 2.483194,0.27315 3.782797,1.65972 0.867834,0.92591 1.537117,1.37968 1.896388,1.28573 0.747955,-0.1956 1.520137,0.41848 1.698771,1.35094 0.08048,0.4201 0.354429,0.9961 0.608777,1.28 0.748007,0.8349 1.797418,4.36904 1.797418,6.05323 0,1.96107 -1.057389,5.22407 -2.258694,6.97011 -1.158775,1.68422 -2.501028,2.81904 -4.586925,3.87807 -2.098176,1.06526 -6.512381,1.33314 -8.977585,0.54481 z m 60.463202,0.20803 c -2.22551,-0.54804 -5.51875,-2.91517 -6.73404,-4.84031 -1.0962,-1.7365 -2.06596,-4.8339 -2.06596,-6.59865 0,-2.17735 1.14953,-5.5187 2.51018,-7.29636 1.53539,-2.00595 3.21497,-3.16754 6.04104,-4.17794 2.27166,-0.81218 2.34507,-0.81765 4.28914,-0.31961 1.08785,0.2787 2.22806,0.42733 2.53379,0.3303 0.78136,-0.248 4.11945,1.7835 5.57143,3.39067 0.66276,0.73359 1.5747,2.1438 2.02654,3.13381 0.7014,1.53679 0.82016,2.24455 0.81215,4.84001 -0.008,2.54589 -0.13975,3.32885 -0.81143,4.81715 -1.44665,3.20548 -4.07832,5.55859 -7.27991,6.50937 -1.77436,0.52692 -5.18697,0.63167 -6.89293,0.21156 z M 29.074269,172.48249 c -2.45011,-0.5414 -3.947871,-1.33072 -5.885569,-3.10166 -3.516416,-3.21381 -4.650192,-8.04071 -2.99767,-12.76218 0.923741,-2.63925 3.37734,-5.37963 5.946287,-6.64128 1.644285,-0.80753 2.136257,-0.89133 5.176952,-0.8818 3.720461,0.0116 5.416759,0.54615 7.648465,2.41 0.633344,0.52895 1.331536,1.1064 1.551536,1.28321 0.22,0.17682 0.4,0.73072 0.4,1.23089 0,0.6672 0.305219,1.14221 1.145974,1.78349 l 1.145975,0.87407 -0.105975,3.7239 c -0.09219,3.23962 -0.217548,3.96196 -0.963926,5.55442 -1.56448,3.33795 -5.044711,5.91796 -8.992858,6.66671 -1.879945,0.35653 -1.812793,0.35883 -4.069191,-0.13977 z m 156.640001,0.002 c -4.05276,-1.02496 -6.8868,-3.22769 -8.41034,-6.53684 -0.65528,-1.42326 -0.86679,-2.45424 -0.96482,-4.70288 -0.14915,-3.4213 0.46934,-5.44479 2.49343,-8.15769 1.1065,-1.48304 1.55226,-1.80365 3.41187,-2.45394 1.1765,-0.41141 2.39891,-0.98316 2.71647,-1.27055 0.72278,-0.65411 5.06852,-0.63695 6.95159,0.0274 3.33222,1.17567 6.19663,4.02909 7.36396,7.3357 0.9605,2.72075 0.84641,6.51285 -0.26928,8.94972 -2.26405,4.94505 -8.34562,8.06023 -13.29288,6.80905 z m -70.79645,-25.44466 c 0.30184,-1.15422 4.14473,-6.75503 4.63485,-6.75503 0.52922,0 3.30387,2.21489 5.31902,4.24596 0.81577,0.82222 1.12958,1.35504 0.92093,1.56368 -0.30836,0.30836 -8.28511,1.52395 -10.11568,1.54154 -0.74397,0.007 -0.88742,-0.10551 -0.75912,-0.59615 z m -4.72355,-8.22952 C 96.21218,136.75674 85.504995,128.42462 80.463008,115.67427 75.236217,102.45659 78.290489,87.604428 88.417987,76.991234 94.85042,70.250316 104.73997,66.068875 114.29297,66.05093 c 9.54329,-0.01792 18.13421,3.435914 25.158,10.114375 7.5554,7.183936 11.2233,15.906442 11.2233,26.689745 0,7.61215 -1.99017,14.19199 -6.04304,19.9794 -5.57001,7.95383 -13.21883,13.20213 -22.2198,15.2463 -2.83838,0.6446 -9.91806,1.06752 -12.21716,0.7298 z m 10.24,-3.46592 c 8.2753,-1.48544 15.58877,-6.09192 20.87179,-13.14636 8.0041,-10.68792 8.5078,-26.291246 1.2141,-37.609963 -6.19499,-9.613671 -16.57334,-15.344209 -27.78682,-15.342836 -11.65279,0.0013 -21.566169,5.192614 -27.971442,14.647386 -2.269373,3.349802 -3.374314,5.655005 -4.382151,9.142352 -3.443677,11.915901 -0.116083,24.668431 8.66569,33.210051 5.153303,5.01238 10.513663,7.72163 18.508823,9.3548 1.58732,0.32424 8.56304,0.16048 10.88001,-0.25543 z m -13.44001,-19.98015 c -3.2684,-0.87523 -6.33455,-3.23788 -7.625047,-5.87556 -3.175366,-6.49021 -0.836701,-13.456712 5.536657,-16.492811 1.53372,-0.730621 2.17182,-0.840877 4.8084,-0.830839 2.58779,0.0099 3.31646,0.137242 4.89852,0.856375 2.49813,1.135526 5.06158,3.783974 6.00941,6.20865 0.99679,2.549905 1.01216,6.563295 0.0347,9.054985 -1.63491,4.1676 -5.57122,6.93914 -10.22335,7.1982 -1.36361,0.0759 -2.91129,0.0224 -3.43929,-0.119 z m 32.88302,-12.78113 c -0.35448,-0.22512 -1.04168,-2.933581 -2.03447,-8.018403 -0.21918,-1.122557 -0.22701,-1.82921 -0.0225,-2.03368 0.20447,-0.20447 1.4914,0.318544 3.70367,1.505194 3.66147,1.963987 4.11828,2.610832 2.73064,3.866624 -0.36282,0.328349 -1.38445,1.574669 -2.27029,2.769595 -0.88583,1.19493 -1.63298,2.17039 -1.66032,2.1677 -0.0273,-0.003 -0.22835,-0.11836 -0.44669,-0.25703 z M 9.7142689,115.36735 C 6.565775,114.54004 3.6510665,112.09271 2.1268586,108.99661 -0.77583512,103.1004 1.7992691,95.873152 7.8646563,92.892995 c 1.3220932,-0.649597 2.007164,-0.752016 5.0496127,-0.754944 3.239716,-0.0032 3.656467,0.0681 5.233845,0.894339 8.768712,4.593121 8.742894,17.07892 -0.04454,21.54019 -1.36503,0.69301 -2.194259,0.86567 -4.549304,0.94725 -1.584,0.0549 -3.312,-0.0137 -3.8400011,-0.15248 z m 193.6000011,-0.002 c -1.4803,-0.39128 -2.72024,-1.13223 -4.64,-2.77273 -1.95559,-1.6711 -2.59782,-2.67435 -3.3724,-5.26809 -0.28909,-0.968 -0.66153,-2.10169 -0.82765,-2.51931 -0.22017,-0.55346 -0.16893,-0.96247 0.189,-1.50874 0.27008,-0.41219 0.49105,-1.24425 0.49105,-1.84902 0,-0.60478 0.41557,-2.073751 0.9235,-3.264385 0.99606,-2.33487 2.25242,-3.554387 5.30406,-5.148493 3.25202,-1.698784 8.72299,-1.303171 11.86399,0.857895 7.66385,5.272867 6.72445,16.756663 -1.70453,20.837063 -1.54493,0.74789 -6.38721,1.12211 -8.22702,0.63581 z M 28.219865,58.397966 c -1.198748,-0.309177 -3.4535,-1.451113 -4.517004,-2.287664 -5.248955,-4.128829 -5.630005,-12.933073 -0.76494,-17.674129 1.850325,-1.803165 3.655542,-2.751737 6.286221,-3.303174 5.075315,-1.063876 10.721513,1.779984 12.875606,6.485149 0.948535,2.071872 1.508717,7.280615 0.957904,8.906883 -0.453024,1.337553 -2.378489,3.967124 -3.903382,5.330775 -2.221949,1.986999 -3.79952,2.593072 -7.040001,2.70464 -1.584,0.05454 -3.336482,-0.01859 -3.894404,-0.16248 z M 184.1675,58.086337 c -1.75004,-0.43552 -2.58807,-0.878524 -4.1962,-2.218233 -2.7508,-2.291648 -3.52022,-4.258324 -3.53008,-9.023073 -0.006,-3.078365 0.072,-3.520934 0.93502,-5.28 3.50278,-7.139636 12.72512,-8.885175 18.64408,-3.528819 6.68143,6.046349 4.5417,17.066704 -3.88903,20.029869 -2.15613,0.757815 -4.9713,0.764976 -7.96379,0.02026 z M 138.19427,23.43068 c -5.24425,-0.744674 -8.73862,-3.85241 -10.10567,-8.987548 -0.62002,-2.329023 -0.56495,-3.955462 0.21433,-6.3292622 1.15188,-3.5087868 3.27974,-5.901873 6.60145,-7.42429163 1.2418,-0.5691465 2.13246,-0.70338289 4.72989,-0.71286625 2.81064,-0.0102618 3.42097,0.0919025 5.01604,0.83964685 2.54637,1.19368973 4.46522,3.08159113 5.72146,5.62915153 0.98104,1.9894913 1.06471,2.3988693 1.06267,5.1995197 -0.002,2.758457 -0.0969,3.237617 -1.02503,5.1738 -1.2395,2.585823 -3.3089,4.552468 -6.28743,5.97523 -2.23265,1.066478 -2.61291,1.107316 -5.92771,0.63662 z M 76.844329,23.195112 c -3.600877,-0.926967 -6.85848,-3.737516 -8.119891,-7.00556 -0.992391,-2.571077 -0.997156,-6.5723316 -0.01082,-9.0890455 1.930951,-4.9269767 7.821444,-8.2336329 12.941915,-7.26500541 4.991568,0.94424288 8.380054,4.11420501 9.70137,9.07572651 0.586694,2.2030404 0.541683,3.8252544 -0.169082,6.0938024 -1.403562,4.479744 -2.113667,5.358841 -5.738852,7.10458 -1.97543,0.951285 -2.75766,1.146846 -4.96,1.240019 -1.438083,0.06084 -3.078173,-0.0087 -3.64464,-0.154517 z"
     style="fill:#5c5c5c;stroke-width:0.32000002" />
  <path
     inkscape:connector-curvature="0"
     id="path3781"
     d="m 76.829526,207.57858 c -0.398611,-0.0766 -0.655325,-0.25162 -0.57048,-0.38891 0.08485,-0.13728 -0.381018,-0.41279 -1.035255,-0.61225 -2.23936,-0.6827 -4.27711,-2.57128 -5.623203,-5.21155 -1.102432,-2.16235 -1.238144,-2.68903 -1.275575,-4.95032 -0.123206,-7.44331 5.246196,-12.4974 12.576471,-11.83794 1.327034,0.11939 2.765332,0.2464 3.196218,0.28225 0.443101,0.0369 1.267347,0.59616 1.897396,1.28749 0.698982,0.76697 1.317801,1.16901 1.661145,1.07923 0.843229,-0.22051 1.33953,0.25258 1.42664,1.35993 0.04363,0.55468 0.322864,1.27761 0.620509,1.60651 0.706055,0.78018 1.771552,4.22685 1.768435,5.72053 -0.0036,1.73412 -1.082108,4.97088 -2.276464,6.83212 -1.022381,1.59325 -4.268365,4.09937 -5.309587,4.09937 -0.247101,0 -0.371635,0.12562 -0.276743,0.27916 0.339053,0.5486 -4.575552,0.878 -6.779507,0.45438 z m 59.604744,-0.0935 c -0.528,-0.13435 -0.81715,-0.26132 -0.64255,-0.28214 0.1746,-0.0208 -0.4014,-0.4203 -1.28,-0.88773 -3.42967,-1.82465 -4.94299,-3.68862 -6.04704,-7.44821 -0.66406,-2.26126 -0.64088,-3.57683 0.10629,-6.03379 1.24227,-4.08504 3.4837,-6.43445 7.39615,-7.75246 1.13024,-0.38075 2.27373,-0.80613 2.54107,-0.94529 0.26734,-0.13915 1.20608,-0.0591 2.08608,0.1778 0.88,0.23694 1.996,0.35209 2.48,0.25589 0.484,-0.0962 0.88,-0.0459 0.88,0.11175 0,0.15766 0.91667,0.87107 2.03705,1.58534 3.42413,2.18298 5.16848,5.49249 5.13563,9.74369 -0.0211,2.72614 -0.64132,4.74708 -2.12627,6.92792 -0.98765,1.45049 -3.65097,3.40631 -5.1242,3.76299 -0.48279,0.11688 -0.80912,0.32362 -0.7252,0.45941 0.37138,0.6009 -4.67333,0.84486 -6.71701,0.32483 z M 29.394269,172.15438 c -7.54192,-1.69507 -11.35766,-8.36954 -8.806227,-15.40381 0.944794,-2.60479 2.068831,-4.09687 4.149613,-5.50832 4.158105,-2.82056 10.292547,-2.54824 14.135642,0.62751 0.808861,0.6684 1.598979,1.21528 1.755814,1.21528 0.156839,0 0.28386,0.396 0.282276,0.88 -0.0019,0.60353 0.318944,1.14451 1.021494,1.72195 l 1.024384,0.84195 -0.08766,3.26398 c -0.154516,5.75368 -1.841882,8.96115 -5.795338,11.01621 -2.891636,1.50312 -5.187953,1.90535 -7.680001,1.34525 z m 156.480001,-0.0352 c -2.25196,-0.55152 -3.73063,-1.18868 -5.05846,-2.17971 -4.70962,-3.51503 -5.63491,-11.99269 -1.79816,-16.47507 0.61083,-0.71361 1.07145,-1.45756 1.02361,-1.6532 -0.0479,-0.19565 0.90958,-0.70901 2.12762,-1.1408 1.21804,-0.43179 2.44204,-0.97534 2.72,-1.20791 0.37824,-0.31645 1.23777,-0.37386 3.41648,-0.22817 2.39576,0.16019 3.28497,0.37871 5.02315,1.23442 7.65307,3.76759 8.50225,14.7942 1.51407,19.66029 -2.76826,1.92763 -6.15493,2.67916 -8.96831,1.99015 z m -70.95645,-25.07916 c 0.30184,-1.15422 4.14473,-6.75503 4.63485,-6.75503 0.52922,0 3.30387,2.21489 5.31902,4.24596 0.81577,0.82222 1.12958,1.35504 0.92093,1.56368 -0.30836,0.30836 -8.28511,1.52395 -10.11568,1.54154 -0.74397,0.007 -0.88742,-0.10551 -0.75912,-0.59615 z m -4.72355,-8.22952 C 96.21218,136.75674 85.504995,128.42462 80.463008,115.67427 75.236217,102.45659 78.290489,87.604428 88.417987,76.991234 94.85042,70.250316 104.73997,66.068875 114.29297,66.05093 c 9.54329,-0.01792 18.13421,3.435914 25.158,10.114375 7.5554,7.183936 11.2233,15.906442 11.2233,26.689745 0,7.61215 -1.99017,14.19199 -6.04304,19.9794 -5.57001,7.95383 -13.21883,13.20213 -22.2198,15.2463 -2.83838,0.6446 -9.91806,1.06752 -12.21716,0.7298 z m 10.24,-3.46592 c 8.2753,-1.48544 15.58877,-6.09192 20.87179,-13.14636 8.0041,-10.68792 8.5078,-26.291246 1.2141,-37.609963 -6.19499,-9.613671 -16.57334,-15.344209 -27.78682,-15.342836 -11.65279,0.0013 -21.566169,5.192614 -27.971442,14.647386 -2.269373,3.349802 -3.374314,5.655005 -4.382151,9.142352 -3.443677,11.915901 -0.116083,24.668431 8.66569,33.210051 5.153303,5.01238 10.513663,7.72163 18.508823,9.3548 1.58732,0.32424 8.56304,0.16048 10.88001,-0.25543 z m -13.44001,-19.98034 c -3.2684,-0.87523 -6.33455,-3.23788 -7.625047,-5.87556 -3.175366,-6.49021 -0.836701,-13.456712 5.536657,-16.492811 1.53372,-0.730621 2.17182,-0.840877 4.8084,-0.830839 2.58779,0.0099 3.31646,0.137242 4.89852,0.856375 2.49813,1.135526 5.06158,3.783974 6.00941,6.20865 0.99679,2.549905 1.01216,6.563295 0.0347,9.054985 -1.63491,4.1676 -5.57122,6.93914 -10.22335,7.1982 -1.36361,0.0759 -2.91129,0.0224 -3.43929,-0.119 z m 32.88302,-12.78113 c -0.35448,-0.22512 -1.04168,-2.933581 -2.03447,-8.018403 -0.21918,-1.122557 -0.22701,-1.82921 -0.0225,-2.03368 0.20447,-0.20447 1.4914,0.318544 3.70367,1.505194 3.66147,1.963987 4.11828,2.610832 2.73064,3.866624 -0.36282,0.328349 -1.38445,1.574669 -2.27029,2.769595 -0.88583,1.19493 -1.63298,2.17039 -1.66032,2.1677 -0.0273,-0.003 -0.22835,-0.11836 -0.44669,-0.25703 z M 9.4844206,114.89609 c -3.24274,-0.91699 -6.7994226,-4.25593 -7.4659085,-7.00884 -0.116883,-0.48279 -0.3247822,-0.80841 -0.4619982,-0.7236 -0.377635,0.23339 -0.63350639,-1.05852 -0.63350639,-3.19861 0,-2.13058 0.25558829,-3.43218 0.62868069,-3.2016 0.1345619,0.0832 0.3264246,-0.24246 0.4263618,-0.7236 0.3911749,-1.883296 2.2453268,-4.360691 4.2889493,-5.730611 2.3950568,-1.605498 4.7619237,-2.180695 7.8939717,-1.918404 3.947637,0.330599 6.847011,2.295994 8.804235,5.968122 0.550074,1.032045 1.131688,1.923613 1.292475,1.981263 0.160788,0.0576 0.326606,1.04082 0.368485,2.18482 0.08242,2.25152 -0.805581,5.66523 -1.959276,7.53194 -0.95024,1.53752 -3.366944,3.63961 -5.030195,4.37535 -1.86432,0.82467 -6.036635,1.06203 -8.1522744,0.46377 z m 193.6361094,-0.0114 c -1.63751,-0.44132 -4.20114,-2.19149 -5.68407,-3.88045 -0.59256,-0.67489 -1.29395,-2.13088 -1.80345,-3.74373 -0.45856,-1.45161 -0.99449,-2.73864 -1.19094,-2.86006 -0.25031,-0.1547 -0.19719,-0.46495 0.1775,-1.03681 0.29408,-0.44882 0.5336,-1.28912 0.53225,-1.86731 -0.003,-1.36425 1.56783,-5.190146 2.28417,-5.562674 0.30521,-0.15872 1.42653,-0.888189 2.49182,-1.62104 3.99339,-2.747191 9.43417,-2.671914 13.59097,0.188044 1.56296,1.075341 3.52466,3.708017 3.89125,5.222199 0.11688,0.482791 0.32362,0.809121 0.45941,0.725201 0.33491,-0.20699 0.64578,1.48072 0.64046,3.47701 -0.005,1.89026 -0.27794,3.14107 -0.63692,2.9192 -0.13669,-0.0845 -0.33921,0.32973 -0.45003,0.92046 -0.30145,1.60687 -2.50526,4.45743 -4.37242,5.65558 -2.8236,1.8119 -6.58331,2.36635 -9.93,1.46438 z M 28.091661,57.948075 c -5.129697,-1.455366 -8.12293,-5.546749 -8.12293,-11.103044 0,-3.273353 0.81042,-5.611085 2.682479,-7.737856 2.335063,-2.652771 6.824899,-4.297136 10.253283,-3.755184 1.795956,0.283904 4.695498,1.504985 5.988151,2.521785 2.345111,1.844666 3.941626,5.549191 3.941626,9.146078 0,1.115072 0.135398,2.111088 0.300886,2.213366 0.446413,0.275898 -0.229212,1.958986 -1.215769,3.028679 -0.464813,0.503984 -1.461296,1.642816 -2.214407,2.530742 -1.939546,2.286749 -4.119789,3.287882 -7.505696,3.446493 -1.585784,0.07428 -3.230735,-0.04227 -4.107623,-0.291059 z m 156.853559,-0.07112 c -0.95098,-0.266154 -1.96533,-0.408925 -2.2541,-0.31727 -0.61196,0.194227 -4.71092,-3.150858 -4.56139,-3.722477 0.0525,-0.200717 -0.2715,-1.281584 -0.72,-2.401927 -1.92667,-4.812727 -0.33446,-11.030061 3.54535,-13.844132 1.77994,-1.291005 4.78937,-2.323005 6.84462,-2.347171 2.39004,-0.0281 5.72646,1.131312 7.66494,2.663597 3.80815,3.01017 5.15077,8.572099 3.25026,13.464525 -2.03875,5.248298 -8.07339,8.099085 -13.76968,6.504855 z M 140.43427,23.51711 c -0.264,-0.147653 -1.22952,-0.363373 -2.14559,-0.479379 -2.42846,-0.307526 -4.15717,-1.002385 -6.05092,-2.432185 -1.94777,-1.470581 -3.37253,-4.056272 -4.01505,-7.286637 -0.34732,-1.746181 -0.32575,-2.285208 0.16647,-4.1600011 1.1184,-4.2598751 3.57933,-7.0541528 7.32234,-8.31420143 1.0105,-0.3401723 1.7425,-0.7132612 1.62667,-0.82908652 -0.11582,-0.11582532 0.91741,-0.21059146 2.29608,-0.21059146 1.37866,0 2.40761,0.0990526 2.28655,0.22011697 -0.12107,0.12106435 0.61093,0.47839441 1.62666,0.79406671 6.40692,1.99116323 9.47443,9.67521583 6.44061,16.13358083 -1.01383,2.158234 -2.9764,4.022148 -5.50644,5.229625 -1.17006,0.558418 -2.12738,1.151949 -2.12738,1.318958 0,0.372471 -1.26365,0.382826 -1.92,0.01573 z M 77.554272,22.973915 c -5.907658,-1.453037 -9.212689,-5.501438 -9.24867,-11.328885 -0.03214,-5.2063881 2.929892,-9.3615425 7.77953,-10.91315823 0.984026,-0.3148342 1.64514,-0.59490976 1.46914,-0.62239021 -0.176,-0.0274803 0.184,-0.17559134 0.8,-0.32913536 1.219856,-0.304061 3.926259,-0.0537759 3.68255,0.34055779 -0.08301,0.13430311 0.396301,0.33169093 1.06512,0.43863958 1.911411,0.3056472 4.878973,2.41229583 6.117965,4.34309723 1.116807,1.7403934 2.254397,5.2200252 2.25432,6.8954632 -3.8e-5,0.900575 -0.971468,4.299284 -1.968438,6.886926 -0.443168,1.150241 -1.430282,2.210484 -2.075591,2.229354 -0.20024,0.0059 -1.309945,0.453275 -2.466016,0.994265 -1.587728,0.742987 -2.672934,1.012861 -4.43593,1.103149 -1.283689,0.06574 -2.62198,0.04869 -2.97398,-0.03788 z"
     style="fill:#9c6100;stroke-width:0.32000002" />
  <path
     inkscape:connector-curvature="0"
     id="path3779"
     d="m 76.829526,207.57858 c -0.398611,-0.0766 -0.655325,-0.25162 -0.57048,-0.38891 0.08485,-0.13728 -0.381018,-0.41279 -1.035255,-0.61225 -2.23936,-0.6827 -4.27711,-2.57128 -5.623203,-5.21155 -1.102432,-2.16235 -1.238144,-2.68903 -1.275575,-4.95032 -0.135072,-8.1602 6.159383,-13.20241 14.545582,-11.6518 1.424582,0.2634 1.962941,0.56903 3.10256,1.76135 1.089047,1.13941 1.534615,1.40357 2.119773,1.2567 0.644256,-0.1617 0.768109,-0.0409 0.949584,0.92649 0.114784,0.61184 0.420429,1.28816 0.679213,1.50293 0.616109,0.51133 1.753222,4.21974 1.750102,5.70753 -0.0036,1.72943 -1.083478,4.96782 -2.276464,6.82692 -1.022381,1.59325 -4.268365,4.09937 -5.309587,4.09937 -0.247101,0 -0.371635,0.12562 -0.276743,0.27916 0.339053,0.5486 -4.575552,0.878 -6.779507,0.45438 z m 59.604744,-0.0935 c -0.528,-0.13435 -0.81715,-0.26132 -0.64255,-0.28214 0.1746,-0.0208 -0.4014,-0.4203 -1.28,-0.88773 -3.42967,-1.82465 -4.94299,-3.68862 -6.04704,-7.44821 -0.66406,-2.26126 -0.64088,-3.57683 0.10629,-6.03379 1.28126,-4.21327 3.42469,-6.38638 7.78283,-7.8906 2.37698,-0.82043 2.54583,-0.83606 4.27512,-0.39562 0.99022,0.2522 2.06071,0.39047 2.37886,0.30728 0.89599,-0.23431 4.88867,2.51671 5.98135,4.12126 2.91182,4.27582 2.9163,9.69633 0.0115,13.96232 -0.98765,1.45049 -3.65096,3.40631 -5.1242,3.76299 -0.48278,0.11688 -0.80912,0.32362 -0.72519,0.45941 0.37137,0.6009 -4.67334,0.84486 -6.71702,0.32483 z M 29.394269,172.15438 c -7.54192,-1.69507 -11.35766,-8.36954 -8.806227,-15.40381 0.944794,-2.60479 2.068831,-4.09687 4.149613,-5.50832 3.102675,-2.10463 7.542547,-2.54407 11.197735,-1.1083 2.21103,0.8685 4.657776,2.91705 4.663779,3.90478 0.006,0.98077 0.218554,1.29784 1.355101,2.02108 0.862246,0.54868 0.88,0.62338 0.88,3.70251 0,5.58004 -1.768656,8.97206 -5.76,11.04681 -2.891636,1.50312 -5.187953,1.90535 -7.680001,1.34525 z m 156.480001,-0.0352 c -2.25196,-0.55152 -3.73063,-1.18868 -5.05846,-2.17971 -4.70526,-3.51177 -5.63496,-11.99263 -1.80515,-16.46691 0.60698,-0.70912 1.10361,-1.41171 1.10361,-1.5613 0,-0.1496 0.972,-0.61461 2.16,-1.03336 1.188,-0.41876 2.40352,-0.97211 2.70115,-1.22968 0.4111,-0.35576 1.22059,-0.44127 3.36808,-0.35578 2.41734,0.0962 3.13625,0.26493 4.96199,1.16431 7.6763,3.7814 8.53707,14.79797 1.53709,19.67228 -2.76826,1.92763 -6.15493,2.67916 -8.96831,1.99015 z m -70.21548,-25.07451 c -0.19524,-0.31591 3.10251,-5.93793 3.69949,-6.30688 0.33572,-0.20749 5.71599,4.20813 5.71599,4.69115 0,0.47107 -1.15516,0.80976 -4.16,1.21971 -1.496,0.2041 -3.24523,0.44993 -3.88716,0.54629 -0.64536,0.0969 -1.25709,0.0297 -1.36832,-0.15027 z m -6.15983,-8.70087 c -4.29459,-0.66422 -10.357311,-2.83968 -13.642371,-4.89524 -6.962355,-4.35654 -12.675968,-11.23621 -15.257933,-18.37182 -1.646548,-4.55046 -2.06058,-7.07248 -2.06058,-12.55176 0,-6.762172 0.894292,-10.674893 3.701777,-16.196077 5.298432,-10.419863 14.761498,-17.300276 26.823247,-19.502666 8.91331,-1.627508 19.90591,1.273904 27.37117,7.2244 7.23602,5.767783 11.80187,13.35321 13.44956,22.344299 0.74838,4.083744 0.5216,11.281674 -0.46927,14.894444 -1.74054,6.34612 -4.4047,11.11992 -8.83266,15.82687 -6.86545,7.29801 -15.33145,11.12399 -25.26763,11.41903 -2.112,0.0627 -4.72889,-0.0234 -5.81531,-0.19148 z m 11.06648,-2.69275 c 9.69872,-2.04019 17.63259,-7.60303 22.72293,-15.93221 1.76152,-2.88232 2.67071,-5.09931 3.73325,-9.10331 0.71015,-2.67604 0.83407,-3.82743 0.85359,-7.93055 0.0189,-3.984982 -0.10059,-5.289004 -0.70409,-7.679996 -2.01413,-7.979844 -6.46827,-14.89083 -12.45988,-19.332597 -2.49749,-1.851462 -6.97979,-4.174275 -9.95697,-5.159894 -8.40217,-2.781597 -18.65617,-1.843421 -26.399998,2.415437 -4.969353,2.732982 -8.61367,6.093914 -11.95177,11.022394 -2.282771,3.370358 -3.245798,5.421101 -4.289622,9.134659 -1.537136,5.468593 -1.808122,9.034637 -1.059908,13.947887 1.183207,7.76967 4.369671,14.04807 9.83266,19.37362 4.785709,4.66531 10.196858,7.60574 16.700898,9.07533 3.32141,0.75047 9.8134,0.83512 12.97891,0.16923 z M 106.7493,114.99723 c -3.17227,-0.80114 -6.1228,-3.28313 -7.523443,-6.32872 -0.713277,-1.55096 -0.840596,-2.27792 -0.851805,-4.86352 -0.01142,-2.63762 0.09948,-3.28129 0.837981,-4.862886 1.088367,-2.330893 3.210477,-4.448228 5.589427,-5.576836 1.6295,-0.773059 2.26774,-0.890121 4.91281,-0.901085 2.6369,-0.01094 3.28171,0.100266 4.86288,0.838561 2.32434,1.085305 4.55259,3.312886 5.64105,5.63936 0.73988,1.581436 0.85138,2.225536 0.8418,4.862886 -0.009,2.58831 -0.134,3.3015 -0.83852,4.8 -1.93026,4.10563 -5.27729,6.36203 -9.75496,6.57632 -1.38174,0.0661 -3.05449,-0.0167 -3.71722,-0.18408 z m 33.16108,-12.84436 c -0.24732,-0.38327 -0.66594,-2.208381 -1.73841,-7.579211 -0.18795,-0.941229 -0.27421,-1.778839 -0.19169,-1.861357 0.0825,-0.08252 1.60148,0.615581 3.37547,1.551325 2.53245,1.335814 3.22685,1.847632 3.23198,2.382176 0.004,0.374448 -0.22372,0.87191 -0.50514,1.105469 -0.28142,0.233558 -1.16872,1.29519 -1.97178,2.359188 -1.95766,2.59375 -1.88698,2.52814 -2.20043,2.04241 z M 9.4844206,114.89609 c -3.24274,-0.91699 -6.7994226,-4.25593 -7.4659085,-7.00884 -0.116883,-0.48279 -0.3247822,-0.80841 -0.4619982,-0.7236 -0.377635,0.23339 -0.63350639,-1.05852 -0.63350639,-3.19861 0,-2.13058 0.25558829,-3.43218 0.62868069,-3.2016 0.1345619,0.0832 0.3264246,-0.24246 0.4263618,-0.7236 0.6581826,-3.168794 4.5092399,-6.698256 8.128949,-7.450115 2.577144,-0.535303 5.872307,-0.204109 7.91563,0.795597 4.900041,2.397366 7.527087,8.434528 5.916182,13.595858 -0.35296,1.13088 -0.926827,2.51742 -1.27526,3.0812 -0.947223,1.53264 -3.365853,3.6352 -5.026856,4.36994 -1.86432,0.82467 -6.036635,1.06203 -8.1522744,0.46377 z m 193.6361094,-0.0114 c -1.54272,-0.41577 -3.95325,-2.01974 -5.54031,-3.6865 -0.59634,-0.6263 -1.31371,-2.0998 -1.98416,-4.07556 -0.94385,-2.78141 -1.00314,-3.16165 -0.58595,-3.75727 0.25529,-0.36448 0.46416,-1.2038 0.46416,-1.86515 0,-0.66136 0.37233,-2.105316 0.82741,-3.208801 0.69254,-1.679293 1.13043,-2.228393 2.68637,-3.368611 2.47256,-1.811936 3.83814,-2.342266 6.56169,-2.548247 2.81367,-0.2128 5.38272,0.453812 7.76256,2.014212 1.72506,1.131069 3.70375,3.706771 4.09773,5.334096 0.11688,0.482791 0.32362,0.809121 0.45941,0.725201 0.33491,-0.20699 0.64578,1.48072 0.64046,3.47701 -0.005,1.89026 -0.27794,3.14107 -0.63692,2.9192 -0.13669,-0.0845 -0.33921,0.32973 -0.45003,0.92046 -0.30145,1.60687 -2.50526,4.45743 -4.37242,5.65558 -2.8236,1.8119 -6.58331,2.36635 -9.93,1.46438 z M 28.091661,57.948075 c -5.129697,-1.455366 -8.12293,-5.546749 -8.12293,-11.103044 0,-5.98255 3.333382,-10.082362 9.19686,-11.31145 2.527965,-0.529907 4.614909,-0.271398 7.139402,0.884352 2.984925,1.366544 4.742774,3.194992 5.760496,5.991844 0.606509,1.666777 1.10992,7.18936 0.74449,8.167283 -0.377789,1.010989 -3.016778,4.396714 -4.219197,5.413073 -0.570083,0.481868 -1.672717,1.158793 -2.450301,1.504278 -1.786615,0.793805 -6.010752,1.031894 -8.04882,0.453664 z m 156.982609,-0.05155 c -0.88,-0.254784 -1.89075,-0.4696 -2.24611,-0.47737 -0.72179,-0.01578 -4.63389,-3.143593 -4.63389,-3.704902 0,-0.197383 -0.36,-1.244845 -0.8,-2.32769 -1.91981,-4.724675 -0.30161,-10.993962 3.56081,-13.795412 1.77994,-1.291005 4.78937,-2.323005 6.84462,-2.347171 2.39004,-0.0281 5.72646,1.131312 7.66494,2.663597 3.80815,3.01017 5.15077,8.572099 3.25026,13.464525 -1.54852,3.986317 -5.3486,6.672845 -9.73028,6.87898 -1.39093,0.06544 -2.94708,-0.07566 -3.91035,-0.354557 z m -47.04,-34.886554 c -2.93375,-0.546543 -3.82709,-0.918182 -5.81621,-2.41961 -1.92694,-1.454486 -3.35548,-4.054395 -3.99535,-7.27145 -0.34732,-1.746181 -0.32575,-2.285208 0.16647,-4.1600011 1.1184,-4.2598751 3.57933,-7.0541528 7.32234,-8.31420143 1.0105,-0.3401723 1.7425,-0.7132612 1.62667,-0.82908652 -0.11582,-0.11582532 0.91741,-0.21059146 2.29608,-0.21059146 1.37866,0 2.40761,0.0990526 2.28655,0.22011697 -0.12107,0.12106435 0.61093,0.47839441 1.62666,0.79406671 6.40692,1.99116323 9.47443,9.67521583 6.44061,16.13358083 -1.03207,2.197079 -2.92478,3.96548 -5.72519,5.349189 -2.60999,1.289621 -2.91837,1.324673 -6.22863,0.707987 z m -60.479998,-0.03605 c -5.907658,-1.453037 -9.212689,-5.501438 -9.24867,-11.328885 -0.03214,-5.2063881 2.929892,-9.3615425 7.77953,-10.91315823 0.984026,-0.3148342 1.64514,-0.59490976 1.46914,-0.62239021 -0.176,-0.0274803 0.184,-0.17559134 0.8,-0.32913536 1.219856,-0.304061 3.926259,-0.0537759 3.68255,0.34055779 -0.08301,0.13430311 0.396301,0.33169093 1.06512,0.43863958 1.911411,0.3056472 4.878973,2.41229583 6.117965,4.34309723 1.107351,1.7256599 2.254365,5.2164922 2.254365,6.8609632 0,1.146126 -1.147616,5.082043 -1.924813,6.601426 -0.794201,1.552624 -1.706771,2.276556 -4.394061,3.485758 -1.754992,0.789694 -2.883305,1.072255 -4.64,1.161983 -1.276621,0.06521 -2.609126,0.04772 -2.961126,-0.03886 z"
     style="fill:#020201;stroke-width:0.32000002" />
</svg>
