<?xml version="1.0" encoding="UTF-8" standalone="no"?>
<!-- Created with Inkscape (http://www.inkscape.org/) -->

<svg
   width="64"
   height="64"
   id="svg2869"
   version="1.1"
   viewBox="0 0 64 64"
   xmlns:xlink="http://www.w3.org/1999/xlink"
   xmlns="http://www.w3.org/2000/svg"
   xmlns:svg="http://www.w3.org/2000/svg"
   xmlns:rdf="http://www.w3.org/1999/02/22-rdf-syntax-ns#"
   xmlns:cc="http://creativecommons.org/ns#"
   xmlns:dc="http://purl.org/dc/elements/1.1/">
  <title
     id="title23">internalinvolutegear</title>
  <defs
     id="defs2871">
    <linearGradient
       id="linearGradient22">
      <stop
         style="stop-color:#c4a000;stop-opacity:1"
         offset="0"
         id="stop22" />
      <stop
         style="stop-color:#fce94f;stop-opacity:1"
         offset="1"
         id="stop23" />
    </linearGradient>
    <linearGradient
       id="linearGradient5">
      <stop
         style="stop-color:#ef2929;stop-opacity:1;"
         offset="0"
         id="stop19" />
      <stop
         style="stop-color:#ef2929;stop-opacity:0;"
         offset="1"
         id="stop20" />
    </linearGradient>
    <linearGradient
       id="swatch18">
      <stop
         style="stop-color:#ef2929;stop-opacity:1;"
         offset="0"
         id="stop18" />
    </linearGradient>
    <linearGradient
       id="swatch15">
      <stop
         style="stop-color:#3d0000;stop-opacity:1;"
         offset="0"
         id="stop15" />
    </linearGradient>
    <linearGradient
       id="linearGradient5-1">
      <stop
         style="stop-color:#ef2929;stop-opacity:1;"
         offset="0"
         id="stop5" />
      <stop
         style="stop-color:#ef2929;stop-opacity:0;"
         offset="1"
         id="stop6" />
    </linearGradient>
    <linearGradient
       id="linearGradient3836-9">
      <stop
         style="stop-color:#a40000;stop-opacity:1"
         offset="0"
         id="stop3838-8" />
      <stop
         style="stop-color:#ef2929;stop-opacity:1"
         offset="1"
         id="stop3840-1" />
    </linearGradient>
    <linearGradient
       xlink:href="#linearGradient22"
       id="linearGradient23"
       x1="64"
       y1="64"
       x2="0"
       y2="0"
       gradientUnits="userSpaceOnUse" />
  </defs>
  <metadata
     id="metadata2874">
    <rdf:RDF>
      <cc:Work
         rdf:about="">
        <dc:format>image/svg+xml</dc:format>
        <dc:type
           rdf:resource="http://purl.org/dc/dcmitype/StillImage" />
        <dc:creator>
          <cc:Agent>
            <dc:title>[maxwxyz]</dc:title>
          </cc:Agent>
        </dc:creator>
        <dc:relation>https://www.freecad.org/wiki/index.php?title=Artwork</dc:relation>
        <dc:publisher>
          <cc:Agent>
            <dc:title>FreeCAD</dc:title>
          </cc:Agent>
        </dc:publisher>
        <dc:identifier>FreeCAD/src/</dc:identifier>
        <dc:rights>
          <cc:Agent>
            <dc:title>FreeCAD LGPL2+</dc:title>
          </cc:Agent>
        </dc:rights>
        <dc:date>2024</dc:date>
        <dc:title>internalinvolutegear</dc:title>
      </cc:Work>
    </rdf:RDF>
  </metadata>
  <g
     id="layer3"
     style="display:inline">
    <path
       d="M 32,2.9999995 C 15.983709,2.9999995 3.0000001,15.983709 3.0000001,32 3.0000001,48.01629 15.983709,61 32,61 48.016291,61 61,48.01629 61,32 61,15.98371 48.016291,2.9999995 32,2.9999995 Z m -0.218534,4.603451 h 0.437068 c 1.016777,1.062891 1.904781,2.2607029 2.555166,3.5829955 0.301366,0.606543 0.538209,1.235365 0.710835,1.889958 0.146268,0.600037 0.257551,1.226217 0.177709,1.84433 l -0.348213,1.630599 5.266427,2.182938 0.905355,-1.400058 c 0.3806,-0.493525 0.903596,-0.858238 1.431277,-1.179122 0.584933,-0.340821 1.197527,-0.617545 1.839526,-0.833311 1.394883,-0.475168 2.868924,-0.695022 4.339459,-0.727646 l 0.30979,0.30979 c -0.03262,1.470537 -0.252477,2.944577 -0.727646,4.339459 -0.215766,0.642 -0.494892,1.254593 -0.835712,1.839527 -0.320884,0.527681 -0.683196,1.050678 -1.17672,1.431278 l -1.400058,0.905354 2.182936,5.266427 1.6306,-0.348213 c 0.618115,-0.07985 1.244293,0.03144 1.84433,0.177709 0.654594,0.172626 1.283415,0.409469 1.889959,0.710835 1.322292,0.650383 2.520103,1.538389 3.582995,2.555166 v 0.437068 c -1.062892,1.016777 -2.260703,1.904781 -3.582995,2.555165 -0.606544,0.301366 -1.235365,0.538209 -1.889959,0.710836 -0.600037,0.146268 -1.226215,0.257551 -1.84433,0.177709 l -1.6306,-0.348214 -2.182936,5.266427 1.400058,0.905355 c 0.493524,0.380599 0.855836,0.903596 1.17672,1.431277 0.34082,0.584933 0.619946,1.197527 0.835712,1.839526 0.475169,1.394883 0.695023,2.868923 0.727646,4.339459 l -0.30979,0.30979 c -1.470536,-0.03262 -2.944577,-0.252476 -4.339459,-0.727646 -0.642,-0.215766 -1.254593,-0.494892 -1.839526,-0.835711 -0.52768,-0.320884 -1.050677,-0.683197 -1.431277,-1.176721 l -0.905355,-1.400058 -5.266427,2.182937 0.348213,1.630599 c 0.07985,0.618115 -0.03144,1.244293 -0.177709,1.84433 -0.172626,0.654595 -0.409469,1.283415 -0.710835,1.889958 -0.650385,1.322294 -1.538389,2.520105 -2.555166,3.582996 H 31.781466 C 30.764689,55.333657 29.876684,54.135846 29.2263,52.813552 28.924934,52.20701 28.688092,51.578189 28.515465,50.923594 28.369196,50.323557 28.257914,49.697379 28.337756,49.079264 l 0.348214,-1.630599 -5.266427,-2.182937 -0.905356,1.400058 c -0.380599,0.493524 -0.903595,0.855837 -1.431276,1.176721 -0.584935,0.34082 -1.197528,0.619945 -1.839528,0.835712 -1.394882,0.47517 -2.868922,0.695023 -4.339459,0.727646 l -0.30979,-0.30979 c 0.03262,-1.470537 0.252478,-2.944577 0.727646,-4.339459 0.215766,-0.642 0.49249,-1.254593 0.83331,-1.839526 0.320886,-0.527681 0.685598,-1.050678 1.179124,-1.431277 l 1.397656,-0.905355 -2.180536,-5.266427 -1.6306,0.348214 c -0.618113,0.07985 -1.244293,-0.03144 -1.84433,-0.177709 C 12.421811,35.311908 11.792989,35.075065 11.186447,34.773699 9.8641534,34.123315 8.6663424,33.235311 7.6034514,32.218534 v -0.437068 c 1.062891,-1.016777 2.260702,-1.904782 3.5829956,-2.555166 0.606542,-0.301366 1.235364,-0.538208 1.889957,-0.710835 0.600037,-0.146269 1.226217,-0.25755 1.84433,-0.177709 l 1.6306,0.348214 2.180536,-5.266427 -1.397656,-0.905354 c -0.493526,-0.3806 -0.858238,-0.903597 -1.179124,-1.431278 -0.34082,-0.584934 -0.617544,-1.197527 -0.83331,-1.839527 -0.475168,-1.394882 -0.695022,-2.868922 -0.727646,-4.339459 l 0.30979,-0.30979 c 1.470537,0.03262 2.944577,0.252478 4.339459,0.727646 0.642,0.215766 1.254593,0.49249 1.839528,0.833311 0.527681,0.320884 1.050677,0.685597 1.431276,1.179122 l 0.905356,1.400058 5.266427,-2.182938 -0.348214,-1.630599 c -0.07985,-0.618114 0.03144,-1.244293 0.177709,-1.84433 0.172627,-0.654593 0.409469,-1.283415 0.710835,-1.889958 0.650384,-1.3222935 1.538389,-2.5201054 2.555166,-3.5829965 z"
       style="fill:#fce94f;fill-rule:evenodd;stroke:#231f0b;stroke-width:2;stroke-dasharray:none;stroke-linejoin:round;stroke-linecap:round;stroke-opacity:1"
       id="path25" />
    <path
       d="M 32,5 C 46.90159,5 59,17.098411 59,32 59,46.901589 46.90159,59 32,59 17.09841,59 5,46.901589 5,32 5,17.09841 17.09841,5 32,5 Z m -0.21875,0.6035156 c -0.545804,-1.037e-4 -1.06794,0.2228629 -1.445313,0.6171875 -1.131498,1.1828155 -2.14815,2.5448047 -2.90039,4.0742189 -0.361775,0.728125 -0.645901,1.484221 -0.853516,2.271484 -0.0034,0.01169 -0.0066,0.02341 -0.0098,0.03516 -0.16417,0.67347 -0.344299,1.602356 -0.21875,2.574218 0.0076,0.05376 0.01736,0.107191 0.0293,0.160157 v 0.0039 l -2.189453,0.908203 c -0.03003,-0.04622 -0.06196,-0.09118 -0.0957,-0.134766 -0.599363,-0.777197 -1.384035,-1.307651 -1.976562,-1.667968 -0.01036,-0.0066 -0.02077,-0.01312 -0.03125,-0.01953 -0.705202,-0.410896 -1.440983,-0.740624 -2.201172,-0.996093 -1.619564,-0.551707 -3.301229,-0.799598 -4.939453,-0.835938 -0.545924,-0.01205 -1.073038,0.199643 -1.458985,0.585938 l -0.310546,0.310546 c -0.386295,0.385947 -0.597988,0.913061 -0.585938,1.458985 0.03634,1.638217 0.282951,3.319837 0.832031,4.93164 0.258097,0.767954 0.589106,1.503785 1,2.208985 0.0064,0.01048 0.01292,0.02089 0.01953,0.03125 0.360315,0.592521 0.890769,1.377198 1.667968,1.976562 0.04298,0.03304 0.08729,0.06431 0.132813,0.09375 h 0.002 l -0.908203,2.191406 h -0.0039 c -0.05297,-0.01194 -0.106396,-0.02171 -0.160157,-0.0293 -0.971831,-0.125531 -1.900732,0.05458 -2.574218,0.21875 -0.01175,0.0031 -0.02347,0.0064 -0.03516,0.0098 -0.787262,0.207614 -1.542747,0.491394 -2.263672,0.84961 -1.5366146,0.7558 -2.8992154,1.772798 -4.0820309,2.904296 -0.3943246,0.377373 -0.6172912,0.899509 -0.6171875,1.445313 v 0.4375 c -1.037e-4,0.545804 0.2228629,1.06794 0.6171875,1.445312 1.1828155,1.131499 2.5448058,2.148151 4.0742189,2.900391 0.728128,0.361777 1.484225,0.645901 2.271484,0.853516 0.01169,0.0034 0.02341,0.0066 0.03516,0.0098 0.67347,0.16417 1.602356,0.344299 2.574218,0.21875 0.05376,-0.0076 0.107191,-0.01736 0.160157,-0.0293 h 0.0039 l 0.908203,2.191407 h -0.002 c -0.04552,0.02944 -0.08983,0.06071 -0.132813,0.09375 -0.777202,0.599365 -1.307653,1.384042 -1.667968,1.976562 -0.0066,0.01036 -0.01312,0.02077 -0.01953,0.03125 -0.410896,0.705201 -0.740623,1.440982 -0.996093,2.201172 -0.551707,1.619564 -0.799598,3.301229 -0.835938,4.939453 -0.01205,0.545924 0.199643,1.073038 0.585938,1.458985 l 0.310546,0.310546 c 0.385947,0.386295 0.913061,0.597988 1.458985,0.585938 1.638217,-0.03634 3.319834,-0.282948 4.93164,-0.832031 0.774968,-0.260456 1.509617,-0.596411 2.208985,-1.003907 0.01048,-0.0064 0.02089,-0.01293 0.03125,-0.01953 0.587141,-0.357042 1.374473,-0.883331 1.976562,-1.664062 0.03374,-0.04358 0.06567,-0.08854 0.0957,-0.134766 l 2.189453,0.908203 v 0.0039 c -0.01194,0.05297 -0.02171,0.106396 -0.0293,0.160157 -0.125532,0.971834 0.05458,1.900734 0.21875,2.574218 0.0031,0.01175 0.0064,0.02347 0.0098,0.03516 0.207615,0.787266 0.491395,1.542749 0.84961,2.263672 0.7558,1.536615 1.772798,2.899216 2.904296,4.082031 0.377373,0.394325 0.899509,0.617291 1.445313,0.617187 h 0.4375 c 0.545804,1.04e-4 1.06794,-0.222862 1.445312,-0.617187 1.131499,-1.182816 2.14815,-2.544805 2.900391,-4.074219 0.361774,-0.728122 0.645901,-1.484214 0.853516,-2.271484 0.0034,-0.01169 0.0066,-0.02341 0.0098,-0.03516 0.16417,-0.673469 0.344299,-1.602356 0.21875,-2.574218 -0.0076,-0.05376 -0.01736,-0.107191 -0.0293,-0.160157 v -0.0039 l 2.189454,-0.908203 c 0.03003,0.04622 0.06196,0.09118 0.0957,0.134766 0.602089,0.780729 1.389422,1.307021 1.976562,1.664062 0.01036,0.0066 0.02077,0.01312 0.03125,0.01953 0.699365,0.407495 1.433965,0.742172 2.201172,1 1.619567,0.55171 3.301232,0.799598 4.939453,0.835938 0.545924,0.01205 1.073038,-0.199643 1.458985,-0.585938 l 0.310546,-0.310546 c 0.386295,-0.385947 0.597988,-0.913061 0.585938,-1.458985 -0.03634,-1.638217 -0.28295,-3.319835 -0.832031,-4.93164 -0.260455,-0.774969 -0.596409,-1.509616 -1.003907,-2.208985 -0.0064,-0.01048 -0.01293,-0.02089 -0.01953,-0.03125 -0.357042,-0.587141 -0.883331,-1.374473 -1.664062,-1.976562 -0.04358,-0.03374 -0.08854,-0.06567 -0.134766,-0.0957 l 0.908203,-2.189454 h 0.0039 c 0.05297,0.01194 0.106396,0.02171 0.160157,0.0293 0.971836,0.125533 1.900738,-0.05458 2.574218,-0.21875 0.01175,-0.0031 0.02347,-0.0064 0.03516,-0.0098 0.787265,-0.207615 1.542746,-0.491394 2.263672,-0.84961 1.536612,-0.7558 2.899215,-1.772798 4.082031,-2.904297 0.394325,-0.377372 0.617291,-0.899508 0.617187,-1.445312 v -0.4375 c 1.04e-4,-0.545804 -0.222862,-1.06794 -0.617187,-1.445313 -1.182816,-1.131497 -2.544804,-2.14815 -4.074219,-2.90039 -0.728122,-0.361773 -1.484215,-0.645901 -2.271484,-0.853516 -0.01169,-0.0034 -0.02341,-0.0066 -0.03516,-0.0098 -0.673469,-0.16417 -1.602356,-0.344299 -2.574218,-0.21875 -0.05376,0.0076 -0.107191,0.01736 -0.160157,0.0293 h -0.0039 l -0.908203,-2.189453 c 0.04622,-0.03003 0.09118,-0.06196 0.134766,-0.0957 0.780728,-0.602088 1.30702,-1.38942 1.664062,-1.976562 0.0066,-0.01036 0.01312,-0.02077 0.01953,-0.03125 0.407496,-0.699367 0.742172,-1.433965 1,-2.201172 0.551708,-1.619565 0.799598,-3.30123 0.835938,-4.939453 0.01205,-0.545924 -0.199643,-1.073038 -0.585938,-1.458985 L 50.509766,13.179688 C 50.123819,12.793393 49.596705,12.5817 49.050781,12.59375 c -1.638215,0.03634 -3.319834,0.282951 -4.93164,0.832031 -0.76795,0.258096 -1.50378,0.589101 -2.208985,1 -0.01048,0.0064 -0.02089,0.01292 -0.03125,0.01953 -0.592528,0.360317 -1.3772,0.890774 -1.976562,1.667968 -0.03374,0.04358 -0.06567,0.08854 -0.0957,0.134766 l -2.189454,-0.908203 v -0.0039 c 0.01194,-0.05297 0.02171,-0.106396 0.0293,-0.160157 0.125533,-0.971836 -0.05458,-1.900737 -0.21875,-2.574218 -0.0031,-0.01175 -0.0064,-0.02347 -0.0098,-0.03516 -0.207614,-0.787267 -0.491394,-1.542747 -0.84961,-2.263672 C 35.812559,8.7661225 34.795562,7.4035195 33.664062,6.2207031 33.28669,5.8263785 32.764554,5.6034119 32.21875,5.6035156 Z"
       style="fill:url(#linearGradient23);fill-rule:evenodd;stroke:#fce94f;stroke-width:2;stroke-dasharray:none;stroke-linejoin:round;stroke-linecap:round;stroke-opacity:1;font-variation-settings:normal;opacity:1;vector-effect:none;fill-opacity:1;stroke-miterlimit:4;stroke-dashoffset:0;-inkscape-stroke:none;stop-color:#000000;stop-opacity:1"
       id="path26" />
  </g>
</svg>
