<?xml version="1.0" encoding="UTF-8" standalone="no"?>
<!-- Created with Inkscape (http://www.inkscape.org/) -->

<svg
   width="64"
   height="64"
   id="svg2869"
   version="1.1"
   viewBox="0 0 64 64"
   xmlns:xlink="http://www.w3.org/1999/xlink"
   xmlns="http://www.w3.org/2000/svg"
   xmlns:svg="http://www.w3.org/2000/svg"
   xmlns:rdf="http://www.w3.org/1999/02/22-rdf-syntax-ns#"
   xmlns:cc="http://creativecommons.org/ns#"
   xmlns:dc="http://purl.org/dc/elements/1.1/">
  <title
     id="title23">involutegear</title>
  <defs
     id="defs2871">
    <linearGradient
       id="linearGradient22">
      <stop
         style="stop-color:#c4a000;stop-opacity:1"
         offset="0"
         id="stop22" />
      <stop
         style="stop-color:#fce94f;stop-opacity:1"
         offset="1"
         id="stop23" />
    </linearGradient>
    <linearGradient
       id="linearGradient5">
      <stop
         style="stop-color:#ef2929;stop-opacity:1;"
         offset="0"
         id="stop19" />
      <stop
         style="stop-color:#ef2929;stop-opacity:0;"
         offset="1"
         id="stop20" />
    </linearGradient>
    <linearGradient
       id="swatch18">
      <stop
         style="stop-color:#ef2929;stop-opacity:1;"
         offset="0"
         id="stop18" />
    </linearGradient>
    <linearGradient
       id="swatch15">
      <stop
         style="stop-color:#3d0000;stop-opacity:1;"
         offset="0"
         id="stop15" />
    </linearGradient>
    <linearGradient
       id="linearGradient5-1">
      <stop
         style="stop-color:#ef2929;stop-opacity:1;"
         offset="0"
         id="stop5" />
      <stop
         style="stop-color:#ef2929;stop-opacity:0;"
         offset="1"
         id="stop6" />
    </linearGradient>
    <linearGradient
       id="linearGradient3836-9">
      <stop
         style="stop-color:#a40000;stop-opacity:1"
         offset="0"
         id="stop3838-8" />
      <stop
         style="stop-color:#ef2929;stop-opacity:1"
         offset="1"
         id="stop3840-1" />
    </linearGradient>
    <linearGradient
       id="linearGradient3836-9-3">
      <stop
         style="stop-color:#a40000;stop-opacity:1"
         offset="0"
         id="stop3838-8-5" />
      <stop
         style="stop-color:#ef2929;stop-opacity:1"
         offset="1"
         id="stop3840-1-6" />
    </linearGradient>
    <linearGradient
       y2="5"
       x2="-22"
       y1="18"
       x1="-18"
       gradientUnits="userSpaceOnUse"
       id="linearGradient3082"
       xlink:href="#linearGradient3836-9-3" />
    <linearGradient
       id="linearGradient3836-9-7">
      <stop
         style="stop-color:#a40000;stop-opacity:1"
         offset="0"
         id="stop3838-8-0" />
      <stop
         style="stop-color:#ef2929;stop-opacity:1"
         offset="1"
         id="stop3840-1-9" />
    </linearGradient>
    <linearGradient
       y2="5"
       x2="-22"
       y1="18"
       x1="-18"
       gradientUnits="userSpaceOnUse"
       id="linearGradient3082-3"
       xlink:href="#linearGradient3836-9-7" />
    <linearGradient
       xlink:href="#linearGradient3836-9-3"
       id="linearGradient3801-1-3"
       gradientUnits="userSpaceOnUse"
       x1="-18"
       y1="18"
       x2="-22"
       y2="5"
       gradientTransform="matrix(0.76342439,0,0,0.75750425,-4.596389,2.7525637)" />
    <linearGradient
       xlink:href="#linearGradient3836-9-3"
       id="linearGradient3801-1-3-2"
       gradientUnits="userSpaceOnUse"
       x1="-18"
       y1="18"
       x2="-22"
       y2="5"
       gradientTransform="matrix(0.84956703,0,0,0.84301394,-2.927337,1.7790378)" />
    <linearGradient
       xlink:href="#linearGradient3838"
       id="linearGradient3844"
       x1="36"
       y1="1039.3622"
       x2="32"
       y2="1003.3622"
       gradientUnits="userSpaceOnUse"
       gradientTransform="translate(2.0563921e-6,-988.36218)" />
    <linearGradient
       id="linearGradient3838">
      <stop
         style="stop-color:#d3d7cf;stop-opacity:1;"
         offset="0"
         id="stop3840" />
      <stop
         style="stop-color:#ffffff;stop-opacity:1;"
         offset="1"
         id="stop3842" />
    </linearGradient>
    <linearGradient
       xlink:href="#linearGradient3830"
       id="linearGradient3836"
       x1="36"
       y1="1037.3622"
       x2="32"
       y2="1005.3622"
       gradientUnits="userSpaceOnUse"
       gradientTransform="translate(2.0563921e-6,-988.36218)" />
    <linearGradient
       id="linearGradient3830">
      <stop
         style="stop-color:#ffffff;stop-opacity:1;"
         offset="0"
         id="stop3832" />
      <stop
         style="stop-color:#d3d7cf;stop-opacity:1;"
         offset="1"
         id="stop3834" />
    </linearGradient>
    <linearGradient
       x1="10.504496"
       y1="16.48678"
       x2="5.9349072"
       y2="1.6356685"
       id="linearGradient-1"
       gradientTransform="scale(0.99999018,1.0000098)"
       gradientUnits="userSpaceOnUse">
      <stop
         stop-color="#A40000"
         offset="0%"
         id="stop6-9" />
      <stop
         stop-color="#EF2929"
         offset="100%"
         id="stop8" />
    </linearGradient>
    <linearGradient
       xlink:href="#linearGradient3815"
       id="linearGradient3856"
       gradientUnits="userSpaceOnUse"
       x1="80"
       y1="58"
       x2="79"
       y2="42" />
    <linearGradient
       id="linearGradient3815">
      <stop
         style="stop-color:#3465a4;stop-opacity:1"
         offset="0"
         id="stop3817" />
      <stop
         style="stop-color:#729fcf;stop-opacity:1"
         offset="1"
         id="stop3819" />
    </linearGradient>
    <linearGradient
       xlink:href="#linearGradient3841"
       id="linearGradient3858"
       gradientUnits="userSpaceOnUse"
       x1="109"
       y1="51"
       x2="105"
       y2="38" />
    <linearGradient
       id="linearGradient3841">
      <stop
         style="stop-color:#204a87;stop-opacity:1"
         offset="0"
         id="stop3843" />
      <stop
         style="stop-color:#3465a4;stop-opacity:1"
         offset="1"
         id="stop3845" />
    </linearGradient>
    <linearGradient
       y2="5"
       x2="-22"
       y1="18"
       x1="-18"
       gradientTransform="matrix(0.77114848,0,0,0.77113937,-4.4090973,2.5859051)"
       gradientUnits="userSpaceOnUse"
       id="linearGradient3898"
       xlink:href="#linearGradient3836-9-3" />
    <linearGradient
       xlink:href="#linearGradient3815"
       id="linearGradient3978"
       gradientUnits="userSpaceOnUse"
       x1="-15"
       y1="37"
       x2="-19"
       y2="37"
       gradientTransform="rotate(135.18861,5.7426909,37.969029)" />
    <linearGradient
       xlink:href="#linearGradient17"
       id="linearGradient3898-0"
       x1="37.429146"
       y1="41.590584"
       x2="24.483221"
       y2="4.9104676"
       gradientUnits="userSpaceOnUse" />
    <linearGradient
       id="linearGradient17">
      <stop
         style="stop-color:#ffffff;stop-opacity:1;"
         offset="0"
         id="stop16" />
      <stop
         style="stop-color:#ffffff;stop-opacity:0"
         offset="1"
         id="stop17" />
    </linearGradient>
    <linearGradient
       xlink:href="#linearGradient17"
       id="linearGradient3856-9"
       x1="22.84341"
       y1="4.8241611"
       x2="30.783579"
       y2="28.644661"
       gradientUnits="userSpaceOnUse" />
    <linearGradient
       id="linearGradient2">
      <stop
         style="stop-color:#73d216;stop-opacity:1;"
         offset="0"
         id="stop1" />
      <stop
         style="stop-color:#8ae234;stop-opacity:1;"
         offset="1"
         id="stop2" />
    </linearGradient>
    <linearGradient
       xlink:href="#linearGradient22"
       id="linearGradient23"
       x1="64"
       y1="64"
       x2="0"
       y2="0"
       gradientUnits="userSpaceOnUse" />
  </defs>
  <metadata
     id="metadata2874">
    <rdf:RDF>
      <cc:Work
         rdf:about="">
        <dc:format>image/svg+xml</dc:format>
        <dc:type
           rdf:resource="http://purl.org/dc/dcmitype/StillImage" />
        <dc:creator>
          <cc:Agent>
            <dc:title>[maxwxyz]</dc:title>
          </cc:Agent>
        </dc:creator>
        <dc:relation>https://www.freecad.org/wiki/index.php?title=Artwork</dc:relation>
        <dc:publisher>
          <cc:Agent>
            <dc:title>FreeCAD</dc:title>
          </cc:Agent>
        </dc:publisher>
        <dc:identifier>FreeCAD/src/</dc:identifier>
        <dc:rights>
          <cc:Agent>
            <dc:title>FreeCAD LGPL2+</dc:title>
          </cc:Agent>
        </dc:rights>
        <dc:date>2024</dc:date>
        <dc:title>involutegear</dc:title>
      </cc:Work>
    </rdf:RDF>
  </metadata>
  <g
     id="layer3"
     style="display:inline">
    <path
       d="m 30.428661,3.0000026 c -0.934266,1.172378 -1.692924,2.446958 -2.275215,3.827047 -0.262589,0.632191 -0.466199,1.284851 -0.609326,1.954043 -0.120364,0.613664 -0.208983,1.2458814 -0.123069,1.8700004 l 1.227656,5.730063 -5.324845,2.206177 -3.181701,-4.919627 C 19.761592,13.165621 19.250451,12.779899 18.731407,12.431044 18.157009,12.05907 17.554156,11.743917 16.92144,11.482538 15.53386,10.91842 14.094769,10.552337 12.605133,10.38395 l -2.221186,2.221187 c 0.168386,1.489636 0.534469,2.928726 1.098584,4.316307 0.261383,0.632715 0.576534,1.235569 0.948508,1.809966 0.348855,0.519045 0.734577,1.030185 1.23666,1.410755 l 4.919631,3.181701 -2.206179,5.324846 -5.730062,-1.227658 c -0.62412,-0.08592 -1.256336,0.0028 -1.869999,0.123069 C 8.111898,27.687247 7.459238,27.890861 6.827046,28.15345 5.446958,28.735742 4.172378,29.4944 3,30.428666 v 3.14268 c 1.172378,0.934266 2.446958,1.692924 3.827046,2.275216 0.632192,0.262587 1.28485,0.463198 1.954044,0.606324 0.613663,0.120363 1.245881,0.211986 1.869999,0.126065 l 5.730062,-1.230657 2.206179,5.327846 -4.919629,3.181701 c -0.50208,0.380567 -0.887802,0.891708 -1.236657,1.410751 -0.371974,0.574398 -0.687127,1.177253 -0.948508,1.809967 -0.564116,1.387582 -0.9302,2.826671 -1.098586,4.316307 l 2.221186,2.221188 c 1.489636,-0.168388 2.928727,-0.534471 4.316307,-1.098588 0.632716,-0.261381 1.235569,-0.576534 1.809967,-0.948508 0.519044,-0.348855 1.030185,-0.734577 1.410754,-1.23666 l 3.181701,-4.919629 5.324845,2.206179 -1.227656,5.72706 c -0.08592,0.624119 0.0028,1.259339 0.123069,1.873001 0.143124,0.669192 0.346737,1.318851 0.609326,1.951044 0.582291,1.380087 1.340949,2.657668 2.275215,3.830046 h 3.14268 c 0.934267,-1.172378 1.692925,-2.449959 2.275216,-3.830046 0.262589,-0.632193 0.463198,-1.281852 0.606324,-1.951044 0.120364,-0.613662 0.208984,-1.248882 0.123068,-1.873001 l -1.227656,-5.72706 5.327848,-2.206179 3.181701,4.919629 c 0.380569,0.502083 0.89171,0.887805 1.410753,1.23666 0.574399,0.371974 1.177253,0.687127 1.809968,0.948508 1.387581,0.564117 2.826671,0.9302 4.316307,1.098588 l 2.22118,-2.221188 C 53.447667,49.905231 53.081584,48.466142 52.517466,47.07856 52.256086,46.445846 51.940933,45.842991 51.56896,45.268594 51.220104,44.749551 50.834381,44.23841 50.332298,43.857839 l -4.919629,-3.181699 2.206179,-5.327848 5.727061,1.230658 c 0.624119,0.08592 1.259338,-0.0057 1.873001,-0.126066 0.669192,-0.143124 1.318851,-0.343736 1.951043,-0.606324 C 58.550041,35.264268 59.827622,34.50561 61,33.571344 V 30.428663 C 59.827622,29.494397 58.550041,28.735739 57.169953,28.153448 56.537761,27.890859 55.888102,27.687249 55.21891,27.544122 54.605247,27.423758 53.970028,27.335138 53.345909,27.421053 l -5.727061,1.227656 -2.206179,-5.324845 4.919629,-3.181701 c 0.502083,-0.380569 0.887806,-0.89171 1.236662,-1.410754 0.371973,-0.574398 0.687126,-1.177251 0.948506,-1.809967 0.564118,-1.38758 0.930201,-2.826671 1.098587,-4.316307 l -2.221186,-2.221186 c -1.489636,0.168386 -2.928727,0.534469 -4.316307,1.098587 -0.632716,0.26138 -1.235571,0.576533 -1.809968,0.948506 -0.519043,0.348856 -1.030184,0.734578 -1.410753,1.236662 l -3.181701,4.919628 -5.327848,-2.206178 1.227656,-5.730063 c 0.08592,-0.624118 -0.0028,-1.2563364 -0.123068,-1.8699994 -0.143125,-0.669192 -0.343735,-1.321852 -0.606324,-1.954044 -0.582291,-1.380088 -1.340949,-2.654668 -2.275216,-3.827046 z"
       style="fill:#fce94f;fill-rule:evenodd;stroke:#231f0b;stroke-width:2;stroke-dasharray:none;stroke-linejoin:round;stroke-linecap:round;stroke-opacity:1"
       id="path19" />
    <path
       d="m 31.431641,5 h 1.136718 c 0.565256,0.8125527 1.042253,1.6774917 1.429688,2.59375 0.210926,0.5078127 0.376154,1.0357004 0.49414,1.5800781 0.103477,0.5297461 0.139641,0.8763759 0.103516,1.1738279 l -1.203125,5.613282 c -0.202761,0.943868 0.297653,1.897859 1.189453,2.267578 l 5.328125,2.207031 c 0.892106,0.369748 1.921001,0.04925 2.445313,-0.761719 l 3.115234,-4.816406 c 0.179916,-0.22994 0.452037,-0.452217 0.886719,-0.746094 l 0.0039,-0.002 c 0.467429,-0.30239 0.957033,-0.560496 1.470703,-0.773437 0.926718,-0.376756 1.879558,-0.650795 2.859375,-0.826172 l 0.798828,0.798828 c -0.175377,0.979817 -0.449416,1.932657 -0.826172,2.859375 -0.212941,0.513669 -0.471046,1.003272 -0.773437,1.470703 -7.91e-4,0.0012 -0.0012,0.0027 -0.002,0.0039 -0.293875,0.43468 -0.516152,0.706802 -0.746094,0.886719 l -4.816406,3.115234 c -0.810965,0.524312 -1.131467,1.553207 -0.761719,2.445313 l 2.207031,5.324218 c 0.36958,0.89094 1.322401,1.391172 2.265625,1.189454 l 5.609375,-1.201172 c 0.297447,-0.03641 0.650417,6.2e-5 1.179688,0.103515 0.0031,6.06e-4 0.0047,0.0013 0.0078,0.002 0.536016,0.116751 1.057666,0.282018 1.56836,0.494141 0.919172,0.388654 1.784837,0.864743 2.597656,1.429688 v 1.136718 c -0.812819,0.564944 -1.678483,1.041032 -2.597656,1.429688 -0.509134,0.211474 -1.034715,0.376755 -1.576172,0.49414 -0.531497,0.103903 -0.883918,0.140983 -1.177735,0.105469 l -5.609375,-1.205078 c -0.943868,-0.202761 -1.897859,0.297653 -2.267578,1.189453 l -2.207031,5.328125 c -0.369748,0.892106 -0.04925,1.921001 0.761719,2.445313 l 4.816406,3.115234 c 0.230682,0.180497 0.452751,0.453506 0.748047,0.890625 0.302389,0.467427 0.560495,0.957033 0.773437,1.470703 0.376756,0.926721 0.650795,1.879559 0.826172,2.859375 l -0.798828,0.798828 c -0.979818,-0.175378 -1.932655,-0.449416 -2.859375,-0.826172 -0.513674,-0.212944 -1.003274,-0.471047 -1.470703,-0.773437 -0.0012,-7.91e-4 -0.0027,-0.0012 -0.0039,-0.002 -0.434678,-0.293873 -0.706802,-0.516153 -0.886719,-0.746094 l -3.115234,-4.816406 c -0.524312,-0.810965 -1.553207,-1.131467 -2.445313,-0.761719 l -5.328125,2.207031 c -0.8918,0.369719 -1.392214,1.32371 -1.189453,2.267578 l 1.203125,5.609375 c 0.03604,0.297087 -2.64e-4,0.6495 -0.103516,1.177735 -0.117388,0.541466 -0.282667,1.067042 -0.49414,1.576172 C 33.609392,57.321516 33.133303,58.187181 32.568359,59 h -1.136718 c -0.564945,-0.81282 -1.041033,-1.678484 -1.429688,-2.597656 -0.212126,-0.510701 -0.377394,-1.032355 -0.494141,-1.56836 l -0.002,-0.0078 c -0.103438,-0.529606 -0.139896,-0.882409 -0.103515,-1.179688 l 1.201172,-5.609375 c 0.201718,-0.943224 -0.298514,-1.896045 -1.189454,-2.265625 l -5.324218,-2.207031 c -0.892106,-0.369748 -1.921001,-0.04925 -2.445313,0.761719 l -3.115234,4.816406 c -0.180494,0.230678 -0.453508,0.452753 -0.890625,0.748047 -0.467427,0.30239 -0.957029,0.560493 -1.470703,0.773437 -0.926718,0.376755 -1.879557,0.650794 -2.859375,0.826172 l -0.798828,-0.798828 c 0.175378,-0.979816 0.449416,-1.932652 0.826172,-2.859375 0.212945,-0.513675 0.471048,-1.003277 0.773437,-1.470703 7.91e-4,-0.0012 0.0012,-0.0027 0.002,-0.0039 0.293872,-0.434677 0.516156,-0.706804 0.746094,-0.886719 l 4.816406,-3.115234 c 0.810965,-0.524312 1.131467,-1.553207 0.761719,-2.445313 l -2.207031,-5.328125 c -0.369719,-0.8918 -1.32371,-1.392214 -2.267578,-1.189453 l -5.613282,1.205078 c -0.294336,0.03562 -0.6411481,-0.0013 -1.1738279,-0.105469 -0.00312,-6.09e-4 -0.00468,-0.0013 -0.00781,-0.002 C 8.6244282,34.372373 8.0991089,34.207953 7.59375,33.998047 6.6774911,33.610611 5.8125531,33.133614 5,32.568359 v -1.136718 c 0.8125531,-0.565255 1.6774911,-1.042252 2.59375,-1.429688 0.5087382,-0.211311 1.0339269,-0.376922 1.5722656,-0.494141 l 0.00977,-0.002 c 0.5295243,-0.10335 0.8764087,-0.139955 1.1738277,-0.103515 l 5.613282,1.201172 c 0.943224,0.201718 1.896045,-0.298514 2.265625,-1.189454 l 2.207031,-5.324218 c 0.369748,-0.892106 0.04925,-1.921001 -0.761719,-2.445313 l -4.816406,-3.115234 c -0.229946,-0.179921 -0.452223,-0.452043 -0.746094,-0.886719 l -0.002,-0.0039 C 13.806989,17.171251 13.548887,16.681651 13.335938,16.167969 12.959182,15.241246 12.685144,14.28841 12.509766,13.308594 l 0.798828,-0.798828 c 0.979818,0.175378 1.932657,0.449416 2.859375,0.826172 0.513667,0.21294 1.003273,0.471046 1.470703,0.773437 0.0012,7.91e-4 0.0027,0.0012 0.0039,0.002 0.43468,0.293874 0.706803,0.516153 0.886719,0.746094 l 3.115234,4.816406 c 0.524312,0.810965 1.553207,1.131467 2.445313,0.761719 l 5.324218,-2.207031 c 0.89094,-0.36958 1.391172,-1.322401 1.189454,-2.265625 l -1.201172,-5.613282 c -0.03646,-0.297588 1.5e-4,-0.6446385 0.103515,-1.1738277 7.54e-4,-0.00386 0.0012,-0.00589 0.002,-0.00977 C 29.625036,8.6276657 29.790645,8.1024808 30.001953,7.59375 30.389388,6.677492 30.866385,5.8125531 31.431641,5 Z"
       style="fill:url(#linearGradient23);fill-rule:evenodd;stroke:#fce94f;stroke-width:2;stroke-dasharray:none;stroke-linejoin:round;stroke-linecap:round;stroke-opacity:1"
       id="path20" />
  </g>
</svg>
