<?xml version="1.0" encoding="UTF-8" standalone="no"?>
<!-- Created with Inkscape (http://www.inkscape.org/) -->

<svg
   width="64"
   height="64"
   id="svg2869"
   version="1.1"
   viewBox="0 0 64 64"
   xmlns:xlink="http://www.w3.org/1999/xlink"
   xmlns="http://www.w3.org/2000/svg"
   xmlns:svg="http://www.w3.org/2000/svg"
   xmlns:rdf="http://www.w3.org/1999/02/22-rdf-syntax-ns#"
   xmlns:cc="http://creativecommons.org/ns#"
   xmlns:dc="http://purl.org/dc/elements/1.1/">
  <title
     id="title23">lanterngear</title>
  <defs
     id="defs2871">
    <linearGradient
       id="linearGradient5">
      <stop
         style="stop-color:#ef2929;stop-opacity:1;"
         offset="0"
         id="stop19" />
      <stop
         style="stop-color:#ef2929;stop-opacity:0;"
         offset="1"
         id="stop20" />
    </linearGradient>
    <linearGradient
       id="swatch18">
      <stop
         style="stop-color:#ef2929;stop-opacity:1;"
         offset="0"
         id="stop18" />
    </linearGradient>
    <linearGradient
       id="swatch15">
      <stop
         style="stop-color:#3d0000;stop-opacity:1;"
         offset="0"
         id="stop15" />
    </linearGradient>
    <linearGradient
       id="linearGradient5-1">
      <stop
         style="stop-color:#ef2929;stop-opacity:1;"
         offset="0"
         id="stop5" />
      <stop
         style="stop-color:#ef2929;stop-opacity:0;"
         offset="1"
         id="stop6" />
    </linearGradient>
    <linearGradient
       id="linearGradient3836-9">
      <stop
         style="stop-color:#a40000;stop-opacity:1"
         offset="0"
         id="stop3838-8" />
      <stop
         style="stop-color:#ef2929;stop-opacity:1"
         offset="1"
         id="stop3840-1" />
    </linearGradient>
    <linearGradient
       xlink:href="#linearGradient59"
       id="linearGradient846"
       x1="58.196716"
       y1="49.972424"
       x2="58.197704"
       y2="17.442623"
       gradientUnits="userSpaceOnUse"
       gradientTransform="matrix(1.0428047,0,0,1.0432797,-1.3697824,-1.3849651)" />
    <linearGradient
       id="linearGradient59">
      <stop
         style="stop-color:#c4a000;stop-opacity:1;"
         offset="0"
         id="stop59" />
      <stop
         style="stop-color:#fce94f;stop-opacity:1;"
         offset="0.67682928"
         id="stop58" />
      <stop
         style="stop-color:#c4a000;stop-opacity:1;"
         offset="1"
         id="stop805" />
    </linearGradient>
    <linearGradient
       xlink:href="#linearGradient59"
       id="linearGradient842"
       x1="24.211432"
       y1="49.059666"
       x2="24.858622"
       y2="12.503376"
       gradientUnits="userSpaceOnUse"
       gradientTransform="matrix(1.0428047,0,0,1.0432797,-1.3697824,-1.3849651)" />
    <linearGradient
       xlink:href="#linearGradient59"
       id="linearGradient840"
       x1="7.8155646"
       y1="50.543022"
       x2="8.3967581"
       y2="12.291364"
       gradientUnits="userSpaceOnUse"
       gradientTransform="matrix(1.0428047,0,0,1.0432797,-1.3697824,-1.3849651)" />
    <linearGradient
       xlink:href="#linearGradient59"
       id="linearGradient844"
       x1="41.310841"
       y1="50.331081"
       x2="41.639793"
       y2="14.198631"
       gradientUnits="userSpaceOnUse"
       gradientTransform="matrix(1.0428047,0,0,1.0432797,-1.3697824,-1.3849651)" />
    <linearGradient
       xlink:href="#linearGradient59-1"
       id="linearGradient775"
       x1="1615.5502"
       y1="963.38916"
       x2="1705.1536"
       y2="1063.3772"
       gradientUnits="userSpaceOnUse" />
    <linearGradient
       id="linearGradient59-1">
      <stop
         style="stop-color:#fce94f;stop-opacity:1"
         offset="0"
         id="stop59-0" />
      <stop
         style="stop-color:#c4a000;stop-opacity:1"
         offset="1"
         id="stop58-6" />
    </linearGradient>
    <linearGradient
       xlink:href="#linearGradient6"
       id="linearGradient777"
       x1="1493.8453"
       y1="882.08173"
       x2="1598.384"
       y2="1011.619"
       gradientUnits="userSpaceOnUse" />
    <linearGradient
       id="linearGradient6">
      <stop
         style="stop-color:#729fcf;stop-opacity:1;"
         offset="0"
         id="stop6-7" />
      <stop
         style="stop-color:#3465a4;stop-opacity:1;"
         offset="1"
         id="stop5-3" />
    </linearGradient>
    <linearGradient
       xlink:href="#linearGradient6"
       id="linearGradient777-6"
       x1="1493.8453"
       y1="882.08173"
       x2="1598.384"
       y2="1011.619"
       gradientUnits="userSpaceOnUse" />
    <linearGradient
       xlink:href="#linearGradient22"
       id="linearGradient23"
       x1="64"
       y1="64"
       x2="0"
       y2="0"
       gradientUnits="userSpaceOnUse" />
    <linearGradient
       id="linearGradient22">
      <stop
         style="stop-color:#c4a000;stop-opacity:1"
         offset="0"
         id="stop22" />
      <stop
         style="stop-color:#fce94f;stop-opacity:1"
         offset="1"
         id="stop23" />
    </linearGradient>
    <linearGradient
       xlink:href="#linearGradient22"
       id="linearGradient23-0"
       x1="64"
       y1="64"
       x2="0"
       y2="0"
       gradientUnits="userSpaceOnUse" />
  </defs>
  <metadata
     id="metadata2874">
    <rdf:RDF>
      <cc:Work
         rdf:about="">
        <dc:format>image/svg+xml</dc:format>
        <dc:type
           rdf:resource="http://purl.org/dc/dcmitype/StillImage" />
        <dc:creator>
          <cc:Agent>
            <dc:title>[maxwxyz]</dc:title>
          </cc:Agent>
        </dc:creator>
        <dc:relation>https://www.freecad.org/wiki/index.php?title=Artwork</dc:relation>
        <dc:publisher>
          <cc:Agent>
            <dc:title>FreeCAD</dc:title>
          </cc:Agent>
        </dc:publisher>
        <dc:identifier>FreeCAD/src/</dc:identifier>
        <dc:rights>
          <cc:Agent>
            <dc:title>FreeCAD LGPL2+</dc:title>
          </cc:Agent>
        </dc:rights>
        <dc:date>2024</dc:date>
        <dc:title>lanterngear</dc:title>
      </cc:Work>
    </rdf:RDF>
  </metadata>
  <g
     id="layer3"
     style="display:inline">
    <path
       d="M 21.571413,4.0000003 C 20.895361,4.251765 20.229489,4.527629 19.573398,4.8276177 19.325638,5.9360228 19.202763,7.0584334 19.202823,8.19367 c 0.01871,1.0758956 0.128466,2.179725 0.565127,3.174588 1.899849,2.377801 1.707462,5.802851 -0.44469,7.955002 -2.152152,2.152152 -5.577202,2.34454 -7.955001,0.444689 -0.994863,-0.436656 -2.0986928,-0.54642 -3.17459,-0.565125 -1.1352366,-6e-5 -2.2576472,0.122822 -3.3660523,0.370575 -0.2999887,0.656091 -0.5758527,1.321963 -0.8276158,1.998013 0.6085234,0.959009 1.3125638,1.840754 2.1153624,2.643432 0.7739953,0.747523 1.6343277,1.451968 2.6465201,1.846698 3.0248086,0.337972 5.3115696,2.894856 5.3115696,5.938459 0,3.043602 -2.286761,5.600485 -5.3115696,5.938457 -1.0121924,0.394731 -1.8725248,1.099174 -2.6465201,1.846697 -0.8027986,0.802679 -1.506839,1.684424 -2.1153624,2.643432 0.2517631,0.67605 0.5276271,1.341924 0.8276158,1.998015 1.1084051,0.24776 2.2308157,0.370633 3.3660523,0.370575 1.0758972,-0.0187 2.179727,-0.125383 3.17459,-0.562039 2.377799,-1.899849 5.802849,-1.71055 7.955001,0.441602 2.152152,2.15215 2.344539,5.5772 0.44469,7.955001 -0.436658,0.994864 -0.546422,2.101781 -0.565127,3.177677 -6e-5,1.135236 0.122822,2.254559 0.370575,3.362964 0.656091,0.29999 1.321963,0.575854 1.998015,0.827617 0.959007,-0.608523 1.840752,-1.312563 2.643432,-2.115364 0.747521,-0.773995 1.451966,-1.631238 1.846696,-2.643432 0.337972,-3.024807 2.894856,-5.314657 5.938459,-5.314657 3.043602,0 5.600485,2.28985 5.938457,5.314657 0.394731,1.012194 1.099174,1.869437 1.846697,2.643432 0.802679,0.802801 1.684424,1.506841 2.643432,2.115364 0.67605,-0.251763 1.341924,-0.527627 1.998015,-0.827617 0.24776,-1.108405 0.370633,-2.227728 0.370575,-3.362964 -0.0187,-1.075896 -0.125383,-2.182813 -0.562039,-3.177677 -1.899849,-2.377801 -1.71055,-5.802851 0.441602,-7.955001 2.15215,-2.152152 5.5772,-2.341451 7.955001,-0.441602 0.994864,0.436658 2.101781,0.543334 3.177677,0.562039 1.135236,5.8e-5 2.254559,-0.122821 3.362964,-0.370575 0.29999,-0.656091 0.575854,-1.321965 0.827617,-1.998015 -0.608523,-0.959008 -1.312563,-1.840753 -2.115364,-2.643432 -0.773995,-0.747523 -1.631238,-1.451966 -2.643432,-1.846697 -3.024807,-0.337972 -5.314657,-2.894855 -5.314657,-5.938457 0,-3.043603 2.28985,-5.600487 5.314657,-5.938459 1.012194,-0.39473 1.869437,-1.099175 2.643432,-1.846698 0.802801,-0.802678 1.506841,-1.684423 2.115364,-2.643432 -0.251644,-0.675811 -0.527687,-1.342162 -0.827617,-1.998013 -1.108405,-0.24776 -2.227728,-0.370635 -3.362964,-0.370575 -1.075896,0.01871 -2.182813,0.128466 -3.177677,0.565125 C 50.253939,21.6678 46.828889,21.475412 44.676739,19.32326 42.524587,17.171109 42.335288,13.746059 44.235137,11.368258 44.671795,10.373395 44.778471,9.2695656 44.797176,8.19367 44.797234,7.0584334 44.674355,5.9360228 44.426601,4.8276177 43.77051,4.527629 43.104636,4.251765 42.428586,4.0000003 41.469578,4.6085238 40.587833,5.3125657 39.785154,6.1153643 39.037631,6.8893596 38.333188,7.7496904 37.938457,8.7618844 37.600485,11.786693 35.043602,14.073454 32,14.073454 c -3.043603,0 -5.600487,-2.286761 -5.938459,-5.3115696 C 25.666811,7.7496904 24.962366,6.8893596 24.214845,6.1153643 23.412165,5.3125657 22.53042,4.6085238 21.571413,4.0000003 Z"
       style="fill:#fce94f;fill-rule:evenodd;stroke:#231f0b;stroke-width:2;stroke-linecap:round;stroke-linejoin:round;stroke-dasharray:none;stroke-opacity:1"
       id="path69" />
    <path
       d="m 21.353516,6.296875 c 0.503806,0.3772519 0.988766,0.7768297 1.435546,1.2226562 0.623958,0.6476072 1.074925,1.22106 1.34375,1.8300782 C 24.74414,13.214954 28.047657,16.074219 32,16.074219 c 3.952342,0 7.25586,-2.859264 7.867187,-6.7246096 0.268827,-0.6090211 0.719793,-1.1824735 1.34375,-1.8300782 0.44678,-0.445826 0.931741,-0.8454045 1.435547,-1.2226562 0.08896,0.6228062 0.149695,1.2484892 0.150391,1.8808594 -0.01669,0.9029395 -0.103168,1.62414 -0.34375,2.2441406 -2.299833,3.16525 -1.985907,7.521907 0.808594,10.316406 2.794072,2.794075 7.150671,3.110612 10.316406,0.810547 0.621141,-0.241112 1.344998,-0.329022 2.246094,-0.345703 0.631897,6.94e-4 1.257133,0.06157 1.878906,0.150391 -0.377251,0.503805 -0.776831,0.988769 -1.222656,1.435546 -0.648548,0.624891 -1.219935,1.075226 -1.828125,1.34375 -3.865373,0.611269 -6.726563,3.913989 -6.726563,7.867188 0,3.953198 2.861189,7.255919 6.726563,7.867187 0.608192,0.268526 1.179578,0.71886 1.828125,1.34375 0.445826,0.446779 0.845405,0.931742 1.222656,1.435547 -0.621778,0.08883 -1.24701,0.149696 -1.878906,0.150391 -0.903034,-0.01669 -1.626375,-0.103393 -2.246094,-0.34375 -3.16525,-2.299833 -7.521907,-1.985908 -10.316406,0.808594 -2.794503,2.7945 -3.108427,7.151156 -0.808594,10.316406 0.240359,0.619725 0.327062,1.343072 0.34375,2.246094 -6.95e-4,0.6319 -0.06157,1.257133 -0.150391,1.878906 -0.503805,-0.377251 -0.988768,-0.77683 -1.435547,-1.222656 -0.62489,-0.648547 -1.075224,-1.219933 -1.34375,-1.828125 C 39.255919,50.78697 35.953198,47.925781 32,47.925781 c -3.953199,0 -7.255919,2.86119 -7.867188,6.726563 -0.268523,0.608189 -0.718859,1.179576 -1.34375,1.828125 -0.446779,0.445826 -0.931741,0.845405 -1.435546,1.222656 -0.08883,-0.621778 -0.149697,-1.247014 -0.150391,-1.878906 0.01668,-0.901085 0.104589,-1.624948 0.345703,-2.246094 2.300063,-3.165734 1.983528,-7.522334 -0.810547,-10.316406 C 17.94378,40.467217 13.587124,40.153291 10.421875,42.453125 9.8018683,42.693709 9.0806634,42.780189 8.1777344,42.796875 7.5453597,42.796179 6.9196771,42.73544 6.296875,42.646484 6.6741267,42.142679 7.0737052,41.657717 7.5195312,41.210937 8.1671352,40.586981 8.7405886,40.136015 9.3496094,39.867187 13.214955,39.25586 16.074219,35.952342 16.074219,32 c 0,-3.952343 -2.859265,-7.25586 -6.7246096,-7.867188 C 8.7405903,23.863987 8.1671357,23.413019 7.5195312,22.789062 7.0737056,22.342284 6.6741264,21.857321 6.296875,21.353516 c 0.6228068,-0.08896 1.2484929,-0.149696 1.8808594,-0.150391 0.9010158,0.01667 1.6226974,0.104359 2.2441406,0.345703 3.165733,2.300066 7.522333,1.983527 10.316406,-0.810547 2.794075,-2.794073 3.110609,-7.150672 0.810547,-10.316406 C 21.307486,9.800442 21.219801,9.0787636 21.203125,8.1777344 21.20382,7.5453627 21.264559,6.919677 21.353516,6.296875 Z"
       style="fill:url(#linearGradient23);fill-rule:evenodd;stroke:#fce94f;stroke-width:2;stroke-linecap:round;stroke-linejoin:round;stroke-dasharray:none;stroke-opacity:1;font-variation-settings:normal;opacity:1;vector-effect:none;fill-opacity:1;stroke-miterlimit:4;stroke-dashoffset:0;-inkscape-stroke:none;stop-color:#000000;stop-opacity:1"
       id="path70" />
  </g>
</svg>
