<?xml version="1.0" encoding="UTF-8" standalone="no"?>
<svg
   xmlns:dc="http://purl.org/dc/elements/1.1/"
   xmlns:cc="http://creativecommons.org/ns#"
   xmlns:rdf="http://www.w3.org/1999/02/22-rdf-syntax-ns#"
   xmlns:svg="http://www.w3.org/2000/svg"
   xmlns="http://www.w3.org/2000/svg"
   xmlns:xlink="http://www.w3.org/1999/xlink"
   xmlns:sodipodi="http://sodipodi.sourceforge.net/DTD/sodipodi-0.dtd"
   xmlns:inkscape="http://www.inkscape.org/namespaces/inkscape"
   width="64px"
   height="64px"
   id="svg3799"
   version="1.1"
   inkscape:version="1.0 (6e3e5246a0, 2020-05-07)"
   sodipodi:docname="laterngear.svg">
  <sodipodi:namedview
     inkscape:document-rotation="0"
     inkscape:lockguides="false"
     inkscape:snap-others="false"
     inkscape:snap-nodes="false"
     inkscape:snap-intersection-paths="true"
     inkscape:object-nodes="true"
     inkscape:object-paths="true"
     inkscape:window-maximized="1"
     inkscape:window-y="34"
     inkscape:window-x="83"
     inkscape:window-height="1018"
     inkscape:window-width="1837"
     inkscape:guide-bbox="true"
     showguides="true"
     inkscape:snap-center="true"
     inkscape:grid-bbox="true"
     inkscape:document-units="px"
     showgrid="true"
     inkscape:current-layer="g145"
     inkscape:cy="32.967238"
     inkscape:cx="32.311615"
     inkscape:zoom="11"
     inkscape:pageshadow="2"
     inkscape:pageopacity="0.0"
     borderopacity="1.0"
     bordercolor="#666666"
     pagecolor="#ffffff"
     id="base">
    <sodipodi:guide
       inkscape:locked="false"
       orientation="1,0"
       position="32,32"
       id="guide3783" />
    <sodipodi:guide
       inkscape:locked="false"
       orientation="0,1"
       position="32,32"
       id="guide3785" />
    <sodipodi:guide
       inkscape:locked="false"
       orientation="1,0"
       position="0,0"
       id="guide9301" />
    <sodipodi:guide
       inkscape:locked="false"
       orientation="0,1"
       position="0,0"
       id="guide9303" />
    <sodipodi:guide
       inkscape:locked="false"
       orientation="0,1"
       position="0,64"
       id="guide9305" />
    <sodipodi:guide
       inkscape:locked="false"
       orientation="1,0"
       position="64,64"
       id="guide9307" />
    <sodipodi:guide
       inkscape:locked="false"
       id="guide4358"
       orientation="1,0"
       position="51.168818,70.453548" />
  </sodipodi:namedview>
  <defs
     id="defs3801">
    <inkscape:path-effect
       effect="spiro"
       id="path-effect9409"
       is_visible="true" />
    <inkscape:path-effect
       effect="spiro"
       id="path-effect9405"
       is_visible="true" />
    <inkscape:path-effect
       effect="spiro"
       id="path-effect9398"
       is_visible="true" />
    <inkscape:path-effect
       effect="spiro"
       id="path-effect9390"
       is_visible="true" />
    <inkscape:path-effect
       effect="spiro"
       id="path-effect9384"
       is_visible="true" />
    <linearGradient
       inkscape:collect="always"
       id="linearGradient9347">
      <stop
         style="stop-color:#0079ff;stop-opacity:1;"
         offset="0"
         id="stop9349" />
      <stop
         style="stop-color:#0079ff;stop-opacity:0"
         offset="1"
         id="stop9351" />
    </linearGradient>
    <marker
       inkscape:stockid="Arrow2Mstart"
       orient="auto"
       refY="0.0"
       refX="0.0"
       id="Arrow2Mstart"
       style="overflow:visible">
      <path
         id="path4317"
         style="fill-rule:evenodd;stroke-width:0.62500000;stroke-linejoin:round"
         d="M 8.7185878,4.0337352 L -2.2072895,0.016013256 L 8.7185884,-4.0017078 C 6.9730900,-1.6296469 6.9831476,1.6157441 8.7185878,4.0337352 z "
         transform="scale(0.6) translate(0,0)" />
    </marker>
    <marker
       inkscape:stockid="Arrow1Mend"
       orient="auto"
       refY="0.0"
       refX="0.0"
       id="Arrow1Mend"
       style="overflow:visible;">
      <path
         id="path4302"
         d="M 0.0,0.0 L 5.0,-5.0 L -12.5,0.0 L 5.0,5.0 L 0.0,0.0 z "
         style="fill-rule:evenodd;stroke:#000000;stroke-width:1.0pt;"
         transform="scale(0.4) rotate(180) translate(10,0)" />
    </marker>
    <marker
       inkscape:stockid="Arrow2Mend"
       orient="auto"
       refY="0.0"
       refX="0.0"
       id="Arrow2Mend"
       style="overflow:visible;">
      <path
         id="path4320"
         style="fill-rule:evenodd;stroke-width:0.62500000;stroke-linejoin:round;"
         d="M 8.7185878,4.0337352 L -2.2072895,0.016013256 L 8.7185884,-4.0017078 C 6.9730900,-1.6296469 6.9831476,1.6157441 8.7185878,4.0337352 z "
         transform="scale(0.6) rotate(180) translate(0,0)" />
    </marker>
    <marker
       inkscape:stockid="Arrow1Mstart"
       orient="auto"
       refY="0.0"
       refX="0.0"
       id="Arrow1Mstart"
       style="overflow:visible">
      <path
         id="path4299"
         d="M 0.0,0.0 L 5.0,-5.0 L -12.5,0.0 L 5.0,5.0 L 0.0,0.0 z "
         style="fill-rule:evenodd;stroke:#000000;stroke-width:1.0pt"
         transform="scale(0.4) translate(10,0)" />
    </marker>
    <marker
       inkscape:stockid="Arrow1Lend"
       orient="auto"
       refY="0.0"
       refX="0.0"
       id="Arrow1Lend"
       style="overflow:visible;">
      <path
         id="path4296"
         d="M 0.0,0.0 L 5.0,-5.0 L -12.5,0.0 L 5.0,5.0 L 0.0,0.0 z "
         style="fill-rule:evenodd;stroke:#000000;stroke-width:1.0pt;"
         transform="scale(0.8) rotate(180) translate(12.5,0)" />
    </marker>
    <marker
       inkscape:stockid="Arrow2Lend"
       orient="auto"
       refY="0.0"
       refX="0.0"
       id="Arrow2Lend"
       style="overflow:visible;">
      <path
         id="path4314"
         style="fill-rule:evenodd;stroke-width:0.62500000;stroke-linejoin:round;"
         d="M 8.7185878,4.0337352 L -2.2072895,0.016013256 L 8.7185884,-4.0017078 C 6.9730900,-1.6296469 6.9831476,1.6157441 8.7185878,4.0337352 z "
         transform="scale(1.1) rotate(180) translate(1,0)" />
    </marker>
    <marker
       inkscape:stockid="EmptyTriangleOutL"
       orient="auto"
       refY="0.0"
       refX="0.0"
       id="EmptyTriangleOutL"
       style="overflow:visible">
      <path
         id="path4487"
         d="M 5.77,0.0 L -2.88,5.0 L -2.88,-5.0 L 5.77,0.0 z "
         style="fill-rule:evenodd;fill:#FFFFFF;stroke:#000000;stroke-width:1.0pt"
         transform="scale(0.8) translate(-6,0)" />
    </marker>
    <marker
       inkscape:stockid="DotS"
       orient="auto"
       refY="0.0"
       refX="0.0"
       id="DotS"
       style="overflow:visible">
      <path
         id="path4394"
         d="M -2.5,-1.0 C -2.5,1.7600000 -4.7400000,4.0 -7.5,4.0 C -10.260000,4.0 -12.5,1.7600000 -12.5,-1.0 C -12.5,-3.7600000 -10.260000,-6.0 -7.5,-6.0 C -4.7400000,-6.0 -2.5,-3.7600000 -2.5,-1.0 z "
         style="fill-rule:evenodd;stroke:#000000;stroke-width:1.0pt"
         transform="scale(0.2) translate(7.4, 1)" />
    </marker>
    <marker
       inkscape:stockid="DotL"
       orient="auto"
       refY="0.0"
       refX="0.0"
       id="DotL"
       style="overflow:visible">
      <path
         id="path4388"
         d="M -2.5,-1.0 C -2.5,1.7600000 -4.7400000,4.0 -7.5,4.0 C -10.260000,4.0 -12.5,1.7600000 -12.5,-1.0 C -12.5,-3.7600000 -10.260000,-6.0 -7.5,-6.0 C -4.7400000,-6.0 -2.5,-3.7600000 -2.5,-1.0 z "
         style="fill-rule:evenodd;stroke:#000000;stroke-width:1.0pt"
         transform="scale(0.8) translate(7.4, 1)" />
    </marker>
    <marker
       inkscape:stockid="Tail"
       orient="auto"
       refY="0.0"
       refX="0.0"
       id="Tail"
       style="overflow:visible">
      <g
         id="g4363"
         transform="scale(-1.2)">
        <path
           id="path4365"
           d="M -3.8048674,-3.9585227 L 0.54352094,0"
           style="fill:none;fill-rule:evenodd;stroke:#000000;stroke-width:0.8;stroke-linecap:round" />
        <path
           id="path4367"
           d="M -1.2866832,-3.9585227 L 3.0617053,0"
           style="fill:none;fill-rule:evenodd;stroke:#000000;stroke-width:0.8;stroke-linecap:round" />
        <path
           id="path4369"
           d="M 1.3053582,-3.9585227 L 5.6537466,0"
           style="fill:none;fill-rule:evenodd;stroke:#000000;stroke-width:0.8;stroke-linecap:round" />
        <path
           id="path4371"
           d="M -3.8048674,4.1775838 L 0.54352094,0.21974226"
           style="fill:none;fill-rule:evenodd;stroke:#000000;stroke-width:0.8;stroke-linecap:round" />
        <path
           id="path4373"
           d="M -1.2866832,4.1775838 L 3.0617053,0.21974226"
           style="fill:none;fill-rule:evenodd;stroke:#000000;stroke-width:0.8;stroke-linecap:round" />
        <path
           id="path4375"
           d="M 1.3053582,4.1775838 L 5.6537466,0.21974226"
           style="fill:none;fill-rule:evenodd;stroke:#000000;stroke-width:0.8;stroke-linecap:round" />
      </g>
    </marker>
    <marker
       inkscape:stockid="Arrow1Sstart"
       orient="auto"
       refY="0.0"
       refX="0.0"
       id="Arrow1Sstart"
       style="overflow:visible">
      <path
         id="path4339"
         d="M 0.0,0.0 L 5.0,-5.0 L -12.5,0.0 L 5.0,5.0 L 0.0,0.0 z "
         style="fill-rule:evenodd;stroke:#000000;stroke-width:1.0pt"
         transform="scale(0.2) translate(6,0)" />
    </marker>
    <marker
       inkscape:stockid="Arrow1Lstart"
       orient="auto"
       refY="0.0"
       refX="0.0"
       id="Arrow1Lstart"
       style="overflow:visible">
      <path
         id="path4327"
         d="M 0.0,0.0 L 5.0,-5.0 L -12.5,0.0 L 5.0,5.0 L 0.0,0.0 z "
         style="fill-rule:evenodd;stroke:#000000;stroke-width:1.0pt"
         transform="scale(0.8) translate(12.5,0)" />
    </marker>
    <marker
       inkscape:stockid="Arrow1Mstart"
       orient="auto"
       refY="0"
       refX="0"
       id="Arrow1Mstart-9"
       style="overflow:visible">
      <path
         inkscape:connector-curvature="0"
         id="path4299-1"
         d="M 0,0 5,-5 -12.5,0 5,5 0,0 z"
         style="fill-rule:evenodd;stroke:#000000;stroke-width:1pt"
         transform="matrix(0.4,0,0,0.4,4,0)" />
    </marker>
    <marker
       inkscape:stockid="Arrow2Mend"
       orient="auto"
       refY="0"
       refX="0"
       id="Arrow2Mend-7"
       style="overflow:visible">
      <path
         inkscape:connector-curvature="0"
         id="path4320-8"
         style="fill-rule:evenodd;stroke-width:0.625;stroke-linejoin:round"
         d="M 8.7185878,4.0337352 -2.2072895,0.01601326 8.7185884,-4.0017078 c -1.7454984,2.3720609 -1.7354408,5.6174519 -6e-7,8.035443 z"
         transform="scale(-0.6,-0.6)" />
    </marker>
    <linearGradient
       inkscape:collect="always"
       xlink:href="#linearGradient9347"
       id="linearGradient9353"
       x1="-21.345743"
       y1="40.800289"
       x2="1.8271284"
       y2="47.081963"
       gradientUnits="userSpaceOnUse" />
  </defs>
  <metadata
     id="metadata3804">
    <rdf:RDF>
      <cc:Work
         rdf:about="">
        <dc:format>image/svg+xml</dc:format>
        <dc:type
           rdf:resource="http://purl.org/dc/dcmitype/StillImage" />
        <dc:title />
      </cc:Work>
    </rdf:RDF>
  </metadata>
  <g
     id="layer1"
     inkscape:label="Layer 1"
     inkscape:groupmode="layer">
    <rect
       style="fill:#ffbf00;stroke:none;fill-opacity:1"
       id="rect3156"
       width="63.804237"
       height="63.986015"
       x="0.18181612"
       y="1.4630233e-07"
       ry="15.401461" />
  </g>
  <g
     transform="matrix(0.23119221,0,0,0.23119221,-46.22244,84.315861)"
     id="g145">
    <path
       style="fill:#000000;fill-rule:evenodd;stroke:#000000;stroke-width:3.60196;stroke-miterlimit:4;stroke-dasharray:none"
       stroke-width="0.35 px"
       stroke="#191919"
       d="m 418.14842,-204.34447 c -0.37056,0.0316 -0.74185,0.0564 -1.11348,0.073 -0.32792,0.0147 -0.65611,0.0229 -0.98431,0.024 -0.28446,6.3e-4 -0.56894,-0.004 -0.8532,-0.0144 -0.24051,-0.009 -0.48088,-0.0229 -0.72081,-0.0419 -0.19632,-0.0155 -0.39234,-0.0349 -0.58785,-0.0585 -0.15208,-0.0185 -0.30381,-0.0395 -0.45497,-0.0642 -0.10797,-0.0177 -0.21563,-0.0371 -0.32285,-0.0591 -0.0643,-0.0131 -0.12846,-0.0273 -0.19209,-0.0432 -0.0212,-0.006 -0.0424,-0.0109 -0.0635,-0.0169 q -8.58837,-2.27379 -12.94924,5.46656 -2.83421,8.42006 4.60229,13.281 c 0.0185,0.0117 0.0368,0.0237 0.055,0.036 0.0545,0.0366 0.10787,0.0748 0.16067,0.11385 0.088,0.0651 0.17456,0.13195 0.25993,0.20035 0.11951,0.0958 0.23673,0.19444 0.35217,0.29513 0.14839,0.12945 0.29386,0.26227 0.43682,0.39772 0.17473,0.16552 0.34572,0.33502 0.51347,0.50763 0.19826,0.204 0.39197,0.41239 0.58164,0.62438 0.21887,0.2446 0.43234,0.49399 0.64091,0.74745 0.23634,0.28727 0.46638,0.57976 0.69085,0.8763 l -5.83682,8.03353 c -0.35139,-0.12185 -0.70065,-0.25023 -1.04689,-0.38625 -0.30551,-0.12004 -0.60865,-0.246 -0.90891,-0.37856 -0.26024,-0.11488 -0.51828,-0.23472 -0.77355,-0.36023 -0.21601,-0.1062 -0.43002,-0.21644 -0.64145,-0.33147 -0.17299,-0.0941 -0.34426,-0.19143 -0.51324,-0.29254 -0.13144,-0.0786 -0.26149,-0.15965 -0.38952,-0.24374 -0.0915,-0.06 -0.18186,-0.12166 -0.2709,-0.1853 -0.0534,-0.0382 -0.1063,-0.0771 -0.15793,-0.11763 -0.0171,-0.0136 -0.0343,-0.0273 -0.0511,-0.0412 q -6.92105,-5.57038 -14.05318,-0.27294 -6.01393,6.53934 -1.19748,14.00472 c 0.012,0.0182 0.024,0.0366 0.0355,0.0551 0.035,0.0556 0.0681,0.11224 0.10044,0.16934 0.054,0.0952 0.10582,0.19154 0.15597,0.28877 0.0702,0.13611 0.13719,0.27392 0.20166,0.41285 0.0829,0.17863 0.1618,0.35913 0.2373,0.541 0.0923,0.22231 0.17958,0.44667 0.26263,0.67261 0.0982,0.267 0.19033,0.53614 0.27739,0.80695 0.10045,0.31246 0.19403,0.62713 0.28148,0.9435 0.0991,0.35857 0.19027,0.71934 0.27471,1.08154 l -8.59977,4.96506 c -0.27144,-0.25423 -0.5383,-0.51357 -0.79928,-0.77866 -0.23027,-0.23389 -0.45597,-0.47229 -0.67635,-0.71551 -0.19099,-0.21081 -0.378,-0.42524 -0.56017,-0.64373 -0.15411,-0.18488 -0.30479,-0.37265 -0.45117,-0.56372 -0.11975,-0.15632 -0.23665,-0.31488 -0.34987,-0.476 -0.0881,-0.12531 -0.17394,-0.25219 -0.25672,-0.38108 -0.059,-0.092 -0.11665,-0.18513 -0.17209,-0.27946 -0.0332,-0.0566 -0.0658,-0.11365 -0.0964,-0.17171 -0.0103,-0.0193 -0.0201,-0.0388 -0.0301,-0.0584 q -4.05687,-7.90384 -12.72706,-5.9653 -8.15378,3.5279 -6.79016,12.30689 c 0.004,0.0215 0.007,0.0432 0.0101,0.0648 0.009,0.0649 0.0166,0.13024 0.0229,0.19559 0.0106,0.10891 0.0188,0.21802 0.0251,0.32724 0.009,0.15291 0.0139,0.30603 0.0163,0.45919 0.003,0.19692 0.002,0.39388 -0.003,0.59075 -0.006,0.24063 -0.0177,0.4811 -0.0337,0.72125 -0.0191,0.28382 -0.0441,0.56722 -0.0748,0.85004 -0.0353,0.32631 -0.0778,0.65183 -0.12661,0.97642 -0.0553,0.36787 -0.11878,0.73453 -0.18895,1.09977 l -9.87571,1.03801 c -0.14459,-0.34265 -0.28287,-0.68812 -0.41347,-1.03645 -0.11523,-0.30735 -0.22445,-0.61692 -0.32686,-0.92876 -0.0887,-0.27025 -0.17236,-0.54222 -0.2499,-0.81591 -0.0656,-0.23157 -0.12689,-0.46441 -0.18287,-0.69849 -0.0458,-0.19153 -0.0881,-0.38391 -0.12603,-0.57716 -0.0295,-0.1503 -0.0563,-0.30114 -0.0795,-0.45254 -0.0166,-0.10812 -0.0313,-0.21658 -0.0436,-0.32529 -0.007,-0.0652 -0.0139,-0.13059 -0.0183,-0.19609 -0.001,-0.0218 -0.003,-0.0436 -0.004,-0.0656 q -0.49144,-8.87065 -9.20054,-10.6262 -8.88377,-0.0936 -11.2088,8.48109 c -0.006,0.0212 -0.0111,0.0423 -0.0171,0.0633 -0.0179,0.0632 -0.0379,0.12572 -0.0587,0.188 -0.0346,0.10379 -0.0715,0.20679 -0.11023,0.30913 -0.0541,0.14325 -0.11177,0.28522 -0.17187,0.42612 -0.0773,0.18115 -0.15864,0.36053 -0.24327,0.53835 -0.10344,0.21735 -0.21175,0.43233 -0.32409,0.6452 -0.13275,0.25158 -0.2711,0.50021 -0.41409,0.74612 -0.16501,0.28373 -0.33621,0.56383 -0.51282,0.8405 -0.20015,0.31357 -0.40726,0.62273 -0.61992,0.92784 l -9.44414,-3.0686 c 0.007,-0.37183 0.0215,-0.74368 0.0438,-1.115 0.0199,-0.32765 0.0459,-0.65489 0.0792,-0.98141 0.0288,-0.283 0.0631,-0.56546 0.10355,-0.84701 0.0343,-0.23826 0.073,-0.47587 0.11703,-0.71249 0.036,-0.1936 0.0756,-0.38655 0.11962,-0.57852 0.0342,-0.14929 0.071,-0.29801 0.11142,-0.44576 0.0288,-0.10552 0.0595,-0.21058 0.0925,-0.31489 0.0199,-0.0626 0.0404,-0.12493 0.0631,-0.18655 0.008,-0.0207 0.0152,-0.0409 0.0232,-0.0613 q 3.15907,-8.30364 -4.08305,-13.44971 -8.07768,-3.69882 -13.68932,3.18884 c -0.0136,0.0171 -0.0275,0.0341 -0.0415,0.0508 -0.0421,0.0504 -0.0857,0.0994 -0.13001,0.14791 -0.0738,0.0808 -0.14946,0.15983 -0.22645,0.23757 -0.10777,0.10887 -0.21813,0.21512 -0.33033,0.31938 -0.14426,0.13407 -0.29156,0.26483 -0.4412,0.39286 -0.1829,0.15646 -0.36932,0.30881 -0.55852,0.4576 -0.2236,0.17584 -0.45111,0.3467 -0.68175,0.51319 -0.26614,0.19206 -0.53647,0.37833 -0.81034,0.55925 -0.3104,0.20503 -0.62533,0.40325 -0.94371,0.59548 l -7.37943,-6.64449 c 0.1579,-0.33672 0.32208,-0.67066 0.49358,-1.00079 0.1513,-0.29128 0.30826,-0.5796 0.47148,-0.86435 0.14146,-0.24677 0.28761,-0.4909 0.43911,-0.73166 0.12819,-0.20374 0.26022,-0.40504 0.39672,-0.60329 0.11166,-0.16221 0.22633,-0.32236 0.34459,-0.47985 0.092,-0.12248 0.18611,-0.24337 0.28309,-0.3619 0.0693,-0.0847 0.14001,-0.16817 0.2126,-0.25002 0.0436,-0.0491 0.0878,-0.0977 0.1335,-0.14475 0.0152,-0.0158 0.0307,-0.0312 0.0462,-0.0466 q 6.26334,-6.30088 1.74043,-13.94769 -5.87487,-6.66452 -13.80283,-2.65479 c -0.0195,0.0101 -0.039,0.0199 -0.0585,0.0295 -0.0589,0.0289 -0.11875,0.056 -0.17893,0.0822 -0.10034,0.0438 -0.20155,0.0852 -0.30348,0.12492 -0.14272,0.0556 -0.28676,0.10781 -0.43168,0.15742 -0.18632,0.0638 -0.37407,0.12337 -0.56284,0.17943 -0.23073,0.0685 -0.46299,0.1319 -0.69636,0.19088 -0.27579,0.0697 -0.55312,0.13326 -0.83154,0.19153 -0.32125,0.0672 -0.64397,0.12743 -0.96776,0.18132 -0.36696,0.061 -0.73528,0.11404 -1.10431,0.16016 l -4.03897,-9.07169 c 0.28121,-0.2434 0.56704,-0.48166 0.85795,-0.71351 0.2567,-0.20457 0.51737,-0.40411 0.7823,-0.59787 0.2296,-0.16791 0.46241,-0.33148 0.69874,-0.4898 0.19997,-0.13397 0.40247,-0.26417 0.60779,-0.38978 0.168,-0.10282 0.33789,-0.20241 0.50998,-0.2982 0.13383,-0.0745 0.26899,-0.14662 0.40582,-0.21546 0.0978,-0.0492 0.1963,-0.0966 0.29591,-0.14195 0.0598,-0.0273 0.11991,-0.0535 0.18084,-0.0779 0.0203,-0.008 0.0407,-0.0161 0.0613,-0.0237 q 8.28464,-3.20858 7.26299,-12.03391 -2.65627,-8.47788 -11.52971,-8.03939 c -0.0218,0.001 -0.0437,0.003 -0.0656,0.003 -0.0655,0.003 -0.13125,0.003 -0.19689,0.003 -0.10942,-6.3e-4 -0.21879,-0.004 -0.32808,-0.009 -0.15298,-0.007 -0.3058,-0.0183 -0.45837,-0.0318 -0.19617,-0.0174 -0.3919,-0.0395 -0.58717,-0.065 -0.23867,-0.0312 -0.47662,-0.0678 -0.71378,-0.10887 -0.2803,-0.0485 -0.5595,-0.10325 -0.83756,-0.16326 -0.32083,-0.0692 -0.64013,-0.14551 -0.95783,-0.22799 -0.36008,-0.0935 -0.7181,-0.19491 -1.07399,-0.30286 v -9.93016 c 0.35589,-0.10796 0.71392,-0.2094 1.07399,-0.30286 0.3177,-0.0825 0.637,-0.15875 0.95783,-0.22799 0.27806,-0.06 0.55727,-0.11474 0.83756,-0.16324 0.23716,-0.041 0.47511,-0.0777 0.71378,-0.10886 0.19527,-0.0256 0.39101,-0.0475 0.58717,-0.065 0.15257,-0.0136 0.30539,-0.0245 0.45837,-0.0318 0.10929,-0.005 0.21866,-0.008 0.32808,-0.009 0.0657,-5e-4 0.13131,-1.3e-4 0.19689,0.003 0.0218,6.3e-4 0.0438,0.002 0.0656,0.003 q 8.87344,0.43849 11.52971,-8.03939 1.02165,-8.82533 -7.26299,-12.03391 c -0.0205,-0.008 -0.0409,-0.0156 -0.0613,-0.0237 -0.0609,-0.0245 -0.12106,-0.0507 -0.18084,-0.0779 -0.0996,-0.0453 -0.19819,-0.0927 -0.29591,-0.14196 -0.13683,-0.0689 -0.27199,-0.14099 -0.40582,-0.21546 -0.17209,-0.0963 -0.34198,-0.1959 -0.50998,-0.29866 -0.20532,-0.12561 -0.40782,-0.25582 -0.60779,-0.38978 -0.23633,-0.15832 -0.46915,-0.32189 -0.69874,-0.4898 -0.26493,-0.19375 -0.5256,-0.3933 -0.7823,-0.59787 -0.29093,-0.23184 -0.57674,-0.47012 -0.85795,-0.71351 l 4.03897,-9.07165 c 0.36903,0.0461 0.73735,0.0991 1.10431,0.16016 0.32379,0.054 0.64651,0.1141 0.96776,0.18132 0.27842,0.0582 0.55575,0.12183 0.83154,0.19153 0.23337,0.059 0.46563,0.12232 0.69636,0.19088 0.18877,0.0561 0.37653,0.11564 0.56284,0.17944 0.14491,0.0496 0.28896,0.10179 0.43167,0.15741 0.10199,0.0397 0.20319,0.0812 0.30349,0.12493 0.0602,0.0261 0.12002,0.0533 0.17893,0.0822 0.0196,0.01 0.0392,0.0196 0.0585,0.0295 q 7.92795,4.00973 13.80283,-2.6548 4.52291,-7.64681 -1.74044,-13.94766 c -0.0155,-0.0152 -0.031,-0.0309 -0.0462,-0.0466 -0.0457,-0.047 -0.0899,-0.0956 -0.1335,-0.14475 -0.0726,-0.0819 -0.14334,-0.16536 -0.2126,-0.25003 -0.0969,-0.11856 -0.19113,-0.23942 -0.2831,-0.3619 -0.11825,-0.15755 -0.23292,-0.31771 -0.34459,-0.47991 -0.1365,-0.19826 -0.26853,-0.39956 -0.39672,-0.60329 -0.15149,-0.24075 -0.29765,-0.48488 -0.43911,-0.73166 -0.16322,-0.28476 -0.32019,-0.57307 -0.47148,-0.86435 -0.17148,-0.33013 -0.33568,-0.66407 -0.49358,-1.00079 l 7.37954,-6.64457 c 0.31838,0.19223 0.63332,0.39044 0.94371,0.59547 0.27387,0.18093 0.54421,0.36717 0.81034,0.55927 0.23066,0.16648 0.45815,0.33735 0.68175,0.51319 0.18922,0.14878 0.37562,0.30113 0.55852,0.45759 0.14965,0.12802 0.29694,0.2588 0.4412,0.39286 0.11222,0.10427 0.22257,0.21053 0.33033,0.31937 0.077,0.0777 0.1526,0.15682 0.22645,0.23758 0.0442,0.0485 0.088,0.0975 0.13001,0.14791 0.0139,0.0167 0.0279,0.0337 0.0415,0.0509 q 5.61171,6.88785 13.68939,3.18904 7.24212,-5.14608 4.08305,-13.44972 c -0.008,-0.0204 -0.0158,-0.0409 -0.0232,-0.0613 -0.0226,-0.0616 -0.0433,-0.12394 -0.0631,-0.18653 -0.0331,-0.10433 -0.0637,-0.20936 -0.0925,-0.31489 -0.0403,-0.14774 -0.0772,-0.29645 -0.11142,-0.44577 -0.0439,-0.19197 -0.0836,-0.38491 -0.11962,-0.57852 -0.0441,-0.23663 -0.0827,-0.47425 -0.11703,-0.71249 -0.0404,-0.28157 -0.0747,-0.56401 -0.10355,-0.84701 -0.0332,-0.32651 -0.0594,-0.65377 -0.0791,-0.98142 -0.0223,-0.37132 -0.0365,-0.74317 -0.0438,-1.115 l 9.44414,-3.06859 c 0.21266,0.3051 0.41977,0.61427 0.61992,0.92783 0.17661,0.27667 0.34782,0.55677 0.51282,0.84051 0.14301,0.24591 0.28132,0.49453 0.41409,0.74611 0.11231,0.21288 0.22066,0.42787 0.3241,0.64521 0.0846,0.17781 0.16599,0.3572 0.24327,0.53835 0.0601,0.14089 0.1177,0.28285 0.17187,0.42612 0.0387,0.1023 0.0756,0.20533 0.11022,0.30913 0.0207,0.0623 0.0407,0.12486 0.0587,0.18799 0.006,0.0211 0.0117,0.0422 0.0171,0.0633 q 2.32502,8.57464 11.2088,8.48109 8.70909,-1.75554 9.20053,-10.6262 c 0.001,-0.0218 0.003,-0.0437 0.004,-0.0655 0.004,-0.0655 0.0109,-0.13084 0.0183,-0.19608 0.0123,-0.10872 0.0269,-0.21716 0.0436,-0.3253 0.0232,-0.1514 0.05,-0.30224 0.0795,-0.45254 0.0379,-0.19325 0.0802,-0.38564 0.12602,-0.57716 0.056,-0.23408 0.11727,-0.46691 0.18287,-0.69849 0.0775,-0.27369 0.16116,-0.54565 0.24991,-0.81591 0.10241,-0.31183 0.21162,-0.62141 0.32686,-0.92875 0.13059,-0.34834 0.26888,-0.69379 0.41347,-1.03646 l 9.87543,1.03803 c 0.0702,0.36524 0.13362,0.7319 0.18895,1.09977 0.0488,0.32458 0.0913,0.65011 0.12661,0.97641 0.0306,0.28282 0.0559,0.56621 0.0748,0.85005 0.0161,0.24015 0.0276,0.48063 0.0337,0.72124 0.005,0.19688 0.006,0.39384 0.003,0.59076 -0.003,0.15315 -0.008,0.30628 -0.0164,0.45919 -0.006,0.10922 -0.0144,0.21833 -0.0251,0.32724 -0.006,0.0653 -0.0136,0.13061 -0.0229,0.19558 -0.003,0.0216 -0.007,0.0433 -0.0101,0.0648 q -1.36365,8.77903 6.79013,12.30692 8.67019,1.93855 12.72718,-5.96532 c 0.01,-0.0196 0.0199,-0.039 0.0301,-0.0584 0.0307,-0.058 0.0632,-0.1151 0.0964,-0.1717 0.0555,-0.0944 0.11297,-0.1874 0.17209,-0.27946 0.0828,-0.12889 0.16863,-0.25576 0.25672,-0.38108 0.11324,-0.16112 0.23011,-0.31967 0.34986,-0.47601 0.14639,-0.19107 0.29704,-0.37885 0.45117,-0.56372 0.18217,-0.21848 0.36918,-0.43292 0.56017,-0.64372 0.22036,-0.24322 0.44609,-0.48161 0.67635,-0.71552 0.261,-0.26509 0.52784,-0.52444 0.79929,-0.77866 l 8.59976,4.96507 c -0.0844,0.36219 -0.1756,0.72297 -0.27471,1.08154 -0.0875,0.31637 -0.18102,0.63103 -0.28147,0.94349 -0.0871,0.27081 -0.17926,0.53998 -0.2774,0.80696 -0.0831,0.22594 -0.17032,0.45029 -0.26262,0.6726 -0.0755,0.18187 -0.15437,0.36238 -0.2373,0.54101 -0.0645,0.13893 -0.13144,0.27674 -0.20167,0.41285 -0.0501,0.0973 -0.10197,0.1936 -0.15597,0.28877 -0.0324,0.0571 -0.0656,0.11379 -0.10044,0.16934 -0.0117,0.0185 -0.0234,0.037 -0.0355,0.0551 q -4.81658,7.4654 1.19734,14.00473 7.13214,5.29744 14.05318,-0.27298 c 0.0169,-0.0139 0.0339,-0.0276 0.0511,-0.0412 0.0516,-0.0405 0.10451,-0.0795 0.15794,-0.11763 0.089,-0.0636 0.17944,-0.12526 0.2709,-0.18529 0.12803,-0.0841 0.25808,-0.16507 0.38952,-0.24374 0.16899,-0.10115 0.34023,-0.19844 0.51324,-0.29254 0.21143,-0.11501 0.42544,-0.22526 0.64144,-0.33147 0.25528,-0.1255 0.51333,-0.24534 0.77356,-0.36023 0.30025,-0.13255 0.6034,-0.25854 0.90891,-0.37855 0.34624,-0.13605 0.69551,-0.26443 1.04689,-0.38626 l 5.83681,8.0337 c -0.22445,0.29654 -0.4545,0.58904 -0.69085,0.8763 -0.20856,0.25347 -0.42204,0.50285 -0.64091,0.74745 -0.18968,0.21198 -0.38339,0.42037 -0.58164,0.62437 -0.16776,0.17261 -0.33874,0.3421 -0.51347,0.50763 -0.14295,0.13545 -0.28842,0.26827 -0.43682,0.39773 -0.11543,0.10063 -0.23265,0.19934 -0.35217,0.29513 -0.0854,0.0684 -0.17192,0.13538 -0.25993,0.20035 -0.0528,0.039 -0.10616,0.0773 -0.16067,0.11383 -0.0183,0.0123 -0.0365,0.0242 -0.055,0.0359 q -7.43646,4.86098 -4.60225,13.28104 4.36087,7.74035 12.94924,5.46656 c 0.021,-0.006 0.0423,-0.0115 0.0635,-0.0169 0.0636,-0.0161 0.12779,-0.0301 0.1921,-0.0432 0.1072,-0.022 0.21487,-0.0415 0.32284,-0.0591 0.15115,-0.0248 0.30291,-0.0458 0.45497,-0.0642 0.19551,-0.0237 0.39154,-0.0429 0.58784,-0.0585 0.23995,-0.0191 0.48031,-0.0327 0.72082,-0.0419 0.28427,-0.0109 0.56874,-0.0152 0.8532,-0.0144 0.32821,0.001 0.65639,0.009 0.98431,0.024 0.37162,0.0166 0.74292,0.0414 1.11348,0.073 a 82.330752,82.330752 0 0 1 2.06462,9.71294 c -0.32571,0.17963 -0.65482,0.35329 -0.9876,0.51958 -0.29361,0.1467 -0.59008,0.28771 -0.8895,0.42214 -0.2595,0.11651 -0.52122,0.2281 -0.78532,0.33382 -0.22346,0.0894 -0.44859,0.17473 -0.67555,0.25489 -0.18567,0.0656 -0.3726,0.12776 -0.56082,0.18566 -0.14641,0.0451 -0.29361,0.0875 -0.44176,0.12639 -0.10581,0.0278 -0.21212,0.0537 -0.31896,0.0773 -0.0641,0.0142 -0.12841,0.0274 -0.19308,0.0386 -0.0215,0.004 -0.0431,0.007 -0.0648,0.0106 a 10.283182,10.283182 0 0 0 3e-5,20.52179 c 0.0215,0.003 0.0432,0.007 0.0648,0.0106 0.0647,0.0111 0.12898,0.0245 0.19311,0.0386 0.10684,0.0237 0.21314,0.0495 0.31896,0.0773 0.14815,0.0389 0.29535,0.0814 0.44175,0.1264 0.18824,0.0579 0.37514,0.12006 0.56083,0.18566 0.22695,0.0802 0.4521,0.16544 0.67555,0.25488 0.26411,0.10574 0.52581,0.21733 0.78532,0.33382 0.29942,0.13443 0.59589,0.27543 0.88949,0.42215 0.33278,0.16629 0.66189,0.33994 0.98755,0.51954 l -2.06462,9.71319"
       id="LaternGear_w0000" />
    <text
       xml:space="preserve"
       style="font-style:normal;font-weight:normal;font-size:322.964px;line-height:1.25;font-family:sans-serif;fill:#000000;fill-opacity:1;stroke:none;stroke-width:4.32541"
       x="273.94473"
       y="-106.89703"
       id="text268"><tspan
         sodipodi:role="line"
         id="tspan266"
         x="273.94473"
         y="-106.89703"
         style="font-size:322.964px;fill:#ff0000;stroke-width:4.32541">!</tspan></text>
  </g>
</svg>
