<?xml version="1.0" encoding="UTF-8" standalone="no"?>
<svg
   sodipodi:docname="timinggear.svg"
   inkscape:version="1.2 (dc2aeda, 2022-05-15)"
   version="1.1"
   id="svg3799"
   height="64px"
   width="64px"
   xmlns:inkscape="http://www.inkscape.org/namespaces/inkscape"
   xmlns:sodipodi="http://sodipodi.sourceforge.net/DTD/sodipodi-0.dtd"
   xmlns:xlink="http://www.w3.org/1999/xlink"
   xmlns="http://www.w3.org/2000/svg"
   xmlns:svg="http://www.w3.org/2000/svg"
   xmlns:rdf="http://www.w3.org/1999/02/22-rdf-syntax-ns#"
   xmlns:cc="http://creativecommons.org/ns#"
   xmlns:dc="http://purl.org/dc/elements/1.1/">
  <sodipodi:namedview
     id="base"
     pagecolor="#ffffff"
     bordercolor="#666666"
     borderopacity="1.0"
     inkscape:pageopacity="0.0"
     inkscape:pageshadow="2"
     inkscape:zoom="7.7781746"
     inkscape:cx="39.855109"
     inkscape:cy="39.855109"
     inkscape:current-layer="g145"
     showgrid="true"
     inkscape:document-units="px"
     inkscape:grid-bbox="true"
     inkscape:snap-center="false"
     showguides="true"
     inkscape:guide-bbox="true"
     inkscape:window-width="1387"
     inkscape:window-height="872"
     inkscape:window-x="53"
     inkscape:window-y="0"
     inkscape:window-maximized="1"
     inkscape:object-paths="true"
     inkscape:object-nodes="true"
     inkscape:snap-intersection-paths="true"
     inkscape:snap-nodes="false"
     inkscape:snap-others="true"
     inkscape:lockguides="false"
     inkscape:document-rotation="0"
     inkscape:showpageshadow="2"
     inkscape:pagecheckerboard="0"
     inkscape:deskcolor="#d1d1d1">
    <sodipodi:guide
       id="guide3783"
       position="32.035283,43.640454"
       orientation="1,0"
       inkscape:locked="false" />
    <sodipodi:guide
       id="guide3785"
       position="32,32"
       orientation="0,1"
       inkscape:locked="false" />
    <sodipodi:guide
       id="guide9301"
       position="0,0"
       orientation="1,0"
       inkscape:locked="false" />
    <sodipodi:guide
       id="guide9303"
       position="0,0"
       orientation="0,1"
       inkscape:locked="false" />
    <sodipodi:guide
       id="guide9305"
       position="0,64"
       orientation="0,1"
       inkscape:locked="false" />
    <sodipodi:guide
       id="guide9307"
       position="64,64"
       orientation="1,0"
       inkscape:locked="false" />
    <sodipodi:guide
       position="51.168818,70.453548"
       orientation="1,0"
       id="guide4358"
       inkscape:locked="false" />
  </sodipodi:namedview>
  <defs
     id="defs3801">
    <inkscape:path-effect
       is_visible="true"
       id="path-effect9409"
       effect="spiro" />
    <inkscape:path-effect
       is_visible="true"
       id="path-effect9405"
       effect="spiro" />
    <inkscape:path-effect
       is_visible="true"
       id="path-effect9398"
       effect="spiro" />
    <inkscape:path-effect
       is_visible="true"
       id="path-effect9390"
       effect="spiro" />
    <inkscape:path-effect
       is_visible="true"
       id="path-effect9384"
       effect="spiro" />
    <linearGradient
       id="linearGradient9347"
       inkscape:collect="always">
      <stop
         id="stop9349"
         offset="0"
         style="stop-color:#0079ff;stop-opacity:1;" />
      <stop
         id="stop9351"
         offset="1"
         style="stop-color:#0079ff;stop-opacity:0" />
    </linearGradient>
    <marker
       style="overflow:visible"
       id="Arrow2Mstart"
       refX="0.0"
       refY="0.0"
       orient="auto"
       inkscape:stockid="Arrow2Mstart">
      <path
         transform="scale(0.6) translate(0,0)"
         d="M 8.7185878,4.0337352 L -2.2072895,0.016013256 L 8.7185884,-4.0017078 C 6.9730900,-1.6296469 6.9831476,1.6157441 8.7185878,4.0337352 z "
         style="fill-rule:evenodd;stroke-width:0.62500000;stroke-linejoin:round"
         id="path4317" />
    </marker>
    <marker
       style="overflow:visible;"
       id="Arrow1Mend"
       refX="0.0"
       refY="0.0"
       orient="auto"
       inkscape:stockid="Arrow1Mend">
      <path
         transform="scale(0.4) rotate(180) translate(10,0)"
         style="fill-rule:evenodd;stroke:#000000;stroke-width:1.0pt;"
         d="M 0.0,0.0 L 5.0,-5.0 L -12.5,0.0 L 5.0,5.0 L 0.0,0.0 z "
         id="path4302" />
    </marker>
    <marker
       style="overflow:visible;"
       id="Arrow2Mend"
       refX="0.0"
       refY="0.0"
       orient="auto"
       inkscape:stockid="Arrow2Mend">
      <path
         transform="scale(0.6) rotate(180) translate(0,0)"
         d="M 8.7185878,4.0337352 L -2.2072895,0.016013256 L 8.7185884,-4.0017078 C 6.9730900,-1.6296469 6.9831476,1.6157441 8.7185878,4.0337352 z "
         style="fill-rule:evenodd;stroke-width:0.62500000;stroke-linejoin:round;"
         id="path4320" />
    </marker>
    <marker
       style="overflow:visible"
       id="Arrow1Mstart"
       refX="0.0"
       refY="0.0"
       orient="auto"
       inkscape:stockid="Arrow1Mstart">
      <path
         transform="scale(0.4) translate(10,0)"
         style="fill-rule:evenodd;stroke:#000000;stroke-width:1.0pt"
         d="M 0.0,0.0 L 5.0,-5.0 L -12.5,0.0 L 5.0,5.0 L 0.0,0.0 z "
         id="path4299" />
    </marker>
    <marker
       style="overflow:visible;"
       id="Arrow1Lend"
       refX="0.0"
       refY="0.0"
       orient="auto"
       inkscape:stockid="Arrow1Lend">
      <path
         transform="scale(0.8) rotate(180) translate(12.5,0)"
         style="fill-rule:evenodd;stroke:#000000;stroke-width:1.0pt;"
         d="M 0.0,0.0 L 5.0,-5.0 L -12.5,0.0 L 5.0,5.0 L 0.0,0.0 z "
         id="path4296" />
    </marker>
    <marker
       style="overflow:visible;"
       id="Arrow2Lend"
       refX="0.0"
       refY="0.0"
       orient="auto"
       inkscape:stockid="Arrow2Lend">
      <path
         transform="scale(1.1) rotate(180) translate(1,0)"
         d="M 8.7185878,4.0337352 L -2.2072895,0.016013256 L 8.7185884,-4.0017078 C 6.9730900,-1.6296469 6.9831476,1.6157441 8.7185878,4.0337352 z "
         style="fill-rule:evenodd;stroke-width:0.62500000;stroke-linejoin:round;"
         id="path4314" />
    </marker>
    <marker
       style="overflow:visible"
       id="EmptyTriangleOutL"
       refX="0.0"
       refY="0.0"
       orient="auto"
       inkscape:stockid="EmptyTriangleOutL">
      <path
         transform="scale(0.8) translate(-6,0)"
         style="fill-rule:evenodd;fill:#FFFFFF;stroke:#000000;stroke-width:1.0pt"
         d="M 5.77,0.0 L -2.88,5.0 L -2.88,-5.0 L 5.77,0.0 z "
         id="path4487" />
    </marker>
    <marker
       style="overflow:visible"
       id="DotS"
       refX="0.0"
       refY="0.0"
       orient="auto"
       inkscape:stockid="DotS">
      <path
         transform="scale(0.2) translate(7.4, 1)"
         style="fill-rule:evenodd;stroke:#000000;stroke-width:1.0pt"
         d="M -2.5,-1.0 C -2.5,1.7600000 -4.7400000,4.0 -7.5,4.0 C -10.260000,4.0 -12.5,1.7600000 -12.5,-1.0 C -12.5,-3.7600000 -10.260000,-6.0 -7.5,-6.0 C -4.7400000,-6.0 -2.5,-3.7600000 -2.5,-1.0 z "
         id="path4394" />
    </marker>
    <marker
       style="overflow:visible"
       id="DotL"
       refX="0.0"
       refY="0.0"
       orient="auto"
       inkscape:stockid="DotL">
      <path
         transform="scale(0.8) translate(7.4, 1)"
         style="fill-rule:evenodd;stroke:#000000;stroke-width:1.0pt"
         d="M -2.5,-1.0 C -2.5,1.7600000 -4.7400000,4.0 -7.5,4.0 C -10.260000,4.0 -12.5,1.7600000 -12.5,-1.0 C -12.5,-3.7600000 -10.260000,-6.0 -7.5,-6.0 C -4.7400000,-6.0 -2.5,-3.7600000 -2.5,-1.0 z "
         id="path4388" />
    </marker>
    <marker
       style="overflow:visible"
       id="Tail"
       refX="0.0"
       refY="0.0"
       orient="auto"
       inkscape:stockid="Tail">
      <g
         transform="scale(-1.2)"
         id="g4363">
        <path
           style="fill:none;fill-rule:evenodd;stroke:#000000;stroke-width:0.8;stroke-linecap:round"
           d="M -3.8048674,-3.9585227 L 0.54352094,0"
           id="path4365" />
        <path
           style="fill:none;fill-rule:evenodd;stroke:#000000;stroke-width:0.8;stroke-linecap:round"
           d="M -1.2866832,-3.9585227 L 3.0617053,0"
           id="path4367" />
        <path
           style="fill:none;fill-rule:evenodd;stroke:#000000;stroke-width:0.8;stroke-linecap:round"
           d="M 1.3053582,-3.9585227 L 5.6537466,0"
           id="path4369" />
        <path
           style="fill:none;fill-rule:evenodd;stroke:#000000;stroke-width:0.8;stroke-linecap:round"
           d="M -3.8048674,4.1775838 L 0.54352094,0.21974226"
           id="path4371" />
        <path
           style="fill:none;fill-rule:evenodd;stroke:#000000;stroke-width:0.8;stroke-linecap:round"
           d="M -1.2866832,4.1775838 L 3.0617053,0.21974226"
           id="path4373" />
        <path
           style="fill:none;fill-rule:evenodd;stroke:#000000;stroke-width:0.8;stroke-linecap:round"
           d="M 1.3053582,4.1775838 L 5.6537466,0.21974226"
           id="path4375" />
      </g>
    </marker>
    <marker
       style="overflow:visible"
       id="Arrow1Sstart"
       refX="0.0"
       refY="0.0"
       orient="auto"
       inkscape:stockid="Arrow1Sstart">
      <path
         transform="scale(0.2) translate(6,0)"
         style="fill-rule:evenodd;stroke:#000000;stroke-width:1.0pt"
         d="M 0.0,0.0 L 5.0,-5.0 L -12.5,0.0 L 5.0,5.0 L 0.0,0.0 z "
         id="path4339" />
    </marker>
    <marker
       style="overflow:visible"
       id="Arrow1Lstart"
       refX="0.0"
       refY="0.0"
       orient="auto"
       inkscape:stockid="Arrow1Lstart">
      <path
         transform="scale(0.8) translate(12.5,0)"
         style="fill-rule:evenodd;stroke:#000000;stroke-width:1.0pt"
         d="M 0.0,0.0 L 5.0,-5.0 L -12.5,0.0 L 5.0,5.0 L 0.0,0.0 z "
         id="path4327" />
    </marker>
    <marker
       style="overflow:visible"
       id="Arrow1Mstart-9"
       refX="0"
       refY="0"
       orient="auto"
       inkscape:stockid="Arrow1Mstart">
      <path
         transform="matrix(0.4,0,0,0.4,4,0)"
         style="fill-rule:evenodd;stroke:#000000;stroke-width:1pt"
         d="M 0,0 5,-5 -12.5,0 5,5 0,0 z"
         id="path4299-1"
         inkscape:connector-curvature="0" />
    </marker>
    <marker
       style="overflow:visible"
       id="Arrow2Mend-7"
       refX="0"
       refY="0"
       orient="auto"
       inkscape:stockid="Arrow2Mend">
      <path
         transform="scale(-0.6,-0.6)"
         d="M 8.7185878,4.0337352 -2.2072895,0.01601326 8.7185884,-4.0017078 c -1.7454984,2.3720609 -1.7354408,5.6174519 -6e-7,8.035443 z"
         style="fill-rule:evenodd;stroke-width:0.625;stroke-linejoin:round"
         id="path4320-8"
         inkscape:connector-curvature="0" />
    </marker>
    <linearGradient
       gradientUnits="userSpaceOnUse"
       y2="47.081963"
       x2="1.8271284"
       y1="40.800289"
       x1="-21.345743"
       id="linearGradient9353"
       xlink:href="#linearGradient9347"
       inkscape:collect="always" />
  </defs>
  <metadata
     id="metadata3804">
    <rdf:RDF>
      <cc:Work
         rdf:about="">
        <dc:format>image/svg+xml</dc:format>
        <dc:type
           rdf:resource="http://purl.org/dc/dcmitype/StillImage" />
        <dc:title />
      </cc:Work>
    </rdf:RDF>
  </metadata>
  <g
     inkscape:groupmode="layer"
     inkscape:label="Layer 1"
     id="layer1">
    <rect
       ry="15.401461"
       y="1.4630233e-07"
       x="0.18181612"
       height="63.986015"
       width="63.804237"
       id="rect3156"
       style="fill:#ffbf00;stroke:none;fill-opacity:1" />
  </g>
  <g
     id="g145"
     transform="matrix(0.23119221,0,0,0.23119221,-46.22244,84.315861)">
    <path
       style="fill:#000000;stroke-width:0.180768"
       d="m 385.07112,-125.04213 c -0.29827,-0.0928 -3.75176,-0.99045 -7.67442,-1.9948 -7.64779,-1.95819 -8.13333,-2.14462 -8.83432,-3.39184 -0.46382,-0.82526 -0.49862,-1.87199 -0.18873,-5.67786 l 0.20428,-2.50915 -1.42446,-1.44199 c -0.78347,-0.7931 -2.22384,-2.18279 -3.20084,-3.0882 l -1.77632,-1.64618 -3.49351,0.32007 c -4.10496,0.37611 -4.10349,0.37643 -6.421,-1.46311 -1.21384,-0.96348 -6.43721,-5.04087 -23.22864,-18.1324 -2.88325,-2.24793 -10.08231,-7.86155 -15.99793,-12.47468 -5.91562,-4.61315 -12.17922,-9.4955 -13.91911,-10.84966 -1.73988,-1.35414 -5.80716,-4.52603 -9.03838,-7.04863 -3.23122,-2.52259 -8.27463,-6.45116 -11.20759,-8.73018 -5.51423,-4.28471 -6.402,-5.02773 -6.7315,-5.63393 -0.42467,-0.7813 -0.432,-1.6603 -0.0514,-6.16487 l 0.39589,-4.68545 -1.73241,-1.77546 c -0.95283,-0.97651 -3.09215,-3.07795 -4.75404,-4.66986 l -3.02164,-2.8944 -4.77404,0.46086 c -3.26017,0.31471 -4.95518,0.40891 -5.34528,0.29702 -0.94104,-0.26988 -1.72406,-0.8493 -2.13168,-1.5774 -0.21148,-0.37775 -1.12756,-3.37121 -2.03573,-6.65214 -0.90817,-3.28093 -2.18709,-7.87695 -2.84205,-10.21337 -1.32405,-4.72328 -1.45752,-5.45879 -1.1562,-6.37177 0.39969,-1.21109 1.2565,-1.80019 5.58625,-3.84081 2.2549,-1.06274 4.19246,-2.02643 4.30568,-2.14151 0.11322,-0.11509 0.91792,-3.00813 1.78821,-6.42899 1.36712,-5.37373 1.5508,-6.27117 1.35046,-6.59801 -0.12754,-0.20805 -1.41846,-2.03992 -2.86871,-4.0708 l -2.63683,-3.69251 -0.0587,-1.18822 c -0.0489,-0.99121 0.0104,-1.29814 0.35744,-1.85127 0.57208,-0.91166 15.61801,-16.19171 16.28143,-16.53478 0.75559,-0.39073 2.26888,-0.36752 3.04331,0.0467 0.34942,0.18688 2.2867,1.46862 4.30506,2.84829 l 3.66976,2.5085 1.3812,-0.38413 c 0.75966,-0.21127 3.56761,-0.98853 6.23988,-1.72724 2.67228,-0.7387 4.92813,-1.41255 5.01302,-1.49743 0.0848,-0.0849 1.01641,-2.06336 2.07007,-4.39662 1.05365,-2.33325 2.12424,-4.46223 2.37909,-4.73105 0.63748,-0.67244 1.49847,-1.04776 2.40355,-1.04776 0.41924,0 3.62009,0.73685 7.113,1.63744 3.49293,0.90059 8.0997,2.08672 10.23728,2.63582 4.44147,1.14095 5.15533,1.41213 5.83092,2.21501 0.90072,1.07045 0.93285,1.48656 0.51907,6.72251 l -0.37741,4.7756 3.07918,3.07304 c 1.69353,1.69018 3.83521,3.77947 4.75926,4.64287 l 1.68011,1.56983 4.23029,-0.43501 c 2.32666,-0.23925 4.62594,-0.43726 5.10952,-0.44002 1.61953,-0.009 1.86931,0.23695 7.23279,7.12904 4.48705,5.76588 9.84698,12.64005 14.6635,18.80608 1.00961,1.29249 4.18342,5.35976 7.05292,9.03838 6.82295,8.74685 6.90062,8.8464 12.90572,16.54023 2.83238,3.62891 5.97334,7.65551 6.97989,8.948 3.75682,4.82402 11.09739,14.21899 13.81577,17.6824 1.54655,1.97039 2.99357,3.88201 3.21563,4.24804 0.47784,0.7876 0.50251,1.4418 0.20511,5.43733 l -0.20718,2.78335 3.14337,3.10967 3.14335,3.10967 3.37855,-0.34433 c 3.804,-0.38766 4.42661,-0.3205 5.46272,0.58921 0.78467,0.68893 0.95486,1.13549 2.27681,5.97342 0.60416,2.21097 1.54254,5.59407 2.08532,7.51799 1.03205,3.65824 1.09801,4.07766 0.80645,5.12722 -0.31034,1.11709 -1.1626,1.76269 -4.33296,3.2822 -1.63727,0.78474 -3.00479,1.45473 -3.03897,1.48892 -0.0817,0.0816 -2.20911,8.18473 -2.20911,8.41405 0,0.0972 0.80213,1.29634 1.78252,2.66493 0.98037,1.36859 1.91584,2.74869 2.07882,3.06686 0.42882,0.8372 0.38025,2.1948 -0.11038,3.08622 -0.2237,0.40642 -2.96162,3.34396 -6.0843,6.52788 -5.97735,6.0946 -6.29499,6.35167 -7.83845,6.34364 -1.02922,-0.006 -1.79354,-0.39534 -4.56073,-2.32714 -1.29249,-0.9023 -2.47377,-1.64172 -2.6251,-1.64317 -0.1513,-0.002 -2.10236,0.51192 -4.33567,1.14077 l -4.0606,1.1434 -1.35849,3.00607 c -1.39252,3.0814 -1.99691,3.96071 -3.02478,4.4005 -0.65369,0.27968 -2.03514,0.30348 -2.85289,0.0491 z m 0.67237,-9.83316 c 1.45394,-3.23401 1.79086,-3.55232 4.58541,-4.33224 9.8346,-2.74472 10.93628,-3.01772 11.67431,-2.89302 0.50095,0.0846 1.50352,0.64196 3.1111,1.72948 l 2.37199,1.60459 3.38186,-3.44212 3.38184,-3.44212 -1.53061,-2.15166 c -1.71593,-2.4122 -1.88889,-2.76675 -1.88889,-3.87196 0,-0.78363 2.89677,-12.43627 3.27484,-13.17352 0.47844,-0.93292 1.36257,-1.56913 3.70152,-2.66353 1.85814,-0.86945 2.40786,-1.20385 2.3392,-1.42299 -0.0494,-0.15754 -0.6261,-2.19806 -1.28167,-4.53448 -0.65559,-2.33642 -1.24709,-4.30522 -1.31445,-4.37512 -0.0673,-0.0699 -1.31353,-0.003 -2.76924,0.14767 -2.05299,0.21312 -2.81748,0.22878 -3.40781,0.0698 -0.64027,-0.1724 -1.52004,-0.9391 -5.54192,-4.82972 -2.62946,-2.54361 -4.91151,-4.87687 -5.07122,-5.18499 -0.49851,-0.96178 -0.5459,-1.5812 -0.32693,-4.2735 0.1169,-1.43746 0.19372,-2.6396 0.17073,-2.67141 -0.13735,-0.18989 -9.18829,-2.38173 -9.31438,-2.25565 -0.0847,0.0847 -0.60868,1.16861 -1.16441,2.40873 -1.01498,2.26481 -1.57461,3.06907 -2.45624,3.52978 -0.44966,0.23498 -2.06645,0.70801 -9.2858,2.71677 -3.1665,0.88108 -4.53293,1.03968 -5.34204,0.62006 -0.2434,-0.12622 -1.38494,-0.86449 -2.53677,-1.64059 l -2.09425,-1.4111 -3.39982,3.41175 -3.39981,3.41174 1.57665,2.20605 c 1.75882,2.46093 1.90962,2.76307 1.90962,3.82634 0,0.62166 -2.05469,9.08451 -3.00944,12.39516 -0.44024,1.5266 -1.0928,2.10494 -3.84956,3.41174 -1.33868,0.63458 -2.45585,1.17564 -2.48257,1.20235 -0.0434,0.0434 2.46156,9.197 2.54019,9.28231 0.0177,0.0192 1.25384,-0.0901 2.74698,-0.24291 3.93028,-0.40224 3.61864,-0.54084 7.57833,3.3701 1.79016,1.76813 3.85735,3.77295 4.59372,4.45515 0.73639,0.6822 1.57018,1.60199 1.85287,2.04401 0.58065,0.90786 0.63959,1.80269 0.3399,5.15972 -0.0887,0.99316 -0.1394,1.82756 -0.11276,1.85424 0.121,0.12097 8.90241,2.37037 9.13319,2.3395 0.14464,-0.0193 0.72853,-1.07706 1.3163,-2.38441 z m -0.11476,-12.389 c -7.88492,-1.2426 -13.661,-6.86529 -15.01725,-14.61842 -1.11635,-6.38164 1.62449,-13.04924 7.01335,-17.06139 1.37663,-1.02494 4.03485,-2.25426 6.00015,-2.77481 1.54418,-0.40903 2.17654,-0.47881 4.33842,-0.47881 2.13201,0 2.80164,0.072 4.25012,0.45657 6.64213,1.76382 11.49909,6.80666 12.93185,13.4268 0.41377,1.91188 0.41251,5.29616 -0.002,7.22807 -0.70879,3.29792 -2.34122,6.31699 -4.70047,8.69309 -2.41982,2.43717 -4.92081,3.87096 -8.20929,4.70635 -1.96495,0.49918 -4.91877,0.68817 -6.60419,0.42255 z m 5.32304,-7.33271 c 1.80889,-0.53699 3.09446,-1.32269 4.52072,-2.76294 2.08384,-2.10427 3.06581,-4.44513 3.06581,-7.3084 0,-2.95446 -0.98093,-5.27365 -3.15568,-7.46084 -1.59448,-1.60359 -2.92511,-2.37746 -4.97773,-2.89491 -1.57706,-0.39757 -4.37097,-0.27238 -5.86383,0.26278 -3.07711,1.10305 -5.49239,3.51358 -6.6505,6.63734 -0.52595,1.41865 -0.58155,5.04811 -0.10089,6.58577 1.16764,3.73548 4.68276,6.67439 8.7276,7.29691 0.94763,0.14585 3.4105,-0.0517 4.43451,-0.35571 z m -41.58225,-2.7482 c 0,-0.08 -0.29329,-1.19656 -0.65176,-2.48128 -0.75863,-2.71885 -0.75958,-3.64057 -0.005,-4.78085 0.42403,-0.64076 0.86609,-0.91399 3.68749,-2.27917 1.76314,-0.85311 3.23086,-1.57623 3.26158,-1.60691 0.0307,-0.0307 0.53918,-1.94972 1.1299,-4.26449 0.94509,-3.70335 1.04451,-4.25372 0.828,-4.58384 -0.13531,-0.20634 -0.99852,-1.43265 -1.91821,-2.72514 -0.91971,-1.29248 -1.75261,-2.55334 -1.85089,-2.80189 -0.26702,-0.67531 -0.18907,-2.09702 0.15128,-2.75951 0.45884,-0.89313 11.58722,-12.21163 12.42843,-12.6408 0.55134,-0.28125 0.95969,-0.34785 1.77265,-0.28904 0.99424,0.0718 1.22447,0.18988 3.91855,2.00793 1.57424,1.06234 2.97624,1.92848 3.11555,1.92478 0.13932,-0.003 2.0667,-0.51212 4.28308,-1.1298 l 4.02976,-1.12305 0.90975,-1.98844 c 2.05722,-4.49646 2.11597,-4.59727 3.0093,-5.16381 1.1245,-0.71313 2.00387,-0.693 5.052,0.11578 1.3394,0.35537 2.47095,0.61045 2.5146,0.56681 0.0436,-0.0436 -0.54993,-0.88347 -1.31901,-1.86632 -0.7691,-0.98285 -3.96817,-5.08149 -7.10907,-9.10809 -9.30883,-11.93385 -20.9491,-26.85282 -25.10524,-32.17665 -2.13444,-2.73411 -5.66939,-7.26942 -7.85545,-10.07848 -2.18606,-2.80906 -3.99781,-5.08423 -4.0261,-5.05594 -0.0283,0.0282 0.14766,0.73619 0.39099,1.57312 0.61543,2.11685 0.591,3.31399 -0.0895,4.38706 -0.45335,0.71484 -0.76713,0.95073 -2.12402,1.59684 -7.81979,3.72346 -7.42749,3.50434 -7.62789,4.26061 -0.10134,0.38262 -0.835,3.24887 -1.63023,6.36945 l -1.44588,5.67379 2.73647,3.81651 c 1.50507,2.09908 2.85079,4.14189 2.99051,4.53958 0.29928,0.85185 0.20505,1.83761 -0.25862,2.70559 -0.18335,0.34323 -3.81237,4.15969 -8.06451,8.48105 -8.46344,8.6012 -8.45947,8.59795 -10.21006,8.35819 -0.89491,-0.12257 -1.40431,-0.43249 -6.64319,-4.04176 l -2.34998,-1.61899 -5.78456,1.60111 c -3.18151,0.8806 -6.01943,1.65333 -6.30652,1.71717 -0.45854,0.10203 -0.64725,0.38177 -1.55323,2.30292 -0.56721,1.20276 -1.42378,3.08164 -1.9035,4.17529 -1.7805,4.05909 -2.66971,4.54332 -6.50257,3.54101 -1.17426,-0.30708 -2.21448,-0.55835 -2.31149,-0.55835 -0.097,0 0.74872,0.71687 1.87943,1.59306 1.13069,0.87618 4.53683,3.52985 7.56921,5.89705 3.03238,2.36718 11.52723,8.99174 18.87744,14.7212 7.35022,5.72949 17.07099,13.31923 21.60173,16.86612 4.53074,3.54688 8.29871,6.45498 8.37328,6.46245 0.0746,0.008 0.13558,-0.0519 0.13558,-0.13187 z m -53.96393,-55.70088 c 1.66002,-3.72609 1.98957,-4.30842 2.70255,-4.77559 0.5421,-0.35519 17.0436,-4.99675 17.7643,-4.99675 1.01593,0 1.7291,0.37196 4.8241,2.51599 1.73225,1.19999 3.27038,2.22818 3.41805,2.28485 0.18138,0.0696 1.89725,-1.54313 5.28829,-4.9704 2.76088,-2.79039 5.1361,-5.23949 5.27826,-5.44245 0.24036,-0.34317 0.0974,-0.59256 -2.04096,-3.56015 -2.482,-3.44454 -2.79476,-4.01119 -2.79132,-5.05748 10e-4,-0.37602 0.97368,-4.41598 2.161,-8.9777 1.56813,-6.02479 2.28403,-8.4833 2.6166,-8.98584 0.38772,-0.58589 0.88032,-0.89595 3.21682,-2.02479 1.51746,-0.73311 3.26742,-1.56099 3.88881,-1.83969 0.62139,-0.27873 1.13,-0.59733 1.13026,-0.70804 5.2e-4,-0.21714 -3.97885,-14.44547 -4.06575,-14.53725 -0.0288,-0.0304 -1.89098,0.12269 -4.13811,0.34027 -3.54211,0.34298 -4.19954,0.36374 -4.94125,0.15607 -0.76893,-0.21528 -1.4919,-0.86152 -7.14164,-6.38364 -4.52957,-4.42725 -6.39561,-6.3703 -6.67798,-6.9536 l -0.39188,-0.80951 0.32502,-4.23155 c 0.18628,-2.42535 0.25701,-4.29031 0.16569,-4.36924 -0.14222,-0.12291 -14.2785,-3.83409 -14.55112,-3.82008 -0.0611,0.003 -0.82933,1.61228 -1.7071,3.57587 -0.87776,1.96358 -1.74433,3.78812 -1.92571,4.05452 -0.69012,1.01364 -0.76775,1.03995 -13.24704,4.49011 -6.06843,1.67775 -5.97084,1.68021 -8.80385,-0.22211 -1.12384,-0.75463 -2.70146,-1.83209 -3.50582,-2.39435 l -1.46247,-1.02229 -4.79523,4.84555 c -2.63738,2.66505 -5.03962,5.13026 -5.33832,5.47824 l -0.54308,0.63268 2.15509,2.98267 c 2.64376,3.65897 2.86002,4.0573 2.86002,5.26784 0,0.84261 -1.02704,5.09802 -3.664,15.18133 -0.69479,2.65674 -1.11412,3.32452 -2.51615,4.00694 -0.5281,0.25705 -2.25801,1.0856 -3.84426,1.84122 -1.58625,0.75562 -2.90355,1.39332 -2.92735,1.41711 -0.0238,0.0239 0.52076,2.034 1.2101,4.46713 0.68935,2.43312 1.59993,5.70492 2.02351,7.27068 l 0.77015,2.8468 0.64885,2.7e-4 c 0.35686,1.5e-4 1.9431,-0.12709 3.52497,-0.28278 3.88736,-0.38258 4.73724,-0.382 5.48225,0.003 0.84689,0.43849 12.79348,12.14623 13.19689,12.93303 0.53865,1.0506 0.55119,1.3855 0.20644,5.51342 -0.18267,2.18728 -0.27403,4.04013 -0.20301,4.11743 0.0709,0.0773 3.05124,0.89906 6.62274,1.82612 8.28238,2.14991 7.91926,2.06263 8.05841,1.93677 0.0653,-0.059 0.82316,-1.68865 1.68423,-3.62141 z m -0.53688,-19.20343 c -7.33147,-0.83511 -14.04428,-5.47752 -17.41833,-12.04611 -4.49588,-8.75255 -3.02442,-19.0901 3.71198,-26.07804 4.26284,-4.42203 9.44344,-6.75232 15.5134,-6.9781 9.63185,-0.35829 18.19774,5.14753 21.84548,14.0414 1.35354,3.30022 1.89648,6.95812 1.56092,10.51641 -0.3134,3.32326 -0.92856,5.46524 -2.39843,8.35126 -2.19945,4.31853 -5.50439,7.62347 -9.82292,9.82293 -4.15037,2.11381 -8.41427,2.8917 -12.9921,2.37025 z m 7.04931,-7.46721 c 8.93545,-2.63185 13.63521,-12.37143 10.1339,-21.00105 -1.54972,-3.81957 -5.12703,-7.31945 -8.94438,-8.75075 -2.76013,-1.03491 -6.59943,-1.26133 -9.32406,-0.54989 -3.2474,0.84795 -6.485,2.94035 -8.50773,5.49835 -3.74015,4.72995 -4.49487,11.01695 -1.96615,16.37813 2.08118,4.41233 6.16888,7.67538 10.91788,8.71536 2.22759,0.48783 5.46378,0.36572 7.69054,-0.29015 z"
       id="path375" />
    <path
       style="fill:#000000;fill-opacity:1;stroke:#000000;stroke-width:0.99999999;stroke-opacity:1;stroke-dasharray:none"
       d="m 20.634662,35.58951 c -0.530331,-0.134324 -1.2651,-0.329526 -1.632822,-0.433782 l -0.668584,-0.189556 0.07136,-1.058925 0.07136,-1.058923 -1.619131,-1.593992 -1.619131,-1.593994 -1.089133,0.08372 -1.089132,0.08372 -0.131641,-0.48248 c -0.0724,-0.265363 -0.274956,-1.000556 -0.450119,-1.633762 -0.175162,-0.633204 -0.306223,-1.161574 -0.291247,-1.174153 0.01498,-0.01258 0.441579,-0.230307 0.948007,-0.483837 0.759248,-0.3801 0.944365,-0.534981 1.055237,-0.882884 0.27592,-0.865799 0.916695,-3.567849 0.916695,-3.865558 0,-0.169862 -0.241406,-0.668352 -0.536458,-1.107756 l -0.536459,-0.798916 1.199788,-1.204797 1.199789,-1.204798 0.743829,0.505125 c 0.912067,0.619373 1.163863,0.629177 3.017668,0.117495 2.444459,-0.674712 2.404798,-0.651632 2.875803,-1.673492 0.227114,-0.492729 0.473663,-0.89587 0.547888,-0.89587 0.07422,0 0.824024,0.183215 1.666221,0.407146 l 1.531267,0.407146 -0.08724,1.075249 -0.08725,1.075248 1.592916,1.545932 1.592917,1.545933 1.119526,-0.03919 1.119525,-0.03919 0.408358,1.478496 c 0.224597,0.813173 0.435158,1.549364 0.467913,1.63598 0.03571,0.09443 -0.28451,0.321834 -0.799811,0.567979 -0.472651,0.225772 -0.936658,0.530957 -1.031126,0.678188 -0.215626,0.336053 -1.091538,3.632114 -1.091538,4.107457 0,0.199562 0.223286,0.681506 0.514259,1.109983 0.282843,0.416504 0.51426,0.805051 0.51426,0.863439 0,0.05839 -0.51738,0.621141 -1.149733,1.250565 l -1.149732,1.144404 -0.798833,-0.536402 c -0.439359,-0.295022 -0.946839,-0.536403 -1.127733,-0.536403 -0.491837,0 -4.038018,1.026631 -4.251478,1.230817 -0.10179,0.09737 -0.362134,0.546448 -0.578541,0.997955 l -0.393468,0.82092 z m 3.820845,-5.221233 c 1.457843,-0.557028 2.748743,-1.937561 3.184806,-3.40594 0.391934,-1.319789 0.173335,-3.084272 -0.531374,-4.289132 -0.443492,-0.75825 -1.474622,-1.677747 -2.332166,-2.079677 -0.66378,-0.311113 -0.878665,-0.344561 -2.213638,-0.344561 -1.32737,0 -1.550774,0.0343 -2.185603,0.335563 -2.449522,1.162442 -3.630823,3.850254 -2.830711,6.440714 0.566997,1.835722 1.979161,3.098418 4.052077,3.623191 0.528985,0.133917 2.202436,-0.0302 2.856609,-0.280158 z"
       id="path596"
       transform="matrix(4.3254053,0,0,4.3254053,199.93078,-364.70027)" />
    <path
       style="fill:#000000;fill-opacity:1;stroke:#000000;stroke-width:0.99999999;stroke-opacity:1;stroke-dasharray:none"
       d="m 41.97643,53.463529 c -0.247488,-0.06866 -0.657258,-0.178775 -0.910601,-0.244703 l -0.460623,-0.11987 0.05941,-0.716403 0.05941,-0.716403 -1.289374,-1.289374 -1.289374,-1.289375 -0.745607,0.04433 -0.745606,0.04433 -0.274566,-0.981079 -0.274566,-0.98108 0.551345,-0.267864 c 0.303239,-0.147325 0.634295,-0.40009 0.73568,-0.561699 0.101384,-0.161609 0.346477,-0.969842 0.544651,-1.796073 l 0.360317,-1.502239 -0.396024,-0.637068 -0.396023,-0.637068 0.743211,-0.735457 0.743211,-0.735456 0.493891,0.335607 c 0.626287,0.425574 0.984717,0.421127 2.599709,-0.03225 1.430598,-0.401612 1.737104,-0.598464 1.953698,-1.254751 0.167495,-0.507513 0.287073,-0.525377 1.491554,-0.222821 l 0.842422,0.21161 -0.08776,0.70242 -0.08776,0.702421 1.281592,1.281591 1.281591,1.281592 0.751279,-0.0348 0.751279,-0.0348 0.231089,0.76403 c 0.127099,0.420216 0.260984,0.860386 0.297523,0.978156 0.04819,0.15531 -0.109037,0.309628 -0.572396,0.56182 -0.734678,0.399862 -0.78605,0.49983 -1.244079,2.420912 l -0.333064,1.39695 0.395346,0.635978 0.395346,0.635979 -0.661156,0.699075 c -0.363636,0.384491 -0.713687,0.699075 -0.777892,0.699075 -0.06421,0 -0.329587,-0.144635 -0.589737,-0.321412 -0.589065,-0.40028 -0.785544,-0.399876 -2.252325,0.0046 -1.781801,0.491379 -1.867328,0.538967 -2.220209,1.235344 -0.173973,0.34332 -0.358731,0.619001 -0.410573,0.612623 -0.05184,-0.0064 -0.296748,-0.06777 -0.544235,-0.136426 z m 3.023485,-3.407732 c 0.906801,-0.308379 2.000901,-1.42173 2.309149,-2.349777 0.670735,-2.019393 -0.10675,-4.119366 -1.883079,-5.086166 -0.953333,-0.518869 -2.411461,-0.600339 -3.486674,-0.194811 -3.152474,1.188989 -3.442762,5.89105 -0.457097,7.404001 1.19773,0.606936 2.208223,0.672073 3.517701,0.226753 z"
       id="path602"
       transform="matrix(4.3254053,0,0,4.3254053,199.93078,-364.70027)" />
    <text
       xml:space="preserve"
       style="font-style:italic;font-size:51.9049px;font-family:sans-serif;-inkscape-font-specification:'sans-serif Italic';fill:#000000;fill-opacity:1;stroke:#000000;stroke-width:4.32541;stroke-dasharray:none;stroke-opacity:1"
       x="383.44217"
       y="-293.52008"
       id="text1540"><tspan
         sodipodi:role="line"
         id="tspan1538"
         style="stroke-width:4.32541"
         x="383.44217"
         y="-293.52008">tg</tspan></text>
    <text
       xml:space="preserve"
       style="font-style:italic;font-size:51.9049px;font-family:sans-serif;-inkscape-font-specification:'sans-serif Italic';fill:#000000;fill-opacity:1;stroke:#000000;stroke-width:4.32541;stroke-dasharray:none;stroke-opacity:1"
       x="226.06725"
       y="-121.13058"
       id="text1544"><tspan
         sodipodi:role="line"
         id="tspan1542"
         style="stroke-width:4.32541"
         x="226.06725"
         y="-121.13058">hdt</tspan></text>
  </g>
</svg>
