<?xml version="1.0" encoding="UTF-8" standalone="no"?>
<!-- Created with Inkscape (http://www.inkscape.org/) -->

<svg
   width="64"
   height="64"
   id="svg2869"
   version="1.1"
   viewBox="0 0 64 64"
   xmlns:xlink="http://www.w3.org/1999/xlink"
   xmlns="http://www.w3.org/2000/svg"
   xmlns:svg="http://www.w3.org/2000/svg"
   xmlns:rdf="http://www.w3.org/1999/02/22-rdf-syntax-ns#"
   xmlns:cc="http://creativecommons.org/ns#"
   xmlns:dc="http://purl.org/dc/elements/1.1/">
  <title
     id="title23">timinggear_t</title>
  <defs
     id="defs2871">
    <linearGradient
       id="linearGradient5">
      <stop
         style="stop-color:#ef2929;stop-opacity:1;"
         offset="0"
         id="stop19" />
      <stop
         style="stop-color:#ef2929;stop-opacity:0;"
         offset="1"
         id="stop20" />
    </linearGradient>
    <linearGradient
       id="swatch18">
      <stop
         style="stop-color:#ef2929;stop-opacity:1;"
         offset="0"
         id="stop18" />
    </linearGradient>
    <linearGradient
       id="swatch15">
      <stop
         style="stop-color:#3d0000;stop-opacity:1;"
         offset="0"
         id="stop15" />
    </linearGradient>
    <linearGradient
       id="linearGradient5-1">
      <stop
         style="stop-color:#ef2929;stop-opacity:1;"
         offset="0"
         id="stop5" />
      <stop
         style="stop-color:#ef2929;stop-opacity:0;"
         offset="1"
         id="stop6" />
    </linearGradient>
    <linearGradient
       id="linearGradient3836-9">
      <stop
         style="stop-color:#a40000;stop-opacity:1"
         offset="0"
         id="stop3838-8" />
      <stop
         style="stop-color:#ef2929;stop-opacity:1"
         offset="1"
         id="stop3840-1" />
    </linearGradient>
    <linearGradient
       xlink:href="#linearGradient59"
       id="linearGradient846"
       x1="58.196716"
       y1="49.972424"
       x2="58.197704"
       y2="17.442623"
       gradientUnits="userSpaceOnUse"
       gradientTransform="matrix(1.0428047,0,0,1.0432797,-1.3697824,-1.3849651)" />
    <linearGradient
       id="linearGradient59">
      <stop
         style="stop-color:#c4a000;stop-opacity:1;"
         offset="0"
         id="stop59" />
      <stop
         style="stop-color:#fce94f;stop-opacity:1;"
         offset="0.67682928"
         id="stop58" />
      <stop
         style="stop-color:#c4a000;stop-opacity:1;"
         offset="1"
         id="stop805" />
    </linearGradient>
    <linearGradient
       xlink:href="#linearGradient59"
       id="linearGradient842"
       x1="24.211432"
       y1="49.059666"
       x2="24.858622"
       y2="12.503376"
       gradientUnits="userSpaceOnUse"
       gradientTransform="matrix(1.0428047,0,0,1.0432797,-1.3697824,-1.3849651)" />
    <linearGradient
       xlink:href="#linearGradient59"
       id="linearGradient840"
       x1="7.8155646"
       y1="50.543022"
       x2="8.3967581"
       y2="12.291364"
       gradientUnits="userSpaceOnUse"
       gradientTransform="matrix(1.0428047,0,0,1.0432797,-1.3697824,-1.3849651)" />
    <linearGradient
       xlink:href="#linearGradient59"
       id="linearGradient844"
       x1="41.310841"
       y1="50.331081"
       x2="41.639793"
       y2="14.198631"
       gradientUnits="userSpaceOnUse"
       gradientTransform="matrix(1.0428047,0,0,1.0432797,-1.3697824,-1.3849651)" />
    <linearGradient
       xlink:href="#linearGradient59-1"
       id="linearGradient775"
       x1="1615.5502"
       y1="963.38916"
       x2="1705.1536"
       y2="1063.3772"
       gradientUnits="userSpaceOnUse" />
    <linearGradient
       id="linearGradient59-1">
      <stop
         style="stop-color:#fce94f;stop-opacity:1"
         offset="0"
         id="stop59-0" />
      <stop
         style="stop-color:#c4a000;stop-opacity:1"
         offset="1"
         id="stop58-6" />
    </linearGradient>
    <linearGradient
       xlink:href="#linearGradient6"
       id="linearGradient777"
       x1="1493.8453"
       y1="882.08173"
       x2="1598.384"
       y2="1011.619"
       gradientUnits="userSpaceOnUse" />
    <linearGradient
       id="linearGradient6">
      <stop
         style="stop-color:#729fcf;stop-opacity:1;"
         offset="0"
         id="stop6-7" />
      <stop
         style="stop-color:#3465a4;stop-opacity:1;"
         offset="1"
         id="stop5-3" />
    </linearGradient>
    <linearGradient
       xlink:href="#linearGradient6"
       id="linearGradient777-6"
       x1="1493.8453"
       y1="882.08173"
       x2="1598.384"
       y2="1011.619"
       gradientUnits="userSpaceOnUse" />
    <linearGradient
       xlink:href="#linearGradient22"
       id="linearGradient23"
       x1="64"
       y1="64"
       x2="0"
       y2="0"
       gradientUnits="userSpaceOnUse" />
    <linearGradient
       id="linearGradient22">
      <stop
         style="stop-color:#c4a000;stop-opacity:1"
         offset="0"
         id="stop22" />
      <stop
         style="stop-color:#fce94f;stop-opacity:1"
         offset="1"
         id="stop23" />
    </linearGradient>
    <linearGradient
       xlink:href="#linearGradient22"
       id="linearGradient23-0"
       x1="64"
       y1="64"
       x2="0"
       y2="0"
       gradientUnits="userSpaceOnUse" />
  </defs>
  <metadata
     id="metadata2874">
    <rdf:RDF>
      <cc:Work
         rdf:about="">
        <dc:format>image/svg+xml</dc:format>
        <dc:type
           rdf:resource="http://purl.org/dc/dcmitype/StillImage" />
        <dc:creator>
          <cc:Agent>
            <dc:title>[maxwxyz]</dc:title>
          </cc:Agent>
        </dc:creator>
        <dc:relation>https://www.freecad.org/wiki/index.php?title=Artwork</dc:relation>
        <dc:publisher>
          <cc:Agent>
            <dc:title>FreeCAD</dc:title>
          </cc:Agent>
        </dc:publisher>
        <dc:identifier>FreeCAD/src/</dc:identifier>
        <dc:rights>
          <cc:Agent>
            <dc:title>FreeCAD LGPL2+</dc:title>
          </cc:Agent>
        </dc:rights>
        <dc:date>2024</dc:date>
        <dc:title>timinggear_t</dc:title>
      </cc:Work>
    </rdf:RDF>
  </metadata>
  <g
     id="layer3"
     style="display:inline">
    <path
       d="m 22.471121,4 c -1.208139,0.411304 -2.383742,0.89692 -3.528897,1.460381 -0.362159,0.35238 -0.639134,0.923783 -0.63383,1.524619 -0.0053,0.600838 0.271671,1.172241 0.63383,1.52462 2.880374,2.880371 2.880374,7.547774 0,10.428228 -2.880455,2.880372 -7.552143,2.880372 -10.4325141,0 -0.35238,-0.36216 -0.923783,-0.634852 -1.524622,-0.629548 -0.600836,-0.0053 -1.172239,0.267388 -1.524619,0.629548 -0.563461,1.145154 -1.049077,2.325039 -1.460382,3.533177 -0.0068,0.505284 0.201006,1.099189 0.62955,1.520339 0.421165,0.428592 1.019337,0.64075 1.524619,0.633829 4.0735101,0 7.3747091,3.301174 7.3747091,7.374706 0,4.073534 -3.301199,7.374707 -7.3747091,7.374707 -0.505282,-0.007 -1.103454,0.205238 -1.524619,0.63383 -0.428544,0.421149 -0.636428,1.015054 -0.62955,1.520338 0.411305,1.208142 0.896921,2.388022 1.460382,3.533182 0.35238,0.36216 0.923783,0.63485 1.524619,0.62954 0.600839,0.005 1.172242,-0.26738 1.524622,-0.62954 2.8803711,-2.880376 7.5520591,-2.880376 10.4325141,0 2.880374,2.88045 2.880374,7.54785 0,10.42822 -0.362159,0.35238 -0.639134,0.92379 -0.63383,1.52462 -0.0053,0.60084 0.271671,1.17224 0.63383,1.52462 1.145155,0.56346 2.320758,1.04908 3.528897,1.46038 0.505284,0.007 1.103472,-0.201 1.524621,-0.62955 0.428592,-0.42116 0.636469,-1.01933 0.629549,-1.52461 0,-4.07351 3.301174,-7.37471 7.374709,-7.37471 4.073535,0 7.374709,3.3012 7.374709,7.37471 -0.0069,0.50528 0.20524,1.10345 0.633831,1.52461 0.42115,0.42855 1.019337,0.63643 1.524621,0.62955 1.208138,-0.4113 2.383742,-0.89692 3.528896,-1.46038 0.36216,-0.35238 0.634853,-0.92378 0.629549,-1.52462 0.0053,-0.60083 -0.267389,-1.17224 -0.629549,-1.52462 -2.880371,-2.88037 -2.880371,-7.54777 0,-10.42822 2.880455,-2.880376 7.547861,-2.880376 10.428233,0 0.352381,0.36216 0.923784,0.63485 1.524621,0.62954 0.600837,0.005 1.17224,-0.26738 1.52462,-0.62954 0.563461,-1.14516 1.049077,-2.32504 1.460381,-3.533182 0.0069,-0.505284 -0.201006,-1.099189 -0.629548,-1.520338 -0.421166,-0.428592 -1.019338,-0.64075 -1.524621,-0.63383 -4.07351,0 -7.374709,-3.301173 -7.374709,-7.374707 0,-4.073532 3.301199,-7.374706 7.374709,-7.374706 0.505283,0.007 1.103455,-0.205237 1.524621,-0.633829 0.428542,-0.42115 0.636427,-1.015055 0.629548,-1.520339 -0.411304,-1.208138 -0.89692,-2.388023 -1.460381,-3.533177 -0.35238,-0.36216 -0.923783,-0.634852 -1.52462,-0.629548 -0.600837,-0.0053 -1.17224,0.267388 -1.524621,0.629548 -2.880372,2.880372 -7.547778,2.880372 -10.428233,0 -2.880371,-2.880454 -2.880371,-7.547857 0,-10.428228 C 45.424217,8.157241 45.69691,7.585838 45.691606,6.985 45.696906,6.384164 45.424217,5.812761 45.062057,5.460381 43.918146,4.897418 42.740056,4.410807 41.533161,4 c -1.18999,0 -2.158452,0.964179 -2.158452,2.154168 0,4.073508 -3.301174,7.374705 -7.374709,7.374705 -4.073535,0 -7.374709,-3.301197 -7.374709,-7.374705 C 24.625291,4.964179 23.661111,4 22.471121,4 Z"
       style="fill:#fce94f;fill-rule:evenodd;stroke:#231f0b;stroke-width:2;stroke-linecap:round;stroke-linejoin:round;stroke-dasharray:none;stroke-opacity:1"
       id="path71" />
    <path
       d="m 22.59375,6.0878906 c 0.0131,0.021914 0.03125,0.042488 0.03125,0.066406 0,5.1878951 4.187076,9.3750001 9.375,9.3750001 5.187924,0 9.375,-4.187105 9.375,-9.3750001 0,-0.022936 0.01909,-0.044187 0.0332,-0.066406 0.772168,0.2801233 1.530157,0.5958527 2.273438,0.9433594 l -0.01367,0.044922 c -0.0066,0.00647 -0.01307,0.012976 -0.01953,0.019531 -3.668022,3.6680219 -3.668028,9.5877249 0,13.2558589 3.668095,3.667989 9.587837,3.668023 13.25586,0 0.0066,-0.0065 0.01307,-0.01298 0.01953,-0.01953 l 0.04492,-0.01367 c 0.348707,0.746529 0.665937,1.508174 0.947266,2.285157 l -0.04297,0.02148 c -0.0091,-6.2e-5 -0.01823,-6.2e-5 -0.02734,0 -5.187898,0 -9.375,4.187079 -9.375,9.375 0,5.187923 4.187103,9.375 9.375,9.375 0.0091,6.2e-5 0.01823,6.2e-5 0.02734,0 l 0.04297,0.02148 c -0.281328,0.776981 -0.598557,1.538624 -0.947266,2.285157 l -0.04492,-0.01367 c -0.0065,-0.0066 -0.01298,-0.01307 -0.01953,-0.01953 -3.668022,-3.668027 -9.587727,-3.668031 -13.25586,0 -3.66799,3.668092 -3.668023,9.587838 0,13.25586 0.0065,0.0066 0.01298,0.01307 0.01953,0.01953 l 0.01367,0.04492 c -0.747232,0.349337 -1.508803,0.666003 -2.285157,0.947266 L 41.375,57.873047 v -0.002 c 3e-6,-0.002 3e-6,-0.0039 0,-0.0059 v -0.002 -0.002 c 3e-6,-0.002 3e-6,-0.0039 0,-0.0059 v -0.002 -0.002 c 3e-6,-0.002 3e-6,-0.0039 0,-0.0059 0,-5.187897 -4.187077,-9.375 -9.375,-9.375 -5.187923,0 -9.375,4.187103 -9.375,9.375 -6.2e-5,0.0091 -6.2e-5,0.01823 0,0.02734 l -0.01758,0.04297 C 21.830511,57.63455 21.068061,57.318388 20.320312,56.96875 l 0.01563,-0.04492 c 0.0066,-0.0065 0.01307,-0.01298 0.01953,-0.01953 3.668027,-3.668022 3.668032,-9.587731 0,-13.25586 -3.668753,-3.668652 -9.591085,-3.668687 -13.2597659,0 -0.00656,0.0065 -0.013066,0.01298 -0.019531,0.01953 L 7.03125,43.681641 C 6.6825412,42.935108 6.3653126,42.173466 6.0839844,41.396484 L 6.1269531,41.375 c 0.00911,6.2e-5 0.018229,6.2e-5 0.027344,0 5.1878971,0 9.3750001,-4.187077 9.3750001,-9.375 0,-5.187921 -4.187102,-9.375 -9.3750001,-9.375 -0.00911,-6.2e-5 -0.018229,-6.2e-5 -0.027344,0 l -0.042969,-0.02148 C 6.3653134,21.826532 6.6825428,21.064887 7.03125,20.318359 l 0.044922,0.01367 c 0.00647,0.0066 0.012976,0.01307 0.019531,0.01953 3.6686809,3.668683 9.5909719,3.668689 13.2597659,0 3.667991,-3.668093 3.668025,-9.587837 0,-13.2558589 -0.0065,-0.00656 -0.01298,-0.013066 -0.01953,-0.019531 L 20.320312,7.03125 c 0.74347,-0.3476364 1.501132,-0.6631167 2.273438,-0.9433594 z"
       style="fill:url(#linearGradient23);fill-rule:evenodd;stroke:#fce94f;stroke-width:2;stroke-linecap:round;stroke-linejoin:round;stroke-dasharray:none;stroke-opacity:1;font-variation-settings:normal;opacity:1;vector-effect:none;fill-opacity:1;stroke-miterlimit:4;stroke-dashoffset:0;-inkscape-stroke:none;stop-color:#000000;stop-opacity:1"
       id="path72" />
    <path
       d="m 31.100285,37.078701 h -2.11902 l 1.764692,-8.364919 H 28.3004 l 0.382118,-1.792483 h 7.017083 l -0.382118,1.792483 h -2.452505 z"
       id="text1540"
       style="font-style:italic;font-weight:bold;font-size:14.2287px;font-family:'Open Sans';-inkscape-font-specification:'Open Sans, Bold Italic'"
       aria-label="T" />
  </g>
</svg>
