<?xml version="1.0" encoding="UTF-8" standalone="no"?>
<!-- Created with Inkscape (http://www.inkscape.org/) -->

<svg
   xmlns:dc="http://purl.org/dc/elements/1.1/"
   xmlns:cc="http://creativecommons.org/ns#"
   xmlns:rdf="http://www.w3.org/1999/02/22-rdf-syntax-ns#"
   xmlns:svg="http://www.w3.org/2000/svg"
   xmlns="http://www.w3.org/2000/svg"
   xmlns:xlink="http://www.w3.org/1999/xlink"
   xmlns:sodipodi="http://sodipodi.sourceforge.net/DTD/sodipodi-0.dtd"
   xmlns:inkscape="http://www.inkscape.org/namespaces/inkscape"
   sodipodi:docname="wormgear.svg"
   inkscape:version="0.92.4 (f8dce91, 2019-08-02)"
   version="1.1"
   id="svg3799"
   height="64px"
   width="64px">
  <sodipodi:namedview
     id="base"
     pagecolor="#ffffff"
     bordercolor="#666666"
     borderopacity="1.0"
     inkscape:pageopacity="0.0"
     inkscape:pageshadow="2"
     inkscape:zoom="5.5"
     inkscape:cx="40.005755"
     inkscape:cy="35.926469"
     inkscape:current-layer="svg3799"
     showgrid="true"
     inkscape:document-units="px"
     inkscape:grid-bbox="true"
     inkscape:snap-center="false"
     showguides="true"
     inkscape:guide-bbox="true"
     inkscape:window-width="1837"
     inkscape:window-height="1018"
     inkscape:window-x="83"
     inkscape:window-y="34"
     inkscape:window-maximized="1"
     inkscape:object-paths="true"
     inkscape:object-nodes="true"
     inkscape:snap-intersection-paths="true"
     inkscape:snap-nodes="false"
     inkscape:snap-others="true">
    <sodipodi:guide
       id="guide3783"
       position="32,32"
       orientation="1,0"
       inkscape:locked="false" />
    <sodipodi:guide
       id="guide3785"
       position="32,32"
       orientation="0,1"
       inkscape:locked="false" />
    <sodipodi:guide
       id="guide9301"
       position="0,0"
       orientation="1,0"
       inkscape:locked="false" />
    <sodipodi:guide
       id="guide9303"
       position="0,0"
       orientation="0,1"
       inkscape:locked="false" />
    <sodipodi:guide
       id="guide9305"
       position="0,64"
       orientation="0,1"
       inkscape:locked="false" />
    <sodipodi:guide
       id="guide9307"
       position="64,64"
       orientation="1,0"
       inkscape:locked="false" />
    <sodipodi:guide
       position="51.168818,70.453548"
       orientation="1,0"
       id="guide4358"
       inkscape:locked="false" />
  </sodipodi:namedview>
  <defs
     id="defs3801">
    <inkscape:path-effect
       is_visible="true"
       id="path-effect9409"
       effect="spiro" />
    <inkscape:path-effect
       is_visible="true"
       id="path-effect9405"
       effect="spiro" />
    <inkscape:path-effect
       is_visible="true"
       id="path-effect9398"
       effect="spiro" />
    <inkscape:path-effect
       is_visible="true"
       id="path-effect9390"
       effect="spiro" />
    <inkscape:path-effect
       is_visible="true"
       id="path-effect9384"
       effect="spiro" />
    <linearGradient
       id="linearGradient9347"
       inkscape:collect="always">
      <stop
         id="stop9349"
         offset="0"
         style="stop-color:#0079ff;stop-opacity:1;" />
      <stop
         id="stop9351"
         offset="1"
         style="stop-color:#0079ff;stop-opacity:0" />
    </linearGradient>
    <marker
       style="overflow:visible"
       id="Arrow2Mstart"
       refX="0.0"
       refY="0.0"
       orient="auto"
       inkscape:stockid="Arrow2Mstart">
      <path
         transform="scale(0.6) translate(0,0)"
         d="M 8.7185878,4.0337352 L -2.2072895,0.016013256 L 8.7185884,-4.0017078 C 6.9730900,-1.6296469 6.9831476,1.6157441 8.7185878,4.0337352 z "
         style="fill-rule:evenodd;stroke-width:0.62500000;stroke-linejoin:round"
         id="path4317" />
    </marker>
    <marker
       style="overflow:visible;"
       id="Arrow1Mend"
       refX="0.0"
       refY="0.0"
       orient="auto"
       inkscape:stockid="Arrow1Mend">
      <path
         transform="scale(0.4) rotate(180) translate(10,0)"
         style="fill-rule:evenodd;stroke:#000000;stroke-width:1.0pt;"
         d="M 0.0,0.0 L 5.0,-5.0 L -12.5,0.0 L 5.0,5.0 L 0.0,0.0 z "
         id="path4302" />
    </marker>
    <marker
       style="overflow:visible;"
       id="Arrow2Mend"
       refX="0.0"
       refY="0.0"
       orient="auto"
       inkscape:stockid="Arrow2Mend">
      <path
         transform="scale(0.6) rotate(180) translate(0,0)"
         d="M 8.7185878,4.0337352 L -2.2072895,0.016013256 L 8.7185884,-4.0017078 C 6.9730900,-1.6296469 6.9831476,1.6157441 8.7185878,4.0337352 z "
         style="fill-rule:evenodd;stroke-width:0.62500000;stroke-linejoin:round;"
         id="path4320" />
    </marker>
    <marker
       style="overflow:visible"
       id="Arrow1Mstart"
       refX="0.0"
       refY="0.0"
       orient="auto"
       inkscape:stockid="Arrow1Mstart">
      <path
         transform="scale(0.4) translate(10,0)"
         style="fill-rule:evenodd;stroke:#000000;stroke-width:1.0pt"
         d="M 0.0,0.0 L 5.0,-5.0 L -12.5,0.0 L 5.0,5.0 L 0.0,0.0 z "
         id="path4299" />
    </marker>
    <marker
       style="overflow:visible;"
       id="Arrow1Lend"
       refX="0.0"
       refY="0.0"
       orient="auto"
       inkscape:stockid="Arrow1Lend">
      <path
         transform="scale(0.8) rotate(180) translate(12.5,0)"
         style="fill-rule:evenodd;stroke:#000000;stroke-width:1.0pt;"
         d="M 0.0,0.0 L 5.0,-5.0 L -12.5,0.0 L 5.0,5.0 L 0.0,0.0 z "
         id="path4296" />
    </marker>
    <marker
       style="overflow:visible;"
       id="Arrow2Lend"
       refX="0.0"
       refY="0.0"
       orient="auto"
       inkscape:stockid="Arrow2Lend">
      <path
         transform="scale(1.1) rotate(180) translate(1,0)"
         d="M 8.7185878,4.0337352 L -2.2072895,0.016013256 L 8.7185884,-4.0017078 C 6.9730900,-1.6296469 6.9831476,1.6157441 8.7185878,4.0337352 z "
         style="fill-rule:evenodd;stroke-width:0.62500000;stroke-linejoin:round;"
         id="path4314" />
    </marker>
    <marker
       style="overflow:visible"
       id="EmptyTriangleOutL"
       refX="0.0"
       refY="0.0"
       orient="auto"
       inkscape:stockid="EmptyTriangleOutL">
      <path
         transform="scale(0.8) translate(-6,0)"
         style="fill-rule:evenodd;fill:#FFFFFF;stroke:#000000;stroke-width:1.0pt"
         d="M 5.77,0.0 L -2.88,5.0 L -2.88,-5.0 L 5.77,0.0 z "
         id="path4487" />
    </marker>
    <marker
       style="overflow:visible"
       id="DotS"
       refX="0.0"
       refY="0.0"
       orient="auto"
       inkscape:stockid="DotS">
      <path
         transform="scale(0.2) translate(7.4, 1)"
         style="fill-rule:evenodd;stroke:#000000;stroke-width:1.0pt"
         d="M -2.5,-1.0 C -2.5,1.7600000 -4.7400000,4.0 -7.5,4.0 C -10.260000,4.0 -12.5,1.7600000 -12.5,-1.0 C -12.5,-3.7600000 -10.260000,-6.0 -7.5,-6.0 C -4.7400000,-6.0 -2.5,-3.7600000 -2.5,-1.0 z "
         id="path4394" />
    </marker>
    <marker
       style="overflow:visible"
       id="DotL"
       refX="0.0"
       refY="0.0"
       orient="auto"
       inkscape:stockid="DotL">
      <path
         transform="scale(0.8) translate(7.4, 1)"
         style="fill-rule:evenodd;stroke:#000000;stroke-width:1.0pt"
         d="M -2.5,-1.0 C -2.5,1.7600000 -4.7400000,4.0 -7.5,4.0 C -10.260000,4.0 -12.5,1.7600000 -12.5,-1.0 C -12.5,-3.7600000 -10.260000,-6.0 -7.5,-6.0 C -4.7400000,-6.0 -2.5,-3.7600000 -2.5,-1.0 z "
         id="path4388" />
    </marker>
    <marker
       style="overflow:visible"
       id="Tail"
       refX="0.0"
       refY="0.0"
       orient="auto"
       inkscape:stockid="Tail">
      <g
         transform="scale(-1.2)"
         id="g4363">
        <path
           style="fill:none;fill-rule:evenodd;stroke:#000000;stroke-width:0.8;stroke-linecap:round"
           d="M -3.8048674,-3.9585227 L 0.54352094,0"
           id="path4365" />
        <path
           style="fill:none;fill-rule:evenodd;stroke:#000000;stroke-width:0.8;stroke-linecap:round"
           d="M -1.2866832,-3.9585227 L 3.0617053,0"
           id="path4367" />
        <path
           style="fill:none;fill-rule:evenodd;stroke:#000000;stroke-width:0.8;stroke-linecap:round"
           d="M 1.3053582,-3.9585227 L 5.6537466,0"
           id="path4369" />
        <path
           style="fill:none;fill-rule:evenodd;stroke:#000000;stroke-width:0.8;stroke-linecap:round"
           d="M -3.8048674,4.1775838 L 0.54352094,0.21974226"
           id="path4371" />
        <path
           style="fill:none;fill-rule:evenodd;stroke:#000000;stroke-width:0.8;stroke-linecap:round"
           d="M -1.2866832,4.1775838 L 3.0617053,0.21974226"
           id="path4373" />
        <path
           style="fill:none;fill-rule:evenodd;stroke:#000000;stroke-width:0.8;stroke-linecap:round"
           d="M 1.3053582,4.1775838 L 5.6537466,0.21974226"
           id="path4375" />
      </g>
    </marker>
    <marker
       style="overflow:visible"
       id="Arrow1Sstart"
       refX="0.0"
       refY="0.0"
       orient="auto"
       inkscape:stockid="Arrow1Sstart">
      <path
         transform="scale(0.2) translate(6,0)"
         style="fill-rule:evenodd;stroke:#000000;stroke-width:1.0pt"
         d="M 0.0,0.0 L 5.0,-5.0 L -12.5,0.0 L 5.0,5.0 L 0.0,0.0 z "
         id="path4339" />
    </marker>
    <marker
       style="overflow:visible"
       id="Arrow1Lstart"
       refX="0.0"
       refY="0.0"
       orient="auto"
       inkscape:stockid="Arrow1Lstart">
      <path
         transform="scale(0.8) translate(12.5,0)"
         style="fill-rule:evenodd;stroke:#000000;stroke-width:1.0pt"
         d="M 0.0,0.0 L 5.0,-5.0 L -12.5,0.0 L 5.0,5.0 L 0.0,0.0 z "
         id="path4327" />
    </marker>
    <marker
       style="overflow:visible"
       id="Arrow1Mstart-9"
       refX="0"
       refY="0"
       orient="auto"
       inkscape:stockid="Arrow1Mstart">
      <path
         transform="matrix(0.4,0,0,0.4,4,0)"
         style="fill-rule:evenodd;stroke:#000000;stroke-width:1pt"
         d="M 0,0 5,-5 -12.5,0 5,5 0,0 z"
         id="path4299-1"
         inkscape:connector-curvature="0" />
    </marker>
    <marker
       style="overflow:visible"
       id="Arrow2Mend-7"
       refX="0"
       refY="0"
       orient="auto"
       inkscape:stockid="Arrow2Mend">
      <path
         transform="scale(-0.6,-0.6)"
         d="M 8.7185878,4.0337352 -2.2072895,0.01601326 8.7185884,-4.0017078 c -1.7454984,2.3720609 -1.7354408,5.6174519 -6e-7,8.035443 z"
         style="fill-rule:evenodd;stroke-width:0.625;stroke-linejoin:round"
         id="path4320-8"
         inkscape:connector-curvature="0" />
    </marker>
    <linearGradient
       gradientUnits="userSpaceOnUse"
       y2="47.081963"
       x2="1.8271284"
       y1="40.800289"
       x1="-21.345743"
       id="linearGradient9353"
       xlink:href="#linearGradient9347"
       inkscape:collect="always" />
  </defs>
  <metadata
     id="metadata3804">
    <rdf:RDF>
      <cc:Work
         rdf:about="">
        <dc:format>image/svg+xml</dc:format>
        <dc:type
           rdf:resource="http://purl.org/dc/dcmitype/StillImage" />
        <dc:title></dc:title>
      </cc:Work>
    </rdf:RDF>
  </metadata>
  <g
     inkscape:groupmode="layer"
     inkscape:label="Layer 1"
     id="layer1">
    <rect
       ry="15.401461"
       y="1.4630233e-07"
       x="0.18181612"
       height="63.986015"
       width="63.804237"
       id="rect3156"
       style="fill:#ffbf00;stroke:none;fill-opacity:1" />
  </g>
  <path
     id="path544"
     d="m 10.420949,9.0479158 c -0.07408,1.1212052 -0.06808,2.2464482 -0.07587,3.3696682 0.0034,1.323497 2.19e-4,2.64699 0.0064,3.97048 0.0077,1.19813 0.0058,2.396278 0.009,3.594427 0.0033,1.115296 0.0046,2.230597 0.0053,3.345897 -0.005,1.196306 -0.01121,2.392618 -0.01114,3.588938 0.01075,1.287074 -0.04007,2.576107 0.02741,3.861754 0.109273,1.310861 0.302133,2.620557 0.590933,3.904051 0.227611,1.128725 0.665664,2.194448 1.072788,3.266044 0.290288,0.94421 0.733719,1.823421 1.182529,2.699108 0.425015,0.767742 0.738699,1.587806 1.077611,2.394843 0.297971,0.816544 0.577665,1.635325 0.945883,2.423449 0.320014,0.669234 0.622718,1.350518 1.033282,1.970311 0.318153,0.462653 0.597529,0.947815 0.919543,1.408246 0.321261,0.502193 0.7389,0.897636 1.190943,1.276782 0.367382,0.362986 0.766059,0.691682 1.1494,1.037741 0.384139,0.406309 0.861772,0.698435 1.312418,1.021463 0.263314,0.200212 0.608893,0.455201 0.924266,0.559746 0.221831,0.009 0.297237,0.144918 0.441895,0.290963 0.125411,0.126612 0.28075,0.236665 0.422597,0.343382 0.727775,0.420654 1.443682,0.856118 2.21581,1.190763 1.124238,0.519612 2.301972,0.904033 3.472387,1.301916 0.444447,0.145165 0.894911,0.282106 1.360181,0.341297 0.07579,0.0096 0.152688,0.03315 0.228203,0.02153 0.06749,-0.01039 0.124158,-0.0569 0.186237,-0.08534 0.503969,-0.218091 0.963526,-0.52002 1.485345,-0.701151 0.639303,-0.251676 1.273973,-0.510717 1.898029,-0.798934 0.645455,-0.235057 1.284265,-0.479024 1.908446,-0.767376 0.0091,-0.005 0.575599,-0.316098 0.581519,-0.319577 0.0945,-0.05555 0.373598,-0.229429 0.278542,-0.174829 -9.40566,5.402501 -6.717819,3.960044 -4.814721,2.760899 0.501807,-0.344005 0.888948,-0.815505 1.322443,-1.234066 0.45382,-0.369053 0.813437,-0.829804 1.178727,-1.281715 0.43732,-0.644394 0.771163,-1.349924 1.133497,-2.037181 0.420247,-0.738726 0.80737,-1.492803 1.171302,-2.26063 0.32447,-0.682146 0.533781,-1.407109 0.721219,-2.136173 0.180922,-0.855078 0.274313,-1.725738 0.382858,-2.592155 0.127302,-0.901036 0.217414,-1.807041 0.309489,-2.712248 0.08255,-0.792286 0.103124,-1.588446 0.120457,-2.384148 0.0147,-0.799158 0.0085,-1.598361 0.0075,-2.397587 -0.0098,-0.678802 -0.01145,-1.357595 -0.01237,-2.036449 0.03748,-0.672307 -0.143382,-1.318022 -0.346869,-1.950774 -0.174822,-0.564272 -0.352683,-1.125823 -0.576894,-1.672474 -0.202271,-0.5561 -0.410314,-1.100347 -0.741384,-1.593872 -0.267746,-0.456829 -0.6764,-0.78706 -1.062141,-1.135476 -0.30977,-0.289174 -0.671256,-0.494513 -1.059426,-0.657753 -0.356461,-0.122675 -0.736624,-0.110777 -1.108432,-0.114601 -0.255326,0.02858 -0.527193,-0.0367 -0.780946,0.0077 -0.125203,0.02188 -0.239835,0.08427 -0.359197,0.127943 -1.880686,1.215202 -4.286258,2.486232 4.823133,-2.738193 0.109419,-0.06275 -0.217296,0.128216 -0.324257,0.195075 -0.190856,0.119301 -0.377861,0.244664 -0.567835,0.365365 -0.408847,0.266403 -0.812338,0.536395 -1.200414,0.831161 -0.358104,0.18964 -0.519974,0.562685 -0.778416,0.853862 -0.323423,0.377496 -0.630085,0.767521 -0.90907,1.179325 -0.215806,0.311642 -0.427062,0.636014 -0.584089,0.981914 -0.200519,0.351398 -0.285752,0.750073 -0.425442,1.126959 -0.165588,0.474742 -0.305967,0.959569 -0.44415,1.443186 -0.104618,0.454902 -0.226454,0.904714 -0.299694,1.366137 -0.06527,0.424572 -0.06799,0.85531 -0.07118,1.283874 -0.0069,0.489351 -0.01242,0.978701 -0.009,1.468105 5.18e-4,0.532594 -0.0024,1.065195 -2.78e-4,1.597788 -0.0016,0.552156 4.87e-4,1.104289 -0.0037,1.656441 0.0019,0.622399 -0.0046,1.244793 -0.0076,1.867184 -0.0033,0.752244 -0.0087,1.504427 -0.0081,2.256687 0.01467,0.683385 -0.01579,1.368582 0.03191,2.050769 0.07704,0.699916 0.331162,1.359348 0.543409,2.025424 0.214167,0.672009 0.448048,1.337297 0.664789,2.008478 0.210265,0.650374 0.430693,1.295979 0.726169,1.9131 0.290797,0.593392 0.580118,1.187914 0.915079,1.758204 0.285147,0.513962 0.624737,0.995983 0.981875,1.462041 0.311823,0.38023 0.633948,0.601593 1.050373,0.84002 0.353365,0.129474 0.697772,0.27795 1.02406,0.468747 0.394203,0.135438 0.737825,0.3757 1.127769,0.519177 0.392264,0.125042 0.787398,0.235085 1.184482,0.347897 0.06634,0.01438 0.135429,0.0194 0.199019,0.04315 0.754667,0.281895 -0.266124,-0.02916 0.478604,0.211144 0.260836,0.08416 0.528767,0.126836 0.799096,0.165065 0.557364,0.06312 1.119546,0.06318 1.679754,0.06348 0.633256,0.0043 1.266441,7.45e-4 1.89969,-0.0013 0.105679,-1.4e-5 0.212586,0.01602 0.317037,-4.3e-5 0.155906,-0.02398 0.361982,-0.143339 0.501656,-0.206298 0.238808,-0.107644 0.466595,-0.228055 0.704266,-0.338292 0.424783,-0.152362 0.861999,-0.244999 1.255668,-0.471165 2.015543,-0.973647 4.629773,-2.614424 -5.112292,2.96278 -0.06579,0.03766 0.129658,-0.07876 0.191998,-0.121894 0.377419,-0.261144 0.02699,-0.05204 0.404825,-0.265417 0.462842,-0.261715 0.830917,-0.658187 1.221213,-1.014098 0.464334,-0.452167 0.917434,-0.912496 1.297077,-1.439094 0.372097,-0.531442 0.714216,-1.082904 1.036279,-1.645869 0.331657,-0.649192 0.615808,-1.320972 0.935909,-1.976352 0.316043,-0.619938 0.557186,-1.271929 0.794238,-1.924813 0.234088,-0.694014 0.437148,-1.397772 0.662349,-2.094728 0.220715,-0.618032 0.461972,-1.228156 0.663575,-1.852983 0.197178,-0.625062 0.380586,-1.254363 0.575665,-1.880036 0.243806,-0.683195 0.56349,-1.337151 0.903754,-1.976801 0.360183,-0.681317 0.621961,-1.409296 0.918001,-2.119745 0.227433,-0.518637 0.451526,-1.036581 0.712044,-1.539494 0.229109,-0.495275 0.356291,-1.026069 0.533788,-1.540182 0.256141,-0.691331 0.583312,-1.352892 0.882219,-2.026095 0.228847,-0.49087 0.373187,-1.012841 0.514058,-1.533808 0.121996,-0.473091 0.251379,-0.943819 0.364863,-1.419277 0.1236,-0.657241 0.377,-1.276087 0.548501,-1.920909 0.157968,-0.669191 0.339574,-1.332461 0.503697,-2.000095 0.103389,-0.489456 0.217179,-0.976893 0.304193,-1.469654 0.07747,-0.479212 0.170865,-0.953321 0.219192,-1.436922 0.01204,-0.52926 0.0663,-1.05403 0.133333,-1.578696 0.05039,-0.433206 0.06519,-0.869259 0.07318,-1.304951 0.01148,-0.473999 0.01514,-0.948224 0.01456,-1.422361 0.009,-0.510361 0.100318,-1.013424 0.137328,-1.522182 0.0211,-0.542681 0.115337,-1.077569 0.164483,-1.617794 0.03805,-0.429126 0.04172,-0.859987 0.05295,-1.290312 0.008,-0.511158 0.01322,-1.022301 0.01134,-1.533527 -0.02795,-0.462275 0.04531,-0.918749 0.10228,-1.375507 0,0 5.965822,-2.955675 5.965822,-2.955675 v 0 c -0.04506,0.441921 -0.15493,0.876279 -0.15976,1.320064 -9.54e-4,0.509983 0.0067,1.019853 0.01024,1.529801 0.0037,0.448867 -0.01086,0.897847 -0.04614,1.345417 -0.04544,0.536393 -0.12369,1.068996 -0.16625,1.603685 -0.03096,0.496345 -0.06035,0.993534 -0.158613,1.482204 2.41e-4,0.474579 0.0069,0.949112 0.0089,1.423683 -0.0071,0.45681 -0.02205,0.913662 -0.06434,1.368779 -0.04748,0.520152 -0.163291,1.032205 -0.150713,1.557034 -0.0186,0.493633 -0.05292,0.988761 -0.188295,1.466522 -0.04598,0.527175 -0.198124,1.0282 -0.294242,1.546336 -0.163408,0.676577 -0.375454,1.340568 -0.520817,2.021214 -0.0905,0.349754 -0.150439,0.713473 -0.265677,1.056203 -0.140008,0.416398 -0.08493,0.12528 -0.204461,0.535533 -0.02653,0.09104 -0.04288,0.184747 -0.06432,0.277121 -0.07756,0.485948 -0.188535,0.9709 -0.343442,1.437589 -0.05337,0.255012 -0.133095,0.487893 -0.204757,0.736347 -0.08976,0.311209 -0.1419,0.633943 -0.296122,0.925193 -0.292141,0.661524 -0.607388,1.312341 -0.887065,1.979292 -0.196984,0.511098 -0.311916,1.041466 -0.500866,1.552954 -0.178728,0.556062 -0.543237,1.032141 -0.741378,1.584075 -0.351933,0.695078 -0.599836,1.438897 -0.895211,2.1592 -0.34143,0.610452 -0.669128,1.227878 -0.936294,1.875489 -0.240392,0.603438 -0.37215,1.242221 -0.588556,1.854722 -0.18403,0.636432 -0.39138,1.268765 -0.661896,1.87396 -0.244743,0.691356 -0.455553,1.392405 -0.666865,2.094106 -0.209906,0.683613 -0.459098,1.358128 -0.760533,2.006698 -0.325439,0.658805 -0.657703,1.31499 -0.919797,2.002414 -0.306835,0.581288 -0.628807,1.152447 -0.989748,1.702033 -0.371285,0.550281 -0.74737,1.09944 -1.254124,1.537674 -0.354444,0.410113 -0.77745,0.750095 -1.141392,1.149636 -0.672624,0.474609 0.28781,-0.183036 -0.4146,0.232668 -0.06525,0.03862 -0.11328,0.1024 -0.178699,0.140728 -2.434859,1.426518 -4.045873,2.630344 -6.292207,3.585561 -0.422778,0.141034 -0.850327,0.270639 -1.250279,0.470417 -0.538482,0.235005 -1.081349,0.360971 -1.673387,0.308431 -0.637614,3.86e-4 -1.275235,0.0024 -1.912817,-0.0017 -0.584514,-0.01523 -1.172041,-0.03321 -1.745672,-0.158474 -0.52235,-0.122569 -1.019436,-0.31486 -1.535308,-0.45841 -0.415538,-0.126691 -0.841267,-0.22705 -1.235623,-0.41486 -0.381259,-0.191274 -0.766949,-0.37012 -1.150606,-0.556579 -0.353714,-0.158516 -0.715344,-0.304309 -1.046589,-0.507205 -0.446742,-0.285875 -0.829056,-0.652265 -1.155896,-1.070193 -0.366425,-0.492513 -0.736358,-0.989653 -1.021799,-1.534438 -0.332926,-0.59096 -0.628707,-1.201036 -0.930409,-1.807897 -0.306062,-0.644246 -0.548465,-1.309905 -0.767179,-1.988287 -0.221603,-0.672644 -0.434391,-1.347928 -0.667102,-2.016853 -0.214835,-0.703747 -0.482937,-1.395652 -0.601145,-2.125033 -0.124787,-0.706139 -0.03526,-1.419135 -0.05509,-2.134131 6.83e-4,-0.749527 -0.0047,-1.498975 -0.008,-2.248486 -0.003,-0.61983 -0.0095,-1.239663 -0.0075,-1.859501 -0.0042,-0.550817 -0.0021,-1.101615 -0.0038,-1.652437 0.0019,-0.531873 -0.0012,-1.063756 -0.0021,-1.595627 0.002,-0.48829 -0.0066,-0.976422 -0.011,-1.464679 0.0036,-0.45427 0.01118,-0.908657 0.04007,-1.362148 0.05526,-0.489624 0.157831,-0.965739 0.278067,-1.44194 0.115483,-0.50442 0.300175,-0.986398 0.400994,-1.494683 0.09383,-0.26343 0.211705,-0.519074 0.282415,-0.790456 0.01864,-0.07155 0.02055,-0.14678 0.03917,-0.21834 0.01559,-0.05992 0.04206,-0.116464 0.06308,-0.174697 0.209283,-0.40435 -0.05428,0.122737 0.140857,-0.33232 0.107438,-0.250544 0.31647,-0.50198 0.423001,-0.759996 0.152765,-0.207131 0.280554,-0.424087 0.423931,-0.636832 0.312283,-0.463368 -0.0034,0.03196 0.316758,-0.379207 0.05169,-0.06639 0.09167,-0.141113 0.137501,-0.21167 0.539147,-0.672855 -0.235349,0.270747 0.295284,-0.306753 0.135654,-0.147634 0.193684,-0.341573 0.298246,-0.507169 0.03658,-0.05794 0.08443,-0.107935 0.126648,-0.161903 0.394246,-0.322035 0.787058,-0.632487 1.219728,-0.903579 2.220898,-1.477123 4.501785,-2.69328 6.873494,-4.040955 0.104551,-0.05941 0.219824,-0.09872 0.334207,-0.135829 0.100184,-0.0325 0.205049,-0.04825 0.307573,-0.07237 0.416404,-0.04979 0.836951,-0.0097 1.255474,0.0066 0.440439,0.03956 0.872175,0.113284 1.262589,0.335273 0.417312,0.230789 0.811607,0.491729 1.158419,0.822479 0.416963,0.392658 0.817134,0.803513 1.118998,1.294888 0.339786,0.537857 0.61401,1.097551 0.819565,1.699968 0.218573,0.567539 0.426459,1.137683 0.577271,1.728006 0.212408,0.690641 0.463523,1.392739 0.44873,2.124413 -4.52e-4,0.682412 -0.0013,1.364766 -0.0094,2.047145 4.82e-4,0.802234 -0.0019,1.604427 -0.0027,2.406656 -0.0062,0.815779 -0.02769,1.632374 -0.110633,2.444491 -0.09629,0.911497 -0.191518,1.822231 -0.296711,2.732487 -0.136903,0.876585 -0.206627,1.76282 -0.352418,2.63819 -0.151364,0.766222 -0.344768,1.528913 -0.654038,2.248147 -0.333903,0.792414 -0.737013,1.557652 -1.173586,2.298138 -0.343232,0.700607 -0.693774,1.398567 -1.072255,2.079853 -0.27398,0.543506 -0.694057,0.994593 -1.098699,1.446159 -0.150355,0.123199 -0.315816,0.229844 -0.451615,0.368924 -0.07273,0.07449 -0.124644,0.167054 -0.193203,0.245403 -0.207709,0.237368 -0.450569,0.444064 -0.670428,0.66952 -0.232124,0.212261 -0.251733,0.253118 -0.52382,0.411556 -2.177839,1.268175 -4.466377,2.796172 -6.844796,3.87396 -0.630082,0.26225 -1.277354,0.481362 -1.898449,0.765457 -0.632585,0.273879 -1.27682,0.518503 -1.910281,0.790304 -0.521414,0.260771 -1.046296,0.562364 -1.645909,0.558161 -0.640253,-0.108899 -1.251428,-0.32082 -1.85325,-0.563092 -1.164945,-0.435546 -2.33434,-0.862171 -3.475215,-1.358537 -0.823234,-0.371826 -1.64193,-0.768006 -2.410159,-1.244593 -0.158907,-0.12009 -0.312654,-0.271247 -0.477733,-0.381676 -0.08533,-0.05708 -0.278101,-0.02458 -0.336252,-0.131918 -0.334776,-0.203838 -0.658795,-0.424625 -0.96245,-0.672984 -0.463851,-0.3396 -0.91822,-0.693501 -1.343709,-1.08065 C 13.519459,54.321983 13.141294,53.975862 12.761966,53.62927 12.288737,53.205137 11.881348,52.72789 11.511552,52.210632 11.166639,51.748449 10.866419,51.260272 10.573326,50.764148 10.174121,50.101734 9.8390341,49.404615 9.5223822,48.699514 9.1718107,47.89951 8.8520356,47.090164 8.5636045,46.265221 8.2251922,45.473877 7.9478277,44.654 7.5353864,43.895303 7.0793456,42.993938 6.6103423,42.095309 6.3170327,41.12388 5.9331934,40.012723 5.4784952,38.919879 5.2546069,37.760306 4.9508957,36.44668 4.742628,35.108139 4.613992,33.766186 4.5117546,32.470836 4.577035,31.171135 4.55441,29.872712 c 6.95e-5,-1.192538 -0.0061,-2.385067 -0.011135,-3.577591 7.256e-4,-1.117107 0.002,-2.234213 0.00532,-3.351316 0.00322,-1.201202 0.00126,-2.402403 0.00899,-3.603587 0.00619,-1.325674 0.00303,-2.651351 0.00643,-3.977033 -0.00767,-1.097405 -2.407e-4,-2.197114 -0.075869,-3.292353 0,0 5.932807,-3.0229162 5.932807,-3.0229162 z"
     inkscape:connector-curvature="0" />
</svg>
