<?xml version="1.0" encoding="UTF-8" standalone="no"?>
<!-- Created with Inkscape (http://www.inkscape.org/) -->

<svg
   width="64"
   height="64"
   id="svg2869"
   version="1.1"
   viewBox="0 0 64 64"
   xmlns:xlink="http://www.w3.org/1999/xlink"
   xmlns="http://www.w3.org/2000/svg"
   xmlns:svg="http://www.w3.org/2000/svg"
   xmlns:rdf="http://www.w3.org/1999/02/22-rdf-syntax-ns#"
   xmlns:cc="http://creativecommons.org/ns#"
   xmlns:dc="http://purl.org/dc/elements/1.1/">
  <title
     id="title23">wormgear</title>
  <defs
     id="defs2871">
    <linearGradient
       id="linearGradient5">
      <stop
         style="stop-color:#ef2929;stop-opacity:1;"
         offset="0"
         id="stop19" />
      <stop
         style="stop-color:#ef2929;stop-opacity:0;"
         offset="1"
         id="stop20" />
    </linearGradient>
    <linearGradient
       id="swatch18">
      <stop
         style="stop-color:#ef2929;stop-opacity:1;"
         offset="0"
         id="stop18" />
    </linearGradient>
    <linearGradient
       id="swatch15">
      <stop
         style="stop-color:#3d0000;stop-opacity:1;"
         offset="0"
         id="stop15" />
    </linearGradient>
    <linearGradient
       id="linearGradient5-1">
      <stop
         style="stop-color:#ef2929;stop-opacity:1;"
         offset="0"
         id="stop5" />
      <stop
         style="stop-color:#ef2929;stop-opacity:0;"
         offset="1"
         id="stop6" />
    </linearGradient>
    <linearGradient
       id="linearGradient3836-9">
      <stop
         style="stop-color:#a40000;stop-opacity:1"
         offset="0"
         id="stop3838-8" />
      <stop
         style="stop-color:#ef2929;stop-opacity:1"
         offset="1"
         id="stop3840-1" />
    </linearGradient>
    <linearGradient
       xlink:href="#linearGradient59"
       id="linearGradient846"
       x1="58.196716"
       y1="49.972424"
       x2="58.197704"
       y2="17.442623"
       gradientUnits="userSpaceOnUse"
       gradientTransform="matrix(1.0428047,0,0,1.0432797,-1.3697824,-1.3849651)" />
    <linearGradient
       id="linearGradient59">
      <stop
         style="stop-color:#c4a000;stop-opacity:1;"
         offset="0"
         id="stop59" />
      <stop
         style="stop-color:#fce94f;stop-opacity:1;"
         offset="0.67682928"
         id="stop58" />
      <stop
         style="stop-color:#c4a000;stop-opacity:1;"
         offset="1"
         id="stop805" />
    </linearGradient>
    <linearGradient
       xlink:href="#linearGradient59"
       id="linearGradient842"
       x1="24.211432"
       y1="49.059666"
       x2="24.858622"
       y2="12.503376"
       gradientUnits="userSpaceOnUse"
       gradientTransform="matrix(1.0428047,0,0,1.0432797,-1.3697824,-1.3849651)" />
    <linearGradient
       xlink:href="#linearGradient59"
       id="linearGradient840"
       x1="7.8155646"
       y1="50.543022"
       x2="8.3967581"
       y2="12.291364"
       gradientUnits="userSpaceOnUse"
       gradientTransform="matrix(1.0428047,0,0,1.0432797,-1.3697824,-1.3849651)" />
    <linearGradient
       xlink:href="#linearGradient59"
       id="linearGradient844"
       x1="41.310841"
       y1="50.331081"
       x2="41.639793"
       y2="14.198631"
       gradientUnits="userSpaceOnUse"
       gradientTransform="matrix(1.0428047,0,0,1.0432797,-1.3697824,-1.3849651)" />
  </defs>
  <metadata
     id="metadata2874">
    <rdf:RDF>
      <cc:Work
         rdf:about="">
        <dc:format>image/svg+xml</dc:format>
        <dc:type
           rdf:resource="http://purl.org/dc/dcmitype/StillImage" />
        <dc:creator>
          <cc:Agent>
            <dc:title>[maxwxyz]</dc:title>
          </cc:Agent>
        </dc:creator>
        <dc:relation>https://www.freecad.org/wiki/index.php?title=Artwork</dc:relation>
        <dc:publisher>
          <cc:Agent>
            <dc:title>FreeCAD</dc:title>
          </cc:Agent>
        </dc:publisher>
        <dc:identifier>FreeCAD/src/</dc:identifier>
        <dc:rights>
          <cc:Agent>
            <dc:title>FreeCAD LGPL2+</dc:title>
          </cc:Agent>
        </dc:rights>
        <dc:date>2024</dc:date>
        <dc:title>wormgear</dc:title>
      </cc:Work>
    </rdf:RDF>
  </metadata>
  <g
     id="layer3"
     style="display:inline">
    <path
       d="m 18.543307,27.08516 c -0.361225,0.678619 -0.722316,1.445017 -1.083539,2.300514 -0.938683,2.200881 -1.877996,4.810638 -2.816795,6.748715 -0.938798,1.957676 -1.877938,3.17984 -2.816795,3.162442 h -1.22 l 0.150718,0.321949 c 0.313068,0.671326 0.611821,1.33094 0.89616,1.978564 0.233391,0.530685 0.457457,1.050534 0.674158,1.560844 0.229086,0.539209 0.449308,1.065194 0.661935,1.579183 0.446021,1.079704 0.868166,2.117379 1.264809,3.113538 0.453405,1.134582 0.856818,2.166628 1.254624,3.184856 0.360526,0.927328 0.720977,1.393569 1.081502,1.397831 0.0692,-4.17e-4 0.138559,-0.02035 0.207747,-0.05501 0.0075,-0.0038 0.01492,-0.0081 0.0224,-0.01223 0.134414,-0.07455 0.266848,-0.215952 0.401236,-0.419756 0.09009,-0.137765 0.180795,-0.30289 0.270885,-0.497189 0.01901,-0.04062 0.03802,-0.08927 0.05703,-0.132447 0.07528,-0.17206 0.150792,-0.362784 0.226077,-0.572582 0.02301,-0.06421 0.04624,-0.127871 0.06925,-0.195615 0.04546,-0.133511 0.09101,-0.289314 0.136461,-0.436058 0.106142,-0.343757 0.211585,-0.719291 0.317729,-1.132936 0.02938,-0.114106 0.0582,-0.218995 0.08757,-0.338251 0.130259,-0.530203 0.262833,-1.109205 0.39309,-1.734046 0.03571,-0.171605 0.0702,-0.357314 0.105909,-0.535902 0.07887,-0.392998 0.157401,-0.812868 0.236261,-1.236857 0.127444,-0.684078 0.25546,-1.41091 0.382904,-2.166029 0.05023,-0.297502 0.100485,-0.579366 0.150718,-0.88638 0.547281,-3.34564 1.094321,-7.212747 1.641603,-11.058357 0.08902,-0.625122 0.17779,-1.216528 0.266811,-1.835929 0.148021,-1.029805 0.295986,-2.056357 0.444007,-3.052407 0.1747,-1.17535 0.350775,-2.246392 0.525476,-3.339718 0.105415,-0.659705 0.210277,-1.396634 0.315692,-2.015241 0.02591,-0.1525 0.05147,-0.282333 0.0774,-0.431984 0.01487,-0.0857 0.02994,-0.192369 0.04481,-0.277121 0.05897,-0.336963 0.118227,-0.632464 0.177196,-0.953622 0.06411,-0.348985 0.127336,-0.707908 0.191452,-1.037167 0.08596,-0.441538 0.170672,-0.839617 0.256628,-1.24297 0.05869,-0.275389 0.11851,-0.56876 0.177195,-0.825251 0.09533,-0.416591 0.189805,-0.777662 0.285142,-1.141087 0.0503,-0.19179 0.102456,-0.410709 0.152755,-0.586845 0.1445,-0.50596 0.287285,-0.952776 0.431785,-1.320401 -0.397805,1.018229 -0.801218,2.050333 -1.254624,3.184857 -0.396642,0.996159 -0.816752,2.033834 -1.262771,3.113538 -0.212629,0.514047 -0.434886,1.039973 -0.663973,1.579182 -0.216699,0.510311 -0.440824,1.030159 -0.674157,1.560844 -0.284338,0.647566 -0.583091,1.307297 -0.89616,1.978565 L 19.7409,24.703143 c -0.06832,0.144507 -0.143931,0.289233 -0.213857,0.434021 -0.132001,0.273089 -0.263839,0.546718 -0.401235,0.819137 -0.02939,0.05857 -0.05589,0.116627 -0.08554,0.175239 l -0.03055,0.06113 z"
       style="fill:#fce94f;fill-rule:evenodd;stroke:#231f0b;stroke-width:1.5;stroke-linecap:round;stroke-linejoin:round;stroke-dasharray:none;stroke-opacity:1"
       id="path820" />
    <path
       d="m 55.086279,27.08516 c -0.40597,0.749656 -0.811993,1.673109 -1.217963,2.640801 -0.177252,0.422074 -0.354327,0.834622 -0.531587,1.275574 -0.317925,0.789995 -0.635263,1.584492 -0.953188,2.367755 -0.169512,0.417479 -0.339669,0.82722 -0.509181,1.224631 -0.04902,0.114998 -0.09763,0.241901 -0.146645,0.354553 -0.061,0.141655 -0.122304,0.270885 -0.183306,0.407531 -0.03659,0.08154 -0.07339,0.164629 -0.109983,0.244518 -0.371928,0.813861 -0.742174,1.523138 -1.11409,2.100824 -0.07507,0.116811 -0.151004,0.235308 -0.226077,0.340288 -0.02618,0.03667 -0.05122,0.0748 -0.0774,0.110033 -0.125603,0.168543 -0.251193,0.32319 -0.376795,0.456435 -0.004,0.0043 -0.01032,0.01209 -0.01425,0.01631 -0.126939,0.133274 -0.25393,0.24537 -0.380869,0.340289 -0.03806,0.02877 -0.076,0.05025 -0.114057,0.0754 -0.08314,0.05441 -0.167371,0.09965 -0.250517,0.136522 -0.170591,0.07572 -0.340622,0.125328 -0.511218,0.120222 h -1.222037 c 0.05031,0.106896 0.100412,0.215112 0.150718,0.321949 0.313069,0.671327 0.611822,1.330999 0.89616,1.978565 0.233391,0.530685 0.459494,1.050533 0.676193,1.560843 0.229029,0.539151 0.449308,1.065136 0.661937,1.579183 0.446019,1.079704 0.868165,2.117262 1.264809,3.113538 0.453346,1.134641 0.856875,2.166628 1.254624,3.184857 0.360584,0.927327 0.720918,1.393569 1.081502,1.397831 0.04564,0.0016 0.09082,-0.008 0.136461,-0.02241 0.0243,-0.0078 0.04903,-0.02035 0.07332,-0.0326 0.01631,-0.0081 0.03258,-0.01635 0.04888,-0.02649 0.07884,-0.04916 0.155392,-0.11964 0.234224,-0.213954 0.05857,-0.07038 0.11862,-0.170177 0.177195,-0.264895 0.05984,-0.09713 0.121437,-0.208012 0.181269,-0.3301 0.03346,-0.06805 0.06634,-0.132139 0.0998,-0.207841 0.0842,-0.191032 0.168355,-0.401631 0.252555,-0.639824 0.008,-0.02263 0.01642,-0.04012 0.02444,-0.06317 0.0913,-0.263047 0.183661,-0.560113 0.274959,-0.876193 0.14887,-0.516082 0.297174,-1.112291 0.446044,-1.764609 0.02467,-0.107467 0.05069,-0.217104 0.07536,-0.328063 0.146891,-0.660618 0.293043,-1.375236 0.439934,-2.149726 0.208664,-1.096096 0.416606,-2.313975 0.625276,-3.596463 0.04986,-0.30602 0.10086,-0.625055 0.150717,-0.939359 0.170649,-1.077376 0.340569,-2.191482 0.511219,-3.343793 0.04482,-0.302698 0.0896,-0.598109 0.134423,-0.904719 0.24097,-1.646634 0.482073,-3.338675 0.72304,-5.030972 0.131805,-0.925942 0.26332,-1.83516 0.395124,-2.750835 0.0646,-0.449114 0.128885,-0.904999 0.19349,-1.348928 0.239362,-1.649819 0.479579,-3.23213 0.718965,-4.733474 0.01407,-0.08835 0.0287,-0.193513 0.04277,-0.281197 0.189713,-1.185829 0.380547,-2.283292 0.570284,-3.323417 0.129035,-0.707806 0.257945,-1.397525 0.386978,-2.025429 0.02966,-0.143871 0.05996,-0.276435 0.08962,-0.415681 0.130922,-0.616227 0.262173,-1.179032 0.393089,-1.697367 0.04282,-0.169386 0.0855,-0.341036 0.128314,-0.499226 0.042,-0.15515 0.08428,-0.308583 0.126277,-0.45236 0.0977,-0.335069 0.193566,-0.649674 0.291252,-0.92102 v -0.01223 c -0.167264,0.427351 -0.333713,0.854334 -0.501035,1.281686 -0.208267,0.529751 -0.424874,1.077049 -0.649716,1.640312 -0.198147,0.496708 -0.403336,1.005847 -0.615092,1.528242 -0.208907,0.515448 -0.425224,1.044913 -0.649717,1.587333 -0.212802,0.514398 -0.434652,1.039683 -0.663972,1.579183 -0.216874,0.510662 -0.440534,1.031788 -0.674158,1.562882 -0.271834,0.618726 -0.557245,1.249977 -0.855425,1.890945 -0.06194,0.131825 -0.123345,0.263539 -0.185343,0.395305 -0.07527,0.159206 -0.157015,0.3193 -0.234223,0.47885 -0.11646,0.24026 -0.233762,0.479475 -0.354391,0.719292 -0.03848,0.07689 -0.07309,0.153283 -0.11202,0.230255 l -0.03055,0.06113 z"
       style="fill:#fce94f;fill-rule:evenodd;stroke:#231f0b;stroke-width:1.5;stroke-linecap:round;stroke-linejoin:round;stroke-dasharray:none;stroke-opacity:1"
       id="path829" />
    <path
       d="m 10.312889,16.426184 c -0.147824,0.670326 -0.296182,1.401529 -0.4440064,2.186404 -0.1757554,0.930663 -0.3517568,1.923444 -0.5275132,2.987203 -0.00188,0.01152 -0.00417,0.02107 -0.00615,0.0326 -0.1820007,1.102701 -0.3638403,2.268486 -0.545843,3.472165 -0.01667,0.110196 -0.032211,0.227382 -0.048882,0.338251 -0.3464353,2.305026 -0.6942288,4.742985 -1.0407253,7.178661 -0.1731198,1.215687 -0.34625,2.386036 -0.5193655,3.576085 -0.2082889,1.431491 -0.4149575,2.791855 -0.6232388,4.126253 -0.080092,0.513029 -0.1602424,1.095527 -0.2403339,1.587334 -0.077353,0.476486 -0.1548338,0.898105 -0.232187,1.350966 -0.035743,0.209157 -0.072204,0.462525 -0.1079465,0.666313 -0.03452,0.197263 -0.069353,0.366407 -0.1038728,0.558318 -0.04757,0.264118 -0.095002,0.514476 -0.142571,0.768196 -0.1077596,0.575138 -0.2160801,1.11953 -0.3238396,1.636237 -0.054432,0.261113 -0.1085058,0.52096 -0.1629383,0.766158 -0.1066348,0.47992 -0.2131315,0.914225 -0.3197663,1.328552 -0.060439,0.235037 -0.12083,0.490502 -0.1812688,0.702991 -0.016799,0.05906 -0.03412,0.11389 -0.050918,0.171164 -0.1296494,0.4419 -0.2593655,0.846765 -0.389015,1.175727 0.2008222,-0.512996 0.4020493,-1.025376 0.6028714,-1.538431 0.1937269,-0.492621 0.3950122,-1.000725 0.6028715,-1.522128 0.3942001,-0.99108 0.810523,-2.022793 1.2525877,-3.095199 0.4213021,-1.023949 0.8751412,-2.089292 1.3605343,-3.199119 0.2956791,-0.674946 0.6079477,-1.363045 0.9348581,-2.064146 0.0499,-0.106078 0.098722,-0.213832 0.1486817,-0.319911 0.097022,-0.205201 0.2012029,-0.411639 0.3014362,-0.61741 0.092226,-0.188993 0.1842188,-0.377798 0.2790316,-0.566468 0.04092,-0.0818 0.078742,-0.162618 0.1201666,-0.244519 l 0.030554,-0.06113 0.4664113,-0.892493 c 1.119439,-2.067059 2.239124,-5.290637 3.358564,-7.863313 1.11944,-2.599806 2.239067,-4.381809 3.358563,-4.348357 h 1.222037 c -0.04996,-0.106079 -0.100756,-0.213833 -0.150719,-0.319912 -0.326909,-0.701159 -0.637199,-1.389258 -0.932821,-2.064145 -0.485276,-1.109712 -0.939174,-2.174995 -1.360533,-3.199119 -0.442124,-1.072406 -0.860425,-2.104178 -1.254625,-3.0952 -0.20786,-0.521344 -0.409144,-1.029448 -0.602871,-1.522128 -0.200823,-0.512996 -0.402049,-1.025376 -0.602872,-1.538431 -0.360584,-0.927386 -0.720918,-1.393627 -1.081503,-1.397831 -0.07506,-0.0015 -0.148974,0.02243 -0.224039,0.06317 -0.01097,0.0058 -0.02163,0.01156 -0.03259,0.01834 -0.07751,0.04833 -0.156713,0.11785 -0.234224,0.209877 -0.01087,0.01296 -0.02172,0.02898 -0.03259,0.0428 -0.05262,0.06661 -0.104218,0.15423 -0.156827,0.240443 -0.05672,0.09313 -0.112334,0.19825 -0.169049,0.313799 -0.03502,0.07114 -0.07089,0.140556 -0.10591,0.220067 -0.08443,0.192336 -0.168123,0.402136 -0.252554,0.641862 -0.0065,0.01818 -0.01394,0.03249 -0.02037,0.05094 -0.09617,0.277089 -0.193051,0.5872 -0.289216,0.923058 -0.152469,0.533085 -0.303758,1.152412 -0.456227,1.827777 -0.02311,0.101793 -0.04613,0.202842 -0.06925,0.307686 z"
       style="fill:#fce94f;fill-rule:evenodd;stroke:#231f0b;stroke-width:1.5;stroke-linecap:round;stroke-linejoin:round;stroke-dasharray:none;stroke-opacity:1"
       id="path818" />
    <path
       d="m 44.191821,32.976023 c -0.166621,1.169094 -0.33239,2.331729 -0.498997,3.47624 -0.05619,0.38549 -0.112864,0.73286 -0.169049,1.11256 -0.09806,0.662556 -0.195236,1.299557 -0.293289,1.939848 -0.170042,1.110039 -0.341177,2.15221 -0.511219,3.168555 -0.06732,0.40236 -0.134312,0.871378 -0.201636,1.255196 -0.05517,0.315321 -0.1098,0.590988 -0.164975,0.892493 -0.0278,0.151806 -0.05571,0.338839 -0.08351,0.486999 -0.03317,0.177066 -0.06663,0.329622 -0.0998,0.501264 -0.04871,0.251861 -0.09794,0.493684 -0.146645,0.733556 -0.07842,0.386395 -0.1558,0.753134 -0.234223,1.106447 -0.05562,0.250543 -0.111387,0.500495 -0.167013,0.733556 -0.08065,0.33794 -0.161723,0.642229 -0.242369,0.941397 -0.04915,0.182332 -0.09954,0.378872 -0.148682,0.546092 -0.129077,0.439216 -0.255864,0.836706 -0.384941,1.165539 0.200822,-0.512996 0.399954,-1.025434 0.600835,-1.538431 0.193668,-0.492679 0.395011,-1.000725 0.602871,-1.522128 0.394142,-0.991139 0.812501,-2.022793 1.254625,-3.095199 0.421301,-1.023949 0.87514,-2.089349 1.360533,-3.199119 0.295738,-0.675004 0.605911,-1.363045 0.932821,-2.064146 0.0499,-0.106137 0.100756,-0.213832 0.150719,-0.319911 0.06061,-0.128179 0.127558,-0.256719 0.189415,-0.385117 0.139583,-0.289548 0.280036,-0.579259 0.425676,-0.868041 0.02939,-0.05856 0.0559,-0.116634 0.08554,-0.175239 l 0.496961,-0.953623 c 0,0 0,0 0,0 0.214158,-0.395926 0.427414,-0.840797 0.64157,-1.308175 0.03276,-0.07151 0.065,-0.141102 0.09776,-0.213954 0.110355,-0.245338 0.221632,-0.511951 0.331987,-0.770233 0.173947,-0.407314 0.347457,-0.816492 0.521402,-1.245009 0.192756,-0.47466 0.385678,-0.953074 0.57843,-1.436547 0.140219,-0.351604 0.279349,-0.697662 0.419566,-1.045317 0.06075,-0.150798 0.122557,-0.303187 0.183306,-0.45236 0.130634,-0.321758 0.260416,-0.61923 0.391051,-0.927132 0.06428,-0.151668 0.129215,-0.316868 0.19349,-0.464586 0.01706,-0.03961 0.03386,-0.07488 0.05092,-0.114109 0.03906,-0.0888 0.07906,-0.173775 0.118131,-0.26082 0.269672,-0.605935 0.538903,-1.159155 0.80858,-1.650501 0.07912,-0.145161 0.15714,-0.287993 0.236261,-0.421794 0.03569,-0.05986 0.07227,-0.115766 0.107946,-0.173202 0.105764,-0.171563 0.209929,-0.332524 0.315694,-0.480886 0.02419,-0.03382 0.04913,-0.06725 0.07332,-0.09984 0.106616,-0.14386 0.21315,-0.273951 0.319767,-0.39123 0.03455,-0.03843 0.06932,-0.07841 0.103874,-0.114108 0.0183,-0.01857 0.03668,-0.04341 0.05499,-0.06113 0.102862,-0.101814 0.204682,-0.187775 0.307546,-0.262858 0.03267,-0.02427 0.06509,-0.03955 0.09776,-0.06113 0.08427,-0.05454 0.168279,-0.10196 0.252553,-0.13856 0.169782,-0.075 0.339403,-0.123267 0.509182,-0.118185 h 1.222037 c -0.04996,-0.106079 -0.09878,-0.213833 -0.148681,-0.319911 -0.32691,-0.701101 -0.639179,-1.3892 -0.934858,-2.064146 -0.485335,-1.10977 -0.937196,-2.175054 -1.358498,-3.199119 -0.442122,-1.072465 -0.860423,-2.104119 -1.254624,-3.095199 -0.20786,-0.521345 -0.409202,-1.029508 -0.602872,-1.522129 -0.200821,-0.513054 -0.401991,-1.025434 -0.602871,-1.53843 -0.360526,-0.927386 -0.720918,-1.393628 -1.081503,-1.397831 -0.04914,-0.0016 -0.09953,0.0075 -0.148681,0.02445 -0.04833,0.01691 -0.100338,0.04505 -0.148681,0.07947 -0.07927,0.05687 -0.159015,0.141765 -0.238297,0.244518 -0.02069,0.02682 -0.04041,0.05161 -0.0611,0.08151 -0.04047,0.05839 -0.08174,0.143988 -0.122203,0.213954 -0.0618,0.106951 -0.121513,0.208948 -0.183305,0.342326 -0.04252,0.09171 -0.0858,0.207826 -0.128314,0.311761 -0.05659,0.13842 -0.114489,0.270342 -0.171086,0.429946 -0.04617,0.130198 -0.09233,0.28392 -0.138497,0.427907 -0.05629,0.175572 -0.112759,0.344438 -0.169049,0.539979 -0.0406,0.140963 -0.07958,0.301218 -0.120167,0.45236 -0.05752,0.214189 -0.115599,0.428169 -0.173122,0.662237 -0.05588,0.227529 -0.111132,0.473442 -0.167011,0.719293 -0.04149,0.182337 -0.08275,0.360071 -0.12424,0.552204 -0.05761,0.267152 -0.115518,0.553842 -0.173122,0.839515 -0.03883,0.192284 -0.07726,0.38235 -0.116094,0.582769 -0.217944,1.116002 -0.437842,2.355861 -0.655826,3.682044 -0.07156,0.435204 -0.142302,0.912674 -0.213857,1.365229 -0.143583,0.908442 -0.286158,1.828872 -0.429749,2.791588 -0.30193,2.0237 -0.604442,4.132968 -0.906345,6.255603 -0.03889,0.273062 -0.07924,0.538163 -0.11813,0.810988 z"
       style="fill:#fce94f;fill-rule:evenodd;stroke:#231f0b;stroke-width:1.5;stroke-linecap:round;stroke-linejoin:round;stroke-dasharray:none;stroke-opacity:1"
       id="path826" />
    <path
       d="m 38.012389,24.70314 c -0.02996,0.06364 -0.06548,0.12593 -0.09573,0.189503 -0.349616,0.732733 -0.713519,1.464551 -1.101871,2.192517 -1.605006,2.971157 -3.209754,8.291392 -4.814824,10.70788 -0.633827,0.989488 -1.268374,1.489546 -1.902304,1.503791 h -1.222037 c 0.05031,0.106896 0.100412,0.215112 0.150718,0.321949 0.313057,0.671326 0.611811,1.330998 0.89616,1.978564 0.233368,0.530685 0.459471,1.050592 0.676194,1.560844 0.229076,0.539151 0.449308,1.065136 0.661937,1.579183 0.445974,1.07982 0.868172,2.117437 1.264808,3.113538 0.453389,1.134524 0.856829,2.166569 1.254624,3.184856 0.36055,0.927269 0.720959,1.393569 1.081503,1.397831 0.05629,-0.0014 0.112762,-0.01309 0.169048,-0.03668 0.0037,-0.0015 0.0066,-0.0046 0.01022,-0.0062 0.03944,-0.0175 0.07869,-0.047 0.11813,-0.0754 0.04941,-0.03571 0.09926,-0.08101 0.148681,-0.134485 0.02436,-0.026 0.04897,-0.04524 0.07332,-0.0754 0.06877,-0.08639 0.136938,-0.193995 0.20571,-0.313798 0.09652,-0.16574 0.192695,-0.361941 0.289216,-0.592958 0.03284,-0.07887 0.06493,-0.176763 0.09776,-0.262857 0.07581,-0.198948 0.152302,-0.410791 0.228113,-0.650012 0.03065,-0.09555 0.061,-0.19387 0.09165,-0.29546 0.04816,-0.159822 0.09645,-0.342946 0.144608,-0.517565 0.126633,-0.458428 0.252198,-0.961752 0.378832,-1.518053 0.02746,-0.120254 0.05605,-0.228057 0.08351,-0.352515 0.143937,-0.651122 0.287849,-1.369109 0.431786,-2.129351 0.04968,-0.262192 0.101037,-0.541312 0.150718,-0.815062 0.0786,-0.433259 0.155628,-0.889487 0.234224,-1.348927 0.190535,-1.11235 0.38179,-2.280913 0.57232,-3.519032 0.01641,-0.106501 0.03247,-0.204529 0.04888,-0.311761 0.224685,-1.470056 0.449472,-3.003902 0.674156,-4.566386 0.363891,-2.531176 0.727797,-5.062824 1.091686,-7.551553 0.0999,-0.683364 0.199493,-1.412997 0.2994,-2.076371 0.129317,-0.861523 0.257661,-1.649067 0.386978,-2.45945 0.03712,-0.232703 0.0749,-0.507666 0.11202,-0.735594 0.01784,-0.109931 0.03511,-0.203041 0.05295,-0.311761 0.0717,-0.435321 0.144191,-0.835777 0.215893,-1.251121 0.123064,-0.714218 0.245582,-1.399672 0.368647,-2.045806 0.105456,-0.553679 0.212275,-1.10569 0.31773,-1.603635 0.02538,-0.1197 0.04997,-0.246466 0.07536,-0.362703 0.14603,-0.669783 0.291865,-1.271801 0.437895,-1.817588 0.04951,-0.184825 0.09917,-0.36441 0.148683,-0.533866 0.03915,-0.133985 0.07898,-0.27139 0.11813,-0.395305 0.09291,-0.294527 0.184088,-0.56708 0.276995,-0.802837 -0.397748,1.01817 -0.80122,2.050274 -1.254625,3.184856 -0.396643,0.996218 -0.816752,2.033776 -1.262772,3.113538 -0.212628,0.514106 -0.434943,1.039974 -0.663972,1.579182 -0.2167,0.510311 -0.440825,1.030101 -0.674158,1.560845 -0.284338,0.647507 -0.583091,1.307296 -0.89616,1.978564 -0.05031,0.106896 -0.100412,0.215054 -0.150718,0.321949 z"
       style="fill:#fce94f;fill-rule:evenodd;stroke:#231f0b;stroke-width:1.5;stroke-linecap:round;stroke-linejoin:round;stroke-dasharray:none;stroke-opacity:1"
       id="path824" />
    <path
       d="m 25.085277,38.716099 c -0.129317,0.861515 -0.257661,1.649068 -0.386978,2.45945 -0.03712,0.232703 -0.0749,0.507665 -0.11202,0.735594 -0.01784,0.109929 -0.03511,0.203043 -0.05295,0.311761 -0.0717,0.435321 -0.144191,0.835775 -0.215894,1.251121 -0.123416,0.716264 -0.245228,1.404139 -0.368647,2.051919 -0.103113,0.541206 -0.208508,1.081026 -0.311619,1.568995 -0.0284,0.134216 -0.05715,0.275609 -0.08554,0.405493 -0.144845,0.663573 -0.288975,1.259755 -0.433822,1.801288 -0.04968,0.185505 -0.099,0.36587 -0.148681,0.535903 -0.03915,0.133989 -0.07898,0.271387 -0.118131,0.395305 -0.0929,0.294535 -0.184088,0.567072 -0.276995,0.802837 0.200881,-0.513055 0.40205,-1.025376 0.602871,-1.538431 0.193727,-0.492679 0.392976,-1.000725 0.600835,-1.522128 0.3942,-0.991139 0.812503,-2.022851 1.254625,-3.095199 0.421302,-1.024007 0.8752,-2.089408 1.360534,-3.199119 0.295702,-0.674946 0.607942,-1.362987 0.934858,-2.064146 0.04994,-0.106078 0.09874,-0.213832 0.148681,-0.319911 0.07263,-0.153645 0.151649,-0.308622 0.226077,-0.462548 0.130748,-0.270101 0.26318,-0.5395 0.399199,-0.808949 0.03652,-0.07271 0.06899,-0.145262 0.10591,-0.21803 l 0.466411,-0.892493 c 1.108718,-2.047635 2.217321,-5.229293 3.325973,-7.789957 1.130128,-2.637667 2.261087,-4.456275 3.391152,-4.421714 h 1.222037 c -0.04994,-0.106078 -0.100787,-0.213832 -0.150718,-0.319911 -0.326911,-0.701101 -0.639179,-1.3892 -0.934859,-2.064145 -0.485328,-1.10977 -0.937165,-2.175112 -1.358497,-3.19912 -0.442134,-1.072406 -0.860395,-2.104118 -1.254624,-3.095199 -0.207877,-0.521344 -0.409172,-1.029449 -0.602872,-1.522128 -0.200805,-0.512996 -0.402065,-1.025434 -0.602871,-1.538431 -0.360527,-0.927269 -0.720924,-1.393512 -1.081502,-1.397831 -0.05629,0.0014 -0.11276,0.01309 -0.169049,0.03668 -0.0037,0.0015 -0.0066,0.0046 -0.01022,0.0062 -0.03944,0.01749 -0.07869,0.04701 -0.118131,0.0754 -0.04941,0.03571 -0.09926,0.08102 -0.148681,0.134485 -0.02436,0.026 -0.04897,0.04525 -0.07332,0.0754 -0.06644,0.08344 -0.133165,0.188974 -0.199599,0.30361 -0.09825,0.167515 -0.197075,0.367992 -0.295327,0.603146 -0.03284,0.07887 -0.06493,0.176764 -0.09776,0.262858 -0.07581,0.198941 -0.152305,0.4108 -0.228113,0.650012 -0.03065,0.09555 -0.061,0.193869 -0.09165,0.29546 -0.04816,0.159827 -0.09645,0.34294 -0.144608,0.517565 -0.12663,0.45843 -0.2522,0.961742 -0.378831,1.518053 -0.02746,0.120255 -0.05605,0.228056 -0.08351,0.352515 -0.143934,0.651134 -0.287851,1.369097 -0.431787,2.129349 -0.04968,0.262194 -0.101037,0.541313 -0.150718,0.815062 -0.0786,0.433266 -0.155627,0.889483 -0.234224,1.348929 -0.190534,1.112372 -0.381784,2.280904 -0.57232,3.519031 -0.01641,0.106501 -0.03247,0.204529 -0.04888,0.311761 -0.224691,1.470066 -0.449466,3.003906 -0.674156,4.566387 -0.363888,2.531173 -0.727797,5.062835 -1.091686,7.551552 -0.0999,0.683359 -0.199498,1.413004 -0.299399,2.076371 z"
       style="fill:#fce94f;fill-rule:evenodd;stroke:#231f0b;stroke-width:1.5;stroke-linecap:round;stroke-linejoin:round;stroke-dasharray:none;stroke-opacity:1"
       id="path822" />
    <path
       d="m 61.078333,13.249479 c -0.09745,0.268634 -0.193794,0.587384 -0.291252,0.921019 -0.04196,0.143907 -0.08431,0.297323 -0.126277,0.45236 -0.04275,0.157943 -0.08556,0.329937 -0.128314,0.499226 -0.130614,0.516704 -0.262465,1.083986 -0.393089,1.697367 -0.02531,0.119122 -0.05005,0.223906 -0.07536,0.346401 -0.134212,0.648061 -0.267023,1.358968 -0.401235,2.09471 -0.204104,1.119588 -0.408956,2.324566 -0.613055,3.604614 -0.30424,1.910458 -0.608239,3.968942 -0.912455,6.082402 -0.131752,0.91589 -0.263371,1.825533 -0.395125,2.750834 -0.212168,1.490494 -0.423275,2.98801 -0.635459,4.448203 -0.02887,0.198979 -0.0587,0.385219 -0.08757,0.582769 -0.04482,0.306259 -0.08961,0.602086 -0.134424,0.90472 -0.170903,1.154162 -0.340314,2.266498 -0.511218,3.343793 -0.04983,0.314598 -0.100892,0.633102 -0.150718,0.939358 -0.208348,1.278713 -0.416928,2.497934 -0.625276,3.596463 -0.0047,0.02484 -0.0095,0.05677 -0.01425,0.08151 -0.142378,0.751552 -0.283299,1.427832 -0.425676,2.06822 -0.01254,0.05643 -0.02615,0.127873 -0.0387,0.183389 -0.01221,0.05438 -0.02445,0.09118 -0.03666,0.144674 -0.149073,0.649405 -0.296973,1.248516 -0.446044,1.764609 -0.183538,0.636267 -0.368416,1.163908 -0.551953,1.579183 -0.03342,0.07584 -0.06638,0.139634 -0.0998,0.207842 -0.06004,0.122131 -0.121226,0.23301 -0.181268,0.330099 -0.05675,0.09213 -0.1123,0.185597 -0.169048,0.254708 -0.0019,0.0023 -0.0063,0.0079 -0.0081,0.01022 -0.07835,0.09391 -0.155879,0.165219 -0.234224,0.213954 -0.01619,0.01012 -0.03268,0.01833 -0.04888,0.02649 -0.02439,0.01219 -0.04893,0.02491 -0.07332,0.0326 -0.04553,0.01472 -0.09093,0.02328 -0.136461,0.02241 h 4.900368 c 0.360524,-0.0043 0.720919,-0.470563 1.081502,-1.397831 0.654459,-1.661529 1.309121,-4.827104 1.963406,-8.818974 z"
       style="fill:url(#linearGradient846);fill-rule:evenodd;stroke:#231f0b;stroke-width:1.5;stroke-linecap:round;stroke-linejoin:round;stroke-dasharray:none;stroke-opacity:1"
       id="path830" />
    <path
       d="m 25.72481,11.566375 c -0.360584,0.0043 -0.720978,0.470507 -1.081504,1.397831 -0.144496,0.367309 -0.287284,0.814354 -0.431785,1.320401 -0.05024,0.175921 -0.102508,0.395321 -0.152755,0.586845 -0.09531,0.363465 -0.189826,0.724492 -0.285142,1.141087 -0.05873,0.256651 -0.118461,0.549633 -0.177195,0.825251 -0.08596,0.403359 -0.170674,0.801566 -0.256628,1.24297 -0.06412,0.329374 -0.127332,0.687951 -0.191452,1.037167 -0.07386,0.402033 -0.148144,0.804292 -0.222004,1.230743 -0.13126,0.756645 -0.261828,1.625766 -0.393088,2.447225 -0.174716,1.093393 -0.35076,2.164037 -0.525476,3.339717 -0.148009,0.995779 -0.295997,2.022581 -0.444007,3.052408 -0.08837,0.614764 -0.17641,1.221854 -0.264775,1.842041 -0.08211,0.5763 -0.164332,1.134762 -0.246444,1.711631 -0.465589,3.271482 -0.931606,6.495149 -1.397195,9.340613 -0.05012,0.306346 -0.10061,0.589464 -0.150718,0.886381 -0.0828,0.490368 -0.165679,0.999661 -0.24848,1.460999 -0.04494,0.251204 -0.08947,0.463364 -0.134424,0.705029 -0.02709,0.145442 -0.05437,0.318676 -0.08147,0.46051 -0.05174,0.273116 -0.10305,0.517543 -0.154792,0.776347 -0.03563,0.177569 -0.07027,0.364971 -0.10591,0.535903 -0.130273,0.62609 -0.26282,1.205178 -0.393089,1.734046 -0.0293,0.119269 -0.05827,0.22406 -0.08757,0.338251 -0.106217,0.412598 -0.211514,0.790012 -0.317729,1.132936 -0.04523,0.14649 -0.09122,0.302917 -0.136461,0.436058 -0.02316,0.06804 -0.04608,0.131063 -0.06925,0.195615 -0.07545,0.210502 -0.150634,0.401231 -0.226077,0.572581 -0.01893,0.04327 -0.0381,0.09162 -0.05703,0.132448 -0.01082,0.02313 -0.02176,0.0531 -0.03259,0.0754 -0.07898,0.164435 -0.159313,0.30201 -0.238298,0.421795 -0.133766,0.204553 -0.267471,0.345905 -0.401236,0.419756 -0.0075,0.0042 -0.0149,0.0084 -0.0224,0.01223 -0.06951,0.03446 -0.138237,0.05744 -0.207747,0.05501 h 4.902405 c 0.360524,-0.0042 0.720977,-0.470565 1.081502,-1.397831 0.09265,-0.233885 0.184339,-0.509525 0.276995,-0.802837 0.03896,-0.123514 0.07917,-0.261943 0.118131,-0.395305 0.04986,-0.170647 0.09883,-0.34951 0.148681,-0.535903 0.144843,-0.540888 0.288978,-1.138826 0.433822,-1.801287 0.02823,-0.129338 0.05731,-0.271888 0.08554,-0.405494 0.103467,-0.488979 0.208158,-1.02596 0.31162,-1.568995 0.123489,-0.648162 0.245158,-1.336591 0.368647,-2.051919 0.07165,-0.415852 0.14424,-0.814629 0.215894,-1.251121 0.05507,-0.334347 0.109904,-0.702247 0.164974,-1.047355 0.124811,-0.782455 0.249947,-1.646519 0.374758,-2.473714 0.104041,-0.689517 0.207582,-1.350575 0.31162,-2.062107 0.361885,-2.475383 0.725711,-5.00381 1.087613,-7.520988 0.04274,-0.297421 0.08556,-0.601263 0.128314,-0.896568 0.390445,-2.699965 0.780671,-5.248772 1.171117,-7.531175 0.02868,-0.167436 0.05686,-0.365861 0.08554,-0.52979 0.0499,-0.286005 0.09878,-0.544187 0.148681,-0.819139 0.04963,-0.273583 0.101089,-0.552927 0.150717,-0.815062 0.144481,-0.762583 0.287307,-1.474425 0.431787,-2.12935 0.0086,-0.03868 0.01793,-0.08807 0.02648,-0.126334 0.01888,-0.08505 0.03815,-0.143243 0.05703,-0.22618 0.126587,-0.554433 0.252244,-1.059024 0.378831,-1.518054 0.04826,-0.174726 0.09634,-0.35757 0.144608,-0.517565 0.01555,-0.05161 0.03129,-0.117057 0.04684,-0.167087 0.01496,-0.04878 0.02984,-0.08116 0.04481,-0.128372 0.07574,-0.236179 0.15237,-0.451455 0.228113,-0.650013 0.03294,-0.08645 0.06482,-0.184011 0.09776,-0.262857 0.09856,-0.236678 0.196774,-0.433091 0.295327,-0.603146 0.06666,-0.113648 0.132941,-0.221095 0.199599,-0.30361 0.02422,-0.03042 0.04911,-0.04919 0.07332,-0.0754 0.0496,-0.05293 0.09909,-0.09879 0.148681,-0.134485 0.09954,-0.07193 0.197828,-0.120167 0.297363,-0.118184 z"
       style="fill:url(#linearGradient842);fill-rule:evenodd;stroke:#231f0b;stroke-width:1.5;stroke-linecap:round;stroke-linejoin:round;stroke-dasharray:none;stroke-opacity:1"
       id="path821" />
    <path
       d="m 35.39112,24.70314 c -1.130063,-0.03456 -2.261026,1.784052 -3.391152,4.421714 -1.10865,2.56066 -2.217258,5.742325 -3.325976,7.789957 -0.158901,0.297873 -0.309921,0.597891 -0.462338,0.896568 -0.03635,0.07122 -0.07401,0.14268 -0.109983,0.213955 -0.135924,0.270576 -0.268788,0.539246 -0.399199,0.808949 -0.07461,0.154127 -0.149112,0.308208 -0.222003,0.462548 h 1.395158 1.222037 c 0.633929,-0.01424 1.268478,-0.514306 1.902304,-1.503791 1.605066,-2.416483 3.209821,-7.736728 4.814825,-10.70788 0.388165,-0.726282 0.752264,-1.457762 1.10187,-2.192517 0.03017,-0.06322 0.06177,-0.126241 0.09165,-0.189503 h -1.395159 z"
       style="fill:#c4a000;fill-rule:evenodd;stroke:#231f0b;stroke-width:1.5;stroke-linecap:round;stroke-linejoin:round;stroke-dasharray:none;stroke-opacity:1"
       id="path823" />
    <path
       d="m 2.9216034,31.76158 c 0.2986409,-2.09979 0.5954141,-4.179555 0.8941235,-6.172059 0.014787,-0.09929 0.030021,-0.206634 0.044808,-0.305648 0.2396735,-1.596636 0.4793011,-3.080751 0.718965,-4.48488 0.02258,-0.132498 0.044633,-0.295484 0.067212,-0.42587 0.1525827,-0.88313 0.3056942,-1.705305 0.4582638,-2.479827 0.1244671,-0.632287 0.2482567,-1.219771 0.3727212,-1.770723 0.030388,-0.134246 0.061265,-0.256098 0.091653,-0.385118 0.1081124,-0.459933 0.2157293,-0.884089 0.3238397,-1.273534 0.026709,-0.09617 0.052723,-0.19563 0.079433,-0.287309 0.133125,-0.456827 0.2660767,-0.876351 0.3991987,-1.212406 -0.3977478,1.018229 -0.799182,2.050274 -1.2525877,3.184857 -0.1979725,0.496474 -0.4034521,1.004042 -0.6150918,1.526203 -0.2087318,0.515215 -0.4253979,1.045206 -0.6497163,1.587335 -0.295272,0.71441 -0.6056202,1.451484 -0.9328213,2.212893 z"
       style="fill:#fce94f;fill-rule:evenodd;stroke:#231f0b;stroke-width:1.5;stroke-linecap:round;stroke-linejoin:round;stroke-dasharray:none;stroke-opacity:1"
       id="path819" />
    <path
       d="m 7.4553597,11.566375 c -0.3605247,0.0043 -0.7229564,0.470565 -1.0835393,1.397831 -0.1335276,0.339601 -0.2656751,0.754089 -0.3991986,1.212406 -0.026721,0.09169 -0.052712,0.191054 -0.079433,0.287309 -0.1079173,0.388555 -0.2159217,0.815345 -0.3238396,1.273534 -0.030445,0.129518 -0.061209,0.250352 -0.091653,0.385118 -0.1242452,0.54888 -0.248471,1.139964 -0.3727211,1.770723 -0.17489,0.888431 -0.3505808,1.881031 -0.5254759,2.905697 -0.2380604,1.396919 -0.4768056,2.909663 -0.7148915,4.488955 -0.016002,0.106145 -0.03288,0.194834 -0.048882,0.301573 -0.298514,2.004445 -0.5956647,4.056505 -0.8941234,6.172059 v 14.60184 6.070176 h 0.2993989 c 0.3605255,-0.0043 0.7209189,-0.470563 1.0815025,-1.397831 0.1299956,-0.330694 0.2590196,-0.732519 0.3890151,-1.175727 0.016875,-0.05752 0.034043,-0.111836 0.050918,-0.171164 0.060151,-0.211468 0.1211179,-0.469276 0.1812687,-0.702991 0.1068236,-0.41542 0.2129428,-0.84735 0.3197664,-1.328552 0.054506,-0.24531 0.1084319,-0.5048 0.1629382,-0.766158 0.1078783,-0.517491 0.2159615,-1.060849 0.3238397,-1.636237 0.047492,-0.253479 0.095079,-0.504166 0.142571,-0.768196 0.070132,-0.389395 0.1416874,-0.814045 0.2118197,-1.224631 0.1575895,-0.922166 0.314924,-1.928623 0.4725209,-2.9383 0.2081854,-1.333536 0.4150502,-2.695101 0.6232388,-4.126253 0.1562161,-1.073614 0.31223,-2.124551 0.4684474,-3.221533 0.2266774,-1.590695 0.4535802,-3.188075 0.6802679,-4.753851 0.5128674,-3.546547 1.026899,-6.886504 1.5397671,-9.609584 0.012232,-0.06475 0.024433,-0.143833 0.036665,-0.207841 0.1356624,-0.716137 0.2716814,-1.363164 0.4073454,-1.978563 0.01046,-0.04743 0.02009,-0.108066 0.03055,-0.154863 0.01276,-0.05747 0.02593,-0.0963 0.0387,-0.152823 0.152457,-0.671431 0.303771,-1.295319 0.456227,-1.827777 0.187205,-0.65453 0.374934,-1.190824 0.562139,-1.615861 0.03525,-0.08028 0.07067,-0.148264 0.105908,-0.220067 0.05656,-0.1149 0.112485,-0.221116 0.16905,-0.313799 0.05213,-0.08561 0.104695,-0.174218 0.156826,-0.240444 0.01099,-0.01391 0.0216,-0.02974 0.03259,-0.04279 0.07791,-0.09285 0.156315,-0.161715 0.234225,-0.209878 0.01095,-0.0068 0.02163,-0.01239 0.03259,-0.01834 0.0313,-0.01678 0.06238,-0.03342 0.09369,-0.04278 0.04389,-0.01364 0.08647,-0.02125 0.13035,-0.02038 z"
       style="fill:url(#linearGradient840);fill-rule:evenodd;stroke:#231f0b;stroke-width:1.5;stroke-linecap:round;stroke-linejoin:round;stroke-dasharray:none;stroke-opacity:1"
       id="path817" />
    <path
       d="m 43.996295,11.566375 c -0.360524,0.0043 -0.720977,0.470507 -1.081502,1.397831 -0.09265,0.23388 -0.184339,0.509533 -0.276995,0.802837 -0.03896,0.123511 -0.07917,0.261947 -0.11813,0.395305 -0.04968,0.170041 -0.099,0.34819 -0.148682,0.533866 -0.146022,0.545129 -0.291871,1.148939 -0.437895,1.817589 -0.02524,0.115749 -0.05013,0.243539 -0.07536,0.362702 -0.105818,0.498985 -0.211911,1.048056 -0.31773,1.603636 -0.123132,0.646491 -0.245515,1.332545 -0.368647,2.045806 -0.07165,0.415855 -0.144241,0.814624 -0.215893,1.25112 -0.05507,0.334348 -0.109904,0.702247 -0.164976,1.047355 -0.124806,0.782455 -0.249942,1.646518 -0.374754,2.473714 -0.10404,0.689521 -0.207581,1.350571 -0.311619,2.062107 -0.361897,2.47541 -0.725721,5.0038 -1.087612,7.520988 -0.04276,0.297422 -0.08556,0.601262 -0.128314,0.896569 -0.39044,2.69998 -0.780674,5.248792 -1.171118,7.531175 -0.02868,0.167433 -0.05687,0.365865 -0.08554,0.52979 -0.0499,0.286006 -0.09878,0.544186 -0.148682,0.819137 -0.04963,0.273581 -0.101089,0.552931 -0.150717,0.815062 -0.144482,0.762586 -0.287303,1.474431 -0.431786,2.129351 -0.0086,0.03869 -0.01793,0.08807 -0.02648,0.126335 -0.01888,0.08505 -0.03815,0.143244 -0.05703,0.22618 -0.12659,0.554428 -0.252242,1.059035 -0.378832,1.518053 -0.04826,0.174726 -0.09634,0.35757 -0.144608,0.517565 -0.01555,0.05161 -0.03129,0.117059 -0.04684,0.167087 -0.01496,0.04878 -0.02985,0.08116 -0.04481,0.128373 -0.07575,0.23618 -0.152368,0.451451 -0.228114,0.650012 -0.03294,0.08646 -0.06482,0.184009 -0.09776,0.262858 -0.0962,0.231035 -0.193015,0.425373 -0.289216,0.592957 -0.06839,0.117435 -0.13732,0.229136 -0.20571,0.313799 -0.02423,0.03044 -0.04908,0.04917 -0.07332,0.0754 -0.04959,0.05293 -0.09909,0.09879 -0.148681,0.134485 -0.09952,0.07194 -0.197832,0.120158 -0.297362,0.118183 h 4.902404 c 0.360584,-0.0042 0.720919,-0.470563 1.081503,-1.397831 0.128846,-0.327784 0.256096,-0.72717 0.384941,-1.165539 0.04917,-0.167307 0.09951,-0.363697 0.148682,-0.546091 0.08055,-0.29879 0.161829,-0.603945 0.242369,-0.941398 0.05554,-0.232751 0.111468,-0.483318 0.167013,-0.733556 0.0787,-0.354464 0.155528,-0.718886 0.234223,-1.106447 0.04854,-0.239189 0.0981,-0.482334 0.146645,-0.733556 0.0611,-0.315962 0.122204,-0.654367 0.183305,-0.988263 0.122593,-0.669385 0.244019,-1.414951 0.366611,-2.147688 0.169968,-1.015808 0.341251,-2.058652 0.511219,-3.168556 0.09795,-0.63944 0.195336,-1.277882 0.293289,-1.939848 0.222512,-1.503543 0.445534,-3.026354 0.668046,-4.5888 0.340986,-2.392508 0.683484,-4.78039 1.024475,-7.06659 0.143327,-0.960654 0.286429,-1.885143 0.429749,-2.791588 0.07165,-0.453343 0.142207,-0.929322 0.213857,-1.36523 0.195988,-1.192074 0.392663,-2.321845 0.588614,-3.347868 0.02228,-0.117599 0.04493,-0.219207 0.06721,-0.334176 0.0083,-0.04259 0.01612,-0.09838 0.02444,-0.140597 0.03034,-0.155517 0.06131,-0.291677 0.09165,-0.442172 0.05785,-0.28644 0.115265,-0.571618 0.173122,-0.839514 0.04154,-0.192606 0.08271,-0.369476 0.12424,-0.552205 0.05565,-0.244571 0.111351,-0.492803 0.167011,-0.719292 0.05774,-0.23508 0.115387,-0.44727 0.173122,-0.662238 0.04055,-0.150993 0.07962,-0.311491 0.120167,-0.45236 0.05604,-0.194599 0.11301,-0.36522 0.169049,-0.539978 0.0463,-0.144418 0.09219,-0.297334 0.138497,-0.427908 0.05671,-0.159917 0.114375,-0.291313 0.171086,-0.429946 0.04248,-0.103889 0.08583,-0.220071 0.128314,-0.311761 0.06193,-0.133583 0.121378,-0.235264 0.183305,-0.342326 0.04041,-0.06994 0.0818,-0.155564 0.122203,-0.213954 0.02053,-0.02963 0.04057,-0.0549 0.0611,-0.08151 0.02964,-0.03842 0.05998,-0.07798 0.08962,-0.110034 0.01668,-0.01808 0.0322,-0.03082 0.04888,-0.04686 0.03275,-0.03151 0.06704,-0.06404 0.0998,-0.08762 0.04835,-0.03442 0.100339,-0.06255 0.148681,-0.07947 0.04915,-0.0169 0.09955,-0.02599 0.148681,-0.02446 z"
       style="fill:url(#linearGradient844);fill-rule:evenodd;stroke:#231f0b;stroke-width:1.5;stroke-linecap:round;stroke-linejoin:round;stroke-dasharray:none;stroke-opacity:1"
       id="path825" />
    <path
       d="m 61.078333,42.216791 c -0.654287,3.991879 -1.308945,7.157443 -1.963406,8.818974 0.406704,-1.045375 0.837998,-2.138512 1.293322,-3.280626 0.215305,-0.539384 0.438438,-1.094612 0.670084,-1.664765 z"
       style="fill:#fce94f;fill-rule:evenodd;stroke:#231f0b;stroke-width:1.5;stroke-linecap:round;stroke-linejoin:round;stroke-dasharray:none;stroke-opacity:1"
       id="path831" />
    <path
       d="m 17.119634,24.70314 c -1.119487,-0.03345 -2.239136,1.748578 -3.358564,4.348358 -1.119429,2.572649 -2.239136,5.796275 -3.358564,7.863313 -0.308718,0.583152 -0.6032442,1.173454 -0.8961607,1.764607 -0.100224,0.205386 -0.1981527,0.411642 -0.2953265,0.61741 h 1.3890492 0.0062 1.22 c 0.938847,0.01739 1.878006,-1.204786 2.816795,-3.162442 0.938789,-1.938058 1.878121,-4.547856 2.816795,-6.748715 0.36122,-0.855488 0.722318,-1.621903 1.083538,-2.300514 0.159058,-0.298122 0.309778,-0.597636 0.462337,-0.896569 0.01048,-0.02053 0.02214,-0.0406 0.03259,-0.06113 0.02899,-0.05698 0.05882,-0.114147 0.08757,-0.171163 0.137469,-0.273943 0.269417,-0.546194 0.401234,-0.819138 0.06994,-0.144689 0.141361,-0.289144 0.209783,-0.434021 h -1.391084 -0.0041 z"
       style="fill:#c4a000;fill-rule:evenodd;stroke:#231f0b;stroke-width:1.5;stroke-linecap:round;stroke-linejoin:round;stroke-dasharray:none;stroke-opacity:1"
       id="path828" />
    <path
       d="m 53.660569,24.70314 c -0.169745,8.91e-4 -0.339422,0.04447 -0.509181,0.118185 -0.08423,0.0372 -0.16833,0.08293 -0.252554,0.13856 -0.03273,0.02119 -0.06503,0.03723 -0.09776,0.06113 -0.101903,0.07567 -0.203611,0.172272 -0.30551,0.273046 -0.01902,0.01881 -0.03801,0.03129 -0.05703,0.05094 -0.03435,0.03486 -0.06952,0.07633 -0.103873,0.114109 -0.106883,0.11891 -0.212885,0.247271 -0.319767,0.39123 -0.02422,0.0327 -0.0491,0.06585 -0.07332,0.09984 -0.105676,0.147703 -0.210015,0.310773 -0.315693,0.480886 -0.03572,0.05793 -0.07223,0.112802 -0.107946,0.173201 -0.07905,0.132642 -0.157202,0.277752 -0.236261,0.421795 -0.269294,0.494068 -0.539292,1.050446 -0.80858,1.650501 -0.03909,0.08782 -0.07905,0.170929 -0.118131,0.26082 -0.08156,0.185392 -0.162852,0.386472 -0.244408,0.578695 -0.523918,1.236273 -1.048426,2.570656 -1.572353,3.861356 -0.173689,0.427705 -0.347712,0.838491 -0.521402,1.245008 -0.110579,0.258932 -0.221408,0.524353 -0.331987,0.770234 -0.03274,0.07279 -0.06502,0.142493 -0.09776,0.213954 -0.213963,0.466984 -0.427602,0.913054 -0.64157,1.308174 -0.169814,0.318298 -0.332526,0.638476 -0.494924,0.957699 -0.02896,0.05693 -0.05886,0.1142 -0.08758,0.171163 -0.145674,0.290336 -0.286332,0.578802 -0.425676,0.868041 -0.06187,0.128345 -0.124661,0.256622 -0.185342,0.385118 h 1.389049 0.0062 1.222037 c 0.0992,0.0013 0.198167,-0.01126 0.297362,-0.03668 0.0081,-0.0021 0.01631,-0.0039 0.02444,-0.0062 0.06336,-0.0176 0.126059,-0.04934 0.189416,-0.07743 0.08341,-0.03703 0.167101,-0.08143 0.250517,-0.136523 0.03781,-0.02475 0.07624,-0.04711 0.114057,-0.0754 0.127015,-0.09602 0.253855,-0.205668 0.380869,-0.340288 0.128915,-0.136849 0.262137,-0.299179 0.391052,-0.472737 0.02623,-0.03519 0.05117,-0.07336 0.0774,-0.110032 0.07505,-0.105162 0.151027,-0.223716 0.226077,-0.340289 0.172144,-0.267848 0.343141,-0.552164 0.515292,-0.87823 0.0054,-0.01002 0.01092,-0.01842 0.0163,-0.02852 0.193943,-0.365993 0.388557,-0.770589 0.582505,-1.194066 0.0366,-0.08009 0.07338,-0.162532 0.109982,-0.244518 0.110065,-0.245304 0.219885,-0.504041 0.329951,-0.762084 0.169444,-0.397506 0.339737,-0.807176 0.509182,-1.224631 0.314896,-0.775536 0.628118,-1.561244 0.943005,-2.345342 0.180122,-0.447764 0.361647,-0.868634 0.541769,-1.297987 0.121671,-0.289723 0.242905,-0.594573 0.364574,-0.870078 0.284441,-0.644952 0.568949,-1.245481 0.85339,-1.770723 0.159265,-0.298662 0.309588,-0.599259 0.462337,-0.898606 0.01047,-0.02052 0.02215,-0.0406 0.03259,-0.06113 0.03791,-0.07451 0.07656,-0.149593 0.114057,-0.224143 0.120512,-0.240785 0.238253,-0.479295 0.354391,-0.719292 0.07743,-0.159731 0.154567,-0.318921 0.23015,-0.47885 h -1.391085 -0.0062 z"
       style="fill:#c4a000;fill-rule:evenodd;stroke:#231f0b;stroke-width:1.5;stroke-linecap:round;stroke-linejoin:round;stroke-dasharray:none;stroke-opacity:1"
       id="path827" />
    <path
       d="m 12.382205,14.380377 c 0.0877,0.223667 0.174961,0.448207 0.262737,0.672426 0.194679,0.495101 0.396705,1.003999 0.604908,1.526204 0.396722,0.997361 0.816891,2.03492 1.260736,3.111501 0.426241,1.035988 0.88558,2.113012 1.374791,3.231721 0.06753,0.154181 0.144745,0.317103 0.213856,0.472736 -1.632298,0.64538 -2.75954,2.843211 -3.712955,5.057461 -1.137896,2.615091 -2.237884,5.783122 -3.3015355,7.747168 l -0.012222,0.02038 -0.4664108,0.892494 -0.012221,0.02445 -0.026478,0.05501 c -0.011474,0.02268 -0.017952,0.03766 -0.028514,0.05909 0.042169,-0.285081 0.083995,-0.546884 0.1262772,-0.837476 0.1729442,-1.188873 0.3458482,-2.361682 0.5193656,-3.580162 0.3464521,-2.435364 0.6931898,-4.867358 1.0387315,-7.166435 0.01803,-0.119941 0.03364,-0.237546 0.04888,-0.33825 0.181367,-1.199482 0.362848,-2.357354 0.541769,-3.4416 0,0 -0.0047,0.02348 0.0062,-0.0428 0.173965,-1.052919 0.349765,-2.034955 0.523439,-2.9546 0.145474,-0.772398 0.289822,-1.486549 0.433823,-2.13954 0.02203,-0.09991 0.04358,-0.197471 0.06721,-0.301572 0.149353,-0.661561 0.294301,-1.249295 0.43586,-1.744233 0.03476,-0.121378 0.06777,-0.212786 0.10184,-0.323988 z"
       style="fill:#edd400;fill-rule:evenodd;stroke:#fce94f;stroke-width:1.5;stroke-linecap:round;stroke-linejoin:round;stroke-dasharray:none;stroke-opacity:1"
       id="path832" />
    <path
       d="m 20.402839,26.759134 c -0.107518,0.73433 -0.216607,1.4689 -0.32384,2.214932 -0.0886,0.616447 -0.177264,1.209175 -0.266811,1.837966 -0.547339,3.846016 -1.092269,7.694512 -1.63753,11.027793 -0.04917,0.300535 -0.09771,0.576333 -0.148681,0.878229 -0.126332,0.748537 -0.25316,1.467019 -0.378831,2.141576 -0.07872,0.42325 -0.155179,0.834786 -0.232187,1.218519 -0.0371,0.185548 -0.07064,0.363967 -0.103873,0.523677 -0.126545,0.607037 -0.254929,1.168443 -0.380868,1.681066 -0.02655,0.10777 -0.05196,0.201474 -0.08351,0.323987 -0.09643,0.375794 -0.189874,0.707991 -0.283105,1.012715 -0.294735,-0.752847 -0.585521,-1.494633 -0.916528,-2.322928 -0.399429,-1.003155 -0.824742,-2.048901 -1.272955,-3.133914 -0.214306,-0.518045 -0.435027,-1.047736 -0.66601,-1.59141 -0.218852,-0.515378 -0.446388,-1.04072 -0.682303,-1.577144 -0.05649,-0.128653 -0.11961,-0.263725 -0.177195,-0.393268 1.363422,-0.54506 2.351431,-2.158215 3.144708,-3.812454 0.968399,-1.999186 1.919655,-4.642865 2.847344,-6.817996 0.347202,-0.822287 0.689789,-1.547702 1.026511,-2.180291 l 0.0062,-0.01022 0.46641,-0.892494 0.01222,-0.02445 0.02648,-0.05501 c 0.01077,-0.02129 0.01526,-0.03009 0.02444,-0.0489 z"
       style="fill:#edd400;fill-rule:evenodd;stroke:#fce94f;stroke-width:1.5;stroke-linecap:round;stroke-linejoin:round;stroke-dasharray:none;stroke-opacity:1"
       id="path833" />
    <path
       d="m 30.651654,14.378339 c 0.08801,0.224478 0.176694,0.449446 0.264774,0.674464 0.19467,0.495143 0.396704,1.004038 0.604909,1.526204 0.396743,0.997401 0.816866,2.03489 1.260735,3.111501 0.425623,1.034439 0.88278,2.111327 1.372754,3.231721 0.06772,0.154589 0.144491,0.316894 0.213856,0.472736 -1.65019,0.65075 -2.782234,2.884516 -3.745543,5.132855 -1.126226,2.601254 -2.213433,5.72616 -3.266911,7.671774 l -0.01222,0.02038 -0.46641,0.892494 -0.0081,0.01631 c -0.02524,0.04975 -0.03864,0.07749 -0.05703,0.116146 0.01851,-0.129213 0.03858,-0.261005 0.05703,-0.387154 0.364157,-2.49054 0.72781,-5.024536 1.091686,-7.555628 0.22436,-1.560191 0.448308,-3.08984 0.67212,-4.55416 0.01566,-0.102419 0.03175,-0.198555 0.04888,-0.309724 0.189143,-1.229069 0.378995,-2.389688 0.568247,-3.494579 0.07877,-0.460503 0.152718,-0.905774 0.23015,-1.332627 0.04929,-0.271604 0.09988,-0.547309 0.148681,-0.804874 0.142285,-0.751526 0.283663,-1.451289 0.42364,-2.084521 0.02348,-0.106456 0.05028,-0.207803 0.08147,-0.344364 0.122585,-0.538536 0.242785,-1.017273 0.362539,-1.450811 0.04972,-0.18029 0.09211,-0.3425 0.134423,-0.482925 0.0069,-0.02271 0.01362,-0.04311 0.02037,-0.06521 z"
       style="fill:#edd400;fill-rule:evenodd;stroke:#fce94f;stroke-width:1.5;stroke-linecap:round;stroke-linejoin:round;stroke-dasharray:none;stroke-opacity:1"
       id="path834" />
    <path
       d="m 38.676362,26.750984 c -0.0187,0.130569 -0.0384,0.26378 -0.05703,0.39123 -0.364155,2.490551 -0.727805,5.024526 -1.091686,7.555627 -0.224329,1.560022 -0.448372,3.090242 -0.67212,4.554161 -0.01566,0.102419 -0.03175,0.19855 -0.04888,0.309724 -0.189137,1.229058 -0.378993,2.389708 -0.568247,3.494579 -0.07877,0.460498 -0.152717,0.905779 -0.23015,1.332627 -0.04929,0.271605 -0.09988,0.547316 -0.148681,0.804873 -0.142288,0.751529 -0.283662,1.451313 -0.42364,2.084522 -0.02348,0.106456 -0.05029,0.207816 -0.08147,0.344364 -0.122593,0.538548 -0.242788,1.017302 -0.362537,1.450811 -0.04972,0.180296 -0.09211,0.342507 -0.134425,0.482925 -0.0071,0.02335 -0.01343,0.04453 -0.02037,0.06724 -0.295245,-0.754178 -0.586968,-1.497246 -0.918564,-2.327003 -0.399441,-1.003144 -0.824817,-2.048853 -1.272955,-3.133914 -0.214328,-0.518154 -0.435002,-1.047709 -0.66601,-1.59141 -0.219936,-0.517814 -0.449793,-1.043778 -0.684341,-1.577144 -0.05755,-0.131073 -0.122558,-0.269386 -0.181268,-0.401419 0.874516,-0.350162 1.581826,-1.111405 2.134491,-1.968376 l 0.01022,-0.01631 c 1.754332,-2.652543 3.352867,-7.988834 4.880001,-10.815876 0.185191,-0.347143 0.363108,-0.694445 0.537696,-1.041242 z"
       style="fill:#edd400;fill-rule:evenodd;stroke:#fce94f;stroke-width:1.5;stroke-linecap:round;stroke-linejoin:round;stroke-dasharray:none;stroke-opacity:1"
       id="path835" />
    <path
       d="m 48.923141,14.380377 c 0.08786,0.224113 0.176808,0.447694 0.264774,0.672426 0.194659,0.495138 0.396744,1.004094 0.604908,1.526204 0.396745,0.997476 0.816918,2.034927 1.260734,3.111501 0.425626,1.034572 0.882792,2.111369 1.372756,3.231721 0.06974,0.159212 0.148477,0.326462 0.219966,0.487 -0.02996,0.01216 -0.06437,0.02462 -0.09165,0.03668 -0.178072,0.07734 -0.340429,0.17053 -0.470483,0.254707 l -0.01222,0.0062 c 0,0 0.0069,-0.01763 -0.164975,0.110034 -0.156199,0.114761 -0.307428,0.243058 -0.456227,0.389192 -0.01192,0.01153 0.0033,-0.003 -0.0062,0.0062 -0.0021,0.0021 -0.004,0.0041 -0.0062,0.0062 -0.08225,0.08144 -0.06721,0.07335 -0.06721,0.07335 l -0.01022,0.01022 c -0.05425,0.05605 -0.113138,0.122767 -0.136461,0.148749 -0.143316,0.157647 -0.280586,0.326053 -0.413456,0.505339 -0.02312,0.03115 -0.05529,0.07427 -0.08962,0.122258 -0.131508,0.184474 -0.255328,0.376522 -0.368648,0.560356 -0.02952,0.04753 -0.0776,0.120053 -0.126276,0.201728 -0.09274,0.156826 -0.181334,0.322689 -0.258665,0.464586 -0.29396,0.535587 -0.58372,1.127632 -0.863573,1.756458 -0.03541,0.0789 -0.07765,0.171173 -0.12424,0.277122 -0.0108,0.02484 -0.0293,0.06389 -0.05092,0.114108 -0.07216,0.165849 -0.141092,0.338758 -0.1996,0.476812 -0.128714,0.303375 -0.264641,0.616088 -0.399199,0.94751 -0.06128,0.150491 -0.123958,0.304072 -0.185342,0.456435 -0.140614,0.348641 -0.28034,0.697209 -0.421602,1.05143 -0.191328,0.4799 -0.38243,0.955778 -0.574357,1.428397 -0.169054,0.416464 -0.338255,0.815542 -0.51122,1.220556 -0.11205,0.262252 -0.215395,0.51171 -0.319765,0.743743 -0.03057,0.06799 -0.0601,0.130452 -0.09369,0.203767 -0.208087,0.454132 -0.406919,0.865818 -0.598798,1.220555 l -0.01022,0.02038 -0.496962,0.953622 -0.0081,0.01631 c -0.0084,0.01667 -0.01089,0.02356 -0.01833,0.03872 0.02852,-0.184493 0.05668,-0.364313 0.08554,-0.562394 0.166929,-1.146717 0.332374,-2.311203 0.498998,-3.480315 0.03824,-0.26825 0.07854,-0.533037 0.118131,-0.810988 0.301758,-2.121623 0.603129,-4.226755 0.904306,-6.245414 0.142792,-0.95735 0.284635,-1.874114 0.427713,-2.779363 0.07236,-0.457614 0.143697,-0.930373 0.213856,-1.357078 0.216185,-1.315234 0.432763,-2.538741 0.64768,-3.639253 0.03773,-0.194745 0.0751,-0.377661 0.114057,-0.570544 0.05755,-0.285416 0.113755,-0.56474 0.169049,-0.821174 0.03998,-0.185153 0.07812,-0.351133 0.120166,-0.535904 0.05615,-0.247068 0.107614,-0.475844 0.160902,-0.692803 0.05356,-0.217945 0.106937,-0.415557 0.164975,-0.631673 0.04384,-0.163239 0.07992,-0.307331 0.114057,-0.425871 0.02904,-0.100906 0.06045,-0.20044 0.09165,-0.297497 z"
       style="fill:#edd400;fill-rule:evenodd;stroke:#fce94f;stroke-width:1.5;stroke-linecap:round;stroke-linejoin:round;stroke-dasharray:none;stroke-opacity:1"
       id="path836" />
    <path
       d="m 56.939702,26.773398 c -0.03083,0.210003 -0.0629,0.397058 -0.09369,0.60926 -0.06493,0.446179 -0.129109,0.903394 -0.193489,1.350966 -0.131755,0.915333 -0.263173,1.825899 -0.395125,2.752872 -0.240955,1.692218 -0.482461,3.380899 -0.723039,5.024859 -0.04445,0.304096 -0.08732,0.598362 -0.132387,0.902681 -0.170045,1.14823 -0.339501,2.258265 -0.509182,3.329529 -0.04969,0.313242 -0.101246,0.629599 -0.150718,0.933247 -0.207623,1.276061 -0.41172,2.478747 -0.617128,3.557747 -0.144462,0.761682 -0.288829,1.459929 -0.431787,2.102861 -0.02315,0.104098 -0.04738,0.206911 -0.07332,0.319911 -0.145395,0.637094 -0.285195,1.203164 -0.423639,1.683104 -0.03075,0.106452 -0.05966,0.185075 -0.08962,0.283234 -0.295175,-0.753951 -0.58509,-1.497482 -0.916527,-2.327003 -0.399458,-1.003346 -0.824779,-2.048989 -1.272955,-3.133914 -0.214358,-0.518226 -0.435109,-1.047853 -0.66601,-1.59141 -0.219957,-0.517981 -0.449802,-1.043853 -0.684341,-1.577144 -0.05791,-0.131878 -0.124228,-0.270607 -0.183305,-0.403456 0.03456,-0.01401 0.07263,-0.02892 0.103874,-0.0428 0.155404,-0.06891 0.312582,-0.153398 0.470484,-0.256744 0.01069,-0.0071 0.105547,-0.06395 0.185342,-0.124297 0.197359,-0.147575 0.385576,-0.315588 0.568247,-0.507376 l 0.01022,-0.01223 c 0.04645,-0.0498 0.01908,-0.01945 0.01022,-0.01022 l 0.0081,-0.0081 c 0.174145,-0.18561 0.333871,-0.385784 0.480668,-0.58277 0.04409,-0.05934 0.0797,-0.112842 0.09369,-0.132447 0.0993,-0.138853 0.192938,-0.284432 0.266812,-0.39938 0.422005,-0.65549 0.82747,-1.438259 1.215926,-2.288288 0.03929,-0.08579 0.07933,-0.176843 0.116093,-0.258783 0.05651,-0.126588 0.124004,-0.267839 0.189416,-0.419756 0.05887,-0.135292 0.109749,-0.268635 0.150718,-0.364741 0.173307,-0.406307 0.346902,-0.824332 0.519366,-1.249082 0.318985,-0.785876 0.637574,-1.582516 0.955226,-2.371832 0.173166,-0.43077 0.344483,-0.829065 0.523439,-1.255196 0.401221,-0.956372 0.781484,-1.820674 1.152788,-2.506317 l 0.01222,-0.02038 0.466412,-0.892493 0.01222,-0.02445 0.02648,-0.05501 c 0.0073,-0.01447 0.01154,-0.0209 0.01833,-0.03464 z"
       style="fill:#edd400;fill-rule:evenodd;stroke:#fce94f;stroke-width:1.5;stroke-linecap:round;stroke-linejoin:round;stroke-dasharray:none;stroke-opacity:1"
       id="path837" />
  </g>
</svg>
